<svg width="214" height="38" viewBox="0 0 214 38" fill="none" xmlns="http://www.w3.org/2000/svg">
<path d="M0.5 36.3354L3.30207 35.8785V13.7056L0.5 13.2792V12.6091H12.1651C14.3987 12.6091 16.3784 13.1168 18.1043 14.132C19.8505 15.1269 21.211 16.5483 22.1856 18.396C23.1602 20.2235 23.6475 22.3555 23.6475 24.7921C23.6475 27.2286 23.1602 29.3708 22.1856 31.2186C21.211 33.046 19.8505 34.4673 18.1043 35.4826C16.3581 36.4775 14.3784 36.975 12.1651 36.975H0.5V36.3354ZM12.1651 36.244C13.6474 36.244 14.9571 35.8988 16.0941 35.2085C17.2515 34.5181 18.1551 33.4927 18.8048 32.1323C19.4546 30.7515 19.7795 29.0865 19.7795 27.1373V22.4469C19.7795 20.4976 19.4546 18.8427 18.8048 17.4823C18.1551 16.1219 17.2515 15.0965 16.0941 14.4061C14.9571 13.7158 13.6474 13.3706 12.1651 13.3706H6.65237V36.244H12.1651Z" fill="white"/>
<path d="M26.4958 36.975V36.3354L29.2978 35.8785V13.7056L26.4958 13.2792V12.6091H35.4502V13.2792L32.6482 13.7056V35.8785L35.4502 36.3354V36.975H26.4958Z" fill="white"/>
<path d="M35.8164 36.975V36.3354L38.8012 35.1171L47.6034 12H48.0907L56.4056 35.8785L59.2076 36.3354V36.975H50.2532V36.3354L52.7507 35.9394L50.1618 28.7211H42.0602L39.5931 35.1171L42.3343 36.3354V36.975H35.8164ZM42.3038 28.0815H49.9486L46.2937 17.3605L42.3038 28.0815Z" fill="white"/>
<path d="M72.4489 37.2796L63.3727 13.7056V35.1171L66.2966 36.3354V36.975H59.7787V36.3354L62.6417 35.1171V13.7056L59.8396 13.2792V12.6091H66.5707L74.2155 32.1627L82.0125 12.6091H88.1649V13.2792L85.3628 13.7056V35.8785L88.1649 36.3354V36.975H79.2105V36.3354L82.0125 35.8785V14.6193L72.9972 37.2796H72.4489Z" fill="white"/>
<path d="M102.502 37.5841C100.288 37.5841 98.3088 37.046 96.5625 35.9699C94.8163 34.8937 93.4559 33.3912 92.4813 31.4622C91.5066 29.5129 91.0193 27.2896 91.0193 24.7921C91.0193 22.2946 91.5066 20.0813 92.4813 18.1524C93.4559 16.2031 94.8163 14.6904 96.5625 13.6142C98.3088 12.5381 100.288 12 102.502 12C104.715 12 106.695 12.5381 108.441 13.6142C110.187 14.6904 111.548 16.2031 112.522 18.1524C113.497 20.0813 113.984 22.2946 113.984 24.7921C113.984 27.2896 113.497 29.5129 112.522 31.4622C111.548 33.3912 110.187 34.8937 108.441 35.9699C106.695 37.046 104.715 37.5841 102.502 37.5841ZM102.502 36.8836C103.964 36.8836 105.273 36.4978 106.431 35.7262C107.608 34.9546 108.532 33.8379 109.202 32.3759C109.872 30.8937 110.207 29.1475 110.207 27.1373V22.4469C110.207 20.4367 109.872 18.7006 109.202 17.2387C108.532 15.7564 107.608 14.6295 106.431 13.8579C105.273 13.0863 103.964 12.7005 102.502 12.7005C101.019 12.7005 99.6997 13.0863 98.5423 13.8579C97.3849 14.6295 96.4712 15.7564 95.8011 17.2387C95.1311 18.7006 94.796 20.4367 94.796 22.4469V27.1373C94.796 29.1475 95.1311 30.8937 95.8011 32.3759C96.4712 33.8379 97.3849 34.9546 98.5423 35.7262C99.6997 36.4978 101.019 36.8836 102.502 36.8836Z" fill="white"/>
<path d="M116.948 36.975V36.3354L119.78 35.1171V14.467L116.948 13.2792V12.6091H122.613L135.74 31.0054V14.467L132.907 13.2792V12.6091H139.395V13.2792L136.501 14.467V36.975H135.74L120.542 15.6244V35.1171L123.466 36.3354V36.975H116.948Z" fill="white"/>
<path d="M141.662 36.3354L144.464 35.8785V13.7056L141.662 13.2792V12.6091H153.328C155.561 12.6091 157.541 13.1168 159.267 14.132C161.013 15.1269 162.373 16.5483 163.348 18.396C164.323 20.2235 164.81 22.3555 164.81 24.7921C164.81 27.2286 164.323 29.3708 163.348 31.2186C162.373 33.046 161.013 34.4673 159.267 35.4826C157.521 36.4775 155.541 36.975 153.328 36.975H141.662V36.3354ZM153.328 36.244C154.81 36.244 156.119 35.8988 157.257 35.2085C158.414 34.5181 159.318 33.4927 159.967 32.1323C160.617 30.7515 160.942 29.0865 160.942 27.1373V22.4469C160.942 20.4976 160.617 18.8427 159.967 17.4823C159.318 16.1219 158.414 15.0965 157.257 14.4061C156.119 13.7158 154.81 13.3706 153.328 13.3706H147.815V36.244H153.328Z" fill="white"/>
<path d="M167.658 36.3354L170.46 35.8785V13.7056L167.658 13.2792V12.6091H176.948C179.141 12.6091 180.887 12.8122 182.186 13.2183C183.486 13.6244 184.43 14.2437 185.019 15.0762C185.608 15.8884 185.902 16.9645 185.902 18.3047C185.902 21.2286 184.054 23.0966 180.359 23.9088V24.0611C182.613 24.3657 184.359 25.0357 185.598 26.0713C186.856 27.1068 187.486 28.5485 187.486 30.3962C187.486 32.6297 186.664 34.2846 185.019 35.3607C183.394 36.4369 181.191 36.975 178.41 36.975H167.658V36.3354ZM177.191 23.8174C178.816 23.8174 180.064 23.3606 180.938 22.4469C181.811 21.5331 182.247 20.2336 182.247 18.5483V18.3656C182.247 15.0356 180.481 13.3706 176.948 13.3706H173.811V23.8174H177.191ZM178.41 36.244C180.136 36.244 181.476 35.7465 182.43 34.7516C183.384 33.7364 183.861 32.2947 183.861 30.4267V30.0916C183.861 28.2439 183.384 26.8632 182.43 25.9494C181.496 25.0357 180.156 24.5789 178.41 24.5789H173.811V36.244H178.41Z" fill="white"/>
<path d="M190.352 36.3354L193.155 35.8785V13.7056L190.352 13.2792V12.6091H202.018C204.251 12.6091 206.231 13.1168 207.957 14.132C209.703 15.1269 211.063 16.5483 212.038 18.396C213.013 20.2235 213.5 22.3555 213.5 24.7921C213.5 27.2286 213.013 29.3708 212.038 31.2186C211.063 33.046 209.703 34.4673 207.957 35.4826C206.211 36.4775 204.231 36.975 202.018 36.975H190.352V36.3354ZM202.018 36.244C203.5 36.244 204.81 35.8988 205.947 35.2085C207.104 34.5181 208.008 33.4927 208.657 32.1323C209.307 30.7515 209.632 29.0865 209.632 27.1373V22.4469C209.632 20.4976 209.307 18.8427 208.657 17.4823C208.008 16.1219 207.104 15.0965 205.947 14.4061C204.81 13.7158 203.5 13.3706 202.018 13.3706H196.505V36.244H202.018Z" fill="white"/>
<path d="M32.889 2.75846L30.7678 0.0488281L28.6482 2.75846H32.889Z" fill="#D2B976"/>
<path d="M36.404 2.75808L34.044 0.427734L33.9082 0.816386L33.2292 2.75808H36.404Z" fill="#D2B976"/>
<path d="M33.8583 0.324657L33.8614 0.318413L33.5914 0.288757L30.9863 0L33.0498 2.63784L33.8583 0.324657Z" fill="#D2B976"/>
<path d="M28.3049 2.75028L27.8851 1.54998L27.4917 0.427734L25.1333 2.75808H28.3081L28.3049 2.75028Z" fill="#D2B976"/>
<path d="M30.5509 0L27.6758 0.318413L28.4874 2.63784L30.5509 0Z" fill="#D2B976"/>
<path d="M28.3705 2.93555C28.3658 2.93555 28.3596 2.93711 28.3549 2.93711H25.1099L30.4995 9.24918L28.3736 2.94803C28.372 2.94491 28.372 2.94023 28.3705 2.93555Z" fill="#D2B976"/>
<path d="M33.1653 2.93555C33.1637 2.94023 33.1637 2.94335 33.1622 2.94803L31.0378 9.24918L36.4275 2.93711H33.1809C33.1762 2.93711 33.1715 2.93555 33.1653 2.93555Z" fill="#D2B976"/>
<path d="M28.592 2.9375L30.7679 9.39005L32.9452 2.9375H28.592Z" fill="#D2B976"/>
</svg>
