<svg width="132" height="70" viewBox="0 0 132 70" fill="none" xmlns="http://www.w3.org/2000/svg">
<g clip-path="url(#clip0_1287_3804)">
<path d="M30.2328 28.2294C30.2328 28.2294 30.1679 28.2294 30.0446 28.2359C29.9797 28.2359 29.9082 28.2554 29.8174 28.2748C29.733 28.3073 29.6226 28.3397 29.5253 28.4111C29.3111 28.5475 29.1488 28.859 29.1553 29.229C29.1488 29.4173 29.1942 29.612 29.2591 29.8132C29.3305 30.0144 29.4344 30.2157 29.5837 30.4104C29.733 30.5986 29.9277 30.7804 30.1874 30.8972C30.4405 31.0141 30.7716 31.0465 31.0702 30.9362C31.3687 30.8323 31.6284 30.6246 31.8426 30.3844L31.927 30.2936L31.9984 30.1897C32.0503 30.1248 32.0957 30.0599 32.1477 29.995C32.2321 29.8522 32.3294 29.7158 32.4073 29.5666C32.4852 29.4173 32.5696 29.268 32.6345 29.1057C32.667 29.0278 32.7059 28.9434 32.7384 28.8655C32.7708 28.7811 32.8033 28.6967 32.8357 28.6059C32.9526 28.2554 33.037 27.8659 33.024 27.4569C33.011 27.0415 32.8812 26.6066 32.6215 26.2366C32.3684 25.8666 32.0049 25.5615 31.583 25.3668C30.7456 24.9773 29.7265 24.9319 28.7918 25.2759C28.3244 25.4447 27.8765 25.7108 27.4871 26.0614C27.0976 26.4119 26.7795 26.8468 26.5459 27.3271C26.4874 27.444 26.442 27.5738 26.3836 27.6971C26.3316 27.8204 26.2992 27.9438 26.2538 28.0671C26.2148 28.1904 26.1759 28.3138 26.1304 28.4371C26.098 28.5669 26.0655 28.6967 26.0396 28.8201C25.9681 29.0732 25.9357 29.3459 25.8967 29.6185C25.8708 29.7548 25.8773 29.8911 25.8643 30.0339C25.8578 30.1702 25.8448 30.313 25.8578 30.4558C25.8643 30.5986 25.8708 30.7414 25.8838 30.8842C25.9032 31.0271 25.9292 31.1699 25.9487 31.3127C25.9682 31.4555 26.0136 31.5983 26.0525 31.7411L26.111 31.9553C26.1304 32.0267 26.1629 32.0916 26.1888 32.163L26.2732 32.3707C26.2992 32.4421 26.3317 32.507 26.3641 32.5719C26.4355 32.7018 26.5069 32.8381 26.5783 32.9679C26.6627 33.0912 26.7471 33.2146 26.8315 33.3444C26.9223 33.4677 27.0197 33.5781 27.1171 33.6949C27.513 34.1493 27.9804 34.5387 28.4802 34.8698C28.98 35.2008 29.5188 35.467 30.0705 35.7006C30.3431 35.8175 30.6288 35.9149 30.9144 36.0187C31.2 36.1096 31.4856 36.2005 31.7777 36.2783C32.3619 36.4341 32.9526 36.5575 33.5562 36.6483C34.7636 36.8366 36.0034 36.9145 37.2627 36.8755C37.5742 36.869 37.9053 36.8431 38.1974 36.8236C38.5025 36.8041 38.814 36.7782 39.1256 36.7587C39.7488 36.7133 40.3719 36.6548 41.0015 36.5899C42.7152 36.4082 44.3964 36.1485 46.0256 35.7461C46.8435 35.5449 47.6419 35.3112 48.4274 35.0061C49.2063 34.701 49.9657 34.3375 50.6668 33.8377C51.0173 33.5845 51.3483 33.2989 51.634 32.9484C51.9196 32.6044 52.1662 32.1954 52.3025 31.7541C52.4453 31.3062 52.4778 30.8323 52.4259 30.3909C52.3739 29.9495 52.2441 29.5341 52.0754 29.1641C51.9066 28.7876 51.7118 28.4501 51.4717 28.119C51.2315 27.7945 50.9459 27.4959 50.6278 27.2427C50.3098 26.9896 49.9593 26.7884 49.6022 26.6456C49.2387 26.4963 48.8687 26.3924 48.5052 26.334C47.7718 26.2171 47.0577 26.2301 46.3827 26.3145C45.7076 26.3989 45.065 26.5417 44.4548 26.7105C43.2345 27.061 42.1375 27.5154 41.1314 27.9827C39.1256 28.9239 37.4834 29.9106 36.1657 30.7414C34.8025 31.4814 33.1538 32.4486 31.2908 33.6235C30.3626 34.2077 29.376 34.8568 28.3374 35.5059C27.2923 36.1485 26.1759 36.8041 24.988 37.4273C22.6058 38.6606 19.912 39.7965 16.9196 40.3288C15.4266 40.5949 13.8687 40.7053 12.2719 40.6598L11.9733 40.6534L11.6748 40.6339C11.4735 40.6209 11.2723 40.6079 11.0711 40.5949C10.6686 40.5755 10.2662 40.517 9.86374 40.4716C9.05235 40.3872 8.24745 40.2379 7.45554 40.0432C6.29363 39.7576 5.17716 39.3486 4.21648 38.7579C3.2558 38.1738 2.47037 37.3948 2.00302 36.4601C1.76284 35.9992 1.60706 35.4929 1.50969 34.9801C1.44478 34.4544 1.39934 33.948 1.49022 33.4547C1.56811 32.9614 1.69793 32.4746 1.92512 32.0332C2.14582 31.5853 2.41195 31.1569 2.743 30.7804C2.8923 30.5792 3.08054 30.4104 3.24931 30.2286C3.34018 30.1443 3.43106 30.0599 3.52842 29.9755C3.6193 29.8911 3.71017 29.8067 3.81403 29.7353C3.9114 29.6574 4.00876 29.5795 4.10613 29.5016C4.2035 29.4302 4.30736 29.3588 4.41121 29.2874C4.61244 29.1381 4.82664 29.0213 5.03436 28.8915C5.8782 28.3982 6.77397 28.0476 7.66325 27.8075C9.44181 27.3271 11.2463 27.3531 12.6939 27.8983C13.4209 28.171 14.0505 28.5799 14.5438 29.0732C15.0501 29.5536 15.3942 30.1313 15.498 30.722C15.6084 31.3127 15.472 31.8969 15.2384 32.3707C14.9982 32.851 14.6736 33.234 14.3491 33.5456C13.687 34.1623 13.0444 34.4868 12.603 34.675C12.3823 34.7659 12.207 34.8308 12.0902 34.8633C11.9733 34.9022 11.9084 34.9152 11.9084 34.9152C11.9084 34.9152 11.9733 34.9022 12.0902 34.8763C12.2135 34.8503 12.3888 34.8049 12.6225 34.727C13.0768 34.5712 13.7584 34.2921 14.4854 33.7014C14.8424 33.4028 15.2189 33.0198 15.511 32.52C15.8031 32.0202 16.0043 31.3711 15.9199 30.6636C15.842 29.956 15.472 29.2615 14.9398 28.6967C14.4205 28.1125 13.7389 27.6192 12.947 27.2752C12.1551 26.9247 11.2593 26.7235 10.3311 26.665C9.39638 26.6001 8.42271 26.691 7.44256 26.9052C6.4624 27.1259 5.46926 27.4699 4.52156 27.9827C4.28788 28.119 4.04771 28.2424 3.82052 28.3982C3.70368 28.476 3.58684 28.5475 3.47649 28.6253C3.36615 28.7097 3.2558 28.7876 3.13896 28.872C3.02212 28.9499 2.91826 29.0408 2.80791 29.1381C2.69756 29.229 2.59371 29.3199 2.48336 29.4173C2.28213 29.6185 2.06793 29.8132 1.87968 30.0404C1.48373 30.4688 1.14619 30.9686 0.867073 31.5074C0.574974 32.0462 0.386732 32.6498 0.276383 33.273C0.159543 33.8961 0.191999 34.5517 0.276383 35.1878C0.380241 35.811 0.561991 36.4406 0.854091 37.0313C1.4318 38.2192 2.41195 39.1993 3.52842 39.8874C4.64489 40.5819 5.88469 41.0363 7.14397 41.3479C8.00079 41.5556 8.86411 41.7114 9.71444 41.8023C10.1429 41.8477 10.5648 41.9126 10.9867 41.9256C11.2009 41.9386 11.4086 41.9516 11.6228 41.9646L11.9409 41.984H12.259C13.9401 42.023 15.5954 41.8737 17.1662 41.5556C18.7371 41.2375 20.23 40.7637 21.6126 40.1925C23.0017 39.6278 24.287 38.9722 25.4813 38.2906C26.6757 37.6025 27.7792 36.8885 28.8048 36.194C29.8368 35.4864 30.7716 34.7984 31.6673 34.1687C33.4524 32.903 35.0297 31.8449 36.3409 31.0206C37.6976 30.2871 39.3853 29.4043 41.3975 28.5864C42.4036 28.184 43.5006 27.7945 44.669 27.5154C45.2532 27.3791 45.8634 27.2687 46.48 27.2233C47.0967 27.1713 47.7263 27.1908 48.33 27.3141C48.9337 27.444 49.5049 27.6841 49.9657 28.0801C50.1994 28.2748 50.4006 28.5085 50.5824 28.7617C50.7512 29.0213 50.9134 29.3264 51.0368 29.6185C51.2899 30.2157 51.3613 30.8388 51.1731 31.3841C50.9848 31.9358 50.5305 32.4226 49.9528 32.8186C49.3751 33.2146 48.6935 33.5326 47.9795 33.7987C47.259 34.0649 46.506 34.2726 45.7271 34.4608C44.1692 34.8243 42.5399 35.0645 40.8717 35.2463C40.2551 35.3112 39.6449 35.3696 39.0347 35.415C38.7296 35.441 38.4246 35.4605 38.1195 35.4864C37.8014 35.5124 37.5223 35.5319 37.2237 35.5449C36.0553 35.5968 34.8869 35.5319 33.7575 35.3761C33.1927 35.2982 32.641 35.1943 32.1022 35.058C31.8296 34.9931 31.57 34.9152 31.3038 34.8373C31.0442 34.7529 30.7845 34.6686 30.5379 34.5647C30.0381 34.37 29.5642 34.1428 29.1293 33.8702C28.7009 33.5975 28.3049 33.286 27.9804 32.9354C27.9025 32.8446 27.8181 32.7602 27.7467 32.6628C27.6753 32.5654 27.6104 32.4746 27.539 32.3772C27.4806 32.2733 27.4222 32.176 27.3637 32.0721C27.3313 32.0202 27.3053 31.9683 27.2858 31.9163L27.2144 31.7605C27.195 31.7086 27.1625 31.6567 27.1495 31.5983L27.0976 31.436C27.0651 31.3256 27.0197 31.2218 27.0067 31.1049C26.9873 30.9946 26.9613 30.8778 26.9418 30.7674C26.9288 30.6506 26.9223 30.5402 26.9094 30.4234C26.8899 30.3065 26.9029 30.1897 26.9029 30.0794C26.9094 29.9625 26.8964 29.8457 26.9158 29.7353C26.9418 29.5016 26.9548 29.2745 27.0132 29.0473C27.0392 28.9304 27.0587 28.8201 27.0846 28.7032C27.1171 28.5929 27.1495 28.4825 27.182 28.3657C27.2144 28.2554 27.2404 28.1385 27.2794 28.0347C27.3183 27.9373 27.3508 27.8269 27.3962 27.7296C27.7337 26.9377 28.3569 26.334 29.0904 26.0354C29.8174 25.7238 30.6482 25.7238 31.3168 25.99C31.6479 26.1263 31.927 26.3405 32.1282 26.6001C32.3294 26.8598 32.4463 27.1778 32.4787 27.5024C32.5436 28.158 32.2905 28.8071 32.0308 29.3783C31.9984 29.4497 31.9659 29.5211 31.927 29.586C31.888 29.6509 31.8556 29.7223 31.8166 29.7873C31.7777 29.8522 31.7387 29.9106 31.6933 29.969L31.6349 30.0599L31.57 30.1443C31.3947 30.365 31.1935 30.5467 30.9663 30.6376C30.7456 30.735 30.5054 30.7285 30.2912 30.6506C30.077 30.5727 29.8953 30.4299 29.7525 30.2676C29.6032 30.1053 29.4993 29.9301 29.4214 29.7483C29.35 29.5666 29.2916 29.3913 29.2851 29.2225C29.2591 28.885 29.376 28.5929 29.5642 28.4566C29.6551 28.3787 29.7525 28.3397 29.8304 28.3073C29.9147 28.2878 29.9926 28.2554 30.0511 28.2554C30.1679 28.2359 30.2328 28.2294 30.2328 28.2294Z" fill="#4D4A4A"/>
<path d="M30.064 45.7102C30.064 45.7102 30.1289 45.7102 30.2522 45.7037C30.3171 45.7037 30.3885 45.6842 30.4794 45.6648C30.5703 45.6323 30.6741 45.5999 30.7715 45.5285C30.9857 45.3921 31.148 45.0806 31.1415 44.7106C31.148 44.5223 31.1026 44.3276 31.0376 44.1264C30.9662 43.9252 30.8624 43.7239 30.7131 43.5292C30.5638 43.341 30.3691 43.1592 30.1094 43.0424C29.8563 42.9255 29.5252 42.8931 29.2266 43.0034C28.928 43.1073 28.6684 43.315 28.4542 43.5552L28.3698 43.646L28.2984 43.7499C28.2465 43.8148 28.201 43.8797 28.1491 43.9446C28.0647 44.0874 27.9674 44.2237 27.8895 44.373C27.8116 44.5223 27.7272 44.6716 27.6623 44.8339C27.6298 44.9118 27.5909 44.9962 27.5584 45.0741C27.526 45.1585 27.4935 45.2428 27.4611 45.3337C27.3442 45.6842 27.2598 46.0737 27.2728 46.4826C27.2858 46.8981 27.4156 47.333 27.6753 47.703C27.9284 48.073 28.2919 48.378 28.7138 48.5728C29.5512 48.9622 30.5703 49.0077 31.505 48.6637C31.9724 48.4949 32.4202 48.2288 32.8097 47.8782C33.1992 47.5277 33.5172 47.0928 33.7509 46.6125C33.8093 46.4956 33.8548 46.3658 33.9132 46.2425C33.9651 46.1191 33.9976 45.9958 34.043 45.8725C34.082 45.7492 34.1209 45.6258 34.1664 45.5025C34.1988 45.3727 34.2313 45.2493 34.2572 45.1195C34.3286 44.8664 34.3611 44.5937 34.4 44.3211C34.426 44.1848 34.4195 44.0485 34.4325 43.9057C34.439 43.7694 34.452 43.6266 34.439 43.4838C34.4325 43.341 34.426 43.1982 34.413 43.0554C34.3935 42.9125 34.3676 42.7697 34.3481 42.6269C34.3286 42.4841 34.2832 42.3413 34.2442 42.1985L34.1858 41.9843C34.1664 41.9129 34.1339 41.848 34.1079 41.7766L34.0236 41.5689C33.9976 41.4975 33.9651 41.4326 33.9327 41.3677C33.8613 41.2378 33.7899 41.1015 33.7185 40.9717C33.6341 40.8484 33.5497 40.725 33.4653 40.5952C33.3744 40.4719 33.2771 40.3615 33.1797 40.2447C32.7838 39.7903 32.3164 39.4009 31.8166 39.0698C31.3168 38.7388 30.778 38.4726 30.2263 38.239C29.9536 38.1221 29.668 38.0247 29.3824 37.9209C29.0968 37.83 28.8112 37.7391 28.5191 37.6612C27.9349 37.5055 27.3442 37.3821 26.7405 37.2913C25.5332 37.103 24.2934 37.0251 23.0341 37.0641C22.7225 37.0706 22.3915 37.0965 22.0994 37.116C21.7943 37.1355 21.4827 37.1614 21.1712 37.1809C20.548 37.2263 19.9249 37.2848 19.2952 37.3497C17.5816 37.5314 15.9004 37.7911 14.2711 38.1935C13.4533 38.3947 12.6549 38.6284 11.8694 38.9335C11.0905 39.2386 10.331 39.6021 9.63 40.1019C9.27948 40.3551 8.94844 40.6407 8.66283 40.9912C8.37722 41.3352 8.13056 41.7441 7.99425 42.1855C7.85144 42.6334 7.81899 43.1073 7.87092 43.5487C7.92284 43.9901 8.05267 44.4055 8.22144 44.7755C8.3902 45.152 8.58494 45.4895 8.82511 45.8206C9.06528 46.1451 9.35089 46.4437 9.66895 46.6969C9.98701 46.95 10.3375 47.1512 10.6945 47.294C11.058 47.4433 11.428 47.5472 11.7915 47.6056C12.525 47.7224 13.2391 47.7095 13.9141 47.6251C14.5892 47.5407 15.2318 47.3979 15.842 47.2291C17.0623 46.8786 18.1593 46.4242 19.1654 45.9569C21.1712 45.0157 22.8134 44.029 24.1311 43.1982C25.4942 42.4582 27.143 41.491 29.0059 40.3161C29.9342 39.7319 30.9208 39.0828 31.9594 38.4337C33.0044 37.7911 34.1209 37.1355 35.3088 36.5123C37.691 35.279 40.3848 34.1431 43.3772 33.6108C44.8702 33.3447 46.428 33.2343 48.0249 33.2798L48.3234 33.2862L48.622 33.3057C48.8233 33.3187 49.0245 33.3317 49.2257 33.3447C49.6282 33.3641 50.0306 33.4226 50.433 33.468C51.2444 33.5524 52.0493 33.7017 52.8412 33.8964C54.0032 34.182 55.1196 34.591 56.0803 35.1816C57.041 35.7658 57.8264 36.5448 58.2938 37.4795C58.5339 37.9404 58.6897 38.4467 58.7871 38.9595C58.865 39.4658 58.9104 39.9721 58.8195 40.4719C58.7417 40.9652 58.6118 41.452 58.3846 41.8934C58.1639 42.3413 57.8978 42.7697 57.5668 43.1462C57.4175 43.3474 57.2292 43.5162 57.0605 43.698C56.9696 43.7824 56.8787 43.8667 56.7813 43.9511C56.6905 44.0355 56.5996 44.1199 56.4957 44.1913C56.3984 44.2692 56.301 44.3471 56.2036 44.425C56.1063 44.4964 56.0024 44.5678 55.8986 44.6392C55.6973 44.7885 55.4831 44.9053 55.2754 45.0351C54.4316 45.5285 53.5358 45.879 52.6465 46.1191C50.868 46.5995 49.0634 46.5735 47.6159 46.0283C46.8889 45.7556 46.2593 45.3467 45.7659 44.8534C45.2596 44.373 44.9156 43.7953 44.8118 43.2046C44.7014 42.614 44.8377 42.0298 45.0714 41.5559C45.3116 41.0756 45.6361 40.6926 45.9607 40.381C46.6228 39.7644 47.2654 39.4398 47.7068 39.2516C47.9275 39.1607 48.1027 39.0958 48.2196 39.0633C48.3364 39.0244 48.4013 39.0114 48.4013 39.0114C48.4013 39.0114 48.3364 39.0244 48.2196 39.0503C48.0963 39.0763 47.921 39.1217 47.6873 39.1996C47.2329 39.3554 46.5514 39.6345 45.8244 40.2252C45.4674 40.5238 45.0909 40.9068 44.7988 41.4066C44.5067 41.9064 44.3055 42.5555 44.3898 43.2631C44.4677 43.9706 44.8377 44.6651 45.37 45.2299C45.8893 45.8141 46.5708 46.3074 47.3628 46.6514C48.1547 47.0019 49.0504 47.2032 49.9787 47.2616C50.9134 47.3265 51.8871 47.2356 52.8672 47.0214C53.8474 46.8007 54.8405 46.4567 55.7882 45.9439C56.0219 45.8076 56.2621 45.6842 56.4892 45.5285C56.6061 45.4506 56.7229 45.3792 56.8333 45.3013C56.9436 45.2169 57.054 45.139 57.1708 45.0546C57.2876 44.9767 57.3915 44.8858 57.5019 44.7885C57.6122 44.6976 57.7161 44.6067 57.8264 44.5094C58.0276 44.3081 58.2418 44.1134 58.4301 43.8862C58.826 43.4578 59.1636 42.958 59.4427 42.4192C59.7348 41.8805 59.923 41.2768 60.0334 40.6536C60.1502 40.0305 60.1178 39.3749 60.0334 38.7388C59.9295 38.1156 59.7478 37.486 59.4557 36.8953C58.878 35.7074 57.8978 34.7273 56.7813 34.0392C55.6649 33.3447 54.4251 32.8903 53.1658 32.5787C52.309 32.371 51.4457 32.2152 50.5953 32.1243C50.1669 32.0789 49.745 32.014 49.3231 32.001C49.1089 31.988 48.9011 31.975 48.6869 31.9621L48.3689 31.9426H48.0508C46.3696 31.9036 44.7144 32.0529 43.1435 32.371C41.5727 32.6891 40.0797 33.1629 38.6971 33.7341C37.308 34.2989 36.0228 34.9545 34.8284 35.636C33.6341 36.3241 32.5306 37.0381 31.505 37.7326C30.4729 38.4402 29.5382 39.1282 28.6424 39.7579C26.8574 41.0236 25.28 42.0817 23.9688 42.9061C22.6122 43.6395 20.9245 44.5223 18.9123 45.3402C17.9062 45.7427 16.8092 46.1321 15.6408 46.4112C15.0566 46.5476 14.4464 46.6579 13.8297 46.7033C13.2131 46.7553 12.5835 46.7358 11.9798 46.6125C11.3761 46.4826 10.8049 46.2425 10.344 45.8465C10.1103 45.6518 9.90912 45.4181 9.72737 45.165C9.5586 44.9053 9.39632 44.6002 9.27299 44.3081C9.01984 43.711 8.94844 43.0878 9.13668 42.5426C9.32492 41.9908 9.7793 41.504 10.357 41.108C10.9347 40.7121 11.6163 40.394 12.3303 40.1279C13.0508 39.8617 13.8038 39.654 14.5827 39.4658C16.1406 39.1023 17.7698 38.8621 19.4381 38.6803C20.0547 38.6154 20.6649 38.557 21.275 38.5116C21.5801 38.4856 21.8852 38.4661 22.1903 38.4402C22.5083 38.4142 22.7875 38.3947 23.0861 38.3818C24.2544 38.3298 25.4228 38.3947 26.5523 38.5505C27.117 38.6284 27.6688 38.7323 28.2075 38.8686C28.4802 38.9335 28.7398 39.0114 29.0059 39.0893C29.2656 39.1737 29.5252 39.2581 29.7719 39.3619C30.2652 39.5566 30.7455 39.7838 31.1805 40.0565C31.6154 40.3291 32.0048 40.6407 32.3294 40.9912C32.4073 41.0821 32.4917 41.1664 32.5631 41.2638C32.6345 41.3612 32.6994 41.452 32.7708 41.5494C32.8292 41.6533 32.8876 41.7506 32.946 41.8545C32.9785 41.9064 33.0044 41.9584 33.0239 42.0103L33.0953 42.1661C33.1148 42.218 33.1473 42.2699 33.1602 42.3283L33.2122 42.4906C33.2446 42.601 33.2901 42.7048 33.303 42.8217C33.3225 42.932 33.3485 43.0489 33.368 43.1592C33.3809 43.276 33.3874 43.3864 33.4004 43.5032C33.4199 43.6201 33.4069 43.7369 33.4069 43.8473C33.4004 43.9641 33.4134 44.0809 33.3939 44.1913C33.368 44.425 33.355 44.6522 33.2965 44.8793C33.2706 44.9962 33.2511 45.1065 33.2251 45.2234C33.1927 45.3337 33.1602 45.4441 33.1278 45.5609C33.0953 45.6713 33.0694 45.7881 33.0304 45.892C32.9915 45.9893 32.959 46.0997 32.9136 46.197C32.576 46.989 31.9529 47.5926 31.2194 47.8912C30.4924 48.2028 29.6615 48.2028 28.993 47.9367C28.6619 47.8003 28.3828 47.5861 28.1816 47.3265C27.9803 47.0668 27.8635 46.7488 27.831 46.4242C27.7661 45.7686 28.0193 45.1195 28.2789 44.5483C28.3114 44.4769 28.3438 44.4055 28.3828 44.3406C28.4217 44.2757 28.4542 44.2043 28.4931 44.1394C28.5321 44.0745 28.571 44.016 28.6165 43.9576L28.6749 43.8667L28.7398 43.7823C28.9151 43.5617 29.1163 43.3799 29.3435 43.289C29.5642 43.1917 29.8043 43.1982 30.0185 43.276C30.2327 43.3539 30.4145 43.4967 30.5573 43.6525C30.7066 43.8148 30.8105 43.9901 30.8884 44.1718C30.9598 44.3536 31.0182 44.5288 31.0247 44.6976C31.0506 45.0351 30.9338 45.3272 30.7455 45.4635C30.6547 45.5414 30.5573 45.5804 30.4794 45.6128C30.395 45.6323 30.3171 45.6648 30.2587 45.6648C30.1289 45.7037 30.064 45.7102 30.064 45.7102Z" fill="#4D4A4A"/>
<path d="M101.959 28.762C101.959 28.762 102.024 28.762 102.147 28.7685C102.212 28.7685 102.284 28.7879 102.375 28.8074C102.459 28.8399 102.569 28.8723 102.667 28.9437C102.881 29.08 103.043 29.3916 103.037 29.7616C103.043 29.9498 102.998 30.1446 102.933 30.3458C102.862 30.547 102.758 30.7482 102.608 30.943C102.459 31.1312 102.264 31.313 102.005 31.4298C101.752 31.5466 101.42 31.5791 101.122 31.4687C100.823 31.3649 100.564 31.1572 100.349 30.917L100.265 30.8261L100.194 30.7288C100.148 30.6639 100.096 30.5989 100.044 30.534C99.96 30.3912 99.8626 30.2549 99.7847 30.1056C99.7068 29.9563 99.6225 29.807 99.5575 29.6447C99.5251 29.5669 99.4861 29.4825 99.4537 29.4046C99.4212 29.3202 99.3888 29.2358 99.3563 29.1449C99.2395 28.7944 99.1551 28.4049 99.1681 27.996C99.1811 27.5806 99.3109 27.1457 99.5705 26.7757C99.8237 26.4057 100.187 26.1006 100.609 25.9059C101.446 25.5164 102.466 25.471 103.4 25.815C103.868 25.9838 104.316 26.2499 104.705 26.6004C105.094 26.9509 105.413 27.3858 105.646 27.8662C105.705 27.983 105.75 28.1128 105.808 28.2362C105.86 28.3595 105.893 28.4828 105.938 28.6062C105.977 28.7295 106.016 28.8528 106.062 28.9762C106.094 29.106 106.127 29.2293 106.153 29.3591C106.224 29.6123 106.256 29.8849 106.295 30.1575C106.321 30.2939 106.315 30.4302 106.328 30.573C106.334 30.7093 106.347 30.8521 106.334 30.9949C106.328 31.1377 106.321 31.2805 106.308 31.4233C106.289 31.5661 106.263 31.7089 106.243 31.8517C106.224 31.9945 106.178 32.1373 106.14 32.2801L106.081 32.4943C106.062 32.5657 106.029 32.6307 106.003 32.7021L105.919 32.9098C105.893 32.9812 105.86 33.0461 105.828 33.111C105.757 33.2408 105.685 33.3771 105.614 33.507C105.529 33.6303 105.445 33.7536 105.361 33.8834C105.27 34.0068 105.172 34.1171 105.075 34.234C104.679 34.6883 104.212 35.0778 103.712 35.4088C103.212 35.7399 102.673 36.006 102.122 36.2397C101.849 36.3565 101.563 36.4539 101.278 36.5578C100.992 36.6486 100.706 36.7395 100.414 36.8174C99.8302 36.9732 99.2395 37.0965 98.6358 37.1874C97.4285 37.3756 96.1887 37.4535 94.9294 37.4146C94.6178 37.4081 94.2868 37.3821 93.9947 37.3627C93.6896 37.3432 93.378 37.3172 93.0664 37.2978C92.4433 37.2523 91.8202 37.1939 91.1905 37.129C89.4769 36.9472 87.7957 36.6876 86.1664 36.2851C85.3485 36.0839 84.5501 35.8502 83.7647 35.5452C82.9858 35.2401 82.2263 34.8766 81.5253 34.3768C81.1748 34.1236 80.8437 33.838 80.5581 33.4875C80.2725 33.1435 80.0258 32.7345 79.8895 32.2931C79.7467 31.8452 79.7143 31.3714 79.7662 30.93C79.8181 30.4886 79.9479 30.0732 80.1167 29.7032C80.2855 29.3267 80.4802 28.9891 80.7204 28.6581C80.9605 28.3335 81.2462 28.035 81.5642 27.7818C81.8823 27.5287 82.2328 27.3274 82.5898 27.1846C82.9533 27.0353 83.3233 26.9315 83.6868 26.8731C84.4203 26.7497 85.1343 26.7692 85.8094 26.8536C86.4845 26.938 87.1271 27.0808 87.7372 27.2495C88.9576 27.6001 90.0546 28.0544 91.0607 28.5218C93.0664 29.463 94.7087 30.4496 96.0264 31.2805C97.3895 32.0205 99.0382 32.9877 100.901 34.1626C101.829 34.7468 102.816 35.3959 103.855 36.045C104.9 36.6876 106.016 37.3432 107.204 37.9663C109.586 39.1996 112.28 40.3356 115.272 40.8679C116.765 41.134 118.323 41.2443 119.92 41.1989L120.219 41.1924L120.517 41.1729C120.719 41.16 120.92 41.147 121.121 41.134C121.523 41.1145 121.926 41.0561 122.328 41.0107C123.14 40.9263 123.945 40.777 124.737 40.5823C125.898 40.2966 127.015 39.8877 127.976 39.297C128.936 38.7128 129.722 37.9339 130.189 36.9992C130.429 36.5383 130.585 36.032 130.682 35.5192C130.76 35.0129 130.806 34.5066 130.715 34.0068C130.637 33.5134 130.507 33.0266 130.28 32.5852C130.059 32.1373 129.793 31.7089 129.462 31.3324C129.313 31.1312 129.124 30.9624 128.956 30.7807C128.865 30.6963 128.774 30.6119 128.677 30.5275C128.586 30.4432 128.495 30.3588 128.391 30.2874C128.294 30.2095 128.196 30.1316 128.099 30.0537C128.002 29.9823 127.898 29.9109 127.794 29.8395C127.593 29.6902 127.378 29.5733 127.171 29.4435C126.327 28.9502 125.431 28.5997 124.542 28.3595C122.763 27.8792 120.959 27.9051 119.511 28.4504C118.784 28.723 118.155 29.132 117.661 29.6253C117.155 30.1056 116.811 30.6833 116.707 31.274C116.597 31.8647 116.733 32.4489 116.967 32.9228C117.207 33.4031 117.531 33.7861 117.856 34.0976C118.518 34.7143 119.161 35.0389 119.602 35.2271C119.823 35.318 119.998 35.3829 120.115 35.4153C120.232 35.4543 120.297 35.4673 120.297 35.4673C120.297 35.4673 120.232 35.4543 120.115 35.4283C119.992 35.4024 119.816 35.3569 119.583 35.279C119.128 35.1232 118.447 34.8441 117.72 34.2534C117.363 33.9548 116.986 33.5719 116.694 33.072C116.402 32.5722 116.201 31.9231 116.285 31.2156C116.363 30.5081 116.733 29.8135 117.265 29.2488C117.785 28.6646 118.466 28.1713 119.258 27.8272C120.05 27.4767 120.946 27.2755 121.874 27.2171C122.809 27.1522 123.782 27.243 124.762 27.4572C125.743 27.6779 126.736 28.022 127.683 28.5348C127.917 28.6711 128.157 28.7944 128.385 28.9502C128.501 29.0281 128.618 29.0995 128.729 29.1774C128.839 29.2618 128.949 29.3397 129.066 29.4241C129.183 29.5019 129.287 29.5928 129.397 29.6902C129.507 29.7811 129.611 29.8719 129.722 29.9693C129.923 30.1705 130.137 30.3653 130.325 30.5924C130.721 31.0209 131.059 31.5207 131.338 32.0594C131.63 32.5982 131.818 33.2019 131.929 33.825C132.045 34.4482 132.013 35.1038 131.929 35.7399C131.825 36.363 131.643 36.9927 131.351 37.5834C130.773 38.7712 129.793 39.7514 128.677 40.4394C127.56 41.134 126.32 41.5884 125.061 41.8999C124.204 42.1077 123.341 42.2634 122.491 42.3543C122.062 42.3998 121.64 42.4647 121.218 42.4777C121.004 42.4906 120.796 42.5036 120.582 42.5166L120.264 42.5361H119.946C118.265 42.575 116.61 42.4257 115.039 42.1077C113.468 41.7896 111.975 41.3157 110.592 40.7445C109.203 40.1733 107.918 39.5242 106.724 38.8426C105.529 38.1546 104.426 37.4406 103.4 36.746C102.368 36.0385 101.433 35.3504 100.538 34.7208C98.7526 33.455 97.1753 32.397 95.8641 31.5726C94.5075 30.8391 92.8198 29.9563 90.8075 29.1384C89.8014 28.736 88.7044 28.3465 87.536 28.0674C86.9518 27.9311 86.3417 27.8208 85.725 27.7753C85.1084 27.7234 84.4787 27.7429 83.875 27.8662C83.2714 27.996 82.7002 28.2362 82.2393 28.6321C82.0056 28.8269 81.8044 29.0605 81.6226 29.3137C81.4539 29.5733 81.2916 29.8784 81.1683 30.1705C80.9151 30.7677 80.8437 31.3909 81.0319 31.9361C81.2202 32.4879 81.6746 32.9747 82.2588 33.3706C82.8365 33.7666 83.518 34.0847 84.2321 34.3508C84.9526 34.6169 85.7055 34.8246 86.4845 35.0129C88.0423 35.3764 89.6716 35.6166 91.3398 35.7983C91.9565 35.8632 92.5666 35.9216 93.1768 35.9671C93.4819 35.993 93.787 36.0125 94.092 36.0385C94.4101 36.0644 94.6892 36.0839 94.9878 36.0969C96.1562 36.1488 97.3246 36.0839 98.4541 35.9281C99.0188 35.8502 99.5705 35.7464 100.109 35.6101C100.382 35.5452 100.642 35.4673 100.908 35.3894C101.167 35.305 101.427 35.2206 101.674 35.1167C102.167 34.922 102.647 34.6948 103.082 34.4222C103.517 34.1496 103.907 33.838 104.231 33.4875C104.309 33.3966 104.393 33.3122 104.465 33.2149C104.536 33.1175 104.601 33.0266 104.673 32.9292C104.731 32.8254 104.789 32.728 104.848 32.6242C104.88 32.5722 104.906 32.5203 104.926 32.4684L104.997 32.3126C105.017 32.2607 105.049 32.2087 105.062 32.1568L105.114 31.9945C105.146 31.8842 105.192 31.7803 105.205 31.6635C105.224 31.5531 105.25 31.4363 105.27 31.3259C105.283 31.2091 105.289 31.0988 105.302 30.9819C105.322 30.8651 105.309 30.7482 105.309 30.6379C105.302 30.521 105.315 30.4042 105.296 30.2939C105.27 30.0602 105.257 29.833 105.198 29.6058C105.172 29.489 105.153 29.3786 105.127 29.2618C105.094 29.1514 105.062 29.0411 105.03 28.9242C104.997 28.8139 104.971 28.697 104.932 28.5932C104.893 28.4958 104.861 28.3855 104.815 28.2881C104.478 27.4962 103.855 26.8925 103.121 26.5939C102.394 26.2824 101.563 26.2824 100.895 26.5485C100.564 26.6848 100.285 26.899 100.083 27.1587C99.8821 27.4183 99.7653 27.7364 99.7328 28.0609C99.6679 28.7165 99.921 29.3591 100.181 29.9368C100.213 30.0082 100.246 30.0797 100.285 30.1446C100.323 30.2095 100.356 30.2809 100.395 30.3458C100.434 30.4107 100.473 30.4691 100.518 30.5275L100.577 30.6184L100.642 30.7028C100.817 30.9235 101.018 31.1052 101.245 31.1961C101.466 31.2935 101.706 31.287 101.92 31.2091C102.135 31.1312 102.316 30.9884 102.459 30.8261C102.608 30.6639 102.712 30.4886 102.79 30.3068C102.862 30.1251 102.92 29.9498 102.926 29.7811C102.952 29.4435 102.836 29.1514 102.647 29.0151C102.556 28.9372 102.459 28.8983 102.381 28.8658C102.297 28.8463 102.219 28.8139 102.16 28.8139C102.024 28.7685 101.959 28.762 101.959 28.762Z" fill="#4D4A4A"/>
<path d="M102.128 46.2489C102.128 46.2489 102.063 46.2489 101.94 46.2424C101.875 46.2424 101.804 46.223 101.713 46.2035C101.628 46.171 101.518 46.1386 101.421 46.0672C101.206 45.9309 101.044 45.6193 101.051 45.2493C101.044 45.0611 101.09 44.8663 101.154 44.6651C101.226 44.4639 101.33 44.2626 101.479 44.0679C101.628 43.8797 101.823 43.6979 102.083 43.5811C102.336 43.4642 102.667 43.4318 102.965 43.5421C103.264 43.646 103.524 43.8537 103.738 44.0939L103.822 44.1848L103.894 44.2821C103.939 44.347 103.991 44.4119 104.043 44.4769C104.127 44.6197 104.225 44.756 104.303 44.9053C104.381 45.0546 104.465 45.2039 104.53 45.3661C104.562 45.444 104.601 45.5284 104.634 45.6063C104.666 45.6907 104.699 45.7751 104.731 45.866C104.848 46.2165 104.932 46.6059 104.919 47.0149C104.906 47.4303 104.776 47.8652 104.517 48.2352C104.264 48.6052 103.9 48.9103 103.478 49.105C102.641 49.4945 101.622 49.5399 100.687 49.1959C100.22 49.0271 99.7718 48.761 99.3824 48.4105C98.9929 48.0599 98.6748 47.625 98.4412 47.1447C98.3827 47.0279 98.3373 46.898 98.2789 46.7747C98.227 46.6514 98.1945 46.528 98.1491 46.4047C98.1101 46.2814 98.0712 46.158 98.0257 46.0347C97.9933 45.9049 97.9608 45.7816 97.9349 45.6517C97.8635 45.3986 97.831 45.126 97.7921 44.8533C97.7661 44.717 97.7726 44.5807 97.7596 44.4379C97.7531 44.3016 97.7401 44.1588 97.7531 44.016C97.7596 43.8732 97.7661 43.7304 97.7791 43.5876C97.7985 43.4448 97.8245 43.302 97.844 43.1592C97.8635 43.0164 97.9089 42.8736 97.9478 42.7308L98.0063 42.5165C98.0257 42.4451 98.0582 42.3802 98.0842 42.3088L98.1685 42.1011C98.1945 42.0297 98.227 41.9648 98.2594 41.8999C98.3308 41.7701 98.4022 41.6338 98.4736 41.5039C98.558 41.3806 98.6424 41.2573 98.7268 41.1274C98.8176 41.0041 98.915 40.8938 99.0124 40.7769C99.4083 40.3226 99.8757 39.9331 100.376 39.602C100.875 39.271 101.414 39.0049 101.966 38.7712C102.238 38.6543 102.524 38.557 102.81 38.4531C103.095 38.3622 103.381 38.2714 103.673 38.1935C104.257 38.0377 104.848 37.9144 105.452 37.8235C106.659 37.6352 107.899 37.5573 109.158 37.5963C109.47 37.6028 109.801 37.6287 110.093 37.6482C110.398 37.6677 110.709 37.6937 111.021 37.7131C111.644 37.7586 112.267 37.817 112.897 37.8819C114.61 38.0637 116.292 38.3233 117.921 38.7257C118.739 38.927 119.537 39.1606 120.323 39.4657C121.102 39.7708 121.861 40.1343 122.562 40.6341C122.913 40.8873 123.244 41.1729 123.529 41.5234C123.815 41.8674 124.062 42.2764 124.198 42.7178C124.341 43.1657 124.373 43.6395 124.321 44.0809C124.269 44.5223 124.139 44.9377 123.971 45.3077C123.802 45.6842 123.607 46.0217 123.367 46.3528C123.127 46.6773 122.841 46.9759 122.523 47.2291C122.205 47.4822 121.855 47.6835 121.498 47.8263C121.134 47.9756 120.764 48.0794 120.401 48.1378C119.667 48.2612 118.953 48.2417 118.278 48.1573C117.603 48.0729 116.96 47.9301 116.35 47.7614C115.13 47.4108 114.033 46.9565 113.027 46.4891C111.021 45.5479 109.379 44.5612 108.061 43.7304C106.698 42.9904 105.049 42.0232 103.186 40.8483C102.258 40.2641 101.271 39.615 100.233 38.9659C99.1876 38.3233 98.0712 37.6677 96.8833 37.0445C94.5011 35.8112 91.8073 34.6753 88.8149 34.143C87.3219 33.8769 85.764 33.7665 84.1672 33.812L83.8686 33.8185L83.5701 33.8379C83.3688 33.8509 83.1676 33.8639 82.9664 33.8769C82.5639 33.8964 82.1615 33.9548 81.759 34.0002C80.9477 34.0846 80.1428 34.2339 79.3508 34.4286C78.1889 34.7142 77.0725 35.1232 76.1118 35.7139C75.1511 36.2981 74.3657 37.077 73.8983 38.0117C73.6582 38.4726 73.5024 38.9789 73.405 39.4917C73.3271 39.998 73.2817 40.5043 73.3725 41.0041C73.4504 41.4974 73.5803 41.9843 73.8074 42.4257C74.0281 42.8736 74.2943 43.302 74.6253 43.6785C74.7746 43.8797 74.9629 44.0484 75.1316 44.2302C75.2225 44.3146 75.3134 44.399 75.4107 44.4833C75.5016 44.5677 75.5925 44.6521 75.6964 44.7235C75.7937 44.8014 75.8911 44.8793 75.9885 44.9572C76.0858 45.0286 76.1897 45.1 76.2935 45.1714C76.4948 45.3207 76.709 45.4375 76.9167 45.5674C77.7605 46.0607 78.6563 46.4112 79.5456 46.6514C81.3241 47.1317 83.1287 47.1058 84.5762 46.5605C85.3032 46.2879 85.9328 45.8789 86.4261 45.3856C86.9324 44.9053 87.2765 44.3276 87.3803 43.7369C87.4907 43.1462 87.3544 42.562 87.1207 42.0881C86.8805 41.6078 86.556 41.2248 86.2314 40.9132C85.5693 40.2966 84.9267 39.972 84.4853 39.7838C84.2646 39.6929 84.0893 39.628 83.9725 39.5956C83.8557 39.5566 83.7907 39.5436 83.7907 39.5436C83.7907 39.5436 83.8557 39.5566 83.9725 39.5826C84.0958 39.6085 84.2711 39.654 84.5048 39.7319C84.9592 39.8876 85.6407 40.1668 86.3677 40.7575C86.7247 41.056 87.1012 41.439 87.3933 41.9388C87.6854 42.4387 87.8866 43.0878 87.8023 43.7953C87.7244 44.5028 87.3544 45.1974 86.8221 45.7621C86.3028 46.3463 85.6212 46.8396 84.8293 47.1836C84.0374 47.5342 83.1416 47.7354 82.2134 47.7938C81.2787 47.8587 80.305 47.7678 79.3249 47.5536C78.3447 47.3329 77.3516 46.9889 76.4039 46.4761C76.1702 46.3398 75.93 46.2165 75.7028 46.0607C75.586 45.9828 75.4692 45.9114 75.3588 45.8335C75.2485 45.7491 75.1381 45.6712 75.0213 45.5868C74.9044 45.5089 74.8006 45.4181 74.6902 45.3207C74.5799 45.2298 74.476 45.1389 74.3657 45.0416C74.1645 44.8404 73.9502 44.6456 73.762 44.4184C73.366 43.99 73.0285 43.4902 72.7494 42.9514C72.4573 42.4127 72.2691 41.809 72.1587 41.1859C72.0419 40.5627 72.0743 39.9071 72.1587 39.271C72.2626 38.6479 72.4443 38.0182 72.7364 37.4275C73.3141 36.2397 74.2943 35.2595 75.4107 34.5714C76.5272 33.8769 77.767 33.4225 79.0263 33.1109C79.8831 32.9032 80.7464 32.7474 81.5968 32.6566C82.0252 32.6111 82.4471 32.5462 82.869 32.5332C83.0832 32.5203 83.2909 32.5073 83.5051 32.4943L83.8232 32.4748H84.1413C85.8225 32.4359 87.4777 32.5852 89.0485 32.9032C90.6194 33.2213 92.1123 33.6951 93.4949 34.2664C94.884 34.8311 96.1693 35.4867 97.3636 36.1683C98.558 36.8563 99.6615 37.5703 100.687 38.2649C101.719 38.9724 102.654 39.6605 103.55 40.2901C105.335 41.5559 106.912 42.6139 108.223 43.4383C109.58 44.1718 111.268 45.0546 113.28 45.8724C114.286 46.2749 115.383 46.6644 116.551 46.9435C117.136 47.0798 117.746 47.1901 118.362 47.2356C118.979 47.2875 119.609 47.268 120.212 47.1447C120.816 47.0149 121.387 46.7747 121.848 46.3787C122.082 46.184 122.283 45.9503 122.465 45.6972C122.633 45.4375 122.796 45.1325 122.919 44.8404C123.172 44.2432 123.244 43.62 123.055 43.0748C122.867 42.523 122.413 42.0362 121.835 41.6402C121.257 41.2443 120.576 40.9262 119.862 40.6601C119.141 40.394 118.388 40.1862 117.609 39.998C116.052 39.6345 114.422 39.3943 112.754 39.2126C112.137 39.1477 111.527 39.0892 110.917 39.0438C110.612 39.0178 110.307 38.9984 110.002 38.9724C109.684 38.9464 109.405 38.927 109.106 38.914C107.938 38.8621 106.769 38.927 105.64 39.0828C105.075 39.1606 104.523 39.2645 103.985 39.4008C103.712 39.4657 103.452 39.5436 103.186 39.6215C102.927 39.7059 102.667 39.7903 102.42 39.8941C101.927 40.0889 101.447 40.3161 101.012 40.5887C100.577 40.8613 100.187 41.1729 99.8627 41.5234C99.7848 41.6143 99.7004 41.6987 99.629 41.796C99.5576 41.8934 99.4927 41.9843 99.4213 42.0816C99.3629 42.1855 99.3045 42.2829 99.2461 42.3867C99.2136 42.4387 99.1876 42.4906 99.1682 42.5425L99.0968 42.6983C99.0773 42.7502 99.0448 42.8022 99.0319 42.8541L98.9799 43.0164C98.9475 43.1267 98.902 43.2306 98.8891 43.3474C98.8696 43.4578 98.8436 43.5746 98.8241 43.6849C98.8112 43.8018 98.8047 43.9121 98.7917 44.029C98.7722 44.1458 98.7852 44.2627 98.7852 44.373C98.7917 44.4898 98.7787 44.6067 98.7982 44.717C98.8241 44.9507 98.8371 45.1779 98.8955 45.4051C98.9215 45.5219 98.941 45.6323 98.9669 45.7491C98.9994 45.8595 99.0319 45.9698 99.0643 46.0866C99.0968 46.197 99.1227 46.3138 99.1617 46.4177C99.2006 46.5151 99.2331 46.6254 99.2785 46.7228C99.616 47.5147 100.239 48.1184 100.973 48.417C101.7 48.7285 102.531 48.7285 103.199 48.4624C103.53 48.3261 103.809 48.1119 104.011 47.8522C104.212 47.5926 104.329 47.2745 104.361 46.95C104.426 46.2944 104.173 45.6453 103.913 45.074C103.881 45.0026 103.848 44.9312 103.809 44.8663C103.77 44.8014 103.738 44.73 103.699 44.6651C103.66 44.6002 103.621 44.5418 103.576 44.4833L103.517 44.3925L103.452 44.3081C103.277 44.0874 103.076 43.9056 102.849 43.8148C102.628 43.7174 102.388 43.7239 102.174 43.8018C101.959 43.8797 101.778 44.0225 101.635 44.1848C101.485 44.347 101.382 44.5223 101.304 44.704C101.232 44.8858 101.174 45.0611 101.167 45.2298C101.141 45.5674 101.258 45.8595 101.447 45.9958C101.537 46.0737 101.635 46.1126 101.713 46.1451C101.797 46.1645 101.875 46.197 101.933 46.197C102.063 46.2359 102.128 46.2489 102.128 46.2489Z" fill="#4D4A4A"/>
<path d="M80.6233 21.6084C80.9609 20.6672 82.0189 20.9723 82.5317 21.4526C82.7005 21.6084 83.1094 21.9719 83.1159 22.2121C83.1159 22.3224 83.1808 22.3938 83.2587 22.4198C83.3171 22.7314 83.3885 23.0429 83.4664 23.348C83.5313 24.8734 83.9013 26.3923 84.7257 27.6581C84.8296 27.8139 85.0178 27.8009 85.1282 27.7035C84.5829 26.4378 84.1155 24.9059 84.1804 23.5817C84.1869 23.4064 84.2389 23.2571 84.3168 23.1338C84.4401 22.1601 84.7582 21.1605 85.1931 20.2323C86.0174 18.7913 87.0365 17.3243 88.3932 16.3896C88.4386 16.3571 88.4841 16.3311 88.536 16.3052C89.6524 15.7729 90.8793 15.8508 92.0671 16.6557C92.8071 17.1555 93.5471 17.889 93.9755 18.6809C94.2092 19.1093 94.4104 20.0376 93.9625 20.4465C93.7354 20.6542 92.8785 20.6542 92.5734 20.5374C92.4891 20.5049 92.3917 20.5439 92.3268 20.5958C91.6842 21.1216 92.2424 22.3873 92.8331 22.7508C93.8262 23.374 95.3062 22.4847 95.9099 21.6928C96.559 20.8425 96.7732 19.4079 96.4486 18.3888C96.3058 17.9539 96.0202 17.4671 95.6632 16.9997C95.3516 16.3701 94.9297 15.7729 94.4299 15.2536C94.326 14.8966 94.5143 14.2475 94.365 13.8775C94.1962 13.4621 93.8846 13.0661 93.5276 12.8065C92.7747 12.2547 91.5673 12.2158 90.6586 12.3456C90.5937 12.2482 90.4703 12.1898 90.3665 12.2677C90.6975 12.0275 89.8602 11.7679 89.6654 11.729C89.2046 11.6316 88.7047 11.7744 88.2828 11.9432C87.7635 12.1574 87.3351 12.4819 86.9651 12.8714C86.9327 12.8389 86.8807 12.813 86.8223 12.813C85.9655 12.7935 85.0373 13.8256 84.5439 14.4292C83.8169 15.312 83.4145 16.5259 83.2003 17.6359C83.1029 18.1422 83.038 18.642 83.012 19.1418C82.2591 18.603 81.1945 18.3044 80.4416 18.9341C79.6756 19.5702 79.4484 20.9528 80.1819 21.6928C80.3312 21.8616 80.5584 21.7902 80.6233 21.6084ZM93.8652 15.4029C93.7094 15.312 93.5536 15.2406 93.4043 15.1887C91.6322 14.5461 89.8602 14.942 88.3672 15.8703C87.8934 16.078 87.4325 16.3896 86.9976 16.8115C86.2316 17.5515 85.4917 18.5771 84.9139 19.726C84.7517 20.0181 84.6024 20.3102 84.4661 20.6088C84.4855 19.9142 84.5634 19.2586 84.7192 18.6095C84.8425 18.3239 84.9724 18.0513 85.1217 17.7916C85.1606 17.7592 85.1931 17.7267 85.2125 17.6683C85.2255 17.6359 85.2385 17.6034 85.2515 17.5709C85.4073 17.3308 85.5695 17.1036 85.7513 16.8894C86.8937 15.5522 88.549 14.1826 90.36 14.0268C91.6712 13.91 92.898 14.5071 93.8652 15.4029ZM90.0679 12.4949C88.88 12.8454 87.9583 13.7152 87.0625 14.5656C86.6536 14.955 86.2187 15.338 85.8227 15.7534C86.0629 15.2406 86.316 14.7213 86.6211 14.2475C87.2378 13.2544 88.7437 11.5602 90.0679 12.4949ZM83.5184 19.6481C83.5248 19.5053 83.5313 19.3625 83.5378 19.2197C83.6222 18.0643 83.8429 16.9088 84.3297 15.8508C84.6608 15.1303 85.6539 13.553 86.6016 13.3258C86.3744 13.6244 86.1667 13.9424 85.9785 14.267C85.1087 15.7664 84.4401 17.2464 84.122 18.8302C83.8559 19.5637 83.6806 20.3361 83.5703 21.1346C83.5248 20.6867 83.4989 20.2388 83.5119 19.7714C83.5313 19.739 83.5313 19.6935 83.5184 19.6481ZM81.0972 19.2716C81.7982 19.012 82.4798 19.3235 82.9926 19.8298C82.9926 20.3102 83.0185 20.7905 83.0705 21.2644C82.7264 20.9139 82.285 20.6218 81.9929 20.5309C81.3568 20.3361 80.7337 20.5763 80.3572 21.0632C80.0521 20.4011 80.4481 19.5118 81.0972 19.2716Z" fill="#4D4A4A"/>
<path d="M65.7262 43.023C65.2069 43.023 64.6876 42.8802 64.2332 42.5881C58.5081 38.9271 48.7714 32.5853 47.8757 31.2092C47.3629 30.4173 47.2525 29.5864 47.2525 29.0347C47.2525 22.0568 46.9864 0.76595 46.9864 0.551743L46.9734 0H84.8035V28.5543C84.8035 28.6128 84.7905 29.9434 83.8688 31.021C83.1937 31.8129 73.1779 38.5831 67.271 42.5492C66.8037 42.8672 66.2649 43.023 65.7262 43.023ZM48.0574 1.07103C48.0963 4.45289 48.317 22.6669 48.317 29.0282C48.317 29.6254 48.4663 30.1576 48.7649 30.6185C49.3167 31.4624 55.613 35.8049 64.8044 41.6793C65.3757 42.0428 66.1091 42.0364 66.6674 41.6599C76.1574 35.2921 82.5836 30.8457 83.0509 30.3264C83.7065 29.5605 83.726 28.5673 83.726 28.5543V1.07103H48.0574Z" fill="#4D4A4A"/>
<path d="M65.739 41.0885C65.3236 41.0885 64.9146 40.9717 64.5511 40.738C60.2995 38.0182 50.3161 31.5596 49.4918 30.2938C49.0634 29.6382 48.9725 28.9437 48.9725 28.4763C48.9725 22.0047 48.7258 2.25878 48.7258 2.05756V1.92773H83.0637V28.0414C83.0637 28.0869 83.0573 29.1903 82.2848 30.0926C81.6617 30.8196 71.3668 37.7651 66.9658 40.712C66.5958 40.9652 66.1674 41.0885 65.739 41.0885ZM48.9855 2.19387C49.0049 3.93997 49.2321 22.2838 49.2321 28.4828C49.2321 28.9112 49.3165 29.5538 49.706 30.1575C50.5239 31.4168 61.3835 38.4077 64.6874 40.5238C65.343 40.9392 66.1739 40.9327 66.8165 40.4978C70.2438 38.2 81.4604 30.6444 82.0771 29.9238C82.7846 29.0995 82.7911 28.0544 82.7911 28.0414V2.19387H48.9855Z" fill="#4D4A4A"/>
<path d="M51.9132 20.6418C52.6466 19.8953 52.4195 18.5192 51.6535 17.8831C50.9005 17.2535 49.836 17.5456 49.083 18.0908C49.0506 17.5975 48.9922 17.0977 48.8948 16.5849C48.6806 15.4814 48.2781 14.2676 47.5511 13.3783C47.0578 12.7746 46.1361 11.7425 45.2728 11.762C45.2078 11.762 45.1624 11.788 45.13 11.8204C44.76 11.4309 44.338 11.1064 43.8123 10.8922C43.3903 10.7169 42.8905 10.5806 42.4297 10.678C42.2349 10.7169 41.3976 10.9766 41.7286 11.2167C41.6183 11.1388 41.5014 11.1973 41.4365 11.2946C40.5278 11.1648 39.3139 11.2038 38.5675 11.7555C38.2104 12.0151 37.8989 12.4176 37.7301 12.8265C37.5808 13.1965 37.7755 13.8456 37.6652 14.2026C37.1654 14.7219 36.7435 15.3256 36.4319 15.9487C36.0684 16.4161 35.7893 16.9029 35.6465 17.3378C35.3154 18.3505 35.5296 19.785 36.1852 20.6418C36.7889 21.4272 38.2689 22.3165 39.262 21.6999C39.8527 21.3299 40.4109 20.0706 39.7683 19.5448C39.7034 19.4929 39.6125 19.4539 39.5216 19.4864C39.2166 19.6032 38.3532 19.6032 38.1326 19.3955C37.6912 18.9866 37.8859 18.0584 38.1196 17.6299C38.548 16.838 39.288 16.1045 40.028 15.6047C41.2158 14.7998 42.4426 14.7219 43.5591 15.2542C43.6045 15.2867 43.6565 15.3126 43.7019 15.3386C45.0586 16.2733 46.0841 17.7403 46.902 19.1813C47.3369 20.1095 47.655 21.1092 47.7783 22.0828C47.8562 22.2062 47.9017 22.349 47.9146 22.5307C47.9795 23.8549 47.5122 25.3868 46.9669 26.6526C47.0773 26.7499 47.2655 26.7629 47.3694 26.6071C48.2002 25.3414 48.5702 23.8224 48.6287 22.297C48.7066 21.9855 48.7715 21.6804 48.8364 21.3688C48.9143 21.3428 48.9792 21.2714 48.9792 21.1611C48.9792 20.9209 49.3946 20.5574 49.5634 20.4016C50.0762 19.9148 51.1342 19.6162 51.4718 20.5509C51.5432 20.7197 51.7703 20.7911 51.9132 20.6418ZM41.7351 12.9499C43.5461 13.1056 45.2014 14.4688 46.3438 15.8124C46.5255 16.0266 46.6878 16.2538 46.8436 16.494C46.8566 16.5265 46.8761 16.5589 46.8826 16.5914C46.902 16.6498 46.9345 16.6887 46.9734 16.7147C47.1227 16.9743 47.259 17.2535 47.3759 17.5326C47.5317 18.1817 47.6096 18.8373 47.629 19.5318C47.4927 19.2332 47.3434 18.9411 47.1811 18.649C46.6034 17.5001 45.8634 16.4745 45.0975 15.7345C44.6561 15.3126 44.1952 15.001 43.7279 14.7933C42.2349 13.8651 40.4629 13.4691 38.6908 14.1118C38.5415 14.1637 38.3857 14.2416 38.2299 14.326C39.2036 13.4302 40.4304 12.8395 41.7351 12.9499ZM45.4805 13.1706C45.7791 13.6509 46.0322 14.1637 46.2789 14.6765C45.8829 14.2611 45.448 13.8716 45.0391 13.4886C44.1433 12.6383 43.2216 11.7685 42.0337 11.418C43.3579 10.4897 44.8638 12.1839 45.4805 13.1706ZM48.5832 18.7075C48.5897 19.1683 48.5702 19.6227 48.5248 20.0706C48.4144 19.2722 48.2392 18.4933 47.9731 17.7663C47.655 16.1824 46.9864 14.7025 46.1166 13.203C45.9284 12.872 45.7206 12.5539 45.4935 12.2553C46.4412 12.4825 47.4343 14.0533 47.7653 14.7803C48.2522 15.8384 48.4729 16.9938 48.5573 18.1492C48.5702 18.292 48.5767 18.4348 48.5767 18.5776C48.5702 18.6166 48.5702 18.662 48.5832 18.7075ZM51.7379 19.9862C51.3679 19.4994 50.7383 19.2657 50.1021 19.4539C49.81 19.5448 49.3622 19.8369 49.0246 20.1874C49.0765 19.7136 49.1025 19.2332 49.1025 18.7529C49.6153 18.2531 50.2969 17.9415 50.9979 18.1947C51.6535 18.4413 52.0495 19.3306 51.7379 19.9862Z" fill="#4D4A4A"/>
<path d="M80.1623 45.5739C80.1623 45.5739 80.1039 45.5999 79.987 45.6389C79.8702 45.6843 79.6949 45.7297 79.4548 45.7557C79.2146 45.7687 78.9095 45.7557 78.585 45.5934C78.4292 45.509 78.2669 45.3987 78.1241 45.2494C77.9878 45.0936 77.8644 44.9054 77.7866 44.6912C77.6178 44.2563 77.6308 43.698 77.8839 43.1917C78.1306 42.6854 78.6239 42.283 79.1756 42.0493C79.7339 41.8091 80.357 41.7247 80.9867 41.7182C81.2982 41.7117 81.6423 41.7507 81.9733 41.8156C82.3044 41.9 82.6419 42.0298 82.9535 42.218C83.3754 42.4842 83.7129 42.8607 83.9336 43.2761C84.1608 43.698 84.2712 44.1524 84.2971 44.5873C84.3491 45.4636 84.0764 46.2685 83.6999 46.8916C83.3105 47.5148 82.8236 47.9886 82.3368 48.3002C81.85 48.6183 81.3826 48.8 80.9996 48.9104C80.6297 49.0662 80.1688 49.2349 79.5911 49.3128C79.0199 49.3907 78.3058 49.3193 77.6373 48.9818C76.9687 48.6442 76.391 48.0795 75.8717 47.4629C75.3459 46.8462 74.8591 46.1711 74.3268 45.522C73.5414 44.5613 72.691 43.7759 71.7823 43.2501C70.8735 42.7244 69.9453 42.4387 69.1469 42.2895C69.0495 42.27 68.9522 42.2505 68.8548 42.231C68.7574 42.218 68.6666 42.2051 68.5757 42.1921C68.3939 42.1726 68.2187 42.1402 68.0564 42.1272C67.7318 42.1077 67.4462 42.0752 67.219 42.0752C66.7582 42.0688 66.4985 42.0623 66.4985 42.0623C66.4985 42.0623 66.7582 42.0233 67.2126 41.9584C67.4462 41.9259 67.7318 41.913 68.0629 41.887C68.2317 41.874 68.4069 41.887 68.5952 41.8805C68.6925 41.8805 68.7899 41.8805 68.8873 41.8805C68.9846 41.887 69.0885 41.8935 69.1988 41.9065C70.0427 41.9714 71.0618 42.1661 72.0939 42.6789C72.6067 42.9321 73.113 43.2696 73.5868 43.6721C74.0672 44.0745 74.5085 44.5354 74.924 45.0352C75.4822 45.7167 75.9561 46.4048 76.4299 47.015C76.6636 47.3201 76.9038 47.6057 77.1504 47.8588C77.3906 48.1185 77.6567 48.3197 77.9229 48.4949C78.4616 48.826 79.0458 48.9558 79.5781 48.9493C80.1104 48.9363 80.5777 48.8455 80.9477 48.7416C81.2982 48.5858 81.7137 48.3521 82.1226 48.0081C82.5315 47.6706 82.9275 47.1967 83.2196 46.6255C83.5052 46.0543 83.674 45.3532 83.6026 44.6522C83.5312 43.9512 83.1807 43.2631 82.5575 42.8737C82.3238 42.7308 82.0707 42.6335 81.811 42.5621C81.5449 42.5037 81.2788 42.4647 80.9932 42.4582C80.4349 42.4452 79.8897 42.4907 79.4288 42.653C78.9679 42.8087 78.5785 43.0879 78.3578 43.4449C78.1371 43.7954 78.0787 44.2173 78.163 44.5743C78.2085 44.7496 78.2799 44.9119 78.3772 45.0482C78.4746 45.1845 78.5915 45.2948 78.7148 45.3792C78.9679 45.548 79.2406 45.6129 79.4613 45.6324C79.6884 45.6454 79.8637 45.6259 79.987 45.6064C80.0974 45.5869 80.1623 45.5739 80.1623 45.5739Z" fill="#4D4A4A"/>
<path d="M51.0433 45.6514C51.0433 45.6514 51.1082 45.6644 51.225 45.6839C51.3418 45.7034 51.5236 45.7228 51.7508 45.7099C51.9715 45.6904 52.2441 45.632 52.4973 45.4567C52.6206 45.3658 52.7374 45.262 52.8348 45.1257C52.9322 44.9894 53.0036 44.8271 53.049 44.6518C53.1399 44.2948 53.0815 43.8794 52.8543 43.5224C52.6336 43.1654 52.2506 42.8927 51.7832 42.7305C51.3224 42.5617 50.7771 42.5162 50.2189 42.5357C49.9333 42.5422 49.6671 42.5812 49.401 42.6396C49.1414 42.711 48.8882 42.8148 48.6545 42.9511C48.0314 43.3406 47.6809 44.0287 47.6095 44.7297C47.5381 45.4308 47.7068 46.1318 47.9924 46.703C48.2845 47.2742 48.674 47.7481 49.0894 48.0856C49.4984 48.4296 49.9138 48.6633 50.2643 48.8191C50.6343 48.9165 51.1082 49.0138 51.6339 49.0268C52.1662 49.0398 52.7504 48.9035 53.2892 48.5724C53.5553 48.4037 53.815 48.196 54.0616 47.9363C54.3083 47.6897 54.542 47.404 54.7821 47.0925C55.256 46.4823 55.7298 45.7878 56.2881 45.1127C56.7035 44.6129 57.1449 44.1455 57.6252 43.7496C58.1056 43.3536 58.6054 43.0096 59.1182 42.7564C60.1503 42.2436 61.1694 42.0489 62.0132 41.984C62.1171 41.9775 62.2209 41.971 62.3248 41.958C62.4222 41.958 62.526 41.958 62.6169 41.958C62.8051 41.958 62.9869 41.9515 63.1492 41.9645C63.4802 41.9905 63.7658 41.997 63.9995 42.0359C64.4604 42.1008 64.7135 42.1398 64.7135 42.1398C64.7135 42.1398 64.4539 42.1463 63.993 42.1527C63.7593 42.1527 63.4802 42.1852 63.1556 42.2047C62.9934 42.2177 62.8181 42.2501 62.6364 42.2696C62.5455 42.2826 62.4481 42.2955 62.3572 42.3085C62.2599 42.328 62.1625 42.3475 62.0651 42.3669C61.2667 42.5227 60.3385 42.8019 59.4298 43.3276C58.521 43.8534 57.6642 44.6453 56.8852 45.5995C56.3465 46.2486 55.8597 46.9172 55.3404 47.5404C54.8211 48.157 54.2434 48.7217 53.5748 49.0593C52.9062 49.4033 52.1922 49.4747 51.621 49.3903C51.0433 49.3059 50.5759 49.1437 50.2124 48.9879C49.8294 48.884 49.3621 48.6958 48.8752 48.3777C48.3884 48.0661 47.8951 47.5923 47.5121 46.9691C47.1291 46.346 46.863 45.5476 46.9149 44.6648C46.9409 44.2299 47.0512 43.7755 47.2784 43.3536C47.4991 42.9317 47.8431 42.5552 48.2586 42.2956C48.5701 42.1073 48.9012 41.9775 49.2387 41.8931C49.5698 41.8217 49.9138 41.7892 50.2254 41.7957C50.855 41.8022 51.4782 41.8801 52.0364 42.1268C52.5946 42.3605 53.0815 42.7564 53.3281 43.2692C53.5813 43.769 53.5943 44.3338 53.4255 44.7687C53.3411 44.9894 53.2243 45.1776 53.088 45.3269C52.9451 45.4762 52.7829 45.593 52.6271 45.6709C52.3025 45.8267 51.991 45.8462 51.7573 45.8332C51.5171 45.8072 51.3418 45.7618 51.225 45.7164C51.1017 45.6709 51.0433 45.6514 51.0433 45.6514Z" fill="#4D4A4A"/>
<path d="M74.606 25.646C74.9241 25.9316 75.2421 26.0809 75.5537 26.1004V26.6716C74.4113 26.6132 72.9573 26.5872 71.2112 26.5872C69.2573 26.5872 67.8033 26.6132 66.8621 26.6716V26.1004C67.5826 26.0744 68.0954 25.9836 68.407 25.8343C68.7186 25.685 68.8744 25.4253 68.8744 25.0489C68.8744 24.7632 68.7575 24.3089 68.5238 23.6922L66.8037 18.9992H60.5722L59.8193 20.9724C59.3 22.3161 59.0339 23.3742 59.0339 24.1596C59.0339 24.8671 59.2416 25.3604 59.6635 25.6395C60.0854 25.9187 60.715 26.0744 61.5654 26.1004V26.6716C60.2801 26.6132 59.0988 26.5872 58.0147 26.5872C57.1385 26.5872 56.4114 26.6132 55.8337 26.6716V26.1004C56.7814 25.9446 57.6058 24.9385 58.2939 23.095L64.8239 6.35449C65.129 6.38046 65.46 6.39344 65.817 6.39344C66.187 6.39344 66.5181 6.38046 66.8102 6.35449L73.7557 24.2699C74.0088 24.906 74.2944 25.3604 74.606 25.646ZM63.7659 10.7035L60.8059 18.4279H66.6025L63.7659 10.7035Z" fill="#4D4A4A"/>
<path d="M20.8533 59.6334L20.8987 59.3154L21.7036 59.0752L24.1248 52.7464L24.6895 52.623L26.9095 59.1077L27.6559 59.2764L27.6105 59.6334H25.053L25.1049 59.3154L26.0397 59.0752L25.3516 57.1149H23.0018L22.2748 59.1077L23.3004 59.2829L23.242 59.6334H20.8533ZM23.1641 56.68H25.2283L24.2351 53.772L23.1641 56.68Z" fill="#4D4A4A"/>
<path d="M28.74 59.6333L28.7854 59.3347L29.7137 59.1269L30.1421 53.272L29.123 53.0643L29.1749 52.7527H31.1677L31.5831 53.8107L33.1669 58.1533L35.0169 53.5965L35.3869 52.7592H37.3796L37.3407 53.0708L36.393 53.259L36.6916 59.1659L37.6912 59.3087L37.6588 59.6397H34.9L34.9455 59.3412L35.8802 59.1334L35.5621 53.629L33.2253 59.3347L32.732 59.4126L30.6549 53.7848L30.2654 59.1659L31.278 59.3087L31.2196 59.6397H28.74V59.6333Z" fill="#4D4A4A"/>
<path d="M38.7881 53.0772L38.84 52.7527H44.0978L43.929 54.5183L43.559 54.4663L43.3903 53.1422H40.6121V55.9333H42.3517L42.5724 55.2193L42.9684 55.1609L42.7866 57.3094L42.4231 57.3679L42.2868 56.3423H40.6121V59.2113H43.5396L44.0134 57.8352L44.3574 57.8936L44.1887 59.6268H38.827L38.8595 59.3087L39.7877 59.101V53.2655L38.7881 53.0772Z" fill="#4D4A4A"/>
<path d="M45.4481 59.6332L45.4935 59.3151L46.4153 59.1074V53.2914L45.4221 53.0837L45.474 52.7656H48.2522L48.2133 53.0837L47.2461 53.2719V59.2243H49.9399L50.5176 57.7508L50.8682 57.8092L50.6799 59.6397H45.4481V59.6332Z" fill="#4D4A4A"/>
<path d="M51.9456 53.0644L51.991 52.7463H54.7627L54.7108 53.0644L53.7631 53.2332V59.1271L54.7951 59.2764L54.7367 59.6269H51.991L52.0299 59.3088L52.9257 59.1011V53.2526L51.9456 53.0644Z" fill="#4D4A4A"/>
<path d="M55.9053 59.6334L55.9507 59.3154L56.7556 59.0752L59.1768 52.7464L59.7415 52.623L61.9615 59.1077L62.7079 59.2764L62.6625 59.6334H60.105L60.1569 59.3154L61.0917 59.0752L60.4036 57.1149H58.0538L57.3268 59.1077L58.3524 59.2829L58.294 59.6334H55.9053ZM58.2161 56.68H60.2803L59.2871 53.772L58.2161 56.68Z" fill="#4D4A4A"/>
<path d="M67.8877 59.7441C67.5437 59.7441 67.2321 59.6727 66.9725 59.5364C66.7063 59.3935 66.5051 59.1988 66.3558 58.9522C66.213 58.699 66.1416 58.4199 66.1416 58.1018C66.1416 57.6539 66.2844 57.2515 66.57 56.888C66.8556 56.5245 67.2581 56.174 67.7838 55.8429C67.5632 55.6157 67.3749 55.3626 67.2256 55.0835C67.0763 54.8043 66.9984 54.5252 66.9984 54.2526C66.9984 53.967 67.0698 53.7009 67.2256 53.4477C67.3749 53.1945 67.5761 52.9933 67.8293 52.8375C68.0824 52.6818 68.3486 52.6104 68.6407 52.6104C69.1145 52.6104 69.4845 52.7337 69.7507 52.9739C70.0168 53.214 70.1531 53.5645 70.1531 54.0254C70.1531 54.3435 70.0363 54.6421 69.8091 54.9212C69.5754 55.2003 69.2508 55.4859 68.8159 55.7715V55.8105L70.1596 57.3359L71.1722 55.6612L70.2959 55.447L70.3284 55.1419H72.6781L72.6327 55.447L71.698 55.6352L70.4841 57.6669C70.8801 58.1408 71.2436 58.5108 71.5682 58.7769C71.8927 59.043 72.1653 59.2118 72.386 59.2832L72.6002 59.3481L72.5418 59.6467C72.4315 59.6856 72.3341 59.7116 72.2497 59.7246C72.1653 59.7376 72.068 59.7441 71.9511 59.7441C71.6915 59.7441 71.4448 59.6662 71.2047 59.5169C70.9645 59.3611 70.7503 59.1793 70.5556 58.9586L70.0298 58.3809C69.8415 58.6601 69.6533 58.8937 69.4521 59.0885C69.2573 59.2832 69.0301 59.4455 68.764 59.5623C68.5238 59.6792 68.2252 59.7441 67.8877 59.7441ZM68.0175 56.161C67.6995 56.3947 67.4398 56.6348 67.2516 56.8945C67.0633 57.1476 66.9725 57.4397 66.9725 57.7643C66.9725 58.0174 67.0244 58.2511 67.1218 58.4588C67.2191 58.6665 67.3619 58.8353 67.5437 58.9651C67.7254 59.0885 67.9396 59.1534 68.1798 59.1534C68.4979 59.1534 68.7835 59.0495 69.0431 58.8418C69.3028 58.6341 69.53 58.368 69.7182 58.0434L68.0695 56.161H68.0175ZM68.5044 52.9933C68.3356 52.9933 68.1928 53.0388 68.063 53.1296C67.9331 53.2205 67.8358 53.3374 67.7644 53.4866C67.6995 53.6359 67.6605 53.7917 67.6605 53.9605C67.6605 54.2007 67.7384 54.4538 67.9007 54.7135C68.063 54.9731 68.2642 55.2263 68.4979 55.4729C68.7965 55.2587 69.0236 55.051 69.1729 54.8563C69.3222 54.655 69.3936 54.4149 69.3936 54.1358C69.3936 53.928 69.3547 53.7333 69.2833 53.5581C69.2119 53.3828 69.108 53.2465 68.9717 53.1491C68.8484 53.0453 68.6861 52.9933 68.5044 52.9933Z" fill="#4D4A4A"/>
<path d="M76.2224 61.4249L76.0146 61.0614C76.4755 60.646 76.8131 60.2371 77.0402 59.8281C77.2609 59.4257 77.3713 58.9713 77.3713 58.4715V53.2462L76.3652 53.0644L76.4106 52.7463H79.1888L79.1369 53.0644L78.1957 53.2332L78.1827 57.5692C78.1762 58.3092 78.1178 58.8999 78.0009 59.3348C77.8841 59.7697 77.6894 60.1397 77.4232 60.4383C77.1506 60.7434 76.7546 61.0679 76.2224 61.4249Z" fill="#4D4A4A"/>
<path d="M80.2468 59.6334L80.2923 59.3154L81.0972 59.0752L83.5183 52.7464L84.0831 52.623L86.303 59.1077L87.0495 59.2764L87.0041 59.6334H84.4466L84.4985 59.3154L85.4332 59.0752L84.7452 57.1149H82.3954L81.6684 59.1077L82.694 59.2829L82.6356 59.6334H80.2468ZM82.5577 56.68H84.6218L83.6287 53.772L82.5577 56.68Z" fill="#4D4A4A"/>
<path d="M91.2103 59.7696C90.6456 59.7696 90.1263 59.6333 89.6655 59.3542C89.2046 59.0751 88.8411 58.6791 88.5685 58.1599C88.3023 57.6406 88.166 57.0239 88.166 56.3229C88.166 55.7387 88.2894 55.161 88.536 54.5897C88.7827 54.0185 89.1527 53.5447 89.6525 53.1747C90.1523 52.7982 90.7689 52.6165 91.5024 52.6165C92.3138 52.6165 92.9629 52.7982 93.4433 53.1617L93.2745 55.0117L92.898 54.9533L92.6968 53.6291C92.3852 53.2266 91.8919 53.0254 91.2168 53.0254C90.8274 53.0254 90.4639 53.1487 90.1393 53.4019C89.8083 53.655 89.5486 54.012 89.3604 54.4664C89.1656 54.9208 89.0748 55.4466 89.0748 56.0308C89.0748 56.6929 89.1851 57.2576 89.3993 57.7314C89.6135 58.2053 89.9121 58.5623 90.2951 58.8025C90.6716 59.0426 91.1065 59.166 91.5998 59.166C91.9698 59.166 92.3268 59.0751 92.6644 58.8998C93.0084 58.7246 93.307 58.5039 93.5731 58.2377L93.7354 58.5558C93.5926 58.7505 93.3913 58.9388 93.1447 59.1205C92.8915 59.3088 92.5994 59.4646 92.2684 59.5879C91.9244 59.7047 91.5738 59.7696 91.2103 59.7696Z" fill="#4D4A4A"/>
<path d="M97.8313 59.7826C97.2406 59.7826 96.7083 59.6268 96.2475 59.3023C95.7866 58.9842 95.4296 58.5493 95.1764 58.0041C94.9233 57.4588 94.7935 56.8551 94.7935 56.1995C94.7935 55.492 94.9298 54.8624 95.2089 54.3171C95.488 53.7719 95.884 53.3434 96.4032 53.0384C96.9225 52.7333 97.5262 52.584 98.2143 52.584C98.8439 52.584 99.3892 52.7398 99.8435 53.0578C100.298 53.3759 100.648 53.8043 100.889 54.3496C101.129 54.8948 101.246 55.505 101.246 56.1736C101.246 56.7902 101.116 57.3809 100.856 57.9262C100.596 58.4779 100.207 58.9193 99.6877 59.2633C99.1749 59.6074 98.5518 59.7826 97.8313 59.7826ZM97.9481 53.0124C97.4288 53.0124 97.0004 53.1487 96.6694 53.4148C96.3383 53.681 96.0917 54.0315 95.9424 54.4599C95.7931 54.8883 95.7217 55.3622 95.7217 55.8815C95.7217 56.5111 95.8126 57.0888 95.9878 57.6081C96.1631 58.1274 96.4292 58.5428 96.7927 58.8479C97.1497 59.153 97.5846 59.3088 98.1039 59.3088C98.6232 59.3088 99.0451 59.1725 99.3827 58.8933C99.7202 58.6142 99.9604 58.2637 100.116 57.8288C100.272 57.3939 100.343 56.9395 100.343 56.4527C100.343 55.823 100.252 55.2518 100.071 54.726C99.889 54.2003 99.6163 53.7848 99.2593 53.4733C98.8893 53.1682 98.4544 53.0124 97.9481 53.0124Z" fill="#4D4A4A"/>
<path d="M104.952 59.633H102.343L102.401 59.3149L103.329 59.1072V53.395L102.381 53.2522L102.433 52.9407L102.738 52.8952C103.206 52.8238 103.608 52.7719 103.946 52.7394C104.283 52.707 104.64 52.6875 105.023 52.6875C105.53 52.6875 105.952 52.7589 106.302 52.9082C106.646 53.0575 106.906 53.2522 107.075 53.4924C107.243 53.7326 107.328 53.9987 107.328 54.2908C107.328 54.6283 107.23 54.9399 107.036 55.2125C106.841 55.4917 106.562 55.7124 106.185 55.8811V55.9201C106.549 55.9395 106.854 56.0304 107.113 56.1862C107.373 56.3485 107.568 56.5497 107.698 56.7899C107.828 57.03 107.899 57.2767 107.899 57.5364C107.899 57.9258 107.808 58.2763 107.62 58.5879C107.432 58.8995 107.12 59.1526 106.685 59.3474C106.244 59.5356 105.666 59.633 104.952 59.633ZM104.134 53.0705V55.8422H105.705C105.945 55.7188 106.14 55.5436 106.289 55.3164C106.438 55.0957 106.516 54.8296 106.516 54.531C106.516 54.0766 106.367 53.7131 106.062 53.447C105.757 53.1743 105.302 53.038 104.686 53.038C104.439 53.038 104.257 53.051 104.134 53.0705ZM104.134 56.2122V59.2175H105.419C105.796 59.2175 106.107 59.1461 106.354 59.0033C106.601 58.8605 106.782 58.6788 106.893 58.4516C107.003 58.2244 107.062 57.9777 107.062 57.7116C107.062 57.465 107.003 57.2248 106.893 56.9976C106.782 56.7704 106.607 56.5822 106.367 56.4329C106.127 56.2836 105.822 56.2122 105.458 56.2122H104.134Z" fill="#4D4A4A"/>
<path d="M14.0244 63.762L26.695 63.6322L39.3722 63.5543L64.7264 63.4958L90.0741 63.5543L102.751 63.6322L115.422 63.762L102.751 63.8918L90.0741 63.9697L64.7264 64.0281L39.3722 63.9632L26.695 63.8918L14.0244 63.762Z" fill="#4D4A4A"/>
<path d="M23.7092 66.7864L23.7352 66.6371H24.9555L24.936 66.7864L24.5076 66.8708L25.2866 68.3248L26.046 66.8773L25.5592 66.7799L25.5722 66.6306H26.6757L26.6627 66.7799L26.3251 66.8643L25.4099 68.5715V69.6749L25.8643 69.7463L25.8383 69.9151H24.5596L24.579 69.7593L25.0074 69.662V68.6039L24.0727 66.8773L23.7092 66.7864Z" fill="#4D4A4A"/>
<path d="M28.6555 69.9999C28.3699 69.9999 28.1233 69.9221 27.9026 69.7728C27.6819 69.6235 27.5131 69.4158 27.3898 69.1561C27.2664 68.8965 27.208 68.6109 27.208 68.2928C27.208 67.9553 27.2729 67.6567 27.4092 67.397C27.5391 67.1374 27.7338 66.9297 27.9805 66.7869C28.2271 66.6441 28.5192 66.5662 28.8438 66.5662C29.1424 66.5662 29.402 66.6441 29.6227 66.7933C29.8434 66.9426 30.0057 67.1504 30.1225 67.41C30.2394 67.6696 30.2913 67.9617 30.2913 68.2798C30.2913 68.5784 30.2264 68.8575 30.103 69.1172C29.9797 69.3833 29.7915 69.591 29.5448 69.7533C29.2981 69.9156 28.9996 69.9999 28.6555 69.9999ZM28.7075 66.7674C28.4608 66.7674 28.2531 66.8323 28.0973 66.9621C27.935 67.0919 27.8247 67.2542 27.7533 67.4619C27.6819 67.6696 27.6494 67.8968 27.6494 68.1435C27.6494 68.4421 27.6948 68.7212 27.7792 68.9679C27.8636 69.2145 27.9934 69.4158 28.1622 69.5586C28.331 69.7079 28.5387 69.7793 28.7853 69.7793C29.032 69.7793 29.2332 69.7143 29.3955 69.578C29.5578 69.4482 29.6746 69.2794 29.746 69.0717C29.8174 68.864 29.8564 68.6433 29.8564 68.4161C29.8564 68.1175 29.8109 67.8449 29.7266 67.5918C29.6422 67.3451 29.5123 67.1439 29.3371 66.9946C29.1618 66.8388 28.9541 66.7674 28.7075 66.7674Z" fill="#4D4A4A"/>
<path d="M31.2843 66.8777L30.804 66.7933L30.8299 66.644H32.1476L32.1281 66.7933L31.6803 66.8777V68.6044C31.6803 69.0003 31.7646 69.2859 31.9334 69.4677C32.1022 69.6494 32.3359 69.7403 32.6344 69.7403C32.9201 69.7403 33.1472 69.6559 33.303 69.4807C33.4588 69.3054 33.5367 69.0457 33.5367 68.7017V66.8842L33.0499 66.7998L33.0693 66.6505H34.2637L34.2377 66.7998L33.7964 66.8842L33.7834 68.6108C33.7769 69.0782 33.6795 69.4222 33.4783 69.6624C33.2771 69.8961 32.959 70.0129 32.5176 70.0129C31.6932 70.0129 31.2843 69.578 31.2843 68.7147V66.8777Z" fill="#4D4A4A"/>
<path d="M36.1137 69.929H34.77L34.796 69.7732L35.2244 69.6759V66.9561L34.783 66.8847L34.809 66.7354C35.0491 66.6964 35.2569 66.664 35.4321 66.6445C35.6139 66.625 35.7891 66.6121 35.9709 66.6121C36.3344 66.6121 36.62 66.677 36.8342 66.8068C37.0484 66.9366 37.1587 67.1378 37.1587 67.4105C37.1587 67.5922 37.1003 67.7675 36.977 67.9298C36.8537 68.092 36.6719 68.2218 36.4188 68.3322L36.9121 69.0397C37.0354 69.215 37.1328 69.3513 37.2107 69.4422C37.2886 69.5331 37.3535 69.6045 37.4184 69.6499C37.4833 69.6953 37.5547 69.7343 37.6456 69.7602L37.7559 69.7927L37.73 69.9355C37.678 69.955 37.6326 69.968 37.5936 69.9744C37.5547 69.9809 37.5093 69.9809 37.4508 69.9809C37.2821 69.9809 37.1328 69.9225 37.003 69.7992C36.8731 69.6823 36.7433 69.5071 36.607 69.2799L36.1267 68.462H35.6139V69.6694L36.1396 69.7537L36.1137 69.929ZM35.6074 66.8003V68.2673H36.1721C36.3344 68.2089 36.4707 68.1115 36.581 67.9817C36.6914 67.8519 36.7433 67.6961 36.7433 67.5208C36.7433 67.3715 36.7109 67.2417 36.6459 67.1313C36.581 67.021 36.4837 66.9366 36.3668 66.8782C36.2435 66.8198 36.1007 66.7873 35.9319 66.7873C35.8605 66.7873 35.7956 66.7873 35.7307 66.7938C35.6658 66.7938 35.6268 66.8003 35.6074 66.8003Z" fill="#4D4A4A"/>
<path d="M39.3723 66.644H42.2024L42.1116 67.5268L41.9168 67.5009L41.8454 66.8323H40.9561V69.6819L41.4365 69.7663L41.404 69.935H40.0928L40.1058 69.7792L40.5602 69.6819V66.8388H39.7034L39.5865 67.5268L39.3983 67.5009L39.3723 66.644Z" fill="#4D4A4A"/>
<path d="M42.728 66.7998L42.754 66.644H45.266L45.1817 67.4879L45.0064 67.4619L44.9285 66.8323H43.5978V68.163H44.4287L44.5326 67.8254L44.7208 67.7995L44.6364 68.8251L44.4611 68.851L44.3962 68.3577H43.5978V69.7273H44.9934L45.2206 69.0717L45.3829 69.0977L45.305 69.922H42.741L42.754 69.7663L43.2019 69.6689V66.8842L42.728 66.7998Z" fill="#4D4A4A"/>
<path d="M45.8958 69.9285L45.9217 69.7792L46.2528 69.6819L47.2848 68.2863L46.3242 66.8777L45.9607 66.7868L45.9801 66.644H47.2134L47.194 66.7868L46.785 66.8842L47.551 68.0072L48.3818 66.8777L47.9275 66.7933L47.9534 66.644H49.018L49.005 66.7933L48.6739 66.8712L47.7003 68.2019L48.6999 69.7078L49.0569 69.7792L49.0309 69.935H47.8041L47.8301 69.7987L48.2585 69.6949L47.4406 68.481L46.5643 69.7013L47.0057 69.7728L46.9733 69.935H45.8958V69.9285Z" fill="#4D4A4A"/>
<path d="M49.5828 66.644H52.4129L52.322 67.5268L52.1273 67.5009L52.0559 66.8323H51.1601V69.6819L51.6404 69.7663L51.608 69.935H50.3033L50.3163 69.7792L50.7706 69.6819V66.8388H49.9138L49.797 67.5268L49.6087 67.5009L49.5828 66.644Z" fill="#4D4A4A"/>
<path d="M55.5026 69.9932C55.23 69.9932 54.9833 69.9283 54.7626 69.7919C54.5419 69.6621 54.3666 69.4674 54.2368 69.2207C54.107 68.9741 54.0486 68.682 54.0486 68.3444C54.0486 68.0653 54.107 67.7927 54.2238 67.5201C54.3407 67.2474 54.5159 67.0203 54.7561 66.845C54.9963 66.6632 55.2884 66.5789 55.6389 66.5789C56.0284 66.5789 56.3399 66.6632 56.5671 66.8385L56.4827 67.7213L56.301 67.6953L56.2036 67.0592C56.0543 66.8645 55.8207 66.7736 55.4961 66.7736C55.3079 66.7736 55.1391 66.832 54.9833 66.9553C54.8275 67.0787 54.7042 67.2474 54.6133 67.4616C54.5224 67.6823 54.477 67.929 54.477 68.2081C54.477 68.5262 54.5289 68.7923 54.6328 69.0195C54.7366 69.2467 54.8794 69.4155 55.0612 69.5323C55.2429 69.6491 55.4507 69.7076 55.6843 69.7076C55.8596 69.7076 56.0284 69.6621 56.1971 69.5777C56.3594 69.4934 56.5022 69.3895 56.632 69.2597L56.7099 69.409C56.6385 69.4999 56.5477 69.5907 56.4308 69.6816C56.314 69.7725 56.1712 69.8439 56.0154 69.9023C55.8401 69.9607 55.6714 69.9932 55.5026 69.9932Z" fill="#4D4A4A"/>
<path d="M57.2034 69.9289L57.2228 69.7731L57.6058 69.6563L58.7612 66.6314L59.0339 66.573L60.0984 69.6693L60.4554 69.7536L60.4359 69.9224H59.2156L59.2416 69.7666L59.6895 69.6498L59.3649 68.7151H58.2419L57.8979 69.6628L58.3847 69.7471L58.3588 69.9159H57.2034V69.9289ZM58.3069 68.5138H59.2935L58.8197 67.1247L58.3069 68.5138Z" fill="#4D4A4A"/>
<path d="M60.9746 66.7867L61.0006 66.6375H61.8639L63.623 69.3313V66.8776L63.1361 66.7932L63.1621 66.6439H64.35L64.324 66.7932L63.8826 66.8776V69.9414L63.61 69.9998L61.7276 67.1697V69.6948L62.2144 69.7662L62.1884 69.9349H61.0071L61.02 69.7791L61.4614 69.6818V66.9036L60.9746 66.7867Z" fill="#4D4A4A"/>
<path d="M67.206 69.9287H65.9597L65.9857 69.7729L66.4271 69.6755V66.9493L65.9727 66.8778L65.9987 66.7286L66.1415 66.7091C66.3622 66.6766 66.5569 66.6507 66.7192 66.6312C66.8815 66.6117 67.0502 66.6052 67.232 66.6052C67.4721 66.6052 67.6734 66.6377 67.8421 66.7091C68.0044 66.7805 68.1277 66.8714 68.2121 66.9882C68.29 67.105 68.3355 67.2284 68.3355 67.3712C68.3355 67.5335 68.29 67.6827 68.1991 67.8126C68.1083 67.9424 67.972 68.0527 67.7967 68.1306V68.1501C67.972 68.1566 68.1148 68.202 68.2381 68.2799C68.3614 68.3578 68.4523 68.4552 68.5172 68.5655C68.5821 68.6824 68.6146 68.7992 68.6146 68.9225C68.6146 69.1043 68.5691 69.2731 68.4783 69.4224C68.3874 69.5717 68.2381 69.695 68.0304 69.7859C67.8227 69.8767 67.55 69.9287 67.206 69.9287ZM66.823 66.7935V68.1177H67.576C67.6928 68.0592 67.7837 67.9748 67.8551 67.871C67.9265 67.7671 67.9655 67.6373 67.9655 67.4945C67.9655 67.2803 67.8941 67.105 67.7448 66.9752C67.602 66.8454 67.3813 66.7805 67.0892 66.7805C66.9658 66.7805 66.875 66.7805 66.823 66.7935ZM66.823 68.2929V69.7274H67.4332C67.6149 69.7274 67.7642 69.695 67.8811 69.6236C67.9979 69.5587 68.0823 69.4678 68.1407 69.3574C68.1927 69.2471 68.2186 69.1303 68.2186 69.0069C68.2186 68.8901 68.1927 68.7733 68.1407 68.6629C68.0888 68.5526 68.0044 68.4617 67.8876 68.3968C67.7707 68.3254 67.6279 68.2929 67.4527 68.2929H66.823Z" fill="#4D4A4A"/>
<path d="M69.134 66.7998L69.16 66.644H71.6721L71.5877 67.4879L71.4124 67.4619L71.3345 66.8323H70.0038V68.163H70.8347L70.9386 67.8254L71.1268 67.7995L71.0424 68.8251L70.8672 68.851L70.8022 68.3577H70.0038V69.7273H71.3994L71.6266 69.0717L71.7889 69.0977L71.711 69.922H69.147L69.16 69.7663L69.6079 69.6689V66.8842L69.134 66.7998Z" fill="#4D4A4A"/>
<path d="M74.8461 69.929H73.405L73.4245 69.7732L73.8529 69.6759V66.9496L73.4115 66.8782L73.431 66.7289L73.5284 66.7159C73.7361 66.6835 73.9178 66.6575 74.0801 66.638C74.2424 66.6186 74.4112 66.6121 74.5929 66.6121C74.9759 66.6121 75.2874 66.69 75.5341 66.8392C75.7743 66.9885 75.8976 67.2352 75.8976 67.5727C75.8976 67.7805 75.8392 67.9622 75.7224 68.1245C75.6055 68.2868 75.4497 68.4166 75.2615 68.5075C75.0668 68.5983 74.8655 68.6438 74.6448 68.6438C74.5734 68.6438 74.5085 68.6438 74.4501 68.6373L74.4111 68.475L74.554 68.4685C74.859 68.4555 75.0927 68.3776 75.242 68.2348C75.3913 68.092 75.4627 67.8973 75.4627 67.6506C75.4627 67.4948 75.4303 67.352 75.3589 67.2157C75.2939 67.0859 75.1901 66.9821 75.0473 66.9042C74.9045 66.8263 74.7357 66.7873 74.528 66.7873C74.4825 66.7873 74.4306 66.7873 74.3657 66.7938C74.3073 66.8003 74.2619 66.8003 74.2424 66.8003V69.6823L74.8655 69.7602L74.8461 69.929Z" fill="#4D4A4A"/>
<path d="M76.4363 69.9285L76.4558 69.7728L76.8972 69.6754V66.8972L76.4233 66.7998L76.4493 66.644H77.7735L77.754 66.7998L77.2931 66.8907V69.7338H78.5784L78.8575 69.0328L79.0263 69.0587L78.9354 69.935H76.4363V69.9285Z" fill="#4D4A4A"/>
<path d="M79.5327 69.9289L79.5522 69.7731L79.9352 69.6563L81.0906 66.6314L81.3632 66.573L82.4277 69.6693L82.7848 69.7536L82.7653 69.9224H81.545L81.5709 69.7666L82.0188 69.6498L81.6942 68.7151H80.5713L80.2273 69.6628L80.7141 69.7471L80.6881 69.9159H79.5327V69.9289ZM80.6362 68.5138H81.6228L81.149 67.1247L80.6362 68.5138Z" fill="#4D4A4A"/>
<path d="M84.7709 69.9932C84.4983 69.9932 84.2516 69.9283 84.0309 69.7919C83.8102 69.6621 83.635 69.4674 83.5051 69.2207C83.3753 68.9741 83.3169 68.682 83.3169 68.3444C83.3169 68.0653 83.3753 67.7927 83.4922 67.5201C83.609 67.2474 83.7843 67.0203 84.0244 66.845C84.2646 66.6632 84.5567 66.5789 84.9072 66.5789C85.2967 66.5789 85.6083 66.6632 85.8354 66.8385L85.7511 67.7213L85.5693 67.6953L85.4719 67.0592C85.3226 66.8645 85.089 66.7736 84.7644 66.7736C84.5762 66.7736 84.4074 66.832 84.2516 66.9553C84.0958 67.0787 83.9725 67.2474 83.8816 67.4616C83.7907 67.6823 83.7453 67.929 83.7453 68.2081C83.7453 68.5262 83.7972 68.7923 83.9011 69.0195C84.005 69.2467 84.1478 69.4155 84.3295 69.5323C84.5113 69.6491 84.719 69.7076 84.9527 69.7076C85.1279 69.7076 85.2967 69.6621 85.4654 69.5777C85.6277 69.4934 85.7705 69.3895 85.9003 69.2597L85.9782 69.409C85.9068 69.4999 85.816 69.5907 85.6991 69.6816C85.5823 69.7725 85.4395 69.8439 85.2837 69.9023C85.1084 69.9607 84.9462 69.9932 84.7709 69.9932Z" fill="#4D4A4A"/>
<path d="M86.4717 66.7998L86.4976 66.644H89.0097L88.9253 67.4879L88.7501 67.4619L88.6722 66.8323H87.3415V68.163H88.1723L88.2762 67.8254L88.4645 67.7995L88.3801 68.8251L88.2048 68.851L88.1399 68.3577H87.3415V69.7273H88.7371L88.9643 69.0717L89.1265 69.0977L89.0486 69.922H86.4847L86.4976 69.7663L86.9455 69.6689V66.8842L86.4717 66.7998Z" fill="#4D4A4A"/>
<path d="M90.8597 69.929H89.6394L89.6654 69.7732L90.1197 69.6563V66.943L89.6654 66.8716L89.6913 66.7224C89.9705 66.6769 90.2106 66.6445 90.4118 66.625C90.6131 66.6055 90.8078 66.5925 90.9896 66.5925C91.4374 66.5925 91.7944 66.6639 92.0736 66.8132C92.3462 66.9625 92.5409 67.1508 92.6578 67.3909C92.7746 67.6311 92.833 67.8972 92.833 68.1893C92.833 68.5009 92.7616 68.793 92.6123 69.0527C92.4695 69.3123 92.2488 69.5265 91.9502 69.6823C91.6581 69.8446 91.2946 69.929 90.8597 69.929ZM90.5027 66.8197V69.7148H90.9311C91.2362 69.7148 91.5023 69.6563 91.723 69.5395C91.9437 69.4226 92.1125 69.2604 92.2293 69.0527C92.3462 68.8449 92.4046 68.6113 92.4046 68.3451C92.4046 68.0465 92.3462 67.7804 92.2358 67.5467C92.1255 67.313 91.9502 67.1313 91.7295 67.0015C91.5024 66.8716 91.2297 66.8067 90.9052 66.8067C90.7104 66.8067 90.5806 66.8132 90.5027 66.8197Z" fill="#4D4A4A"/>
<path d="M94.4558 66.7933L94.4753 66.644H95.7995L95.78 66.7933L95.3321 66.8777V68.1565H97.1107V66.8842L96.6303 66.7998L96.6563 66.6505H97.974L97.948 66.7998L97.5066 66.8842V69.7013L97.987 69.7728L97.9675 69.9415H96.6498L96.6758 69.7857L97.1107 69.6884V68.3772H95.3321V69.7013L95.8254 69.7728L95.793 69.9415H94.4818L94.4948 69.7857L94.9362 69.6884V66.8972L94.4558 66.7933Z" fill="#4D4A4A"/>
<path d="M98.519 66.7998L98.545 66.644H101.057L100.973 67.4879L100.797 67.4619L100.72 66.8323H99.3889V68.163H100.22L100.324 67.8254L100.512 67.7995L100.427 68.8251L100.252 68.851L100.187 68.3577H99.3889V69.7273H100.784L101.012 69.0717L101.174 69.0977L101.096 69.922H98.532L98.545 69.7663L98.9929 69.6689V66.8842L98.519 66.7998Z" fill="#4D4A4A"/>
<path d="M103.03 69.929H101.687L101.713 69.7732L102.141 69.6759V66.9561L101.7 66.8847L101.726 66.7354C101.966 66.6964 102.174 66.664 102.349 66.6445C102.531 66.625 102.706 66.6121 102.888 66.6121C103.251 66.6121 103.537 66.677 103.751 66.8068C103.965 66.9366 104.075 67.1378 104.075 67.4105C104.075 67.5922 104.017 67.7675 103.894 67.9298C103.77 68.092 103.589 68.2218 103.336 68.3322L103.829 69.0397C103.952 69.215 104.05 69.3513 104.127 69.4422C104.205 69.5331 104.27 69.6045 104.335 69.6499C104.4 69.6953 104.471 69.7343 104.562 69.7602L104.673 69.7927L104.647 69.9355C104.595 69.955 104.549 69.968 104.51 69.9744C104.471 69.9809 104.426 69.9809 104.368 69.9809C104.199 69.9809 104.05 69.9225 103.92 69.7992C103.79 69.6823 103.66 69.5071 103.524 69.2799L103.043 68.462H102.531V69.6694L103.056 69.7537L103.03 69.929ZM102.524 66.8003V68.2673H103.089C103.251 68.2089 103.387 68.1115 103.498 67.9817C103.608 67.8519 103.66 67.6961 103.66 67.5208C103.66 67.3715 103.628 67.2417 103.563 67.1313C103.498 67.021 103.407 66.9366 103.284 66.8782C103.16 66.8198 103.017 66.7873 102.849 66.7873C102.777 66.7873 102.712 66.7873 102.647 66.7938C102.583 66.7938 102.544 66.8003 102.524 66.8003Z" fill="#4D4A4A"/>
<path d="M105.186 66.7998L105.212 66.644H107.724L107.639 67.4879L107.464 67.4619L107.386 66.8323H106.055V68.163H106.886L106.99 67.8254L107.178 67.7995L107.094 68.8251L106.919 68.851L106.854 68.3577H106.055V69.7273H107.451L107.678 69.0717L107.84 69.0977L107.763 69.922H105.199L105.212 69.7663L105.659 69.6689V66.8842L105.186 66.7998Z" fill="#4D4A4A"/>
</g>
<defs>
<clipPath id="clip0_1287_3804">
<rect width="131.808" height="70" fill="white" transform="translate(0.191895)"/>
</clipPath>
</defs>
</svg>
