<svg width="171" height="70" viewBox="0 0 171 70" fill="none" xmlns="http://www.w3.org/2000/svg">
<g clip-path="url(#clip0_1287_3384)">
<path d="M80.4235 8.23345C78.5187 6.83708 76.0009 6.32072 73.724 5.9789C72.3593 5.77526 70.9434 5.62981 69.6371 5.14981C68.9584 4.90254 68.0462 4.44435 67.5937 3.84799C66.499 2.40799 67.9805 1.58617 69.1919 2.38617C69.4912 2.58254 69.7758 2.10254 69.4766 1.90617C68.5351 1.28799 66.8931 1.12072 66.6231 2.56799C66.3311 4.12435 68.287 5.27345 69.4985 5.68799C72.0527 6.56799 74.8479 6.40799 77.3729 7.36799C78.7158 7.87708 80.044 8.45163 81.0219 9.53526C81.7663 10.3571 82.2553 11.3171 82.0217 12.4662C81.7444 13.8262 80.7154 14.5971 79.3142 14.1825C78.9712 14.0807 78.8179 14.6189 79.1682 14.7207C80.8614 15.2153 82.2188 14.2989 82.5618 12.6116C82.9194 10.808 81.8247 9.2589 80.4235 8.23345Z" fill="#4D4A4A"/>
<path d="M88.1666 8.23345C90.0714 6.83708 92.5892 6.32072 94.8661 5.9789C96.2309 5.77526 97.6467 5.62981 98.953 5.14981C99.6317 4.90254 100.544 4.44435 100.996 3.84799C102.091 2.40799 100.61 1.58617 99.3982 2.38617C99.0989 2.58254 98.8143 2.10254 99.1135 1.90617C100.055 1.28799 101.697 1.12072 101.967 2.56799C102.259 4.12435 100.303 5.27345 99.0917 5.68799C96.5374 6.56799 93.7423 6.40799 91.2172 7.36799C89.8743 7.87708 88.5461 8.45163 87.5682 9.53526C86.8238 10.3571 86.3348 11.3171 86.5684 12.4662C86.8457 13.8262 87.8747 14.5971 89.2759 14.1825C89.6189 14.0807 89.7722 14.6189 89.4219 14.7207C87.7287 15.2153 86.3786 14.2989 86.0283 12.6116C85.6707 10.808 86.7654 9.2589 88.1666 8.23345Z" fill="#4D4A4A"/>
<path d="M88.0644 7.17135C87.9331 7.13499 87.0062 6.50953 86.4954 5.95681C85.3715 4.64771 84.3425 1.44771 84.2914 1.44044C84.2403 1.43317 83.2259 4.64771 82.102 5.95681C81.5839 6.50953 80.6643 7.14226 80.533 7.17135C82.8026 6.68408 84.2695 11.2659 84.3133 11.2659C84.3571 11.2659 86.0356 6.6259 88.0644 7.17135Z" fill="#4D4A4A"/>
<path d="M61.894 15.1204C60.6752 18.1241 57.7049 20.1823 54.2019 20.3568C47.9695 20.6695 43.4301 15.4259 39.7812 11.215L39.19 10.5313C35.7454 6.57498 32.2935 4.25498 28.9291 3.62225C28.8415 3.60771 28.7612 3.59316 28.681 3.57862C27.5133 3.49134 26.1705 4.7568 25.6231 5.64407C25.5647 5.73862 25.5064 5.84771 25.448 5.9568C25.1925 6.42953 24.9006 6.96043 24.3168 7.12771C23.7257 7.29498 23.0615 7.03316 22.7477 6.5168C22.3171 5.81862 22.5799 4.90225 23.0834 4.41498C23.8132 3.70953 24.8787 3.38953 25.6158 3.20771C26.6667 2.95316 27.8125 2.93134 29.0167 3.1568C32.5416 3.81862 35.9862 6.13134 39.5476 10.2259L40.1388 10.9023C43.722 15.0332 48.1738 20.175 54.18 19.8768C57.8655 19.695 60.916 17.3241 61.7699 13.9713C61.8502 13.6513 61.9159 13.3168 61.9596 12.975C62.3099 10.2477 61.3393 6.56771 58.3836 4.93862C57.7414 4.58225 57.0773 4.31316 56.4059 4.13134C53.9684 3.46953 50.6478 3.97862 49.1079 6.6768C48.4949 7.74589 48.0716 9.33134 48.7211 10.5677C49.1152 11.3168 49.7794 11.8768 50.5091 12.0804C51.1003 12.2477 51.6987 12.1604 52.2242 11.8404C52.3336 11.775 52.4869 11.8041 52.5526 11.9204C52.6183 12.0295 52.5891 12.1823 52.4723 12.2477C51.8228 12.6404 51.1003 12.7423 50.3778 12.5459C49.5239 12.3059 48.743 11.6513 48.2906 10.7932C47.5535 9.38953 48.0132 7.62953 48.6847 6.45134C50.3486 3.53498 53.9173 2.97498 56.53 3.68771C57.2379 3.8768 57.9385 4.16771 58.6099 4.53862C61.7626 6.26953 62.7989 10.1677 62.4267 13.0477C62.3829 13.4041 62.3099 13.7604 62.2297 14.1023C62.1421 14.4441 62.0253 14.7859 61.894 15.1204ZM23.1126 5.22225C22.974 5.5568 22.9594 5.94953 23.1491 6.26953C23.3535 6.60407 23.7986 6.77862 24.1854 6.66953C24.5795 6.56043 24.8057 6.13862 25.0247 5.73134C25.0904 5.61498 25.1488 5.49862 25.2144 5.3968C25.5428 4.86589 26.3091 3.97862 27.236 3.4768C26.7178 3.48407 26.2143 3.54953 25.7326 3.66589C25.0466 3.83316 24.0687 4.13134 23.4191 4.7568C23.2878 4.88043 23.1856 5.04043 23.1126 5.22225Z" fill="#4D4A4A"/>
<path d="M31.9285 11.9932C31.8774 12.1168 31.7387 12.175 31.622 12.1241C29.7464 11.3895 26.8491 10.9968 25.1852 11.7168C23.3826 12.495 22.0835 14.1604 21.8792 15.9495C21.7332 17.2077 22.1565 18.4659 22.9739 19.2368C23.5723 19.8041 24.3897 20.0877 25.156 20.0441C25.5282 19.935 25.769 19.6877 25.8274 19.3604C25.8931 18.9895 25.7179 18.5968 25.3676 18.3423C25.1779 18.2041 24.9443 18.0877 24.7035 17.9714C24.1999 17.7241 23.638 17.4477 23.3826 16.8514C23.2001 16.4223 23.2147 15.9423 23.4118 15.535C23.6161 15.1204 24.0029 14.815 24.4627 14.6914C25.1122 14.5241 25.8639 14.7132 26.4769 15.2004C27.3891 15.9277 27.9146 17.0841 27.8197 18.1459C27.7395 19.0186 27.2578 19.7386 26.4477 20.175C26.0755 20.3786 25.6595 20.495 25.229 20.5168C25.2144 20.5168 25.1998 20.5168 25.1852 20.5168C24.2802 20.5604 23.3315 20.2332 22.6382 19.5786C21.7113 18.7059 21.237 17.295 21.3975 15.8914C21.6238 13.935 23.0323 12.1168 24.9881 11.2732C26.7907 10.495 29.7756 10.8877 31.7898 11.6732C31.9212 11.7314 31.9796 11.8695 31.9285 11.9932C31.9358 11.9932 31.9285 11.9932 31.9285 11.9932ZM26.1996 19.775C26.2142 19.7677 26.2215 19.7604 26.2361 19.7604C27.0826 19.295 27.3162 18.6041 27.36 18.1023C27.4402 17.1932 26.9805 16.2041 26.1923 15.5714C25.696 15.1714 25.0976 15.0186 24.594 15.1495C24.2656 15.2368 23.9956 15.4477 23.8496 15.7386C23.711 16.0295 23.7037 16.3568 23.8277 16.6623C24.0102 17.0986 24.4554 17.3095 24.9224 17.5423C25.1706 17.6659 25.4333 17.7895 25.6595 17.9568C26.1558 18.3277 26.4039 18.895 26.3018 19.4477C26.2799 19.5641 26.2434 19.6732 26.1996 19.775Z" fill="#4D4A4A"/>
<path d="M37.891 8.66234C37.8837 8.69143 37.8691 8.71325 37.8472 8.73507C37.7596 8.82962 37.6063 8.83689 37.5115 8.74962C35.8183 7.20052 34.6653 5.35325 34.4317 3.80416C34.2785 2.79325 34.5266 1.75325 35.0885 1.03325C35.5556 0.436888 36.2051 0.0877972 36.9714 0.00779718C37.8253 -0.0794755 38.8251 0.385979 39.3505 1.11325C39.7446 1.67325 39.8249 2.30598 39.5476 2.90962C39.2192 3.63689 38.3799 3.94234 37.7596 3.81143C37.1685 3.6878 36.8109 3.23689 36.8036 2.58962C36.8036 2.45871 36.9057 2.34962 37.0371 2.34962C37.1685 2.34962 37.2779 2.45143 37.2779 2.58234C37.2852 3.14234 37.6428 3.29507 37.8545 3.33871C38.2777 3.42598 38.8762 3.2078 39.1024 2.70598C39.3505 2.14598 39.1608 1.68052 38.9492 1.38962C38.5259 0.800524 37.6939 0.41507 37.0079 0.480524C36.373 0.545979 35.8329 0.836888 35.4534 1.32416C34.9718 1.94234 34.7601 2.84416 34.8915 3.73143C35.1104 5.17871 36.2051 6.92416 37.818 8.40053C37.9056 8.46598 37.9274 8.57507 37.891 8.66234Z" fill="#4D4A4A"/>
<path d="M70.6003 14.6841C70.4982 14.9387 70.3595 15.186 70.1917 15.4114C69.3305 16.5751 67.7176 17.0332 66.4405 16.4805C65.9151 16.2551 65.521 15.8914 65.3312 15.4551C65.0977 14.9169 65.2217 14.2769 65.6231 13.9278C65.8567 13.7241 66.1851 13.6369 66.5062 13.6878C66.7981 13.7314 67.0389 13.8914 67.1776 14.1169C67.2433 14.2332 67.2068 14.3787 67.0973 14.4441C66.9806 14.5096 66.8346 14.4732 66.7689 14.3641C66.6813 14.2187 66.5208 14.1751 66.4332 14.1605C66.2508 14.1314 66.061 14.1823 65.9442 14.2914C65.7034 14.5023 65.6304 14.9241 65.7764 15.2732C65.915 15.5932 66.2216 15.8696 66.6303 16.0514C67.6885 16.5096 69.0824 16.1023 69.8049 15.1351C70.4909 14.2041 70.5638 12.8005 69.98 11.7242C69.7027 11.2078 68.5496 9.52779 65.5356 9.47688C65.4042 9.47688 65.2947 9.36779 65.302 9.23688C65.302 9.10597 65.4115 9.00415 65.5429 9.00415C67.7541 9.04051 69.5713 9.97142 70.4033 11.4987C70.9506 12.4878 71.009 13.6878 70.6003 14.6841Z" fill="#4D4A4A"/>
<path d="M54.6324 9.63692C54.158 10.8078 53.3552 11.7751 52.4649 12.2551C52.3554 12.3133 52.224 12.2842 52.1584 12.1824C52.0927 12.0806 52.1073 11.9496 52.1948 11.8696C52.8881 11.2587 52.6181 10.546 52.1584 9.60783C51.8008 8.88056 51.3629 7.80419 51.6694 6.85147C51.8518 6.27692 52.3335 5.88419 52.9538 5.79692C53.6033 5.70237 54.2529 5.97874 54.5959 6.4951C55.2892 7.52783 54.9024 8.88783 54.7053 9.42601C54.6834 9.49874 54.6616 9.56419 54.6324 9.63692ZM53.0852 11.186C53.5742 10.6842 53.9901 10.0151 54.2602 9.26601C54.3915 8.90237 54.7856 7.63692 54.2018 6.76419C53.9536 6.40056 53.4939 6.20419 53.0195 6.26965C52.5816 6.32783 52.2532 6.59692 52.1219 6.99692C51.8664 7.78237 52.2678 8.74237 52.5816 9.39692C52.8371 9.91328 53.1509 10.5533 53.0852 11.186Z" fill="#4D4A4A"/>
<path d="M75.1835 16.1895C75.0449 16.5386 74.804 16.7786 74.4975 16.8659C74.1472 16.9749 73.7969 16.9095 73.5196 16.684C73.162 16.4004 72.9358 15.884 72.965 15.3968C72.9869 15.004 73.0817 14.6259 73.1693 14.2549C73.2277 14.0222 73.2788 13.804 73.3153 13.5786C73.4174 12.9313 73.3299 12.3495 73.0379 11.7968C71.0967 9.90586 68.0461 9.22949 65.5721 9.46949C62.2005 9.79677 59.0915 11.4186 56.0775 12.9895L55.6834 13.1931C52.3482 14.9313 49.0569 16.4877 45.4736 16.5168C42.0216 16.5459 38.7813 15.1277 35.6578 13.7531C34.9864 13.4549 34.315 13.164 33.6363 12.8804C32.9357 12.5895 32.2789 12.3422 31.6366 12.1313C31.082 11.9422 30.4909 11.7677 29.8778 11.6149C29.7465 11.5859 29.6735 11.4549 29.7027 11.324C29.7319 11.1931 29.8632 11.1204 29.9946 11.1495C30.6222 11.3022 31.228 11.484 31.7899 11.6804C32.4467 11.8986 33.1108 12.1459 33.8187 12.444C34.4974 12.7277 35.1688 13.0186 35.8476 13.3168C38.9346 14.6695 42.1165 16.0659 45.4663 16.0368C48.9401 16.0077 52.1731 14.4731 55.4572 12.7713L55.8512 12.5677C58.9018 10.9749 62.0618 9.33858 65.521 8.99677C68.8635 8.67677 73.1912 9.94949 74.8113 13.4986C75.1106 14.1022 75.3806 14.7713 75.3295 15.5204C75.3149 15.7677 75.2638 15.9931 75.1835 16.1895ZM73.8115 12.7131C73.848 13.0186 73.8334 13.3313 73.7823 13.6586C73.7458 13.8986 73.6875 14.1386 73.6291 14.3713C73.5415 14.7349 73.4612 15.0695 73.4393 15.4259C73.4174 15.7604 73.5707 16.124 73.8115 16.3131C73.9721 16.4368 74.1545 16.4731 74.3589 16.4077C74.7603 16.2913 74.8332 15.7168 74.8551 15.484C74.8989 14.8513 74.6508 14.2477 74.3808 13.6949C74.2129 13.3459 74.0232 13.0186 73.8115 12.7131Z" fill="#4D4A4A"/>
<path d="M108.178 14.8227C108.09 14.4809 108.024 14.1318 107.981 13.7682C107.608 10.8809 108.645 6.99001 111.797 5.2591C112.476 4.88819 113.177 4.60456 113.877 4.40819C116.49 3.69547 120.051 4.26274 121.723 7.17183C122.394 8.35001 122.854 10.11 122.117 11.5136C121.664 12.3718 120.883 13.0264 120.03 13.2664C119.307 13.47 118.585 13.3682 117.935 12.9682C117.826 12.9027 117.789 12.75 117.855 12.6409C117.92 12.5318 118.074 12.4955 118.183 12.5609C118.716 12.8809 119.307 12.9682 119.898 12.8009C120.628 12.5973 121.299 12.03 121.686 11.2882C122.336 10.0518 121.912 8.46637 121.299 7.39728C119.76 4.70637 116.439 4.19001 114.001 4.85183C113.33 5.03365 112.666 5.30274 112.024 5.6591C109.068 7.28819 108.097 10.9609 108.448 13.6955C108.492 14.0373 108.557 14.3718 108.637 14.6918C109.499 18.0446 112.549 20.4155 116.227 20.5973C122.226 20.8955 126.685 15.7536 130.269 11.6227L130.86 10.9391C134.428 6.84456 137.873 4.53183 141.391 3.87001C142.595 3.64456 143.741 3.6591 144.792 3.92092C145.529 4.10274 146.594 4.42274 147.324 5.12819C147.827 5.61547 148.09 6.53183 147.667 7.23001C147.353 7.75365 146.689 8.00819 146.098 7.84092C145.514 7.67365 145.222 7.14274 144.967 6.67001C144.908 6.56092 144.85 6.4591 144.792 6.35728C144.244 5.47001 142.901 4.20456 141.734 4.29183C141.653 4.30638 141.566 4.32092 141.486 4.33547C138.121 4.96819 134.669 7.29547 131.225 11.2446L130.634 11.9427C126.985 16.1536 122.445 21.39 116.213 21.0846C112.702 20.91 109.739 18.8518 108.521 15.8482C108.375 15.5136 108.265 15.1718 108.178 14.8227ZM146.988 5.48456C146.346 4.8591 145.361 4.56092 144.675 4.39365C144.193 4.27728 143.69 4.21183 143.171 4.20456C144.091 4.70638 144.865 5.59365 145.193 6.12456C145.259 6.22637 145.317 6.34274 145.383 6.4591C145.602 6.86637 145.835 7.28819 146.222 7.39728C146.609 7.50637 147.054 7.33183 147.258 6.99728C147.448 6.68456 147.433 6.28456 147.295 5.95001C147.222 5.76819 147.112 5.60819 146.988 5.48456Z" fill="#4D4A4A"/>
<path d="M138.471 12.7201C138.42 12.5965 138.486 12.4583 138.603 12.4146C140.617 11.6219 143.602 11.2292 145.404 12.0146C147.36 12.8583 148.769 14.6765 148.995 16.6328C149.156 18.0365 148.681 19.4474 147.754 20.3201C147.054 20.9746 146.105 21.3019 145.207 21.2583C145.193 21.2583 145.178 21.2583 145.164 21.2583C144.733 21.2292 144.317 21.1201 143.945 20.9165C143.135 20.4728 142.653 19.7528 142.573 18.8874C142.478 17.8256 143.011 16.6692 143.916 15.9419C144.529 15.4546 145.28 15.2583 145.93 15.4328C146.39 15.5565 146.776 15.8619 146.981 16.2765C147.185 16.6837 147.192 17.1637 147.01 17.5928C146.755 18.1892 146.185 18.4656 145.689 18.7128C145.448 18.8292 145.215 18.9456 145.025 19.0837C144.675 19.3456 144.499 19.731 144.565 20.1019C144.624 20.4292 144.872 20.6765 145.237 20.7856C146.003 20.8219 146.82 20.5383 147.419 19.9783C148.236 19.2074 148.659 17.9492 148.513 16.691C148.309 14.8946 147.01 13.2365 145.207 12.4583C143.543 11.7383 140.646 12.131 138.771 12.8656C138.661 12.9019 138.522 12.8437 138.471 12.7201C138.471 12.7274 138.471 12.7201 138.471 12.7201ZM144.105 20.1819C144.003 19.6292 144.251 19.0546 144.748 18.691C144.974 18.5237 145.237 18.4001 145.485 18.2765C145.952 18.051 146.39 17.8328 146.579 17.3965C146.711 17.091 146.703 16.7637 146.558 16.4728C146.412 16.1819 146.142 15.9637 145.813 15.8837C145.31 15.7528 144.711 15.9128 144.215 16.3056C143.427 16.9383 142.967 17.9274 143.047 18.8365C143.091 19.3383 143.325 20.0292 144.171 20.4946C144.186 20.5019 144.193 20.5092 144.208 20.5092C144.156 20.4001 144.12 20.2983 144.105 20.1819Z" fill="#4D4A4A"/>
<path d="M132.516 9.38964C132.524 9.41873 132.538 9.44055 132.56 9.46237C132.648 9.55691 132.801 9.56418 132.896 9.47691C134.589 7.92782 135.742 6.08055 135.976 4.53146C136.129 3.52055 135.881 2.48055 135.319 1.76055C134.852 1.16418 134.202 0.815092 133.436 0.735092C132.582 0.647819 131.582 1.11327 131.057 1.84055C130.655 2.39327 130.575 3.026 130.852 3.62964C131.181 4.35691 132.02 4.66236 132.633 4.53146C133.224 4.40782 133.582 3.95691 133.589 3.30964C133.589 3.17873 133.487 3.06964 133.356 3.06964C133.224 3.06964 133.115 3.17146 133.115 3.30237C133.108 3.86237 132.75 4.01509 132.538 4.05873C132.115 4.146 131.517 3.92782 131.29 3.426C131.042 2.866 131.232 2.40055 131.444 2.10964C131.867 1.52055 132.699 1.13509 133.385 1.20055C134.02 1.266 134.56 1.55691 134.939 2.04418C135.421 2.66236 135.633 3.56418 135.501 4.45146C135.282 5.89873 134.188 7.64418 132.575 9.12055C132.502 9.19327 132.48 9.30237 132.516 9.38964Z" fill="#4D4A4A"/>
<path d="M99.8069 15.4114C99.9091 15.666 100.048 15.9133 100.216 16.1387C101.077 17.3024 102.69 17.7605 103.967 17.2078C104.492 16.9824 104.886 16.6187 105.076 16.1824C105.31 15.6442 105.186 15.0042 104.784 14.6551C104.551 14.4514 104.222 14.3642 103.901 14.4151C103.609 14.4587 103.368 14.6187 103.23 14.8442C103.164 14.9605 103.2 15.106 103.31 15.1714C103.427 15.2369 103.573 15.2005 103.638 15.0914C103.726 14.946 103.886 14.9024 103.974 14.8878C104.157 14.8587 104.346 14.9096 104.463 15.0187C104.704 15.2296 104.777 15.6514 104.631 16.0005C104.492 16.3205 104.186 16.5969 103.777 16.7787C102.719 17.2369 101.325 16.8296 100.602 15.8624C99.9164 14.9314 99.8434 13.5278 100.427 12.4514C100.705 11.9351 101.858 10.2551 104.872 10.2042C105.003 10.2042 105.113 10.0951 105.105 9.96417C105.105 9.83326 104.996 9.73145 104.864 9.73145C102.653 9.76781 100.836 10.6987 100.004 12.226C99.4566 13.2151 99.3982 14.4151 99.8069 15.4114Z" fill="#4D4A4A"/>
<path d="M115.694 10.1601C115.497 9.62196 115.111 8.25469 115.804 7.22923C116.154 6.71287 116.796 6.43651 117.446 6.53105C118.066 6.61832 118.548 7.01832 118.73 7.5856C119.037 8.53832 118.599 9.61469 118.241 10.342C117.782 11.2801 117.512 11.9856 118.205 12.5965C118.293 12.6765 118.314 12.8147 118.241 12.9092C118.168 13.0111 118.037 13.0401 117.935 12.982C117.045 12.502 116.242 11.5347 115.767 10.3638C115.746 10.2983 115.724 10.2256 115.694 10.1601ZM117.818 10.1238C118.139 9.46923 118.533 8.50923 118.278 7.72378C118.147 7.31651 117.818 7.05469 117.38 6.99651C116.913 6.93105 116.446 7.12741 116.198 7.49105C115.614 8.36378 116.001 9.62923 116.14 9.99287C116.41 10.742 116.833 11.4111 117.315 11.9129C117.256 11.2874 117.57 10.6474 117.818 10.1238Z" fill="#4D4A4A"/>
<path d="M95.0779 16.2482C95.0268 15.4991 95.3041 14.83 95.5961 14.2263C97.2162 10.6773 101.544 9.4118 104.886 9.72452C108.346 10.0591 111.506 11.7027 114.556 13.2954L114.95 13.4991C118.234 15.2082 121.467 16.7427 124.941 16.7645C128.291 16.7936 131.48 15.3973 134.56 14.0445C135.239 13.7463 135.91 13.4554 136.589 13.1718C137.297 12.8736 137.968 12.6263 138.618 12.4082C139.179 12.2118 139.785 12.0373 140.413 11.8773C140.544 11.8482 140.676 11.9209 140.705 12.0518C140.734 12.1827 140.661 12.3063 140.53 12.3427C139.917 12.4954 139.325 12.67 138.771 12.8591C138.129 13.07 137.472 13.3173 136.771 13.6082C136.1 13.8845 135.428 14.1827 134.75 14.4809C131.619 15.8554 128.386 17.2736 124.934 17.2445C121.358 17.2154 118.066 15.6591 114.724 13.9209L114.33 13.7173C111.316 12.1463 108.207 10.5245 104.835 10.1973C102.361 9.95725 99.3107 10.6336 97.3695 12.5245C97.0775 13.0773 96.9827 13.6663 97.0921 14.3063C97.1286 14.5318 97.1797 14.75 97.2381 14.9827C97.3257 15.3463 97.4205 15.7245 97.4424 16.1245C97.4716 16.6118 97.2454 17.1354 96.8878 17.4118C96.6032 17.63 96.2602 17.6954 95.9099 17.5936C95.596 17.4991 95.3625 17.2591 95.2239 16.9173C95.1436 16.7282 95.0925 16.5027 95.0779 16.2482ZM96.0339 14.43C95.7639 14.9827 95.5158 15.5791 95.5596 16.2191C95.5742 16.4591 95.6544 17.0263 96.0558 17.1427C96.2602 17.2009 96.4426 17.1718 96.6032 17.0482C96.844 16.8591 96.99 16.4954 96.9754 16.1609C96.9535 15.8118 96.8732 15.47 96.7856 15.1063C96.7272 14.8736 96.6689 14.6336 96.6324 14.3936C96.5813 14.0663 96.5667 13.7536 96.6032 13.4482C96.3769 13.7463 96.1945 14.0736 96.0339 14.43Z" fill="#4D4A4A"/>
<path d="M84.233 15.1855C84.233 15.1855 80.3505 21.7601 58.2377 22.1455C36.1176 22.531 22.5434 22.531 18.6609 32.5892C18.6609 32.5892 20.6021 26.7855 29.5275 25.6292C38.4529 24.4655 68.0826 25.1928 76.0885 20.9892C83.4594 17.1201 84.233 15.1855 84.233 15.1855Z" fill="#4D4A4A"/>
<path d="M85.0066 15.5713C85.0066 15.5713 88.8891 22.1458 111.002 22.5313C133.122 22.9167 146.696 22.9167 150.579 32.9749C150.579 32.9749 148.637 27.1713 139.712 26.0149C130.787 24.8513 101.157 25.5786 93.1511 21.3749C85.7875 17.5058 85.0066 15.5713 85.0066 15.5713Z" fill="#4D4A4A"/>
<path d="M26.4625 49.9278C25.1707 49.9278 23.8133 49.4914 22.7186 48.8005C20.6241 47.4696 19.1353 45.4696 17.9458 43.6878L17.5955 43.1569C15.085 39.3678 12.4869 35.4405 8.00595 33.6369C6.52447 33.0405 4.34968 32.655 2.69304 33.375C1.72971 33.7896 1.03641 34.5387 0.635017 35.6005C0.583932 35.7314 0.437973 35.7969 0.306609 35.7459C0.175246 35.695 0.109565 35.5496 0.16065 35.4187C0.613124 34.2332 1.4013 33.3896 2.4887 32.9169C4.75106 31.935 7.42212 32.8659 8.1884 33.1714C12.808 35.0332 15.4499 39.0259 18.0042 42.8805L18.3545 43.4114C19.5075 45.1496 20.9598 47.0987 22.9741 48.3787C25.6159 50.0514 28.2067 49.5496 29.316 48.2187C30.0604 47.3241 30.1917 46.0223 29.6152 45.1278C29.3233 44.6623 28.7978 44.3205 28.214 44.2041C27.6885 44.1023 27.1777 44.1969 26.7909 44.4659C26.6741 44.5459 26.5209 44.5169 26.4406 44.4078C26.3603 44.2914 26.3895 44.1387 26.499 44.0587C27.0025 43.7023 27.6448 43.5859 28.3089 43.7169C29.0241 43.855 29.6736 44.2841 30.0385 44.8587C30.7245 45.935 30.5858 47.4841 29.7028 48.5387C28.9 49.5205 27.7104 49.9278 26.4625 49.9278Z" fill="#4D4A4A"/>
<path d="M25.7107 50.3933C24.1781 50.3933 22.7988 49.906 22.2879 49.6951C17.6683 47.8333 15.0265 43.8478 12.4722 39.986L12.1219 39.4551C10.9688 37.7169 9.51652 35.7678 7.50228 34.4878C4.86772 32.8151 2.26965 33.3169 1.16036 34.6478C0.415968 35.5423 0.284604 36.8442 0.861143 37.7387C1.15306 38.2042 1.67851 38.546 2.26235 38.6624C2.7878 38.7642 3.29866 38.6696 3.68545 38.4005C3.80222 38.3205 3.95548 38.3496 4.03575 38.4587C4.11603 38.5751 4.08684 38.7278 3.97737 38.8078C3.47381 39.1642 2.83159 39.2805 2.16748 39.1496C1.45228 39.0114 0.802759 38.5823 0.437862 38.0078C-0.248146 36.9314 -0.109485 35.3824 0.773567 34.3278C2.4375 32.3278 5.61941 32.6987 7.77231 34.066C9.86682 35.3969 11.3556 37.3969 12.5452 39.1787L12.8955 39.7096C15.406 43.4987 18.004 47.4187 22.4777 49.2296C23.9592 49.826 26.134 50.2114 27.7906 49.4914C28.7539 49.0769 29.4472 48.3278 29.8486 47.266C29.8997 47.1351 30.0457 47.0696 30.177 47.1205C30.3084 47.1714 30.3741 47.3169 30.323 47.4478C29.8705 48.6333 29.0823 49.4769 27.9949 49.9496C27.2506 50.2769 26.4624 50.3933 25.7107 50.3933Z" fill="#4D4A4A"/>
<path d="M144.302 49.9278C143.054 49.9278 141.865 49.5205 141.047 48.5387C140.164 47.4769 140.026 45.9278 140.712 44.8587C141.077 44.2841 141.726 43.855 142.441 43.7169C143.106 43.5859 143.748 43.7096 144.251 44.0587C144.368 44.1387 144.39 44.2987 144.31 44.4078C144.229 44.5241 144.069 44.5459 143.959 44.4659C143.573 44.1896 143.069 44.095 142.536 44.2041C141.952 44.3205 141.427 44.6623 141.135 45.1278C140.566 46.0223 140.69 47.3241 141.434 48.2187C142.536 49.5423 145.134 50.0514 147.776 48.3787C149.79 47.0987 151.243 45.1496 152.396 43.4114L152.746 42.8805C155.3 39.0259 157.942 35.0405 162.562 33.1714C163.328 32.8659 165.999 31.935 168.262 32.9169C169.356 33.3896 170.137 34.2332 170.59 35.4187C170.641 35.5496 170.575 35.695 170.444 35.7459C170.312 35.7969 170.166 35.7314 170.115 35.6005C169.714 34.5459 169.021 33.7969 168.057 33.375C166.401 32.655 164.226 33.0405 162.744 33.6369C158.271 35.4405 155.673 39.3605 153.155 43.1569L152.805 43.6878C151.622 45.4696 150.126 47.4696 148.032 48.8005C146.952 49.4914 145.594 49.9278 144.302 49.9278Z" fill="#4D4A4A"/>
<path d="M145.047 50.3936C144.295 50.3936 143.514 50.2772 142.77 49.9572C141.675 49.4845 140.894 48.6408 140.442 47.4554C140.391 47.3245 140.456 47.179 140.588 47.1281C140.719 47.0772 140.865 47.1426 140.916 47.2736C141.317 48.3281 142.011 49.0772 142.974 49.499C144.631 50.219 146.805 49.8336 148.287 49.2372C152.761 47.4336 155.359 43.5136 157.869 39.7172L158.219 39.1863C159.402 37.4045 160.898 35.4045 162.992 34.0736C165.145 32.7063 168.327 32.3354 169.991 34.3354C170.874 35.3972 171.013 36.9463 170.327 38.0154C169.962 38.5899 169.312 39.019 168.597 39.1572C167.933 39.2881 167.291 39.1645 166.787 38.8154C166.671 38.7354 166.649 38.5754 166.729 38.4663C166.809 38.3499 166.97 38.3281 167.079 38.4081C167.466 38.6845 167.97 38.7717 168.502 38.6699C169.086 38.5536 169.612 38.2117 169.904 37.7463C170.473 36.8517 170.349 35.5499 169.604 34.6554C168.502 33.3317 165.904 32.8226 163.262 34.4954C161.248 35.7754 159.796 37.7245 158.643 39.4626L158.292 39.9936C155.738 43.8481 153.096 47.8336 148.477 49.7026C147.959 49.9063 146.579 50.3936 145.047 50.3936Z" fill="#4D4A4A"/>
<path d="M80.5765 60.3929C80.5036 60.3929 80.4233 60.3784 80.3722 60.3275L80.3503 60.3056C79.5986 59.5347 77.8544 57.7529 75.6066 56.1965C72.9429 58.102 70.5346 59.062 68.44 59.062C68.4181 59.062 68.3962 59.062 68.3817 59.062C66.3455 59.0475 65.3968 57.4765 65.3749 56.022C65.353 54.5675 66.258 52.9675 68.2941 52.8875C70.3886 52.8002 72.848 53.702 75.5993 55.542C77.8909 53.862 79.6935 51.9784 80.3722 51.2293C80.4744 51.1202 80.6641 51.1202 80.7663 51.2293C81.445 51.9711 83.2549 53.8547 85.5391 55.542C88.2905 53.702 90.7426 52.8002 92.8444 52.8875C94.8805 52.9602 95.7855 54.5675 95.7636 56.022C95.7417 57.4765 94.793 59.0475 92.7568 59.062C92.7349 59.062 92.713 59.062 92.6984 59.062C90.6112 59.062 88.2029 58.0947 85.5318 56.1965C83.2841 57.7529 81.5399 59.5347 80.7882 60.3056C80.7298 60.3565 80.6495 60.3929 80.5765 60.3929ZM80.3722 59.9566L80.5619 60.1456L80.3722 59.9566ZM76.0591 55.8547C78.1244 57.302 79.7446 58.9166 80.5619 59.7529C81.3793 58.9166 82.9995 57.302 85.0648 55.8547C82.9995 54.3202 81.3428 52.6402 80.5619 51.7966C79.7738 52.6475 78.1171 54.3202 76.0591 55.8547ZM85.9989 55.8693C88.5021 57.6293 90.7572 58.5238 92.6911 58.5238C92.713 58.5238 92.7276 58.5238 92.7495 58.5238C94.4281 58.5093 95.2089 57.2147 95.2308 56.0075C95.2454 54.8002 94.501 53.4765 92.8298 53.4184C90.8812 53.3456 88.5824 54.1675 85.9989 55.8693ZM68.5422 53.4111C68.4619 53.4111 68.3817 53.4111 68.3014 53.4184C66.6228 53.4838 65.8785 54.8075 65.9004 56.0075C65.9149 57.2075 66.7031 58.5093 68.3817 58.5238C68.4035 58.5238 68.4181 58.5238 68.44 58.5238C70.374 58.5238 72.6218 57.6293 75.1323 55.8693C72.6437 54.2402 70.4324 53.4111 68.5422 53.4111Z" fill="#4D4A4A"/>
<path d="M138.924 55.5056H95.4863C95.3404 55.5056 95.2163 55.622 95.2163 55.7747C95.2163 55.9202 95.3331 56.0438 95.4863 56.0438H139.004C138.968 55.8693 138.938 55.6874 138.924 55.5056Z" fill="#4D4A4A"/>
<path d="M65.6377 55.5056H22.0324C22.0397 55.6874 22.0397 55.862 22.0251 56.0438H65.645C65.791 56.0438 65.9151 55.9274 65.9151 55.7747C65.9078 55.6293 65.791 55.5056 65.6377 55.5056Z" fill="#4D4A4A"/>
<path d="M85.043 60.5021C84.9773 60.5021 84.9043 60.473 84.8532 60.4221L82.6054 58.1821C82.5033 58.0803 82.5033 57.9057 82.6054 57.8039C82.7076 57.7021 82.8828 57.7021 82.9849 57.8039L85.2327 60.0439C85.3349 60.1457 85.3349 60.3203 85.2327 60.4221C85.1816 60.4803 85.1086 60.5021 85.043 60.5021Z" fill="#4D4A4A"/>
<path d="M78.3726 53.8547C78.3069 53.8547 78.234 53.8256 78.1829 53.7747L76.227 51.8256C76.1248 51.7238 76.1248 51.5493 76.227 51.4475C76.3292 51.3456 76.5043 51.3456 76.6065 51.4475L78.5624 53.3965C78.6645 53.4984 78.6645 53.6729 78.5624 53.7747C78.5113 53.8329 78.4383 53.8547 78.3726 53.8547Z" fill="#4D4A4A"/>
<path d="M76.0811 60.5021C76.0154 60.5021 75.9424 60.473 75.8913 60.4221C75.7892 60.3203 75.7892 60.1457 75.8913 60.0439L78.1391 57.8039C78.2413 57.7021 78.4164 57.7021 78.5186 57.8039C78.6208 57.9057 78.6208 58.0803 78.5186 58.1821L76.2708 60.4221C76.2197 60.4803 76.1541 60.5021 76.0811 60.5021Z" fill="#4D4A4A"/>
<path d="M82.7515 53.8547C82.6858 53.8547 82.6128 53.8256 82.5617 53.7747C82.4596 53.6729 82.4596 53.4984 82.5617 53.3965L84.5176 51.4475C84.6198 51.3456 84.7949 51.3456 84.8971 51.4475C84.9993 51.5493 84.9993 51.7238 84.8971 51.8256L82.9412 53.7747C82.8901 53.8329 82.8172 53.8547 82.7515 53.8547Z" fill="#4D4A4A"/>
<path d="M14.9609 64.8958L14.9974 64.6631H16.9533L16.9168 64.8958L16.2308 65.034L17.4787 67.3467L18.6902 65.0485L17.9166 64.8958L17.9385 64.6631H19.6973L19.6754 64.8958L19.1427 65.034L17.6831 67.754V69.5067L18.4056 69.6231L18.3691 69.8849H16.333L16.3694 69.6376L17.0555 69.4776V67.7904L15.5667 65.0413L14.9609 64.8958Z" fill="#4D4A4A"/>
<path d="M22.8501 70.0009C22.3976 70.0009 21.9962 69.8772 21.6459 69.6372C21.2956 69.3972 21.0183 69.07 20.8285 68.6554C20.6315 68.2409 20.5366 67.7827 20.5366 67.2882C20.5366 66.75 20.6461 66.27 20.8577 65.8554C21.0694 65.4409 21.3759 65.1136 21.77 64.8882C22.1641 64.6554 22.6238 64.5391 23.1493 64.5391C23.631 64.5391 24.0469 64.6627 24.3899 64.9027C24.7402 65.1427 25.003 65.47 25.1854 65.8845C25.3679 66.2991 25.4627 66.7645 25.4627 67.2736C25.4627 67.7463 25.3606 68.19 25.1635 68.6045C24.9665 69.0263 24.6673 69.3609 24.2732 69.6227C23.8791 69.87 23.4047 70.0009 22.8501 70.0009ZM22.9449 64.8591C22.5509 64.8591 22.2224 64.9609 21.967 65.1645C21.7116 65.3682 21.5291 65.63 21.4124 65.9645C21.2956 66.2918 21.2445 66.6482 21.2445 67.0409C21.2445 67.5209 21.3102 67.9572 21.4489 68.35C21.5875 68.7427 21.7846 69.0627 22.0619 69.2954C22.3319 69.5282 22.6676 69.6445 23.0617 69.6445C23.4558 69.6445 23.7769 69.5427 24.0323 69.3318C24.2878 69.1209 24.4775 68.8518 24.5943 68.5245C24.7111 68.1972 24.7694 67.8482 24.7694 67.4772C24.7694 66.9972 24.6965 66.5609 24.5578 66.1682C24.4191 65.7682 24.2148 65.4554 23.9375 65.2154C23.6601 64.9754 23.3317 64.8591 22.9449 64.8591Z" fill="#4D4A4A"/>
<path d="M27.0536 65.0413L26.28 64.9031L26.3165 64.6631H28.4183L28.3891 64.9031L27.6739 65.034V67.7758C27.6739 68.4085 27.8053 68.8667 28.0753 69.1504C28.3454 69.434 28.7175 69.5794 29.1919 69.5794C29.6517 69.5794 30.0093 69.4413 30.2574 69.1649C30.5055 68.8885 30.6369 68.474 30.6369 67.9285L30.6442 65.0413L29.8706 64.9031L29.9071 64.6631H31.8119L31.7754 64.9031L31.0748 65.034L31.0529 67.7758C31.0456 68.5176 30.885 69.0704 30.5639 69.4413C30.2428 69.8122 29.732 70.0013 29.0314 70.0013C27.7177 70.0013 27.0609 69.3104 27.0609 67.9358V65.0413H27.0536Z" fill="#4D4A4A"/>
<path d="M34.7604 69.8841H32.6221L32.6586 69.6368L33.3446 69.4768V65.1422L32.644 65.0331L32.6878 64.8004C33.0672 64.7422 33.403 64.6913 33.6876 64.6622C33.9722 64.6332 34.2568 64.6113 34.5414 64.6113C35.118 64.6113 35.5777 64.7131 35.928 64.9241C36.271 65.135 36.4462 65.4477 36.4462 65.8768C36.4462 66.1677 36.3513 66.4441 36.1543 66.6986C35.9572 66.9531 35.6653 67.1641 35.2639 67.3386V67.3459L36.0448 68.4732C36.2419 68.7568 36.4024 68.9677 36.5192 69.1131C36.6359 69.2586 36.7527 69.3677 36.8549 69.4404C36.9571 69.5132 37.0738 69.5786 37.2125 69.615L37.3876 69.6732L37.3438 69.8986C37.2563 69.9277 37.1833 69.9495 37.1249 69.9568C37.0592 69.9641 36.9862 69.9713 36.8987 69.9713C36.6286 69.9713 36.3951 69.8768 36.1835 69.6877C35.9718 69.4986 35.7675 69.2222 35.5485 68.8659L34.7823 67.5641H33.9649V69.4913L34.8115 69.6295L34.7604 69.8841ZM33.9576 64.9095V67.2441H34.8552C35.1107 67.1495 35.3296 67.0041 35.5048 66.7931C35.6799 66.5822 35.7675 66.3422 35.7675 66.0586C35.7675 65.8186 35.7164 65.6077 35.6142 65.4331C35.5121 65.2586 35.3588 65.1204 35.1618 65.0259C34.9647 64.9313 34.7312 64.8804 34.4612 64.8804C34.3517 64.8804 34.2495 64.8804 34.1473 64.8877C34.0525 64.9022 33.9868 64.9095 33.9576 64.9095Z" fill="#4D4A4A"/>
<path d="M39.9709 64.6631H44.4884L44.3424 66.074L44.0359 66.0304L43.9191 64.9685H42.496V69.4994L43.2623 69.6304L43.2112 69.8922H41.1167L41.1386 69.6449L41.8611 69.4849V64.9613H40.4891L40.2994 66.0594L40.0001 66.0158L39.9709 64.6631Z" fill="#4D4A4A"/>
<path d="M45.3203 64.9104L45.3568 64.6631H49.3634L49.232 66.0013L48.9474 65.9649L48.8233 64.9613H46.7069V67.0849H48.0352L48.203 66.5394L48.5095 66.4958L48.3709 68.1322L48.0935 68.1758L47.9914 67.3976H46.7069V69.5794H48.9401L49.305 68.5322L49.5677 68.5758L49.4437 69.8922H45.3568L45.3787 69.6449L46.0939 69.4849V65.0558L45.3203 64.9104Z" fill="#4D4A4A"/>
<path d="M50.3779 69.8849L50.4144 69.6522L50.9472 69.4994L52.5965 67.2813L51.0639 65.0413L50.4874 64.8958L50.5239 64.6631H52.487L52.4578 64.8958L51.801 65.0485L53.0198 66.8376L54.3407 65.0413L53.6182 64.9031L53.6547 64.6631H55.3478L55.3332 64.8958L54.8005 65.0194L53.246 67.1431L54.837 69.5358L55.4135 69.6449L55.3697 69.8922H53.4066L53.4431 69.6813L54.1291 69.514L52.8227 67.5794L51.4215 69.514L52.1221 69.6304L52.0711 69.8922H50.3779V69.8849Z" fill="#4D4A4A"/>
<path d="M56.2673 64.6631H60.7848L60.6388 66.074L60.3323 66.0304L60.2155 64.9685H58.7924V69.4994L59.5587 69.6304L59.5076 69.8922H57.4131L57.435 69.6449L58.1575 69.4849V64.9613H56.7855L56.5957 66.0594L56.2965 66.0158L56.2673 64.6631Z" fill="#4D4A4A"/>
<path d="M65.7109 69.9937C65.2803 69.9937 64.8862 69.8919 64.5359 69.681C64.1856 69.4701 63.9083 69.1646 63.704 68.7719C63.4996 68.3792 63.3975 67.9064 63.3975 67.3755C63.3975 66.9319 63.4923 66.4955 63.6748 66.0592C63.8645 65.6228 64.1491 65.2664 64.5286 64.9828C64.9081 64.6992 65.3825 64.5537 65.9371 64.5537C66.5575 64.5537 67.0537 64.6919 67.4186 64.9683L67.2873 66.3792L67.0026 66.3355L66.8494 65.3246C66.6159 65.0192 66.2364 64.8664 65.7182 64.8664C65.419 64.8664 65.149 64.961 64.8935 65.1573C64.6454 65.3464 64.4484 65.6155 64.3024 65.9646C64.1564 66.3137 64.0835 66.7064 64.0835 67.1501C64.0835 67.6519 64.1637 68.081 64.3316 68.4373C64.4995 68.7937 64.7257 69.0701 65.0103 69.2519C65.3022 69.4337 65.6306 69.5283 66.0028 69.5283C66.2875 69.5283 66.5575 69.4628 66.8202 69.3246C67.0829 69.1937 67.3092 69.0192 67.5135 68.8228L67.6376 69.0628C67.5281 69.2083 67.3748 69.3537 67.1851 69.4919C66.9953 69.6301 66.7691 69.7537 66.5137 69.841C66.2583 69.9428 65.9882 69.9937 65.7109 69.9937Z" fill="#4D4A4A"/>
<path d="M68.4258 69.8846L68.4623 69.6373L69.0753 69.4555L70.9217 64.6483L71.3523 64.5537L73.0454 69.4846L73.6146 69.6155L73.5781 69.8846H71.6296L71.6734 69.6373L72.3886 69.4555L71.8631 67.9646H70.0678L69.5132 69.4773L70.2941 69.6155L70.2503 69.8773H68.4258V69.8846ZM70.1919 67.6446H71.7682L71.0093 65.4337L70.1919 67.6446Z" fill="#4D4A4A"/>
<path d="M74.4465 64.8958L74.4903 64.6631H75.8696L78.6793 68.9467V65.0413L77.8985 64.9031L77.935 64.6631H79.8324L79.7886 64.9031L79.088 65.034V69.9067L78.6502 69.994L75.6434 65.4922V69.514L76.417 69.6304L76.3732 69.8922H74.483L74.5049 69.6449L75.2055 69.4849V65.0704L74.4465 64.8958Z" fill="#4D4A4A"/>
<path d="M84.401 69.8849H82.4087L82.4525 69.6377L83.1604 69.4777V65.1358L82.4379 65.0268L82.4744 64.794L82.7079 64.7577C83.0655 64.7067 83.372 64.6631 83.6274 64.634C83.8829 64.6049 84.1602 64.5977 84.4521 64.5977C84.8389 64.5977 85.16 64.6558 85.4228 64.7649C85.6855 64.874 85.8825 65.0268 86.0139 65.2086C86.1452 65.3904 86.2109 65.594 86.2109 65.8122C86.2109 66.0667 86.1379 66.3067 85.992 66.5104C85.846 66.7213 85.6271 66.8886 85.3425 67.0195V67.0486C85.6198 67.0631 85.8533 67.1286 86.0504 67.2522C86.2474 67.3758 86.3934 67.5286 86.4955 67.7104C86.5977 67.8922 86.6488 68.0813 86.6488 68.2777C86.6488 68.5686 86.5758 68.8377 86.4372 69.0777C86.2985 69.3177 86.0577 69.5067 85.722 69.6522C85.3863 69.8122 84.9484 69.8849 84.401 69.8849ZM83.7807 64.9031V67.0049H84.9776C85.16 66.9104 85.306 66.7795 85.4228 66.6049C85.5395 66.4377 85.5979 66.234 85.5979 66.0086C85.5979 65.6667 85.4811 65.3904 85.2476 65.1795C85.0141 64.9758 84.6638 64.874 84.1967 64.874C84.0142 64.8813 83.8756 64.8886 83.7807 64.9031ZM83.7807 67.2886V69.5722H84.7586C85.0433 69.5722 85.2841 69.5213 85.4738 69.4122C85.6636 69.3031 85.8022 69.1649 85.8825 68.9904C85.9701 68.8158 86.0139 68.634 86.0139 68.4304C86.0139 68.2413 85.9701 68.0595 85.8898 67.8922C85.8022 67.7177 85.6709 67.5722 85.4884 67.4631C85.306 67.354 85.0724 67.2958 84.7951 67.2958H83.7807V67.2886Z" fill="#4D4A4A"/>
<path d="M87.4734 64.9104L87.5099 64.6631H91.5165L91.3851 66.0013L91.1005 65.9649L90.9764 64.9613H88.8527V67.0849H90.1809L90.3488 66.5394L90.6553 66.4958L90.5166 68.1322L90.2393 68.1758L90.1371 67.3976H88.86V69.5794H91.0932L91.4581 68.5322L91.7208 68.5758L91.5967 69.8922H87.5099L87.5318 69.6449L88.247 69.4849V65.0558L87.4734 64.9104Z" fill="#4D4A4A"/>
<path d="M96.596 69.8845H94.2971L94.3336 69.6372L95.0196 69.4772V65.1354L94.319 65.0263L94.3555 64.7936L94.5088 64.7718C94.8372 64.7209 95.1364 64.6772 95.3918 64.6481C95.6472 64.619 95.9246 64.6045 96.2092 64.6045C96.8222 64.6045 97.3185 64.7281 97.7053 64.9681C98.0921 65.2081 98.2818 65.5936 98.2818 66.1318C98.2818 66.459 98.1869 66.7499 98.0045 67.0118C97.822 67.2736 97.5739 67.4699 97.2674 67.6154C96.9609 67.7609 96.6325 67.8336 96.2822 67.8336C96.1727 67.8336 96.0632 67.8263 95.9683 67.819L95.9027 67.5572L96.1289 67.5499C96.6179 67.5281 96.9828 67.4045 97.2236 67.179C97.4644 66.9463 97.5812 66.6409 97.5812 66.2481C97.5812 66.0009 97.5301 65.7681 97.4206 65.5645C97.3112 65.3536 97.1433 65.1863 96.9244 65.0627C96.6981 64.939 96.4281 64.8736 96.0924 64.8736C96.0194 64.8736 95.9319 64.8736 95.837 64.8809C95.7421 64.8881 95.6764 64.8954 95.6472 64.8954V69.4845L96.6398 69.6081L96.596 69.8845Z" fill="#4D4A4A"/>
<path d="M99.1283 69.8846L99.1648 69.6373L99.8654 69.4773V65.0555L99.1064 64.8955L99.1429 64.6555H101.259L101.23 64.8955L100.493 65.041V69.5646H102.544L102.989 68.4446L103.259 68.4882L103.113 69.8773H99.1283V69.8846Z" fill="#4D4A4A"/>
<path d="M104.083 69.8846L104.12 69.6373L104.733 69.4555L106.579 64.6483L107.01 64.5537L108.703 69.4846L109.272 69.6155L109.236 69.8846H107.287L107.331 69.6373L108.046 69.4555L107.521 67.9646H105.726L105.171 69.4773L105.952 69.6155L105.908 69.8773H104.083V69.8846ZM105.842 67.6446H107.419L106.66 65.4337L105.842 67.6446Z" fill="#4D4A4A"/>
<path d="M112.44 69.9937C112.009 69.9937 111.615 69.8919 111.265 69.681C110.914 69.4701 110.637 69.1646 110.433 68.7719C110.228 68.3792 110.126 67.9064 110.126 67.3755C110.126 66.9319 110.221 66.4955 110.404 66.0592C110.593 65.6228 110.878 65.2664 111.257 64.9828C111.637 64.6992 112.111 64.5537 112.666 64.5537C113.286 64.5537 113.783 64.6919 114.147 64.9683L114.016 66.3792L113.731 66.3355L113.578 65.3246C113.345 65.0192 112.965 64.8664 112.447 64.8664C112.148 64.8664 111.878 64.961 111.622 65.1573C111.374 65.3464 111.177 65.6155 111.031 65.9646C110.885 66.3137 110.812 66.7064 110.812 67.1501C110.812 67.6519 110.893 68.081 111.06 68.4373C111.228 68.7937 111.454 69.0701 111.739 69.2519C112.031 69.4337 112.359 69.5283 112.732 69.5283C113.016 69.5283 113.286 69.4628 113.549 69.3246C113.812 69.1937 114.038 69.0192 114.242 68.8228L114.366 69.0628C114.257 69.2083 114.104 69.3537 113.914 69.4919C113.724 69.6301 113.498 69.7537 113.242 69.841C112.987 69.9428 112.717 69.9937 112.44 69.9937Z" fill="#4D4A4A"/>
<path d="M115.162 64.9104L115.198 64.6631H119.205L119.074 66.0013L118.789 65.9649L118.665 64.9613H116.541V67.0849H117.869L118.037 66.5394L118.344 66.4958L118.205 68.1322L117.928 68.1758L117.826 67.3976H116.548V69.5794H118.782L119.147 68.5322L119.409 68.5758L119.285 69.8922H115.198L115.228 69.6449L115.943 69.4849V65.0558L115.162 64.9104Z" fill="#4D4A4A"/>
<path d="M122.168 69.8849H120.219L120.263 69.6377L120.986 69.4558V65.1431L120.256 65.034L120.3 64.8013C120.745 64.7286 121.131 64.6777 121.453 64.6486C121.774 64.6122 122.08 64.5977 122.379 64.5977C123.095 64.5977 123.671 64.714 124.109 64.9467C124.547 65.1795 124.861 65.4849 125.043 65.8704C125.226 66.2486 125.321 66.6704 125.321 67.1431C125.321 67.6449 125.204 68.0958 124.97 68.5177C124.737 68.9322 124.386 69.2667 123.912 69.514C123.438 69.7613 122.854 69.8849 122.168 69.8849ZM121.599 64.9467V69.5577H122.285C122.774 69.5577 123.19 69.4631 123.547 69.2813C123.905 69.0922 124.167 68.8377 124.357 68.5031C124.54 68.1758 124.635 67.7977 124.635 67.3758C124.635 66.9031 124.547 66.474 124.364 66.1104C124.182 65.7395 123.912 65.4558 123.547 65.2449C123.19 65.034 122.744 64.9322 122.226 64.9322C121.92 64.9249 121.715 64.9322 121.599 64.9467Z" fill="#4D4A4A"/>
<path d="M127.904 64.9031L127.933 64.6631H130.042L130.006 64.9031L129.291 65.034V67.0704H132.13V65.0485L131.363 64.9031L131.4 64.6631H133.509L133.472 64.9031L132.772 65.034V69.514L133.538 69.6304L133.502 69.8922H131.4L131.444 69.6449L132.137 69.4849V67.3976L129.298 67.4049V69.5067L130.079 69.6231L130.028 69.8849H127.933L127.955 69.6376L128.663 69.4776V65.034L127.904 64.9031Z" fill="#4D4A4A"/>
<path d="M134.392 64.9104L134.429 64.6631H138.435L138.304 66.0013L138.019 65.9649L137.895 64.9613H135.771V67.0849H137.1L137.267 66.5394L137.574 66.4958L137.435 68.1322L137.158 68.1758L137.056 67.3976H135.779V69.5794H138.012L138.377 68.5322L138.64 68.5758L138.515 69.8922H134.429L134.45 69.6449L135.166 69.4849V65.0558L134.392 64.9104Z" fill="#4D4A4A"/>
<path d="M141.588 69.8841H139.449L139.486 69.6368L140.172 69.4768V65.1422L139.471 65.0331L139.515 64.8004C139.895 64.7422 140.23 64.6913 140.515 64.6622C140.8 64.6332 141.084 64.6113 141.369 64.6113C141.945 64.6113 142.405 64.7131 142.755 64.9241C143.098 65.135 143.274 65.4477 143.274 65.8768C143.274 66.1677 143.179 66.4441 142.982 66.6986C142.785 66.9531 142.493 67.1641 142.091 67.3386V67.3459L142.872 68.4732C143.069 68.7568 143.23 68.9677 143.347 69.1131C143.463 69.2586 143.58 69.3677 143.682 69.4404C143.784 69.5132 143.901 69.5786 144.04 69.615L144.215 69.6732L144.171 69.8986C144.084 69.9277 144.011 69.9495 143.952 69.9568C143.887 69.9641 143.814 69.9713 143.726 69.9713C143.456 69.9713 143.223 69.8768 143.011 69.6877C142.799 69.4986 142.595 69.2222 142.376 68.8659L141.61 67.5641H140.792V69.4913L141.639 69.6295L141.588 69.8841ZM140.785 64.9095V67.2441H141.683C141.938 67.1495 142.157 67.0041 142.332 66.7931C142.507 66.5822 142.595 66.3422 142.595 66.0586C142.595 65.8186 142.544 65.6077 142.442 65.4331C142.339 65.2586 142.186 65.1204 141.989 65.0259C141.792 64.9313 141.559 64.8804 141.289 64.8804C141.179 64.8804 141.077 64.8804 140.975 64.8877C140.88 64.9022 140.814 64.9095 140.785 64.9095Z" fill="#4D4A4A"/>
<path d="M145.04 64.9104L145.076 64.6631H149.083L148.951 66.0013L148.667 65.9649L148.543 64.9613H146.419V67.0849H147.747L147.915 66.5394L148.222 66.4958L148.083 68.1322L147.806 68.1758L147.704 67.3976H146.426V69.5794H148.66L149.024 68.5322L149.287 68.5758L149.163 69.8922H145.076L145.098 69.6449L145.813 69.4849V65.0558L145.04 64.9104Z" fill="#4D4A4A"/>
<path d="M40.5694 44.6478C39.7886 44.6478 39.0661 44.4733 38.402 44.1169C37.7305 43.7605 37.1978 43.2442 36.7964 42.5605C36.395 41.8769 36.1907 41.0551 36.1907 40.1096C36.1907 39.3169 36.3585 38.5387 36.7015 37.7678C37.0445 36.9969 37.57 36.3496 38.2925 35.8405C39.0077 35.3314 39.9053 35.0769 40.9708 35.0769C41.4963 35.0769 41.9925 35.1351 42.4596 35.2515C42.9267 35.3678 43.3281 35.5569 43.6638 35.8115L43.4302 38.2696L42.7734 38.1751L42.4596 36.546C42.2772 36.306 42.0217 36.1242 41.7079 35.986C41.3868 35.8478 41 35.7751 40.5476 35.7751C40.0294 35.7751 39.555 35.9278 39.139 36.2405C38.7231 36.546 38.3874 36.9896 38.1465 37.5714C37.9057 38.146 37.7816 38.8224 37.7816 39.6005C37.7816 40.4515 37.9349 41.186 38.2487 41.7969C38.5552 42.4078 38.9712 42.866 39.4748 43.1787C39.9856 43.4914 40.5403 43.6515 41.146 43.6515C41.6131 43.6515 42.0728 43.5496 42.5326 43.3387C42.9924 43.1278 43.3938 42.866 43.7441 42.546L44.0068 43.106C43.7951 43.3605 43.5105 43.6078 43.1675 43.8405C42.8172 44.0733 42.4231 44.2696 41.978 44.4224C41.5255 44.5751 41.0584 44.6478 40.5694 44.6478Z" fill="#4D4A4A"/>
<path d="M44.5542 44.4728L44.6199 43.9274L45.7292 43.5201L48.9038 35.3165L50.0277 35.0837L52.925 43.5565L53.9394 43.8837L53.8737 44.4728H50.0496L50.1371 43.9274L51.407 43.5201L50.5969 41.2728H47.4807L46.729 43.5565L48.1083 43.8837L48.028 44.4728H44.5542ZM47.7653 40.5165H50.378L49.1446 36.8146L47.7653 40.5165Z" fill="#4D4A4A"/>
<path d="M59.4492 44.4731H55.377L55.4572 43.9277L56.6979 43.5786V36.3277L55.428 36.1022L55.501 35.5349C56.187 35.4258 56.8001 35.3458 57.3401 35.2804C57.8802 35.2222 58.3983 35.1931 58.8946 35.1931C60.0768 35.1931 60.9964 35.3677 61.6459 35.724C62.2954 36.0804 62.6238 36.6695 62.6238 37.484C62.6238 37.8113 62.5435 38.1386 62.3757 38.4658C62.2078 38.7931 61.967 39.0986 61.6459 39.3749C61.3248 39.6513 60.938 39.8695 60.4928 40.0295V40.0368L61.8283 41.884C62.1787 42.3713 62.4487 42.7277 62.6384 42.9604C62.8282 43.1858 63.0252 43.3822 63.2369 43.5349C63.4485 43.6877 63.7039 43.8113 64.0031 43.8986L64.2513 43.9713L64.1418 44.4731C63.8572 44.5749 63.5653 44.6186 63.2514 44.6186C62.7041 44.6186 62.2151 44.4368 61.7846 44.0804C61.354 43.724 60.9672 43.2222 60.6096 42.5895L59.4273 40.4877H58.1356V43.5277L59.5295 43.8477L59.4492 44.4731ZM58.1283 35.8549V39.8258H59.6025C60.0185 39.6877 60.3688 39.4549 60.6607 39.1277C60.9453 38.8004 61.0913 38.3931 61.0913 37.9058C61.0913 37.4986 61.011 37.1422 60.8431 36.8222C60.6826 36.5095 60.4417 36.2622 60.1352 36.0804C59.8287 35.9058 59.4565 35.8113 59.0259 35.8113C58.807 35.8113 58.6172 35.8186 58.4494 35.8258C58.2742 35.8404 58.1721 35.8477 58.1283 35.8549Z" fill="#4D4A4A"/>
<path d="M64.5869 44.4728L64.6526 43.9274L65.7619 43.5201L68.9365 35.3165L70.0604 35.0837L72.9577 43.5565L73.9721 43.8837L73.9064 44.4728H70.0823L70.1699 43.9274L71.4397 43.5201L70.6296 41.2728H67.5134L66.7617 43.5565L68.141 43.8837L68.0607 44.4728H64.5869ZM67.798 40.5165H70.4107L69.1773 36.8146L67.798 40.5165Z" fill="#4D4A4A"/>
<path d="M87.2399 43.9568L87.1304 44.4732C86.8604 44.5677 86.5684 44.6113 86.24 44.6113C85.8897 44.6113 85.5029 44.4804 85.087 44.2186C84.671 43.9568 84.3134 43.6659 84.0288 43.3604C83.6128 43.775 83.1384 44.0877 82.613 44.3059C82.0802 44.5241 81.5037 44.6332 80.8687 44.6332C80.336 44.6332 79.8762 44.5386 79.4821 44.3423C79.088 44.1459 78.7815 43.8695 78.5699 43.5059C78.3583 43.1423 78.2488 42.7277 78.2488 42.2477C78.2488 41.6732 78.4239 41.1423 78.7815 40.6623C79.1391 40.175 79.6646 39.7677 80.3725 39.4259C80.1608 39.1713 79.9857 38.9386 79.8543 38.7423C79.723 38.5459 79.6135 38.3277 79.5332 38.0877C79.4529 37.8477 79.4092 37.5859 79.4092 37.3095C79.4092 36.9313 79.5186 36.575 79.7449 36.2259C79.9711 35.8768 80.263 35.5932 80.6206 35.3823C80.9855 35.1641 81.3577 35.0623 81.7445 35.0623C82.1824 35.0623 82.5692 35.135 82.8903 35.2877C83.2114 35.4332 83.4595 35.6441 83.6347 35.9204C83.8098 36.1895 83.8974 36.5095 83.8974 36.8804C83.8974 37.3895 83.7368 37.8404 83.4084 38.2332C83.08 38.6259 82.6567 38.9677 82.1386 39.2441V39.3241C82.9414 40.255 83.6639 41.055 84.3061 41.7095C84.6199 41.0841 84.8461 40.3132 84.9848 39.3968L83.8536 39.2077L83.9047 38.6477H87.1815L87.1304 39.2077L85.8532 39.535C85.6489 40.6041 85.3205 41.5204 84.8753 42.2768C85.8314 43.1932 86.5466 43.7313 87.0136 43.8913L87.2399 43.9568ZM79.9346 42.6986C80.0879 42.9677 80.3068 43.1859 80.5841 43.3459C80.8614 43.5059 81.168 43.5859 81.5037 43.5859C82.2918 43.5859 82.9633 43.3313 83.5106 42.815L80.8323 39.8986L80.7082 39.8768C80.3433 40.1313 80.0806 40.4077 79.9346 40.7059C79.7813 40.9968 79.7084 41.3677 79.7084 41.8113C79.7011 42.1241 79.7813 42.4223 79.9346 42.6986ZM80.8833 36.0223C80.7155 36.255 80.6279 36.5459 80.6279 36.8877C80.6279 37.2223 80.7374 37.5641 80.949 37.9132C81.1607 38.2623 81.4088 38.5604 81.6934 38.8223C81.9342 38.6695 82.124 38.5241 82.2627 38.3859C82.4013 38.2477 82.5181 38.0804 82.5984 37.8841C82.6786 37.6877 82.7224 37.4477 82.7224 37.1568C82.7224 36.7132 82.6349 36.3568 82.4524 36.0804C82.27 35.8113 81.9853 35.6732 81.5912 35.6732C81.2847 35.6732 81.0512 35.7895 80.8833 36.0223Z" fill="#4D4A4A"/>
<path d="M91.7427 46.8882L91.3413 46.2264C91.947 45.6591 92.3922 45.1209 92.6768 44.6264C92.9615 44.1245 93.1074 43.5864 93.1074 43.0191V36.1391L91.7646 35.8264L91.8376 35.2664H95.8879L95.8149 35.8264L94.5524 36.11V41.63C94.5451 42.6409 94.4648 43.4409 94.297 44.03C94.1291 44.6191 93.8591 45.1209 93.4796 45.5282C93.0855 45.9354 92.509 46.3864 91.7427 46.8882Z" fill="#4D4A4A"/>
<path d="M96.3403 44.4728L96.406 43.9274L97.5153 43.5201L100.69 35.3165L101.814 35.0837L104.711 43.5565L105.726 43.8837L105.66 44.4728H101.836L101.923 43.9274L103.193 43.5201L102.383 41.2728H99.2668L98.5151 43.5565L99.8944 43.8837L99.8142 44.4728H96.3403ZM99.5514 40.5165H102.164L100.931 36.8146L99.5514 40.5165Z" fill="#4D4A4A"/>
<path d="M106.966 44.4736L107.047 43.9282L108.287 43.5791L108.827 36.1391L107.47 35.8264L107.543 35.2664H110.535L111.112 36.7064L113.06 42.1609L115.344 36.4591L115.87 35.2664H118.804L118.731 35.8264L117.483 36.11L117.869 43.6373L119.22 43.8918L119.147 44.4809H115.162L115.242 43.9354L116.476 43.5864L116.06 37.0482L113.228 44.11L112.279 44.2482L109.732 37.3173L109.265 43.6373L110.623 43.8918L110.528 44.4809H106.966V44.4736Z" fill="#4D4A4A"/>
<path d="M120.285 35.8264L120.365 35.2664H127.758L127.525 37.6373L126.875 37.5427L126.569 35.95H123.066V39.4773H125.219L125.532 38.59L126.255 38.4736L125.999 41.3536L125.372 41.4554L125.116 40.1609H123.08V43.7682H126.758L127.488 42.0664L128.101 42.1609L127.875 44.4809H120.344L120.402 43.9354L121.643 43.5864V36.1318L120.285 35.8264Z" fill="#4D4A4A"/>
<path d="M131.655 44.6478C131.137 44.6478 130.656 44.5678 130.21 44.4005C129.765 44.2405 129.415 44.0296 129.159 43.7824L129.254 41.6587L130.013 41.7605L130.305 43.1496C130.451 43.3605 130.656 43.5351 130.933 43.6733C131.21 43.8187 131.509 43.8914 131.838 43.8914C132.122 43.8914 132.4 43.8333 132.67 43.7242C132.94 43.6078 133.166 43.4405 133.341 43.2078C133.516 42.9751 133.604 42.6842 133.604 42.3424C133.604 42.0733 133.524 41.826 133.356 41.6151C133.195 41.3969 132.991 41.2151 132.75 41.0551C132.509 40.8951 132.181 40.706 131.757 40.4805C131.239 40.2042 130.816 39.9569 130.495 39.7387C130.174 39.5205 129.904 39.2369 129.678 38.8951C129.451 38.5533 129.342 38.1533 129.342 37.6878C129.342 37.1496 129.481 36.6842 129.751 36.2915C130.021 35.8987 130.378 35.5933 130.823 35.3896C131.261 35.1787 131.736 35.0769 132.232 35.0769C133.035 35.0769 133.735 35.3242 134.326 35.8187C134.312 36.0515 134.283 36.4005 134.246 36.8805C134.21 37.3533 134.18 37.6951 134.166 37.9133L133.421 37.8187L133.239 36.4078C133.188 36.3133 133.1 36.2114 132.976 36.1024C132.852 35.9933 132.699 35.8987 132.516 35.8187C132.341 35.746 132.159 35.7024 131.976 35.7024C131.582 35.7024 131.254 35.8187 131.006 36.0587C130.75 36.2987 130.626 36.6478 130.626 37.1133C130.626 37.4696 130.721 37.7824 130.911 38.0442C131.101 38.3133 131.334 38.5387 131.612 38.7205C131.889 38.9024 132.261 39.1205 132.735 39.3824C133.232 39.6442 133.626 39.8769 133.918 40.0733C134.21 40.2769 134.458 40.5169 134.662 40.8078C134.866 41.0987 134.969 41.4405 134.969 41.8405C134.969 42.3933 134.815 42.8878 134.502 43.3169C134.195 43.746 133.786 44.0805 133.275 44.3133C132.765 44.5315 132.225 44.6478 131.655 44.6478Z" fill="#4D4A4A"/>
</g>
<defs>
<clipPath id="clip0_1287_3384">
<rect width="170.758" height="70" fill="white"/>
</clipPath>
</defs>
</svg>
