<svg width="80" height="70" viewBox="0 0 80 70" fill="none" xmlns="http://www.w3.org/2000/svg">
<g clip-path="url(#clip0_1287_3634)">
<path d="M47.6731 25.037C47.8244 25.1032 47.9332 25.2309 47.9899 25.4342C48.0419 25.6328 48.023 25.907 47.8859 26.2191C47.7488 26.5265 47.4603 26.8622 47.0489 27.0986C46.6423 27.3398 46.1174 27.458 45.602 27.4201C45.342 27.4107 45.0204 27.335 44.6753 27.1979C44.3301 27.0608 43.9755 26.848 43.6586 26.569C43.3371 26.2948 43.0534 25.9591 42.8264 25.595C42.5995 25.2309 42.434 24.8384 42.3205 24.4554C42.2117 24.0724 42.155 23.6989 42.1361 23.3584C42.1314 23.1882 42.1266 23.0274 42.1314 22.8808C42.1408 22.7295 42.1503 22.5924 42.1692 22.4647C42.1881 22.3371 42.2117 22.2236 42.2306 22.1243C42.2543 22.025 42.2827 21.9399 42.3063 21.8737C42.3536 21.7365 42.4009 21.6609 42.4387 21.6609C42.4718 21.6609 42.5191 21.7365 42.5711 21.8642C42.6278 22.0108 42.6988 22.1905 42.7792 22.3938C42.8217 22.5026 42.8737 22.616 42.9257 22.739C42.9825 22.8572 43.0439 22.9849 43.1101 23.1078C43.2473 23.3584 43.408 23.6137 43.5924 23.8502C43.7816 24.0819 43.9896 24.2946 44.2071 24.4649C44.4247 24.6351 44.6469 24.7675 44.8549 24.8573C45.063 24.9472 45.2521 24.9944 45.4082 25.0181C45.446 25.0275 45.4838 25.0275 45.5169 25.0323C45.55 25.037 45.5831 25.0417 45.6115 25.0417C45.6399 25.0417 45.6682 25.0465 45.6966 25.0512C45.7202 25.0512 45.7439 25.0512 45.7675 25.0512C45.9378 25.0606 46.0796 25.0748 46.2167 25.0796C46.3539 25.0843 46.5052 25.089 46.6707 25.0701C46.9969 25.0323 47.3705 24.9046 47.6731 25.037Z" fill="#4D4A4A"/>
<path d="M42.5239 27.794C41.6019 25.704 41.356 22.7676 41.3276 22.3799C41.3276 22.3563 41.3135 22.3374 41.2945 22.3374L40.3961 21.3207C40.2779 21.1883 40.0651 21.1883 39.9469 21.3207L39.0485 22.3374C39.0296 22.3374 39.0154 22.3563 39.0154 22.3799C38.9871 22.7676 38.779 25.477 37.8191 27.794C37.8097 27.8129 39.6727 31.137 40.0888 31.8321C40.1313 31.903 40.2117 31.903 40.2543 31.8321C40.6704 31.1323 42.5334 27.8082 42.5239 27.794Z" fill="#4D4A4A"/>
<path d="M32.5468 25.037C32.3955 25.1032 32.2867 25.2309 32.23 25.4342C32.178 25.6328 32.1969 25.907 32.334 26.2191C32.4711 26.5265 32.7596 26.8622 33.171 27.0986C33.5776 27.3398 34.1025 27.458 34.6179 27.4201C34.8779 27.4107 35.1995 27.335 35.5446 27.1979C35.8898 27.0608 36.2444 26.848 36.5613 26.569C36.8828 26.2948 37.1665 25.9591 37.3935 25.595C37.6204 25.2309 37.7859 24.8384 37.8994 24.4554C38.0082 24.0724 38.0649 23.6989 38.0838 23.3584C38.0885 23.1882 38.0933 23.0274 38.0885 22.8808C38.0791 22.7295 38.0696 22.5924 38.0507 22.4647C38.0318 22.3371 38.0082 22.2236 37.9892 22.1243C37.9656 22.025 37.9372 21.9399 37.9136 21.8737C37.8663 21.7365 37.819 21.6609 37.7812 21.6609C37.7481 21.6609 37.7008 21.7365 37.6488 21.8642C37.5921 22.0108 37.5211 22.1905 37.4407 22.3938C37.3982 22.5026 37.3462 22.616 37.2942 22.739C37.2374 22.8572 37.176 22.9849 37.1098 23.1078C36.9726 23.3584 36.8119 23.6137 36.6275 23.8502C36.4383 24.0819 36.2303 24.2946 36.0128 24.4649C35.7952 24.6351 35.573 24.7675 35.365 24.8573C35.1569 24.9472 34.9678 24.9944 34.8117 25.0181C34.7739 25.0275 34.7361 25.0275 34.703 25.0323C34.6699 25.037 34.6368 25.0417 34.6084 25.0417C34.58 25.0417 34.5517 25.0465 34.5233 25.0512C34.4997 25.0512 34.476 25.0512 34.4524 25.0512C34.2821 25.0606 34.1403 25.0748 34.0032 25.0796C33.866 25.0843 33.7147 25.089 33.5492 25.0701C33.223 25.0323 32.8541 24.9046 32.5468 25.037Z" fill="#4D4A4A"/>
<path d="M40.169 20.9469L39.02 19.8594C39.2281 19.5804 40.169 17.9822 40.169 17.9822C40.169 17.9822 41.0674 19.5804 41.2708 19.8594L40.169 20.9469Z" fill="#4D4A4A"/>
<path d="M32.4901 21.926C31.9794 21.803 31.4498 21.6565 30.9202 21.4721C30.3906 21.2924 29.8469 21.089 29.3031 20.8621C28.2108 20.4129 27.0855 19.8833 25.9223 19.3537C25.3359 19.0889 24.7496 18.8241 24.1538 18.5499C23.558 18.2756 22.9575 17.9966 22.3428 17.7224C21.7328 17.4434 21.1134 17.1739 20.4893 16.9091C19.8604 16.649 19.2268 16.389 18.579 16.1573C18.2574 16.0343 17.9312 15.9303 17.6049 15.8168C17.4441 15.7601 17.2739 15.7128 17.1132 15.6608C16.9477 15.6135 16.7869 15.5568 16.6167 15.5142C16.2857 15.4244 15.9547 15.3298 15.6142 15.2541C15.444 15.2163 15.2785 15.1738 15.1083 15.1407C14.9381 15.1076 14.7678 15.0745 14.6023 15.0414C14.5172 15.0272 14.4321 15.0083 14.347 14.9941L14.0917 14.9562C13.9214 14.9326 13.7512 14.9042 13.581 14.8806C13.4108 14.8617 13.2453 14.838 13.0751 14.8191C12.9096 14.8002 12.7393 14.7813 12.5738 14.7624C12.4036 14.7435 12.2381 14.7293 12.0726 14.7104C11.9024 14.6962 11.7369 14.682 11.5667 14.6678L11.3161 14.6489L11.0655 14.6347C10.8952 14.6253 10.7297 14.6158 10.5642 14.6111C9.89281 14.5874 9.22609 14.6063 8.56411 14.6725C8.48373 14.682 8.39861 14.6915 8.31823 14.7009C8.23785 14.7104 8.15273 14.7198 8.07235 14.734C7.90686 14.7624 7.74609 14.7908 7.58532 14.8191C7.42455 14.8569 7.26379 14.89 7.10302 14.9279C7.02263 14.9468 6.94225 14.9657 6.8666 14.9893C6.78621 15.013 6.71056 15.0366 6.63017 15.0603C6.55452 15.0839 6.47413 15.1028 6.39848 15.1312C6.32282 15.1596 6.24717 15.1879 6.17151 15.2116C6.0202 15.2636 5.86889 15.3156 5.72231 15.3818C5.57573 15.4433 5.42915 15.5047 5.28256 15.5709C5.14071 15.6419 4.99886 15.7081 4.857 15.779C4.78608 15.8121 4.71988 15.8499 4.64895 15.8878C4.58275 15.9256 4.51183 15.9634 4.44563 16.0012C4.37943 16.0391 4.3085 16.0769 4.2423 16.1147C4.17611 16.1525 4.10991 16.1951 4.04844 16.2329C3.92077 16.3133 3.78837 16.3937 3.6607 16.4741C3.59451 16.5166 3.53304 16.5592 3.46684 16.6065C3.40064 16.649 3.33917 16.6916 3.2777 16.7436C3.21623 16.7909 3.15476 16.8382 3.09329 16.8855C3.03182 16.9327 2.97508 16.9848 2.91834 17.032C2.80013 17.1266 2.69137 17.2354 2.57789 17.3394C2.36038 17.5522 2.15706 17.7697 1.97738 18.0014C1.78824 18.2283 1.62747 18.4742 1.47143 18.7154C1.32485 18.9612 1.18772 19.2119 1.07424 19.4719C0.610854 20.4933 0.459543 21.5855 0.577754 22.5454C0.634496 23.0277 0.757436 23.4769 0.922931 23.8741C1.08843 24.276 1.29648 24.6259 1.50926 24.9286C1.72204 25.2359 1.97265 25.5007 2.23271 25.756C2.29891 25.8175 2.36511 25.879 2.43131 25.9357C2.46441 25.9641 2.49751 25.9972 2.53533 26.0256L2.64409 26.1107C2.71501 26.1721 2.79067 26.2194 2.86633 26.2714L2.97981 26.3471L3.09329 26.418C3.40064 26.6072 3.72217 26.7585 4.04844 26.8719C4.3747 26.9902 4.70569 27.0847 5.03668 27.1462C5.69867 27.2739 6.35592 27.307 6.99426 27.2644C7.3158 27.2408 7.62788 27.2029 7.93523 27.1415C8.09126 27.1131 8.24258 27.0753 8.39389 27.0374C8.46954 27.0185 8.5452 26.9949 8.61612 26.976C8.69178 26.9523 8.7627 26.9334 8.83836 26.9098C8.90929 26.8861 8.98494 26.8625 9.05587 26.8341C9.1268 26.8057 9.19772 26.7774 9.26865 26.749L9.37268 26.7065L9.4767 26.6592C9.54763 26.6261 9.61383 26.5977 9.68475 26.5646C9.75095 26.5315 9.81715 26.4937 9.88808 26.4606L9.98737 26.4086L10.0867 26.3518C10.1529 26.314 10.2143 26.2762 10.2805 26.2383C10.342 26.1958 10.4035 26.1532 10.4649 26.1154C10.5264 26.0776 10.5879 26.0303 10.6446 25.9877C10.7014 25.9404 10.7628 25.8979 10.8196 25.8506C10.9331 25.7513 11.0465 25.6615 11.1458 25.5574C11.3586 25.3588 11.543 25.1319 11.7133 24.9002C11.7511 24.8387 11.7936 24.782 11.8315 24.7205L11.8882 24.6307L11.9402 24.5361C11.9733 24.4746 12.0112 24.4132 12.0443 24.3517C12.0726 24.2855 12.1057 24.224 12.1341 24.1578L12.1766 24.0632C12.1908 24.0301 12.2003 23.997 12.2145 23.9639C12.2381 23.8978 12.2618 23.8316 12.2854 23.7701C12.3043 23.7039 12.3232 23.6377 12.3421 23.5715L12.3705 23.4722C12.38 23.4391 12.3847 23.406 12.3894 23.3729C12.4036 23.3067 12.4131 23.2405 12.4273 23.1743C12.4367 23.1081 12.4414 23.0419 12.4509 22.9757L12.4604 22.8764L12.4651 22.7771C12.4651 22.7109 12.4698 22.6447 12.4698 22.5832C12.4651 22.517 12.4651 22.4556 12.4604 22.3894C12.4604 22.3563 12.4556 22.3232 12.4556 22.2948L12.4462 22.2002C12.4367 22.1388 12.432 22.0726 12.4225 22.0111C12.4083 21.9496 12.3989 21.8882 12.3847 21.8267C12.38 21.7983 12.3705 21.7652 12.3658 21.7368L12.3421 21.647C12.3232 21.5903 12.309 21.5288 12.2901 21.4721C12.2712 21.4153 12.2476 21.3586 12.2287 21.3066L12.1956 21.2214C12.1861 21.1931 12.1719 21.1694 12.1577 21.1411C12.1341 21.089 12.1104 21.037 12.0868 20.985C12.0632 20.933 12.0301 20.8857 12.0064 20.8337C11.9544 20.7344 11.8882 20.6398 11.8315 20.55C11.5856 20.1859 11.2782 19.9022 10.9614 19.6894C10.6446 19.4766 10.3136 19.3395 10.0016 19.2639C9.68948 19.1882 9.39632 19.1646 9.13625 19.1882C9.10315 19.1882 9.07005 19.1929 9.04168 19.1929C9.00858 19.1977 8.98021 19.2024 8.94711 19.2071C8.88564 19.2166 8.8289 19.226 8.77216 19.2308C8.65868 19.2591 8.55465 19.2828 8.46481 19.3112C8.37497 19.3443 8.28986 19.3726 8.20948 19.401C8.18111 19.4152 8.15273 19.4294 8.12909 19.4388C7.56168 19.4766 7.0841 19.9306 7.02263 20.5311C6.95171 21.2025 7.42928 21.8078 8.08654 21.8787C8.74379 21.9496 9.33012 21.4626 9.40105 20.7912C9.45306 20.2616 9.17408 19.7793 8.73433 19.5618C8.7627 19.557 8.79108 19.557 8.82417 19.5523C8.87619 19.5523 8.9282 19.5523 8.98494 19.5476C9.01331 19.5476 9.04168 19.5476 9.07006 19.5476C9.09843 19.5476 9.1268 19.5523 9.15517 19.5523C9.38686 19.557 9.63747 19.6043 9.89753 19.6942C10.1576 19.784 10.4271 19.9211 10.6777 20.1197C10.9283 20.3183 11.1695 20.5736 11.3586 20.8857C11.4059 20.9661 11.4532 21.0418 11.491 21.1269C11.5099 21.1694 11.5336 21.212 11.5525 21.2545C11.5714 21.2971 11.5856 21.3444 11.6045 21.3869C11.614 21.4106 11.6234 21.4295 11.6329 21.4531L11.6565 21.5241C11.6707 21.5714 11.6849 21.6186 11.6991 21.6659C11.7085 21.7132 11.7227 21.7605 11.7322 21.8125L11.7511 21.8834C11.7558 21.9071 11.7605 21.9354 11.7653 21.9591C11.7747 22.0111 11.7795 22.0584 11.7889 22.1104C11.7936 22.1624 11.7984 22.2144 11.8031 22.2617L11.8078 22.3374C11.8078 22.361 11.8078 22.3894 11.8078 22.413C11.8078 22.465 11.8078 22.517 11.8078 22.5691C11.8031 22.6211 11.7984 22.6731 11.7984 22.7251L11.7936 22.8055L11.7795 22.8859C11.77 22.9379 11.7653 22.9899 11.7558 23.0466C11.7416 23.0986 11.7322 23.1507 11.718 23.2074C11.7133 23.2358 11.7085 23.2594 11.6991 23.2878L11.6754 23.3682C11.6565 23.4202 11.6423 23.4722 11.6234 23.5242C11.6045 23.5762 11.5809 23.6282 11.5619 23.6802C11.5525 23.7039 11.543 23.7323 11.5288 23.7606L11.491 23.8363C11.4674 23.8883 11.439 23.9403 11.4154 23.9876C11.387 24.0349 11.3539 24.0869 11.3255 24.1342L11.283 24.2098L11.231 24.2808C11.1979 24.328 11.1648 24.3753 11.1269 24.4273C10.5501 25.1839 9.64692 25.7655 8.60667 26.0728C8.54047 26.0965 8.47427 26.1107 8.40807 26.1296C8.34187 26.1485 8.27567 26.1674 8.20948 26.1816C8.07235 26.21 7.93995 26.2431 7.80283 26.2667C7.52858 26.3187 7.24487 26.3471 6.96116 26.3613C6.38902 26.3944 5.80269 26.3518 5.22582 26.2383C4.93739 26.1816 4.65368 26.0965 4.3747 25.9925C4.09572 25.8884 3.83093 25.7608 3.57559 25.6047L3.48102 25.548L3.377 25.496C3.31553 25.4534 3.25406 25.4156 3.19732 25.3636L3.1122 25.2974C3.08383 25.2737 3.05546 25.2501 3.02709 25.2264C2.97035 25.1744 2.91361 25.1224 2.85687 25.0704C2.63936 24.8576 2.42658 24.6307 2.25163 24.3753C2.07195 24.1247 1.90645 23.8363 1.76932 23.5147C1.6322 23.1885 1.5329 22.8244 1.48089 22.4319C1.42888 22.0395 1.4336 21.6139 1.4998 21.1789C1.51399 21.0701 1.53763 20.9614 1.56127 20.8479C1.58491 20.7391 1.61801 20.6257 1.64638 20.5169C1.71731 20.2947 1.78824 20.0724 1.88754 19.8502C1.9821 19.628 2.10032 19.4104 2.22326 19.1929C2.35565 18.9802 2.49278 18.7674 2.65827 18.5641C2.81431 18.3607 2.99399 18.1669 3.1784 17.9777C3.27297 17.8879 3.36754 17.7933 3.47157 17.7082C3.52358 17.6657 3.57086 17.6184 3.62288 17.5758C3.67489 17.5333 3.73163 17.4907 3.78364 17.4529C3.83566 17.4103 3.8924 17.3725 3.94914 17.3299C4.00588 17.2921 4.05789 17.2495 4.11936 17.2117C4.23758 17.1361 4.36052 17.0604 4.48346 16.98C4.54493 16.9422 4.6064 16.8996 4.66786 16.8665C4.72933 16.8287 4.79553 16.7956 4.857 16.7578C4.91847 16.72 4.98467 16.6869 5.04614 16.649C5.10761 16.6112 5.17381 16.5734 5.24001 16.545C5.36768 16.4788 5.50007 16.4126 5.63247 16.3464C5.76487 16.2802 5.90199 16.2282 6.03439 16.1667C6.16678 16.1053 6.30864 16.0532 6.44576 16.0012C6.51669 15.9729 6.58762 15.9492 6.65382 15.9209C6.72474 15.8925 6.79567 15.8736 6.8666 15.8547C6.93752 15.831 7.00845 15.8121 7.0841 15.7885C7.15503 15.7648 7.22596 15.7412 7.30161 15.727C7.44819 15.6892 7.59478 15.6561 7.74609 15.6182C7.8974 15.5899 8.04871 15.5615 8.20002 15.5331C8.27567 15.5189 8.35133 15.5095 8.42699 15.5C8.50264 15.4906 8.58302 15.4811 8.65868 15.4716C9.27811 15.4007 9.91172 15.3724 10.5595 15.3818C10.7203 15.3818 10.8811 15.3913 11.0465 15.396L11.2924 15.4055L11.5383 15.4196C11.7038 15.4291 11.8646 15.4385 12.0301 15.4527C12.101 15.4575 12.1719 15.4669 12.2428 15.4716C12.2854 15.5 12.3327 15.5331 12.3894 15.5568C12.5597 15.6419 12.7866 15.7033 13.042 15.7601C13.2973 15.8121 13.5763 15.9161 13.8931 16.0107C14.522 16.1998 15.2501 16.493 16.0398 16.8524C16.8153 17.2354 17.6617 17.6987 18.5506 18.1858C19.7611 18.8478 20.9101 19.4435 21.9125 19.9069C22.4185 20.1292 22.8771 20.3372 23.298 20.4933C23.506 20.5736 23.6999 20.6493 23.8796 20.7155C24.0592 20.777 24.2295 20.829 24.3761 20.881C24.5179 20.9472 24.6787 21.0181 24.8536 21.0985C25.0286 21.1789 25.2224 21.2545 25.4258 21.3397C25.8371 21.5099 26.3053 21.699 26.8207 21.8929C27.8562 22.2759 29.0903 22.692 30.471 22.9048C30.977 22.9757 31.4782 23.0324 31.9605 23.0372C32.2016 23.0514 32.4428 23.0372 32.6745 23.0324C32.7927 23.0277 32.9062 23.0183 33.0197 23.0088C33.1331 22.9993 33.2466 22.9946 33.3554 22.9757C34.1498 22.8859 34.8496 22.6731 35.4312 22.465C35.5541 22.4556 35.6771 22.4461 35.8 22.4272C35.5447 22.5407 35.242 22.6636 34.8969 22.7866C34.8212 22.8149 34.7455 22.8386 34.6652 22.8669C34.5848 22.8906 34.5044 22.919 34.424 22.9426C34.2585 22.9993 34.0836 23.0419 33.9039 23.0939C33.5445 23.1885 33.1568 23.2831 32.7454 23.3587C32.334 23.4344 31.899 23.4958 31.4545 23.5242C31.2276 23.5384 31.0053 23.5431 30.7736 23.5431C30.6554 23.5384 30.542 23.5337 30.4237 23.5289C30.3055 23.5242 30.1873 23.51 30.0691 23.5053C28.7688 23.4013 27.5583 23.1223 26.537 22.8575C25.5156 22.5785 24.6739 22.3043 24.1018 22.1151C23.8276 21.9827 23.4871 21.8314 23.1041 21.6328C22.7211 21.4342 22.2861 21.2167 21.8132 20.9756C21.3451 20.7155 20.8392 20.4365 20.3049 20.1481C19.7753 19.8407 19.2173 19.5192 18.6404 19.1882C18.2196 18.9376 17.8035 18.6965 17.4063 18.4648C17.0139 18.2378 16.6498 17.9825 16.2999 17.7413C15.95 17.4954 15.619 17.2637 15.3022 17.0462C14.9853 16.8334 14.6827 16.6443 14.399 16.4788C13.8316 16.1573 13.3351 15.9587 12.9899 15.8641C12.9001 15.8405 12.8244 15.8168 12.7582 15.8026C12.692 15.7885 12.6306 15.779 12.5833 15.7695C12.4887 15.7554 12.4414 15.7459 12.4414 15.7459C12.4414 15.7459 12.4887 15.7601 12.5786 15.7885C12.6258 15.8026 12.6779 15.8216 12.7441 15.8405C12.8103 15.8641 12.8812 15.8972 12.9663 15.9303C13.2973 16.0674 13.7559 16.3086 14.2808 16.6774C14.5409 16.8618 14.8246 17.0699 15.1225 17.3063C15.4204 17.5427 15.7419 17.7933 16.0776 18.0581C16.4181 18.3229 16.7822 18.5972 17.1841 18.8478C17.5813 19.0936 17.9926 19.3395 18.4182 19.5949C18.9998 19.9353 19.5719 20.2379 20.1157 20.5311C20.6689 20.8006 21.1938 21.0559 21.6808 21.2829C22.1773 21.491 22.6313 21.6754 23.0332 21.8361C23.4351 21.9969 23.7897 22.1151 24.0782 22.2144C24.6314 22.4745 25.4447 22.8338 26.4613 23.1838C27.4779 23.5242 28.7026 23.8647 30.0549 23.9734C30.1779 23.9829 30.3008 23.9923 30.4237 23.997C30.5467 24.0018 30.6696 24.0018 30.7926 24.0065C31.0384 24.0065 31.2796 23.997 31.516 23.9734C31.9889 23.9261 32.4333 23.8457 32.8542 23.7464C33.275 23.6471 33.6627 23.5242 34.0268 23.4013C34.2065 23.3351 34.3815 23.2736 34.5422 23.2027C34.6226 23.1696 34.703 23.1365 34.7834 23.1034C34.859 23.0703 34.9347 23.0324 35.0103 22.9993C35.4926 22.7771 35.8804 22.5549 36.1688 22.3705C36.3721 22.3374 36.5707 22.2901 36.7599 22.2381C37.0956 22.1388 37.4077 22.0064 37.6772 21.8267C37.6535 21.7841 37.6299 21.7416 37.611 21.6896C37.6063 21.6801 37.6063 21.6754 37.6015 21.6659C37.3415 21.8314 37.0388 21.9544 36.7079 22.0395C36.6795 22.0489 36.6464 22.0537 36.6133 22.0584C36.6417 22.0347 36.67 22.0158 36.6889 21.9969C36.7173 21.9733 36.7362 21.9591 36.7551 21.9449C36.8923 21.8882 37.0152 21.8409 37.124 21.7983C37.3367 21.7179 37.4928 21.6565 37.5826 21.6234C37.5826 21.6186 37.5779 21.6186 37.5779 21.6139C37.4881 21.6375 37.3273 21.6754 37.105 21.7274C36.9254 21.7747 36.7079 21.8361 36.4525 21.9071C36.1972 21.978 35.9135 22.0631 35.5919 22.153C35.5163 22.1719 35.4406 22.1955 35.3602 22.2144C34.4524 22.2617 33.4925 22.1577 32.4901 21.926ZM36.3059 22.1293C36.3627 22.1057 36.4194 22.082 36.4714 22.0631C36.5424 22.0347 36.6086 22.0064 36.6748 21.9827C36.6653 21.9875 36.6606 21.9922 36.6511 21.9969C36.6038 22.0253 36.5471 22.0584 36.4714 22.1009C36.4194 22.1104 36.3627 22.1199 36.3059 22.1293ZM34.2301 22.4745C33.9417 22.5218 33.6391 22.5643 33.3223 22.5832C33.2183 22.5974 33.1048 22.5927 32.996 22.5974C32.8873 22.6022 32.7738 22.6069 32.665 22.6069C32.4381 22.6022 32.2111 22.6069 31.9794 22.588C31.5113 22.5691 31.0337 22.5076 30.542 22.4414C29.2038 22.2381 27.9791 21.8834 26.9294 21.5714C26.4046 21.4153 25.927 21.264 25.5014 21.1316C25.2886 21.0654 25.09 21.0039 24.9104 20.9472C24.7307 20.8857 24.5652 20.8337 24.4139 20.7817C24.272 20.7155 24.1113 20.6446 23.941 20.5642C23.7708 20.4791 23.5864 20.3845 23.3878 20.2852C22.9859 20.0961 22.5461 19.8502 22.0591 19.5996C21.0945 19.0747 19.9786 18.4317 18.7634 17.7697C17.8744 17.2826 17.0091 16.8382 16.1911 16.4835C15.3636 16.1573 14.6023 15.9161 13.9498 15.779C13.6236 15.7128 13.3304 15.6371 13.0656 15.6135C12.8055 15.5804 12.5833 15.5473 12.4131 15.4858C12.4083 15.4858 12.4036 15.4811 12.3989 15.4811C12.4367 15.4858 12.4745 15.4858 12.5171 15.4906C12.6826 15.5047 12.8481 15.5189 13.0136 15.5378C13.1791 15.5568 13.3446 15.5709 13.5101 15.5899C13.6756 15.6135 13.8363 15.6324 14.0018 15.6561L14.2477 15.6892C14.3281 15.6986 14.4132 15.7175 14.4936 15.7317C14.6591 15.7601 14.8199 15.7885 14.9853 15.8168C15.1508 15.8452 15.3116 15.8878 15.4771 15.9209C15.8034 15.987 16.1296 16.0769 16.4559 16.1573C16.6167 16.1951 16.7774 16.2471 16.9429 16.2944C17.1037 16.3417 17.2692 16.3842 17.4252 16.4363C17.7468 16.5403 18.0683 16.6396 18.3851 16.7531C19.0234 16.9706 19.6523 17.2117 20.2812 17.4576C20.9054 17.7082 21.5248 17.9635 22.1395 18.2283C22.7542 18.4884 23.3594 18.7579 23.9599 19.018C24.5605 19.2781 25.161 19.5381 25.7473 19.784C26.92 20.2899 28.0595 20.7959 29.1707 21.2262C29.7287 21.4437 30.2819 21.6328 30.8257 21.8078C31.3694 21.978 31.9085 22.1151 32.4333 22.2286C33.0433 22.3657 33.6485 22.4414 34.2301 22.4745Z" fill="#4D4A4A"/>
<path d="M26.9342 23.4248C26.8302 23.3917 26.7262 23.3586 26.6221 23.3255C26.5323 23.2971 26.4377 23.2688 26.3432 23.2451C26.2486 23.2215 26.1587 23.1884 26.0642 23.1695C25.8798 23.1222 25.6906 23.0702 25.5062 23.0323C25.4116 23.0134 25.3171 22.9898 25.2272 22.9709C25.1327 22.9567 25.0381 22.9378 24.9435 22.9236C24.8962 22.9141 24.849 22.9047 24.8017 22.8999L24.6598 22.881C24.5653 22.8668 24.4707 22.8574 24.3761 22.8432C24.2815 22.8337 24.187 22.8243 24.0924 22.8148C23.9978 22.8054 23.9033 22.7959 23.8087 22.7865C23.7851 22.7865 23.7661 22.7817 23.7425 22.7817C23.7472 22.7817 23.7472 22.7817 23.7472 22.7865C23.8276 22.8148 23.9316 22.8337 24.0499 22.8479C23.9458 22.8385 23.8371 22.829 23.7283 22.8243C23.6952 22.8101 23.6668 22.7912 23.6432 22.777C23.6006 22.7723 23.5628 22.7723 23.5203 22.7675C23.4257 22.7628 23.3311 22.7534 23.2366 22.7486L23.0947 22.7392L22.9529 22.7344C22.8583 22.7297 22.7684 22.725 22.6739 22.725C22.3051 22.7203 21.941 22.7344 21.5863 22.777C21.5438 22.7817 21.4965 22.7865 21.4539 22.7959C21.4114 22.8006 21.3641 22.8054 21.3215 22.8148C21.2364 22.829 21.1466 22.8479 21.0615 22.8621C20.9764 22.881 20.8912 22.9047 20.8061 22.9236C20.7636 22.933 20.721 22.9472 20.6832 22.9567C20.6406 22.9709 20.6028 22.9803 20.5603 22.9945C20.5177 23.0087 20.4799 23.0181 20.4373 23.0323C20.3995 23.0465 20.3569 23.0607 20.3191 23.0796C20.2387 23.108 20.1583 23.1364 20.0827 23.1742C20.007 23.2073 19.9266 23.2404 19.851 23.2782C19.7753 23.316 19.6997 23.3539 19.6287 23.3917C19.5909 23.4106 19.5531 23.4295 19.52 23.4532C19.4822 23.4721 19.4491 23.4957 19.4112 23.5146C19.3734 23.5336 19.3403 23.5572 19.3025 23.5761C19.2647 23.595 19.2316 23.6187 19.1985 23.6423C19.1275 23.6849 19.0613 23.7321 18.9904 23.7747C18.9573 23.7983 18.9242 23.822 18.8958 23.8409C18.8627 23.8645 18.8296 23.8835 18.8013 23.9118C18.7729 23.9355 18.7398 23.9591 18.7114 23.9828C18.6831 24.0064 18.6547 24.0348 18.6216 24.0584C18.5601 24.1057 18.5081 24.1624 18.4514 24.2144C18.3426 24.3232 18.2433 24.432 18.1535 24.5502C18.0589 24.6636 17.9832 24.7866 17.9076 24.9095C17.8367 25.0325 17.7705 25.1554 17.7137 25.2831C17.657 25.4107 17.6144 25.5384 17.5766 25.6661C17.5624 25.7323 17.5435 25.7938 17.5293 25.8552C17.5151 25.9167 17.5009 25.9829 17.4962 26.0444C17.4584 26.295 17.4584 26.5361 17.4868 26.7631C17.5151 26.99 17.5719 27.1981 17.6523 27.3825C17.7279 27.5669 17.8272 27.7324 17.9312 27.8743C18.0305 28.0209 18.1535 28.1485 18.2764 28.2715C18.3095 28.2998 18.3426 28.3329 18.3757 28.3613C18.3899 28.3755 18.4088 28.3897 18.423 28.4039L18.4703 28.4417C18.5034 28.4701 18.5365 28.4937 18.5743 28.5173L18.6263 28.5552L18.6783 28.5883C18.8202 28.6781 18.9762 28.749 19.137 28.8105C19.2978 28.8672 19.4585 28.9193 19.624 28.9524C19.955 29.0186 20.2907 29.0422 20.617 29.0233C20.7825 29.0138 20.9433 28.9996 21.0993 28.9665C21.1797 28.9524 21.2553 28.9334 21.3357 28.9193C21.3735 28.9098 21.4114 28.9003 21.4492 28.8909C21.487 28.8814 21.5249 28.872 21.5627 28.8578C22.1632 28.6781 22.6786 28.3471 23.0096 27.9121C23.0285 27.8837 23.0474 27.8554 23.0663 27.827L23.0947 27.7844L23.1183 27.7419C23.1373 27.7135 23.1514 27.6851 23.1704 27.6568C23.1845 27.6284 23.1987 27.6 23.2129 27.5669L23.2366 27.5244C23.2413 27.5102 23.2507 27.496 23.2555 27.4818C23.2697 27.4534 23.2791 27.4203 23.2933 27.392C23.3028 27.3636 23.3122 27.3305 23.3217 27.3021L23.3359 27.2548C23.3406 27.2407 23.3406 27.2265 23.3453 27.2076C23.3548 27.1792 23.3595 27.1461 23.369 27.1177C23.3737 27.0893 23.3784 27.0562 23.3831 27.0279L23.3879 26.9806L23.3926 26.9333C23.3926 26.9049 23.3973 26.8718 23.3973 26.8435C23.3973 26.8151 23.3973 26.782 23.3973 26.7536C23.3973 26.7394 23.3973 26.7253 23.3973 26.7111L23.3926 26.6685C23.3879 26.6401 23.3879 26.6118 23.3831 26.5787C23.3784 26.5503 23.3737 26.5219 23.369 26.4936C23.369 26.4794 23.3642 26.4652 23.3642 26.451L23.3548 26.4084C23.35 26.3801 23.3406 26.3517 23.3359 26.3233C23.3264 26.295 23.3169 26.2713 23.3122 26.243L23.298 26.2051C23.2933 26.1909 23.2886 26.1815 23.2838 26.1673C23.2744 26.1437 23.2649 26.1153 23.2555 26.0916C23.246 26.068 23.2318 26.0444 23.2224 26.0207C23.1987 25.9734 23.1704 25.9261 23.1467 25.8836C23.038 25.7039 22.9008 25.5573 22.759 25.4438C22.6124 25.3304 22.4611 25.25 22.3098 25.198C22.1585 25.146 22.0166 25.1223 21.8842 25.1176C21.87 25.1176 21.8511 25.1129 21.8369 25.1129C21.8228 25.1129 21.8038 25.1129 21.7897 25.1129C21.7566 25.1129 21.7282 25.1129 21.6998 25.1129C21.6809 25.1129 21.6667 25.1176 21.6478 25.1176C21.8984 25.2452 22.0592 25.5195 22.0308 25.8221C21.993 26.2099 21.6525 26.4888 21.279 26.4463C20.9054 26.4037 20.6312 26.0585 20.669 25.6755C20.7021 25.3304 20.9764 25.0703 21.3026 25.0514C21.3168 25.0419 21.331 25.0372 21.3499 25.0277C21.3972 25.0136 21.4445 24.9946 21.4965 24.9757C21.5485 24.9615 21.61 24.9474 21.6762 24.9284C21.7093 24.9237 21.7424 24.919 21.7755 24.9143C21.7944 24.9095 21.8086 24.9095 21.8275 24.9048C21.8464 24.9048 21.8653 24.9048 21.8842 24.9001C22.0308 24.8859 22.201 24.9001 22.3807 24.9426C22.5604 24.9852 22.7495 25.0656 22.9292 25.1885C23.1089 25.3114 23.2838 25.4722 23.4257 25.6803C23.4588 25.7323 23.4966 25.7843 23.525 25.841C23.5392 25.8694 23.5581 25.8978 23.5723 25.9261C23.5865 25.9545 23.6006 25.9876 23.6148 26.016C23.6196 26.0302 23.629 26.0444 23.6337 26.0633L23.6527 26.1106C23.6621 26.1437 23.6763 26.1768 23.6905 26.2051C23.6999 26.2382 23.7094 26.2713 23.7189 26.3044L23.733 26.3564C23.7378 26.3754 23.7425 26.3895 23.7425 26.4084C23.752 26.4415 23.7567 26.4794 23.7661 26.5125C23.7709 26.5456 23.7756 26.5834 23.7803 26.6212L23.7851 26.678C23.7851 26.6969 23.7851 26.7158 23.7898 26.7347C23.7898 26.7725 23.7945 26.8104 23.7945 26.8435C23.7945 26.8813 23.7945 26.9191 23.7898 26.9569V27.0137L23.7851 27.0704C23.7803 27.1083 23.7756 27.1461 23.7709 27.1839C23.7614 27.2217 23.7567 27.2596 23.7472 27.2974C23.7425 27.3163 23.7378 27.3352 23.7378 27.3541L23.7236 27.4109C23.7141 27.4487 23.7047 27.4865 23.6905 27.5244C23.6763 27.5622 23.6621 27.6 23.6479 27.6378C23.6432 27.6568 23.6337 27.6757 23.629 27.6946L23.6054 27.7513C23.5865 27.7892 23.5723 27.8223 23.5534 27.8601C23.5345 27.8932 23.5155 27.931 23.4919 27.9641L23.4635 28.0161L23.4304 28.0681C23.4068 28.1012 23.3831 28.1343 23.3642 28.1722C23.2649 28.3046 23.1609 28.4322 23.038 28.5457C22.9812 28.6072 22.915 28.6592 22.8488 28.7159C22.8157 28.7443 22.7826 28.7679 22.7495 28.7916C22.7164 28.8152 22.6833 28.8436 22.6455 28.8672C22.6124 28.8909 22.5746 28.9145 22.5367 28.9382C22.4989 28.9618 22.4611 28.9807 22.428 29.0044L22.3713 29.0375L22.3145 29.0658C22.2767 29.0848 22.2389 29.1037 22.201 29.1273C22.1632 29.1462 22.1206 29.1651 22.0828 29.1793L22.0213 29.2077L21.9599 29.2313C21.9173 29.2455 21.8795 29.2644 21.8369 29.2786C21.7944 29.2928 21.7518 29.307 21.714 29.3212C21.6714 29.3354 21.6289 29.3495 21.5863 29.359C21.5438 29.3732 21.5012 29.3826 21.4587 29.3968C21.3735 29.4157 21.2837 29.4394 21.1986 29.4536C21.0236 29.4867 20.8392 29.5103 20.6596 29.5245C20.2955 29.5481 19.9172 29.5292 19.5389 29.4583C19.3498 29.4205 19.1606 29.3685 18.9762 29.3023C18.7871 29.2361 18.6074 29.1462 18.4277 29.0422L18.3615 29.0044L18.2953 28.9618C18.2528 28.9334 18.2102 28.9051 18.1677 28.8672L18.1062 28.82C18.0873 28.8058 18.0636 28.7869 18.0447 28.7679C18.0069 28.7348 17.9691 28.697 17.9312 28.6639C17.7847 28.5173 17.6381 28.366 17.5199 28.1911C17.3969 28.0161 17.2787 27.8175 17.1841 27.5858C17.0896 27.3589 17.0186 27.0988 16.9855 26.8246C16.9193 26.2713 17.0045 25.6472 17.2693 25.0608C17.3307 24.9143 17.4111 24.7724 17.4962 24.6306C17.5861 24.4934 17.6759 24.3516 17.7847 24.2192C17.8887 24.0868 18.0069 23.9591 18.1298 23.8409C18.1913 23.7842 18.2575 23.7227 18.3237 23.6659C18.3568 23.6376 18.3899 23.6092 18.423 23.5808C18.4561 23.5525 18.4939 23.5288 18.527 23.5005C18.5601 23.4721 18.5979 23.4484 18.6358 23.4248C18.6736 23.4012 18.7114 23.3728 18.7445 23.3491C18.8202 23.3019 18.8911 23.2593 18.9668 23.212C19.0046 23.1884 19.0424 23.1647 19.0802 23.1458C19.1181 23.1222 19.1559 23.1033 19.1937 23.0796C19.2316 23.056 19.2694 23.0371 19.3119 23.0134C19.3498 22.9898 19.3876 22.9709 19.4302 22.952C19.5105 22.9141 19.5909 22.8716 19.6713 22.8337C19.7517 22.7959 19.8368 22.7628 19.9219 22.725C20.007 22.6872 20.0921 22.6588 20.182 22.6257C20.2245 22.6115 20.2671 22.5926 20.3144 22.5784C20.3569 22.5642 20.4042 22.55 20.4468 22.5358C20.4893 22.5217 20.5366 22.5075 20.5792 22.498C20.6265 22.4838 20.669 22.4696 20.7163 22.4602C20.8061 22.4413 20.9007 22.4176 20.9905 22.3987C21.0851 22.3845 21.175 22.3656 21.2695 22.3514C21.3168 22.342 21.3641 22.3373 21.4114 22.3325C21.4587 22.3278 21.5059 22.3231 21.5532 22.3183C21.9315 22.2805 22.3145 22.2711 22.6975 22.2805C22.7921 22.2805 22.8914 22.29 22.986 22.2947L23.1325 22.3042L23.2744 22.3136C23.369 22.3231 23.4683 22.3278 23.5628 22.3373C23.6574 22.3467 23.7567 22.3562 23.8513 22.3656C23.9458 22.3751 24.0451 22.3845 24.1397 22.3987C24.2343 22.4082 24.3336 22.4224 24.4281 22.4318C24.5274 22.446 24.622 22.4602 24.7213 22.4744L24.8679 22.498C24.9152 22.5075 24.9624 22.5169 25.0145 22.5264C25.109 22.5453 25.2083 22.5642 25.3029 22.5831C25.3975 22.602 25.4968 22.6257 25.5913 22.6493C25.7852 22.6919 25.9743 22.7486 26.1635 22.7959C26.258 22.8196 26.3526 22.8527 26.4472 22.881C26.5417 22.9094 26.6363 22.9378 26.7309 22.9709C26.9153 23.0323 27.1044 23.0938 27.2888 23.1647C27.4165 23.212 27.5442 23.2593 27.6718 23.3113C27.6813 23.3917 27.6908 23.4721 27.7002 23.5525C27.4449 23.5005 27.1895 23.4579 26.9342 23.4248Z" fill="#4D4A4A"/>
<path d="M44.888 22.2286C44.8076 22.2096 44.7319 22.186 44.6563 22.1671C44.3395 22.0772 44.0511 21.9921 43.7957 21.9212C43.5404 21.8503 43.3229 21.7888 43.1432 21.7415C42.9209 21.6895 42.7602 21.6517 42.6703 21.628C42.6703 21.6328 42.6656 21.6328 42.6656 21.6375C42.7507 21.6706 42.9068 21.7273 43.1243 21.8125C43.233 21.855 43.356 21.907 43.4931 21.959C43.512 21.9732 43.5309 21.9874 43.5593 22.011C43.5829 22.03 43.6066 22.0489 43.6349 22.0725C43.6018 22.0631 43.5735 22.0583 43.5404 22.0536C43.2094 21.9685 42.9068 21.8456 42.6467 21.6801C42.642 21.6895 42.642 21.6942 42.6372 21.7037C42.6183 21.751 42.5994 21.7983 42.571 21.8408C42.8406 22.0205 43.1526 22.1576 43.4884 22.2522C43.6775 22.3089 43.8761 22.3515 44.0794 22.3846C44.3679 22.569 44.7556 22.7912 45.2379 23.0135C45.3135 23.0466 45.3892 23.0797 45.4649 23.1175C45.5452 23.1506 45.6256 23.1837 45.706 23.2168C45.8715 23.2877 46.0417 23.3492 46.2214 23.4154C46.5855 23.5383 46.9732 23.6613 47.3941 23.7606C47.8149 23.8599 48.2594 23.9403 48.7322 23.9875C48.9686 24.0112 49.2098 24.0206 49.4557 24.0206C49.5786 24.0159 49.7016 24.0159 49.8245 24.0112C49.9474 24.0065 50.0704 23.997 50.1933 23.9875C51.5456 23.8788 52.7703 23.5383 53.7869 23.1979C54.8035 22.848 55.6168 22.4886 56.1701 22.2286C56.4585 22.1293 56.8131 22.011 57.2151 21.8503C57.617 21.6895 58.0709 21.5051 58.5674 21.2971C59.0544 21.0701 59.5793 20.8147 60.1325 20.5452C60.6716 20.2521 61.2484 19.9494 61.83 19.609C62.2556 19.3584 62.667 19.1078 63.0642 18.8619C63.4661 18.6113 63.8302 18.337 64.1706 18.0722C64.5063 17.8075 64.8231 17.5568 65.1258 17.3204C65.4237 17.084 65.7074 16.8759 65.9674 16.6915C66.4923 16.3274 66.9509 16.0816 67.2819 15.9444C67.367 15.9113 67.438 15.8782 67.5042 15.8546C67.5704 15.8357 67.6271 15.8168 67.6697 15.8026C67.7595 15.7742 67.8068 15.76 67.8068 15.76C67.8068 15.76 67.7595 15.7695 67.6649 15.7837C67.6177 15.7931 67.5609 15.8026 67.49 15.8168C67.4238 15.831 67.3434 15.8546 67.2583 15.8782C66.9084 15.9728 66.4166 16.1667 65.8492 16.4929C65.5655 16.6584 65.2629 16.8429 64.9461 17.0604C64.6293 17.2731 64.2983 17.5096 63.9484 17.7554C63.5985 18.0013 63.2344 18.2519 62.8419 18.4789C62.44 18.7106 62.0286 18.9517 61.6078 19.2023C61.0309 19.5333 60.473 19.8549 59.9434 20.1622C59.4043 20.4507 58.8984 20.7296 58.435 20.9897C57.9574 21.2261 57.5271 21.4484 57.1441 21.647C56.7611 21.8456 56.4207 21.9969 56.1464 22.1293C55.5696 22.3231 54.7326 22.5974 53.7113 22.8716C52.6899 23.1411 51.4794 23.4154 50.1791 23.5194C50.0609 23.5289 49.9427 23.5383 49.8245 23.5431C49.7063 23.5478 49.5881 23.5525 49.4746 23.5573C49.2429 23.562 49.0159 23.5573 48.7937 23.5383C48.3445 23.51 47.9095 23.4438 47.5028 23.3728C47.0914 23.2972 46.7037 23.2026 46.3444 23.108C46.1647 23.056 45.9897 23.0088 45.8242 22.9567C45.7391 22.9284 45.6587 22.9047 45.5831 22.8811C45.5027 22.8527 45.427 22.8243 45.3514 22.8007C45.0062 22.6778 44.7036 22.5548 44.4482 22.4413C44.5712 22.4555 44.6941 22.4697 44.8171 22.4792C45.3987 22.6872 46.0985 22.9 46.8928 22.9898C47.0016 23.0088 47.1151 23.0135 47.2286 23.0229C47.3421 23.0324 47.4555 23.0419 47.5737 23.0466C47.8054 23.0513 48.0466 23.0655 48.2877 23.0513C48.7748 23.0466 49.2713 22.9898 49.7772 22.9189C51.1579 22.7061 52.392 22.29 53.4276 21.907C53.943 21.7132 54.4111 21.524 54.8225 21.3538C55.0258 21.2687 55.2197 21.193 55.3946 21.1126C55.5696 21.0323 55.7303 20.9613 55.8722 20.8951C56.0235 20.8478 56.189 20.7911 56.3687 20.7296C56.5483 20.6587 56.7422 20.5878 56.9503 20.5074C57.3711 20.3514 57.8298 20.1433 58.3357 19.9211C59.3381 19.4577 60.4871 18.8619 61.6976 18.1999C62.5866 17.7129 63.433 17.2495 64.2084 16.8665C64.9981 16.5119 65.7263 16.214 66.3552 16.0248C66.672 15.9303 66.9509 15.831 67.2063 15.7742C67.4616 15.7127 67.6886 15.656 67.8588 15.5709C67.9155 15.5425 67.9628 15.5142 68.0054 15.4858C68.0763 15.4811 68.1472 15.4716 68.2182 15.4669C68.3837 15.4574 68.5444 15.448 68.7099 15.4338L68.9558 15.4196L69.2017 15.4101C69.3625 15.4054 69.528 15.3959 69.6887 15.3959C70.3365 15.3865 70.9701 15.4101 71.5896 15.4858C71.6652 15.4952 71.7456 15.5047 71.8212 15.5142C71.8969 15.5236 71.9773 15.5331 72.0482 15.5473C72.1995 15.5756 72.3508 15.604 72.5021 15.6324C72.6487 15.6702 72.8 15.7033 72.9466 15.7411C73.0223 15.7553 73.0932 15.7789 73.1641 15.8026C73.2351 15.8262 73.306 15.8451 73.3816 15.8688C73.4526 15.8924 73.5235 15.9113 73.5944 15.935C73.6653 15.9634 73.7363 15.987 73.8025 16.0154C73.9396 16.0674 74.0814 16.1147 74.2138 16.1809C74.351 16.2423 74.4834 16.2991 74.6158 16.3605C74.7482 16.4267 74.8758 16.4929 75.0082 16.5591C75.0744 16.5922 75.1359 16.6253 75.2021 16.6632C75.2636 16.701 75.3298 16.7341 75.3912 16.7719C75.4527 16.8098 75.5189 16.8428 75.5804 16.8807C75.6418 16.9185 75.7033 16.9563 75.7648 16.9942C75.8877 17.0698 76.0059 17.1502 76.1289 17.2259C76.1856 17.2637 76.2424 17.3062 76.2991 17.3441C76.3558 17.3819 76.4126 17.4197 76.4646 17.467C76.5166 17.5096 76.5733 17.5521 76.6254 17.5899C76.6774 17.6325 76.7294 17.6798 76.7767 17.7223C76.8807 17.8075 76.9753 17.902 77.0698 17.9919C77.2542 18.181 77.4339 18.3749 77.59 18.5782C77.7507 18.7815 77.8926 18.9943 78.0202 19.2071C78.1432 19.4246 78.2614 19.6421 78.356 19.8643C78.4553 20.0818 78.5309 20.3088 78.5971 20.531C78.6255 20.6445 78.6586 20.7533 78.6822 20.862C78.7011 20.9708 78.7295 21.0795 78.7437 21.193C78.8099 21.628 78.8099 22.0536 78.7626 22.4461C78.7153 22.8385 78.6113 23.2026 78.4742 23.5289C78.3371 23.8551 78.1668 24.1389 77.9919 24.3895C77.8169 24.6448 77.6041 24.867 77.3866 25.0845C77.3299 25.1366 77.2732 25.1886 77.2164 25.2406C77.188 25.269 77.1597 25.2926 77.1313 25.3115L77.0462 25.3824C76.9894 25.4297 76.928 25.4723 76.8665 25.5148L76.7767 25.5763L76.6821 25.633C76.4315 25.7891 76.162 25.9167 75.883 26.0208C75.604 26.1248 75.3203 26.2052 75.0319 26.2667C74.455 26.3849 73.8687 26.4227 73.2965 26.3896C73.0128 26.3754 72.7291 26.3423 72.4549 26.295C72.3177 26.2714 72.1806 26.243 72.0482 26.2099C71.982 26.1957 71.9158 26.1768 71.8496 26.1579C71.7834 26.139 71.7172 26.1248 71.651 26.1012C70.606 25.7891 69.7076 25.2075 69.1308 24.4557C69.0977 24.4084 69.0646 24.3611 69.0267 24.3091L68.9747 24.2381L68.9322 24.1625C68.9038 24.1152 68.8707 24.0632 68.8423 24.0159C68.8187 23.9639 68.7903 23.9119 68.7667 23.8646L68.7288 23.7889C68.7194 23.7653 68.7099 23.7369 68.6957 23.7086C68.6768 23.6565 68.6532 23.6045 68.6343 23.5525C68.6154 23.5005 68.6012 23.4485 68.5823 23.3965L68.5586 23.3161C68.5492 23.2877 68.5444 23.2641 68.5397 23.2357C68.5255 23.1837 68.5161 23.1317 68.5019 23.0749C68.4924 23.0229 68.4877 22.9662 68.4782 22.9142L68.464 22.8338L68.4593 22.7534C68.4546 22.7014 68.4499 22.6494 68.4499 22.5974C68.4499 22.5454 68.4499 22.4934 68.4499 22.4413C68.4499 22.413 68.4499 22.3893 68.4499 22.3657L68.4546 22.29C68.4593 22.238 68.464 22.186 68.4688 22.1387C68.4782 22.0867 68.483 22.0394 68.4924 21.9874C68.4971 21.9638 68.5019 21.9354 68.5066 21.9118L68.5255 21.8408C68.535 21.7935 68.5492 21.7415 68.5586 21.6942C68.5728 21.647 68.587 21.5997 68.6012 21.5524L68.6248 21.4815C68.6343 21.4578 68.6437 21.4389 68.6532 21.4153C68.6721 21.3727 68.6863 21.3254 68.7052 21.2829C68.7241 21.2403 68.7478 21.1978 68.7667 21.1552C68.8045 21.0701 68.8565 20.9897 68.8991 20.914C69.0882 20.602 69.3294 20.3466 69.58 20.148C69.8306 19.9494 70.1001 19.8123 70.3602 19.7225C70.6202 19.6326 70.8756 19.5854 71.1025 19.5806C71.1309 19.5806 71.1593 19.5759 71.1876 19.5759C71.216 19.5759 71.2444 19.5759 71.2727 19.5759C71.3295 19.5759 71.3815 19.5759 71.4335 19.5806C71.4619 19.5854 71.495 19.5854 71.5234 19.5901C71.0836 19.8076 70.7999 20.2899 70.8566 20.8195C70.9276 21.4909 71.5139 21.9779 72.1712 21.907C72.8284 21.8361 73.3013 21.2356 73.2351 20.5594C73.1736 19.9589 72.696 19.505 72.1286 19.4671C72.1002 19.453 72.0766 19.4435 72.0482 19.4293C71.9678 19.4009 71.8827 19.3678 71.7929 19.3395C71.6983 19.3111 71.5943 19.2875 71.4855 19.2591C71.4288 19.2496 71.372 19.2402 71.3106 19.2354C71.2822 19.2307 71.2491 19.226 71.216 19.2213C71.1829 19.2165 71.1545 19.2165 71.1214 19.2165C70.8614 19.1929 70.5682 19.2165 70.2561 19.2922C69.9441 19.3678 69.6131 19.505 69.2963 19.7177C68.9795 19.9305 68.6768 20.2142 68.4262 20.5783C68.3648 20.6682 68.3033 20.7627 68.2513 20.862C68.2229 20.9093 68.1945 20.9613 68.1709 21.0133C68.1472 21.0654 68.1236 21.1174 68.1 21.1694C68.0858 21.1978 68.0763 21.2214 68.0621 21.2498L68.029 21.3349C68.0101 21.3916 67.9865 21.4484 67.9676 21.5004C67.9486 21.5571 67.9345 21.6186 67.9155 21.6753L67.8919 21.7652C67.8824 21.7935 67.8777 21.8266 67.873 21.855C67.8588 21.9165 67.8494 21.9779 67.8352 22.0394C67.8257 22.1009 67.821 22.1624 67.8115 22.2286L67.8021 22.3231C67.7973 22.3562 67.7973 22.3846 67.7973 22.4177C67.7926 22.4839 67.7926 22.5454 67.7879 22.6116C67.7879 22.6778 67.7926 22.744 67.7926 22.8054L67.7973 22.9047L67.8068 23.004C67.8162 23.0702 67.821 23.1364 67.8304 23.2026C67.8446 23.2688 67.8541 23.335 67.8683 23.4012C67.873 23.4343 67.8824 23.4674 67.8872 23.5005L67.9155 23.5998C67.9345 23.666 67.9534 23.7322 67.9723 23.7984C67.9959 23.8646 68.0196 23.9261 68.0432 23.9923C68.0574 24.0254 68.0669 24.0585 68.081 24.0916L68.1236 24.1861C68.152 24.2476 68.1803 24.3138 68.2134 24.38C68.2465 24.4415 68.2844 24.5029 68.3175 24.5644L68.3695 24.659L68.4262 24.7488C68.4641 24.8103 68.5066 24.867 68.5444 24.9285C68.7147 25.1555 68.8991 25.3824 69.1118 25.5858C69.2159 25.6898 69.3294 25.7796 69.4428 25.8789C69.4996 25.9262 69.561 25.9688 69.6178 26.016C69.6745 26.0633 69.736 26.1059 69.7975 26.1437C69.8589 26.1863 69.9204 26.2241 69.9819 26.2667C70.0481 26.3045 70.1096 26.3423 70.1757 26.3801L70.275 26.4369L70.3743 26.4889C70.4405 26.522 70.5067 26.5598 70.5777 26.5929C70.6486 26.626 70.7148 26.6544 70.7857 26.6875L70.8897 26.7348L70.9938 26.7773C71.0647 26.8057 71.1356 26.8341 71.2065 26.8624C71.2775 26.8861 71.3531 26.9097 71.4241 26.9381C71.495 26.9665 71.5706 26.9854 71.6463 27.0043C71.722 27.0232 71.7929 27.0469 71.8685 27.0658C72.0198 27.1036 72.1712 27.1414 72.3272 27.1698C72.6345 27.2313 72.9513 27.2691 73.2682 27.2927C73.9065 27.3353 74.5685 27.3022 75.2257 27.1745C75.5567 27.113 75.8877 27.0185 76.214 26.9003C76.5402 26.7821 76.8618 26.6307 77.1691 26.4463L77.2826 26.3754L77.3961 26.2998C77.4717 26.2477 77.5474 26.1957 77.6183 26.139L77.7271 26.0539C77.7649 26.0255 77.798 25.9971 77.8311 25.964C77.8973 25.9026 77.9635 25.8411 78.0297 25.7844C78.2898 25.5337 78.5404 25.2642 78.7532 24.9569C78.9659 24.6543 79.174 24.3043 79.3395 23.9024C79.505 23.5052 79.6279 23.056 79.6847 22.5737C79.8029 21.6091 79.6516 20.5216 79.1882 19.5002C79.0747 19.2402 78.9376 18.9943 78.791 18.7437C78.6349 18.5025 78.4742 18.2567 78.285 18.0297C78.1006 17.798 77.8973 17.5805 77.6845 17.3677C77.5758 17.2637 77.467 17.1597 77.3441 17.0604C77.2873 17.0131 77.2259 16.9611 77.1691 16.9138C77.1077 16.8665 77.0462 16.8192 76.9847 16.7719C76.9232 16.7246 76.8618 16.6821 76.7956 16.6348C76.7294 16.5922 76.6679 16.545 76.6017 16.5024C76.474 16.422 76.3464 16.3416 76.214 16.2612C76.1478 16.2234 76.0863 16.1809 76.0201 16.143C75.9539 16.1052 75.8877 16.0674 75.8168 16.0296C75.7506 15.9917 75.6797 15.9539 75.6135 15.9161C75.5473 15.8782 75.4763 15.8404 75.4054 15.8073C75.2636 15.7364 75.1217 15.6702 74.9799 15.5993C74.838 15.5331 74.6867 15.4716 74.5401 15.4101C74.3935 15.3439 74.2422 15.2919 74.0909 15.2399C74.0153 15.2115 73.9396 15.1832 73.8639 15.1595C73.7883 15.1312 73.7079 15.1122 73.6322 15.0886C73.5519 15.065 73.4762 15.0413 73.3958 15.0177C73.3154 14.994 73.2398 14.9704 73.1594 14.9562C72.9986 14.9184 72.8379 14.8853 72.6771 14.8474C72.5163 14.8191 72.3508 14.7907 72.1901 14.7623C72.1097 14.7481 72.0246 14.7387 71.9442 14.7292C71.8638 14.7198 71.7787 14.7103 71.6983 14.7009C71.0363 14.6347 70.3696 14.6157 69.6982 14.6394C69.5327 14.6441 69.3625 14.6536 69.197 14.663L68.9463 14.6772L68.6957 14.6961C68.5302 14.7103 68.36 14.7245 68.1898 14.7387C68.0243 14.7576 67.8541 14.7718 67.6886 14.7907C67.5184 14.8049 67.3529 14.8285 67.1874 14.8474C67.0219 14.8664 66.8516 14.89 66.6814 14.9089C66.5112 14.9326 66.341 14.9609 66.1707 14.9846L65.9154 15.0224C65.8303 15.0366 65.7452 15.0555 65.6601 15.0697C65.4899 15.1028 65.3244 15.1359 65.1541 15.169C64.9839 15.2021 64.8184 15.2446 64.6482 15.2825C64.3125 15.3581 63.9815 15.4527 63.6458 15.5425C63.4803 15.5851 63.3148 15.6418 63.1493 15.6891C62.9838 15.7411 62.8183 15.7884 62.6575 15.8451C62.3312 15.9539 62.005 16.0627 61.6834 16.1856C61.0356 16.4173 60.402 16.6774 59.7732 16.9374C59.149 17.2022 58.5296 17.4717 57.9196 17.7507C57.3096 18.025 56.7091 18.3039 56.1086 18.5782C55.5128 18.8524 54.9265 19.1172 54.3402 19.382C53.1722 19.9116 52.0516 20.4412 50.9593 20.8904C50.4108 21.1174 49.8718 21.3207 49.3422 21.5004C48.8126 21.6801 48.283 21.8266 47.7723 21.9543C46.7321 22.1576 45.7722 22.2617 44.888 22.2286ZM43.7484 22.0962C43.6775 22.0583 43.616 22.0205 43.5687 21.9921C43.5593 21.9874 43.5546 21.9827 43.5451 21.9779C43.6113 22.0063 43.6775 22.03 43.7484 22.0583C43.8004 22.082 43.8572 22.1009 43.9139 22.1245C43.8619 22.1198 43.8052 22.1103 43.7484 22.0962ZM47.8007 22.238C48.3256 22.1245 48.8646 21.9874 49.4084 21.8172C49.9522 21.647 50.5054 21.4531 51.0633 21.2356C52.1793 20.8053 53.3188 20.2993 54.4867 19.7934C55.0731 19.5428 55.6736 19.2875 56.2741 19.0274C56.8746 18.7673 57.4846 18.4978 58.0946 18.2377C58.7045 17.9729 59.3287 17.7176 59.9528 17.467C60.577 17.2211 61.2106 16.9752 61.8489 16.7625C62.1658 16.649 62.4873 16.5497 62.8088 16.4457C62.9696 16.3936 63.1304 16.3511 63.2911 16.3038C63.4519 16.2565 63.6127 16.2092 63.7782 16.1667C64.1044 16.0863 64.4259 15.9965 64.7569 15.9303C64.9224 15.8972 65.0832 15.8593 65.2487 15.8262C65.4142 15.7979 65.575 15.7695 65.7405 15.7411C65.8208 15.7269 65.906 15.7127 65.9863 15.6986L66.2322 15.6655C66.3977 15.6418 66.5585 15.6229 66.724 15.5993C66.8895 15.5804 67.055 15.5662 67.2205 15.5473C67.386 15.5283 67.5515 15.5142 67.717 15.5C67.7548 15.4952 67.7926 15.4952 67.8352 15.4905C67.8304 15.4905 67.8257 15.4952 67.821 15.4952C67.6507 15.5567 67.4285 15.5898 67.1685 15.6229C66.9037 15.6513 66.6105 15.7269 66.2842 15.7884C65.6317 15.9208 64.8657 16.1667 64.0429 16.4929C63.2249 16.8476 62.3596 17.2873 61.4707 17.7791C60.2602 18.4411 59.1443 19.0841 58.1749 19.609C57.6879 19.8643 57.2482 20.1055 56.8462 20.2946C56.6476 20.3939 56.4632 20.4885 56.293 20.5736C56.1181 20.654 55.962 20.7249 55.8202 20.7911C55.6736 20.8384 55.5081 20.8951 55.3237 20.9566C55.144 21.0181 54.9454 21.0748 54.7326 21.141C54.3071 21.2734 53.8295 21.4247 53.3046 21.5808C52.2549 21.8928 51.0255 22.2475 49.6921 22.4508C49.2003 22.5217 48.718 22.5832 48.2546 22.5974C48.023 22.6163 47.7913 22.6068 47.569 22.6163C47.4555 22.6163 47.3468 22.6116 47.238 22.6068C47.1293 22.6021 47.0205 22.6068 46.9118 22.5926C46.595 22.5737 46.2923 22.5359 46.0039 22.4839C46.576 22.4413 47.1813 22.3657 47.8007 22.238Z" fill="#4D4A4A"/>
<path d="M53.2953 23.4248C53.3993 23.3917 53.5034 23.3586 53.6074 23.3255C53.6972 23.2971 53.7918 23.2688 53.8864 23.2451C53.9809 23.2215 54.0708 23.1884 54.1653 23.1695C54.3498 23.1222 54.5389 23.0702 54.7233 23.0323C54.8179 23.0134 54.9124 22.9898 55.0023 22.9709C55.0968 22.9567 55.1914 22.9378 55.286 22.9236C55.3333 22.9141 55.3806 22.9047 55.4278 22.8999L55.5697 22.881C55.6643 22.8668 55.7588 22.8574 55.8534 22.8432C55.948 22.8337 56.0425 22.8243 56.1371 22.8148C56.2317 22.8054 56.3262 22.7959 56.4208 22.7865C56.4445 22.7865 56.4634 22.7817 56.487 22.7817C56.4823 22.7817 56.4823 22.7817 56.4823 22.7865C56.4019 22.8148 56.2979 22.8337 56.1797 22.8479C56.2837 22.8385 56.3924 22.829 56.5012 22.8243C56.5343 22.8101 56.5627 22.7912 56.5863 22.777C56.6289 22.7723 56.6667 22.7723 56.7092 22.7675C56.8038 22.7628 56.8984 22.7534 56.993 22.7486L57.1348 22.7392L57.2767 22.7344C57.3712 22.7297 57.4611 22.725 57.5556 22.725C57.9245 22.7203 58.2886 22.7344 58.6432 22.777C58.6857 22.7817 58.733 22.7865 58.7756 22.7959C58.8181 22.8006 58.8654 22.8054 58.908 22.8148C58.9931 22.829 59.0829 22.8479 59.168 22.8621C59.2532 22.881 59.3383 22.9047 59.4234 22.9236C59.4659 22.933 59.5085 22.9472 59.5463 22.9567C59.5889 22.9709 59.6267 22.9803 59.6693 22.9945C59.7118 23.0087 59.7496 23.0181 59.7922 23.0323C59.83 23.0465 59.8726 23.0607 59.9104 23.0796C59.9908 23.108 60.0712 23.1364 60.1468 23.1742C60.2225 23.2073 60.3029 23.2404 60.3785 23.2782C60.4542 23.316 60.5298 23.3539 60.6008 23.3917C60.6386 23.4106 60.6764 23.4295 60.7095 23.4532C60.7473 23.4721 60.7804 23.4957 60.8183 23.5146C60.8561 23.5336 60.8892 23.5572 60.927 23.5761C60.9649 23.595 60.998 23.6187 61.0311 23.6423C61.102 23.6849 61.1682 23.7321 61.2391 23.7747C61.2722 23.7983 61.3053 23.822 61.3337 23.8409C61.3668 23.8645 61.3999 23.8835 61.4282 23.9118C61.4566 23.9355 61.4897 23.9591 61.5181 23.9828C61.5465 24.0064 61.5748 24.0348 61.6079 24.0584C61.6694 24.1057 61.7214 24.1624 61.7781 24.2144C61.8869 24.3232 61.9862 24.432 62.076 24.5502C62.1706 24.6636 62.2463 24.7866 62.3219 24.9095C62.3928 25.0325 62.4591 25.1554 62.5158 25.2831C62.5725 25.4107 62.6151 25.5384 62.6529 25.6661C62.6671 25.7323 62.686 25.7938 62.7002 25.8552C62.7144 25.9167 62.7286 25.9829 62.7333 26.0444C62.7711 26.295 62.7711 26.5361 62.7428 26.7631C62.7144 26.99 62.6576 27.1981 62.5773 27.3825C62.5016 27.5669 62.4023 27.7324 62.2983 27.8743C62.199 28.0209 62.076 28.1485 61.9531 28.2715C61.92 28.2998 61.8869 28.3329 61.8538 28.3613C61.8396 28.3755 61.8207 28.3897 61.8065 28.4039L61.7592 28.4417C61.7261 28.4701 61.693 28.4937 61.6552 28.5173L61.6032 28.5552L61.5512 28.5883C61.4093 28.6781 61.2533 28.749 61.0925 28.8105C60.9318 28.8672 60.771 28.9193 60.6055 28.9524C60.2745 29.0186 59.9388 29.0422 59.6125 29.0233C59.447 29.0138 59.2863 28.9996 59.1302 28.9665C59.0498 28.9524 58.9742 28.9334 58.8938 28.9193C58.856 28.9098 58.8181 28.9003 58.7803 28.8909C58.7425 28.8814 58.7047 28.872 58.6668 28.8578C58.0663 28.6781 57.5509 28.3471 57.2199 27.9121C57.201 27.8837 57.1821 27.8554 57.1632 27.827L57.1348 27.7844L57.1112 27.7419C57.0923 27.7135 57.0781 27.6851 57.0592 27.6568C57.045 27.6284 57.0308 27.6 57.0166 27.5669L56.993 27.5244C56.9882 27.5102 56.9788 27.496 56.974 27.4818C56.9599 27.4534 56.9504 27.4203 56.9362 27.392C56.9268 27.3636 56.9173 27.3305 56.9078 27.3021L56.8937 27.2548C56.8889 27.2407 56.8889 27.2265 56.8842 27.2076C56.8747 27.1792 56.87 27.1461 56.8653 27.1177C56.8606 27.0893 56.8558 27.0562 56.8511 27.0279L56.8464 26.9806L56.8416 26.9333C56.8416 26.9049 56.8369 26.8718 56.8369 26.8435C56.8369 26.8151 56.8369 26.782 56.8369 26.7536C56.8369 26.7394 56.8369 26.7253 56.8369 26.7111L56.8416 26.6685C56.8464 26.6401 56.8464 26.6118 56.8511 26.5787C56.8558 26.5503 56.8606 26.5219 56.8653 26.4936C56.8653 26.4794 56.87 26.4652 56.87 26.451L56.8795 26.4084C56.8842 26.3801 56.8937 26.3517 56.8984 26.3233C56.9078 26.295 56.9173 26.2713 56.922 26.243L56.9362 26.2051C56.9409 26.1909 56.9457 26.1815 56.9504 26.1673C56.9599 26.1437 56.9693 26.1153 56.9788 26.0916C56.9882 26.068 57.0024 26.0444 57.0119 26.0207C57.0355 25.9734 57.0639 25.9261 57.0875 25.8836C57.1963 25.7039 57.3334 25.5573 57.4753 25.4438C57.6218 25.3304 57.7732 25.25 57.9245 25.198C58.0758 25.146 58.2176 25.1223 58.35 25.1176C58.3642 25.1176 58.3831 25.1129 58.3973 25.1129C58.4115 25.1129 58.4304 25.1129 58.4446 25.1129C58.4777 25.1129 58.5061 25.1129 58.5344 25.1129C58.5533 25.1129 58.5675 25.1176 58.5864 25.1176C58.3358 25.2452 58.1751 25.5195 58.2034 25.8221C58.2413 26.2099 58.5817 26.4888 58.9553 26.4463C59.3288 26.4037 59.6031 26.0585 59.5652 25.6755C59.5321 25.3304 59.2579 25.0703 58.9316 25.0514C58.9174 25.0419 58.9033 25.0372 58.8843 25.0277C58.8371 25.0136 58.7898 24.9946 58.7378 24.9757C58.6857 24.9615 58.6243 24.9474 58.5581 24.9284C58.525 24.9237 58.4919 24.919 58.4588 24.9143C58.4399 24.9095 58.4257 24.9095 58.4068 24.9048C58.3878 24.9048 58.3689 24.9048 58.35 24.9001C58.2034 24.8859 58.0332 24.9001 57.8535 24.9426C57.6739 24.9852 57.4847 25.0656 57.305 25.1885C57.1254 25.3114 56.9504 25.4722 56.8085 25.6803C56.7754 25.7323 56.7376 25.7843 56.7092 25.841C56.6951 25.8694 56.6762 25.8978 56.662 25.9261C56.6478 25.9545 56.6336 25.9876 56.6194 26.016C56.6147 26.0302 56.6052 26.0444 56.6005 26.0633L56.5816 26.1106C56.5721 26.1437 56.5579 26.1768 56.5438 26.2051C56.5343 26.2382 56.5248 26.2713 56.5154 26.3044L56.5012 26.3564C56.4965 26.3754 56.4917 26.3895 56.4917 26.4084C56.4823 26.4415 56.4776 26.4794 56.4681 26.5125C56.4634 26.5456 56.4586 26.5834 56.4539 26.6212L56.4492 26.678C56.4492 26.6969 56.4492 26.7158 56.4445 26.7347C56.4445 26.7725 56.4397 26.8104 56.4397 26.8435C56.4397 26.8813 56.4397 26.9191 56.4445 26.9569V27.0137L56.4492 27.0704C56.4539 27.1083 56.4586 27.1461 56.4634 27.1839C56.4728 27.2217 56.4776 27.2596 56.487 27.2974C56.4917 27.3163 56.4965 27.3352 56.4965 27.3541L56.5107 27.4109C56.5201 27.4487 56.5296 27.4865 56.5438 27.5244C56.5579 27.5622 56.5721 27.6 56.5863 27.6378C56.591 27.6568 56.6005 27.6757 56.6052 27.6946L56.6289 27.7513C56.6478 27.7892 56.662 27.8223 56.6809 27.8601C56.6998 27.8932 56.7187 27.931 56.7423 27.9641L56.7707 28.0161L56.8038 28.0681C56.8275 28.1012 56.8511 28.1343 56.87 28.1722C56.9693 28.3046 57.0733 28.4322 57.1963 28.5457C57.253 28.6072 57.3192 28.6592 57.3854 28.7159C57.4185 28.7443 57.4516 28.7679 57.4847 28.7916C57.5178 28.8152 57.5509 28.8436 57.5887 28.8672C57.6218 28.8909 57.6597 28.9145 57.6975 28.9382C57.7353 28.9618 57.7732 28.9807 57.8063 29.0044L57.863 29.0375L57.9197 29.0658C57.9576 29.0848 57.9954 29.1037 58.0332 29.1273C58.071 29.1462 58.1136 29.1651 58.1514 29.1793L58.2129 29.2077L58.2744 29.2313C58.3169 29.2455 58.3548 29.2644 58.3973 29.2786C58.4399 29.2928 58.4824 29.307 58.5202 29.3212C58.5628 29.3354 58.6054 29.3495 58.6479 29.359C58.6905 29.3732 58.733 29.3826 58.7756 29.3968C58.8607 29.4157 58.9505 29.4394 59.0356 29.4536C59.2106 29.4867 59.395 29.5103 59.5747 29.5245C59.9388 29.5481 60.3171 29.5292 60.6953 29.4583C60.8845 29.4205 61.0736 29.3685 61.258 29.3023C61.4472 29.2361 61.6268 29.1462 61.8065 29.0422L61.8727 29.0044L61.9389 28.9618C61.9815 28.9334 62.024 28.9051 62.0666 28.8672L62.1281 28.82C62.147 28.8058 62.1706 28.7869 62.1895 28.7679C62.2274 28.7348 62.2652 28.697 62.303 28.6639C62.4496 28.5173 62.5962 28.366 62.7144 28.1911C62.8373 28.0161 62.9555 27.8175 63.0501 27.5858C63.1447 27.3589 63.2156 27.0988 63.2487 26.8246C63.3149 26.2713 63.2298 25.6472 62.965 25.0608C62.8988 24.9143 62.8231 24.7724 62.738 24.6306C62.6482 24.4934 62.5583 24.3516 62.4496 24.2192C62.3456 24.0868 62.2274 23.9591 62.1044 23.8409C62.0429 23.7842 61.9767 23.7227 61.9105 23.6659C61.8774 23.6376 61.8443 23.6092 61.8112 23.5808C61.7782 23.5525 61.7403 23.5288 61.7072 23.5005C61.6741 23.4721 61.6363 23.4484 61.5985 23.4248C61.5606 23.4012 61.5228 23.3728 61.4897 23.3491C61.4141 23.3019 61.3431 23.2593 61.2675 23.212C61.2296 23.1884 61.1918 23.1647 61.154 23.1458C61.1162 23.1222 61.0783 23.1033 61.0358 23.0796C60.998 23.056 60.9601 23.0371 60.9176 23.0134C60.8797 22.9898 60.8419 22.9709 60.7994 22.952C60.719 22.9141 60.6386 22.8716 60.5582 22.8337C60.4778 22.7959 60.3927 22.7628 60.3076 22.725C60.2225 22.6872 60.1374 22.6588 60.0475 22.6257C60.005 22.6115 59.9624 22.5926 59.9151 22.5784C59.8726 22.5642 59.8253 22.55 59.7827 22.5358C59.7402 22.5217 59.6929 22.5075 59.6503 22.498C59.6031 22.4838 59.5605 22.4696 59.5132 22.4602C59.4234 22.4413 59.3288 22.4176 59.239 22.3987C59.1444 22.3845 59.0546 22.3656 58.96 22.3514C58.9127 22.342 58.8654 22.3373 58.8181 22.3325C58.7709 22.3278 58.7236 22.3231 58.6763 22.3183C58.298 22.2805 57.915 22.2711 57.532 22.2805C57.4374 22.2805 57.3381 22.29 57.2436 22.2947L57.097 22.3042L56.9551 22.3136C56.8606 22.3231 56.7613 22.3278 56.6667 22.3373C56.5721 22.3467 56.4728 22.3562 56.3783 22.3656C56.2837 22.3751 56.1844 22.3845 56.0898 22.3987C55.9953 22.4082 55.896 22.4224 55.8014 22.4318C55.7021 22.446 55.6075 22.4602 55.5082 22.4744L55.3616 22.498C55.3144 22.5075 55.2671 22.5169 55.2151 22.5264C55.1205 22.5453 55.0212 22.5642 54.9266 22.5831C54.8321 22.602 54.7328 22.6257 54.6382 22.6493C54.4443 22.6919 54.2552 22.7486 54.066 22.7959C53.9715 22.8196 53.8769 22.8527 53.7823 22.881C53.6878 22.9094 53.5932 22.9378 53.4986 22.9709C53.3142 23.0323 53.1251 23.0938 52.9407 23.1647C52.813 23.212 52.6853 23.2593 52.5577 23.3113C52.5482 23.3917 52.5388 23.4721 52.5293 23.5525C52.7799 23.5005 53.0352 23.4579 53.2953 23.4248Z" fill="#4D4A4A"/>
<path d="M50.86 7.70256C50.3683 7.50869 49.8529 7.40467 49.3375 7.37157C49.0254 6.45898 48.3398 5.68351 47.4745 5.23904C47.1246 5.05935 46.7652 4.94587 46.4106 4.8844C46.803 2.7897 45.3609 0.0613803 43.1763 -8.9569e-05C41.2329 -0.0521025 39.3226 1.69742 40.7081 3.64555C41.2045 4.34063 41.9658 4.56759 42.5947 3.8536C43.1621 3.21053 42.7649 2.56273 42.2732 2.03314C42.0368 1.77308 41.6868 2.19864 41.9233 2.45398C41.4599 3.54625 41.1005 3.655 40.8452 2.78497C40.7364 1.81091 41.0627 1.16311 41.8334 0.841575C42.3015 0.614609 42.9257 0.491669 43.4316 0.572053C44.8927 0.799019 45.8857 2.61002 45.9425 4.00491C45.9519 4.29334 45.9235 4.57232 45.8573 4.83712C44.9684 4.83239 44.0794 5.13974 43.2614 5.60785C42.0699 6.28875 41.1478 7.20134 40.5426 8.39291C40.448 8.41183 40.4102 8.41655 40.2967 8.42128H40.3534C40.1737 8.42128 40.065 8.41183 39.9751 8.39291C39.3699 7.20134 38.4195 6.28875 37.2232 5.60785C36.4004 5.13974 35.502 4.82766 34.6084 4.83712C34.5469 4.56759 34.5043 4.28862 34.5185 4.00491C34.5753 2.61002 35.5588 0.799019 37.0246 0.572053C37.5353 0.491669 38.1547 0.614609 38.6228 0.841575C39.3888 1.15838 39.7151 1.80618 39.6063 2.78497C39.351 3.655 38.9916 3.54625 38.5282 2.45398C38.7647 2.19864 38.4195 1.77308 38.1783 2.03314C37.6913 2.56273 37.2894 3.21053 37.8568 3.8536C38.4857 4.56759 39.247 4.34063 39.7435 3.64555C40.117 3.12069 40.2494 2.60529 40.2068 2.1419C40.0981 0.884131 38.6985 -0.0379172 37.2799 -8.9569e-05C35.0954 0.0613803 33.6532 2.7897 34.0504 4.87967C33.691 4.93641 33.3364 5.0499 32.9865 5.23431C32.1212 5.68351 31.4356 6.45898 31.1235 7.36684C30.6081 7.39994 30.0927 7.50869 29.6009 7.69783C27.2225 8.61988 25.3264 12.8849 27.5771 14.9324C28.0925 15.4005 29.1517 15.9821 29.6388 15.1924C30.1021 14.4406 29.3078 13.7313 28.6221 14.1474C28.4519 14.2515 28.3999 14.4217 28.4188 14.5825C28.0547 14.1995 27.6575 13.5989 27.6055 13.4524C27.4589 13.0315 27.4306 12.6107 27.4542 12.1662C27.5015 11.2962 27.8609 10.3458 28.3621 9.65068C28.9579 8.81374 29.9414 8.28889 30.958 8.12339C30.9202 8.49694 30.9438 8.88467 31.0431 9.2724C31.4072 10.6909 33.1898 10.8423 34.1497 9.93439C34.2206 9.86346 34.3672 9.67432 34.5185 9.44736C36.67 11.8494 34.0031 13.9205 32.542 12.0858C32.2678 11.7407 32.2016 11.2867 31.6578 11.3056C30.6317 11.3435 30.783 12.5209 31.1755 13.1072C31.8564 14.1143 31.776 13.5327 31.1282 13.9725C30.9485 14.0954 30.7736 14.2846 30.6743 14.4879C30.4851 14.8803 30.523 15.2823 30.7263 15.6511C30.9722 16.0908 31.4781 16.3982 31.9557 16.4833C32.3623 16.5589 32.6129 16.4455 32.8825 16.3036C32.8446 16.3982 32.8068 16.488 32.7926 16.5164C32.7028 16.7954 32.9439 17.1405 33.2466 17.0602C34.2537 16.8001 35.2089 16.1192 35.8992 15.2303C36.3106 15.7929 36.8638 15.8213 37.3934 15.6227C38.3155 16.3556 39.1619 17.202 40.0792 17.9397C40.1265 17.9775 40.2116 17.9917 40.2116 17.9964C40.2589 17.9917 40.3109 17.9822 40.3582 17.9397C41.2755 17.202 42.1361 16.3556 43.0628 15.6227C43.5971 15.8213 44.1456 15.7929 44.557 15.2303C45.2521 16.1192 46.2072 16.7954 47.2097 17.0602C47.5076 17.1358 47.7535 16.7954 47.6636 16.5164C47.6542 16.4833 47.6163 16.3982 47.5738 16.3036C47.8433 16.4455 48.0939 16.5542 48.5005 16.4833C48.9781 16.3982 49.4841 16.0908 49.7299 15.6511C49.9333 15.2823 49.9664 14.8803 49.782 14.4879C49.6827 14.2846 49.5077 14.0954 49.328 13.9725C48.6802 13.5327 48.6046 14.1143 49.2807 13.1072C49.6732 12.5256 49.8245 11.3435 48.7984 11.3056C48.2547 11.2867 48.1885 11.7407 47.9142 12.0858C46.4484 13.9205 43.7863 11.8541 45.9377 9.44736C46.089 9.67432 46.2356 9.86346 46.3065 9.93439C47.2664 10.8375 49.049 10.6909 49.4131 9.2724C49.5124 8.88467 49.5361 8.49694 49.4982 8.12339C50.5196 8.28889 51.4984 8.81374 52.0942 9.65068C52.5954 10.3505 52.9547 11.3009 53.002 12.1662C53.0257 12.6107 52.9973 13.0315 52.8507 13.4524C52.7987 13.5989 52.4015 14.1947 52.0374 14.5825C52.0611 14.4217 52.0043 14.2467 51.8341 14.1474C51.1485 13.7313 50.3541 14.4406 50.8175 15.1924C51.3045 15.9821 52.3637 15.4005 52.8791 14.9324C55.1346 12.8897 53.2432 8.62461 50.86 7.70256ZM42.2022 7.39994C43.025 6.563 44.3253 5.75916 45.5547 5.65987C45.2095 6.32658 44.6705 6.89872 44.0842 7.33847C43.6728 7.64582 42.5143 8.10448 41.4788 8.32199C41.6821 7.99099 41.928 7.67892 42.2022 7.39994ZM38.254 7.39994C38.5282 7.67892 38.7741 7.99099 38.9774 8.32199C37.9419 8.10921 36.7834 7.65055 36.3721 7.33847C35.7857 6.89872 35.2467 6.32658 34.9015 5.65987C36.1309 5.75916 37.4312 6.55827 38.254 7.39994ZM33.3411 9.82563C33.0338 9.85873 32.0361 9.83036 31.932 8.89886C31.7855 8.63406 31.7335 8.36927 31.7666 8.07611C32.4806 8.09975 33.1662 8.30307 33.7099 8.71445C33.8802 8.84684 34.0315 8.97451 34.1733 9.10691C33.8707 9.48518 33.5161 9.80672 33.3411 9.82563ZM34.632 8.33144C34.2963 8.10921 33.9416 7.92007 33.5681 7.76876C33.6579 7.63636 33.7951 7.50869 33.8896 7.46614C34.2253 7.31483 34.528 7.76876 34.6462 8.05246C34.6793 8.12339 34.6698 8.21796 34.632 8.33144ZM36.5896 14.6487C36.5659 14.6345 36.4903 14.5446 36.4241 14.4359C36.9584 13.4287 37.157 12.2608 36.7976 11.1543C36.4477 10.0857 35.7905 9.21093 34.963 8.56787C34.9724 8.52058 34.9819 8.47802 34.9866 8.43547C35.0055 7.99572 34.6935 7.41885 34.3246 7.19661C33.9322 6.96019 33.5019 7.28645 33.3128 7.66473C32.8777 7.51342 32.4238 7.41885 31.9651 7.38102C32.3671 6.48262 33.3175 5.80645 34.249 5.66932C34.2679 5.6646 34.2821 5.6646 34.301 5.6646C34.7975 6.78997 35.781 7.70256 36.8118 8.26524C37.3509 8.56314 38.4715 9.05017 39.4219 9.20621C39.8806 10.412 39.8569 11.7643 39.1098 12.9275C38.7552 13.476 38.2918 14.19 37.7102 14.5304C36.8544 15.0837 36.5896 14.6534 36.5896 14.6487ZM40.2116 17.3628C39.4077 16.715 38.7032 16.001 37.9183 15.3579C38.2067 15.1735 38.462 14.9465 38.6748 14.7338C39.3463 14.0623 39.9468 13.3105 40.2116 12.483C40.5378 13.3058 41.0863 14.0623 41.7578 14.7338C41.9706 14.9465 42.2353 15.1688 42.5238 15.3579C41.7389 16.0057 40.9918 16.7197 40.2116 17.3628ZM43.6633 11.1543C43.304 12.2608 43.5026 13.4287 44.0369 14.4359C43.9707 14.5399 43.895 14.6345 43.8714 14.6487C43.8667 14.6534 43.6019 15.0837 42.7507 14.5352C42.1691 14.1947 41.7058 13.4807 41.3511 12.9322C40.5993 11.769 40.5757 10.4167 41.039 9.21093C41.9895 9.0549 43.1054 8.56787 43.6492 8.26997C44.68 7.70256 45.6635 6.78997 46.16 5.66932C46.1789 5.66932 46.1931 5.67405 46.212 5.67405C47.1435 5.80645 48.0986 6.48735 48.4958 7.38575C48.0372 7.42831 47.5832 7.52288 47.1482 7.66946C46.9591 7.29118 46.5288 6.96492 46.1363 7.20134C45.7675 7.42358 45.4554 8.00045 45.4743 8.4402C45.4743 8.47802 45.4838 8.52531 45.498 8.57259C44.6705 9.21093 44.0085 10.0857 43.6633 11.1543ZM45.8242 8.33144C45.7911 8.22269 45.7817 8.12339 45.8101 8.05719C45.9283 7.77349 46.2356 7.31955 46.5666 7.47086C46.6612 7.51342 46.7936 7.63636 46.8881 7.77349C46.5146 7.91534 46.16 8.10448 45.8242 8.33144ZM48.5242 8.89886C48.4202 9.83036 47.4177 9.85873 47.1151 9.82563C46.9402 9.80672 46.5855 9.48518 46.2876 9.10691C46.4295 8.97451 46.5808 8.84684 46.751 8.71445C47.2948 8.29834 47.9804 8.09502 48.6944 8.07611C48.7228 8.36927 48.6708 8.63406 48.5242 8.89886Z" fill="#4D4A4A"/>
<path d="M1.27291 44.854L1.24927 44.5514L2.22333 43.7192C2.56378 43.426 2.83803 43.1659 3.04608 42.9295C3.25413 42.6978 3.4149 42.4567 3.52838 42.2108C3.64186 41.9649 3.69388 41.7001 3.69388 41.4164C3.69388 41.0807 3.62295 40.8017 3.4811 40.5795C3.33924 40.3572 3.12173 40.2485 2.81911 40.2485C2.61579 40.2485 2.44084 40.291 2.29426 40.3761C2.14767 40.4613 2.04365 40.5653 1.97745 40.6882L1.81195 41.6717L1.58026 41.6386L1.5377 40.5416C1.61336 40.4423 1.72684 40.343 1.88288 40.2437C2.03892 40.1492 2.21387 40.0688 2.41247 40.0073C2.61106 39.9459 2.80966 39.9175 3.00825 39.9175C3.43854 39.9175 3.77899 40.0404 4.0296 40.2816C4.28021 40.5227 4.40314 40.8774 4.40314 41.3407C4.40314 41.6812 4.30858 42.0027 4.11944 42.3101C3.9303 42.6127 3.69861 42.8964 3.41963 43.147C3.14065 43.4024 2.75764 43.7239 2.26588 44.1163L1.94435 44.3717H3.98231L4.37005 43.3787L4.59701 43.4118L4.40314 44.854H1.27291Z" fill="#4D4A4A"/>
<path d="M7.08898 44.9624C6.76271 44.9624 6.47901 44.8773 6.23313 44.7118C5.98725 44.5463 5.78865 44.2768 5.64207 43.9032C5.49549 43.5297 5.42456 43.0474 5.42456 42.4516C5.42456 41.922 5.50022 41.4681 5.65153 41.0898C5.80284 40.7115 6.00143 40.4231 6.25677 40.2292C6.5121 40.0353 6.79108 39.936 7.09843 39.936C7.42942 39.936 7.71786 40.0306 7.95901 40.2197C8.20016 40.4089 8.38457 40.6926 8.51697 41.0709C8.64937 41.4491 8.71556 41.9078 8.71556 42.4516C8.71556 43.0237 8.63991 43.4966 8.4886 43.8701C8.33729 44.2437 8.13869 44.5226 7.89281 44.6929C7.6422 44.8773 7.37741 44.9624 7.08898 44.9624ZM7.07952 40.2623C6.73907 40.2623 6.49319 40.4514 6.33715 40.8297C6.18111 41.208 6.10546 41.7565 6.10546 42.4705C6.10546 43.1987 6.18584 43.7472 6.35134 44.1113C6.5121 44.4754 6.76271 44.6598 7.0937 44.6598C7.41524 44.6598 7.64693 44.4801 7.79824 44.1207C7.94483 43.7614 8.02048 43.2081 8.02048 42.461C8.02048 41.7565 7.94483 41.2127 7.78879 40.8344C7.63748 40.4514 7.40105 40.2623 7.07952 40.2623Z" fill="#4D4A4A"/>
<path d="M9.54297 44.8496L9.55715 44.6037L10.6778 44.4335V40.5278H9.61862L9.63754 40.2772L11.2121 40.0171H11.3209V44.4571L12.4131 44.5706L12.3753 44.8543H9.54297V44.8496Z" fill="#4D4A4A"/>
<path d="M14.4369 42.9298C14.1816 42.9298 13.9593 42.8683 13.7749 42.7501C13.5905 42.6272 13.4487 42.4617 13.3541 42.2489C13.2595 42.0361 13.2075 41.7903 13.2075 41.5207C13.2075 41.2228 13.2784 40.9486 13.4203 40.7074C13.5622 40.4663 13.756 40.2724 13.9924 40.1353C14.2336 39.9982 14.4889 39.9272 14.7632 39.9272C15.0989 39.9272 15.3779 40.0124 15.6001 40.1779C15.8224 40.3433 15.9831 40.5656 16.0871 40.8446C16.1912 41.1188 16.2432 41.4262 16.2432 41.7619C16.2432 42.2631 16.1392 42.7454 15.9311 43.2041C15.7231 43.6627 15.4299 44.0457 15.0516 44.3625C14.6686 44.6793 14.2336 44.8827 13.7371 44.9772L13.6615 44.7408C14.2761 44.5564 14.7206 44.2727 15.0043 43.885C15.288 43.4972 15.463 43.0386 15.5339 42.5184H15.4914C15.1982 42.788 14.8436 42.9298 14.4369 42.9298ZM14.7064 40.1826C14.4085 40.1826 14.191 40.2819 14.0539 40.4852C13.9215 40.6885 13.8506 40.9817 13.8506 41.3694C13.8506 41.5869 13.8837 41.7855 13.9546 41.9652C14.0208 42.1449 14.1248 42.2867 14.262 42.3908C14.3991 42.4948 14.5693 42.5468 14.7679 42.5468C14.9381 42.5468 15.0989 42.5137 15.2408 42.4428C15.3826 42.3719 15.4866 42.2915 15.5481 42.1969C15.5717 42.0598 15.5859 41.8659 15.5859 41.6153C15.5859 41.3411 15.5481 41.0999 15.4677 40.8824C15.3921 40.6649 15.2833 40.4947 15.1509 40.3717C15.0138 40.244 14.8672 40.1826 14.7064 40.1826Z" fill="#4D4A4A"/>
<path d="M62.6765 40.0031L62.7191 39.7761H64.0525L66.7761 43.9372V40.1449L66.0195 40.0078L66.0574 39.7761H67.892L67.8494 40.0078L67.1733 40.1355V44.8687L66.7477 44.9538L63.835 40.58V44.4857L64.5868 44.5944L64.5443 44.8498H62.7143L62.738 44.6133L63.4189 44.4573V40.1639L62.6765 40.0031Z" fill="#4D4A4A"/>
<path d="M68.6721 40.0031L68.7099 39.7761H70.6013L70.5682 40.0031L69.9015 40.1355L71.112 42.3862L72.2847 40.1544L71.5328 40.0078L71.5565 39.7808H73.2587L73.2351 40.0078L72.7149 40.1402L71.2964 42.7834V44.4904L72.001 44.6039L71.9631 44.8592H69.9914L70.0245 44.6228L70.6864 44.4667V42.8307L69.2395 40.1544L68.6721 40.0031Z" fill="#4D4A4A"/>
<path d="M76.318 44.958C75.8972 44.958 75.5189 44.854 75.1785 44.6507C74.838 44.4474 74.5685 44.1542 74.3699 43.7665C74.1713 43.3835 74.072 42.9295 74.072 42.4094C74.072 41.9791 74.1619 41.5536 74.3415 41.1327C74.5212 40.7119 74.8002 40.362 75.169 40.0877C75.5378 39.8135 75.9918 39.6716 76.5308 39.6716C77.1313 39.6716 77.6089 39.804 77.9635 40.0735L77.8359 41.4401L77.5569 41.3975L77.4103 40.4187C77.1833 40.1208 76.8193 39.9743 76.318 39.9743C76.0296 39.9743 75.7648 40.0688 75.5237 40.2532C75.2825 40.4376 75.0886 40.7024 74.9468 41.0382C74.8049 41.3739 74.734 41.7616 74.734 42.1919C74.734 42.6789 74.8144 43.095 74.9752 43.4449C75.1359 43.7948 75.3534 44.0549 75.6324 44.2346C75.9114 44.4143 76.2329 44.5041 76.597 44.5041C76.8713 44.5041 77.1313 44.4379 77.3867 44.3102C77.642 44.1778 77.8642 44.0171 78.0581 43.8185L78.1763 44.0502C78.0723 44.192 77.9257 44.3292 77.7413 44.4663C77.5569 44.6034 77.3394 44.7169 77.0935 44.8115C76.8429 44.9108 76.5876 44.958 76.318 44.958Z" fill="#4D4A4A"/>
<path d="M40.4576 61.5977C30.6177 61.5977 22.6077 52.8832 22.6077 42.1733C22.6077 31.4633 30.6129 22.7488 40.4576 22.7488C50.3022 22.7488 58.3075 31.4633 58.3075 42.1733C58.3075 52.8832 50.2975 61.5977 40.4576 61.5977ZM40.4576 23.6235C31.1 23.6235 23.4824 31.9456 23.4824 42.1733C23.4824 52.4009 31.0952 60.723 40.4576 60.723C49.8199 60.723 57.4327 52.4009 57.4327 42.1733C57.4327 31.9456 49.8152 23.6235 40.4576 23.6235Z" fill="#4D4A4A"/>
<path fill-rule="evenodd" clip-rule="evenodd" d="M56.345 42.1734C56.345 51.7418 49.2319 59.4985 40.4574 59.4985C31.6829 59.4985 24.5698 51.7418 24.5698 42.1734C24.5698 32.6051 31.6829 24.8484 40.4574 24.8484C49.2319 24.8484 56.345 32.6051 56.345 42.1734ZM39.1429 51.8336C37.7291 51.8431 36.6747 51.2946 35.9843 50.1976C35.2892 49.0959 34.892 47.6631 34.788 45.8994L34.2442 45.9042C34.2631 49.1904 34.2442 51.3277 34.1875 52.3207L34.7313 52.3159C34.7738 51.9518 34.8353 51.6871 34.9109 51.5216C34.9866 51.3561 35.1001 51.271 35.2467 51.271C35.4405 51.2662 35.7101 51.3797 36.0505 51.6019C36.547 51.8667 37.086 52.0795 37.6724 52.2356C38.2587 52.3916 38.9963 52.4672 39.8853 52.4625C40.9823 52.4531 41.9753 52.2781 42.8642 51.9282C43.7484 51.5783 44.4577 51.0534 44.9778 50.3536C45.5027 49.6538 45.758 48.798 45.7533 47.7861C45.7533 46.9775 45.5783 46.273 45.2332 45.663C44.888 45.053 44.4435 44.5234 43.8997 44.0695C43.356 43.6156 42.6183 43.0813 41.6868 42.4666C41.522 42.3577 41.2619 42.1828 40.9053 41.9431C40.6891 41.7977 40.4375 41.6285 40.1501 41.4358C39.3888 40.9251 38.7694 40.4192 38.2965 39.9179C37.8237 39.4167 37.5825 38.7737 37.5778 37.984C37.5731 37.497 37.6818 37.0667 37.8993 36.6979C38.1168 36.329 38.4242 36.0453 38.8214 35.8515C39.2186 35.6576 39.6725 35.5583 40.1737 35.5536C40.9681 35.5488 41.6632 35.7853 42.259 36.2676C42.8547 36.7451 43.3181 37.374 43.6491 38.1448C43.9801 38.9155 44.1787 39.7288 44.2355 40.5894L44.7792 40.5846C44.765 38.0313 44.7934 36.225 44.8643 35.1658L44.3206 35.1706C44.278 35.5347 44.2165 35.7995 44.1409 35.9649C44.0652 36.1304 43.9517 36.2156 43.8052 36.2156C43.6491 36.2156 43.3796 36.1068 43.0013 35.8846C42.6656 35.6907 42.3583 35.5347 42.0745 35.407C41.7908 35.2841 41.4362 35.18 41.0154 35.0949C40.5898 35.0145 40.0933 34.972 39.5212 34.9767C38.5566 34.9814 37.6724 35.1469 36.8685 35.4685C36.0647 35.79 35.4216 36.277 34.9393 36.9343C34.4523 37.5915 34.2159 38.4001 34.2206 39.36C34.2253 40.1875 34.4097 40.9156 34.7833 41.5398C35.1521 42.164 35.6202 42.703 36.1829 43.1569C36.7456 43.6109 37.5069 44.1452 38.4715 44.7599C39.2942 45.2895 39.9562 45.7576 40.448 46.1595C40.9397 46.5614 41.3322 47.0059 41.6253 47.4976C41.9185 47.9894 42.0651 48.5426 42.0698 49.1621C42.0746 49.7342 41.9469 50.226 41.6915 50.6279C41.4362 51.0298 41.0863 51.3324 40.6418 51.531C40.2021 51.7296 39.7009 51.8289 39.1429 51.8336Z" fill="#4D4A4A"/>
<path d="M16.1106 58.2724L16.2856 58.0974L17.6095 59.0526L17.4346 59.2275L16.9523 59.0289L16.749 60.8257L18.3519 60.055L17.9547 59.6011L18.1249 59.4214L19.2834 60.2583L19.1132 60.438L18.716 60.3009L16.6828 61.2182L15.9026 62.301L16.2619 62.6982L16.087 62.8873L14.7725 61.9416L14.938 61.7667L15.4155 61.9275L16.139 60.9298L16.3896 58.6459L16.1106 58.2724Z" fill="#4D4A4A"/>
<path d="M19.4015 65.0627C19.0847 64.8878 18.8483 64.6514 18.6922 64.3535C18.5362 64.0556 18.4653 63.734 18.4842 63.3794C18.5031 63.0295 18.6071 62.6843 18.7915 62.3439C18.9901 61.9845 19.2407 61.7055 19.5434 61.5117C19.846 61.3178 20.177 61.2185 20.5363 61.2138C20.8957 61.209 21.2598 61.3131 21.6286 61.5164C21.9549 61.6961 22.196 61.942 22.3521 62.2446C22.5081 62.5472 22.5696 62.8735 22.5459 63.2281C22.5223 63.5827 22.4183 63.9232 22.2339 64.2542C22.0494 64.5804 21.813 64.8452 21.5151 65.0391C21.2172 65.2377 20.8862 65.3417 20.5174 65.3512C20.1486 65.3701 19.7798 65.2708 19.4015 65.0627ZM21.3449 61.715C20.6404 61.3225 20.0304 61.5968 19.5103 62.533C19.3495 62.8262 19.236 63.1193 19.1745 63.422C19.1131 63.7199 19.1225 63.9988 19.2029 64.2494C19.2833 64.5001 19.4535 64.6986 19.7089 64.8405C20.0966 65.058 20.4465 65.0769 20.7491 64.902C21.0517 64.727 21.3165 64.4386 21.5388 64.0367C21.6948 63.7529 21.8036 63.4598 21.8698 63.1572C21.9312 62.8546 21.9265 62.5708 21.8461 62.3108C21.7657 62.0554 21.5955 61.8568 21.3449 61.715Z" fill="#4D4A4A"/>
<path d="M23.9314 63.2325L23.4349 62.8873L23.5626 62.6746L25.1797 63.3224L25.0615 63.5399L24.513 63.45L23.7706 65.3036C23.6051 65.715 23.5767 66.0554 23.6855 66.3297C23.7943 66.6039 24.007 66.8025 24.3286 66.9302C24.6406 67.0531 24.9149 67.0578 25.156 66.9396C25.3972 66.8214 25.5958 66.5708 25.7471 66.1925L26.5226 64.2728L26.0261 63.9276L26.1443 63.7148L27.5723 64.287L27.4493 64.4997L26.9103 64.4146L26.1632 66.2445C25.941 66.7883 25.6573 67.1477 25.3074 67.3179C24.9622 67.4881 24.5319 67.4692 24.0165 67.2659C23.5909 67.0957 23.2836 66.8498 23.0897 66.5282C22.8958 66.2067 22.9148 65.7622 23.1417 65.1948L23.9314 63.2325Z" fill="#4D4A4A"/>
<path d="M28.556 68.6657L26.8538 68.2165L26.9483 67.9943L27.5063 67.9848L28.3101 64.9397L27.8042 64.708L27.8987 64.4763C28.1966 64.5047 28.4614 64.5378 28.6931 64.5709C28.9248 64.604 29.1471 64.6513 29.3551 64.7033C29.8516 64.8357 30.2157 65.0106 30.4474 65.2329C30.6791 65.4551 30.75 65.7388 30.6602 66.0793C30.6223 66.2164 30.5514 66.3441 30.4474 66.467C30.3434 66.5852 30.2062 66.6892 30.0407 66.7696C29.8752 66.85 29.6908 66.8973 29.4875 66.9162V66.9209L29.8421 67.843C29.9367 68.0889 30.0076 68.2685 30.0644 68.382C30.1164 68.5002 30.1826 68.5995 30.2535 68.6894C30.3244 68.7792 30.419 68.8596 30.5325 68.9258L30.6271 68.9825L30.523 69.1811C30.3954 69.1906 30.263 69.1811 30.1353 69.1433C29.9036 69.0818 29.7192 68.9542 29.5821 68.7556C29.4402 68.557 29.3315 68.3064 29.2558 67.999L28.9957 66.9871L28.4567 66.8453L28.121 68.122L28.6695 68.4104L28.556 68.6657ZM28.9532 64.8972L28.5134 66.5616L29.1281 66.7223C29.3173 66.7081 29.4922 66.6514 29.6483 66.5474C29.8043 66.4434 29.9083 66.2873 29.9651 66.084C30.0076 65.9138 30.0171 65.753 29.984 65.6017C29.9509 65.4504 29.88 65.3227 29.7712 65.214C29.6625 65.1052 29.5159 65.0248 29.3362 64.9775C29.2464 64.9539 29.166 64.935 29.095 64.9208C29.0194 64.9113 28.9768 64.9019 28.9532 64.8972Z" fill="#4D4A4A"/>
<path d="M32.9817 65.5642L36.5328 65.9614L36.3059 67.03L36.008 66.9496L35.9701 66.1978L34.9961 66.0891L34.6272 69.4084L35.2089 69.5834L35.1332 69.834L33.412 69.6401L33.4593 69.4084L34.0173 69.3186L34.3861 66.0229L33.4451 65.9188L33.1898 66.6754L32.9014 66.5997L32.9817 65.5642Z" fill="#4D4A4A"/>
<path d="M36.8826 66.1929L36.9204 65.947L40.1216 65.999L40.0034 67.0251L39.7244 66.9778L39.6062 66.2827L38.0931 66.2591L38.0695 67.7911L39.001 67.8053L39.1428 67.4223L39.4502 67.3845L39.3225 68.6328L39.0482 68.6706L38.949 68.1079L38.0695 68.0937L38.0458 69.6589L39.6393 69.6825L39.9656 68.9496L40.2304 68.9969L40.1169 69.9993L36.8542 69.9473L36.8826 69.7109L37.4217 69.569L37.4737 66.3395L36.8826 66.1929Z" fill="#4D4A4A"/>
<path d="M40.7079 69.971L40.7221 69.7251L41.1146 69.5407L42.1312 67.8432L40.8829 66.3253L40.429 66.2308L40.4431 65.9754L42.0839 65.8147L42.0745 66.07L41.5874 66.2639L42.4953 67.3703L43.2424 66.0794L42.6844 66.0038L42.7033 65.7485L44.0935 65.6113V65.8572L43.701 66.018L42.7695 67.6398L44.032 69.2712L44.4765 69.3374L44.4623 69.5974L42.8546 69.7582L42.8736 69.517L43.3701 69.3137L42.4007 68.089L41.5969 69.4981L42.1407 69.5549L42.117 69.8244L40.7079 69.971Z" fill="#4D4A4A"/>
<path d="M44.415 65.5595L47.9094 64.8171L48.0276 65.9047L47.7202 65.9189L47.446 65.2191L46.4861 65.4224L47.1812 68.6897L47.7864 68.6756L47.7959 68.9356L46.0984 69.295L46.07 69.0586L46.5712 68.7985L45.8809 65.5548L44.9541 65.7534L44.9494 66.5525L44.6562 66.5714L44.415 65.5595Z" fill="#4D4A4A"/>
<path d="M49.4888 64.6281L49.4368 64.387L51.0728 63.7628L51.1296 64.004L50.6709 64.3113L51.1721 65.6258L53.054 64.9071L52.5575 63.6021L51.9618 63.6872L51.9097 63.446L53.5505 62.8171L53.6025 63.0583L53.1439 63.3656L54.3118 66.4155L54.8981 66.3067L54.9596 66.5573L53.3283 67.1815L53.2715 66.9498L53.716 66.6188L53.177 65.2145L51.295 65.9332L51.8388 67.3612L52.4299 67.2524L52.4819 67.5078L50.8553 68.1272L50.7938 67.8955L51.243 67.5645L50.0893 64.5477L49.4888 64.6281Z" fill="#4D4A4A"/>
<path d="M53.9051 62.8688L53.8247 62.6371L56.657 61.1523L57.0448 62.1075L56.78 62.2021L56.3402 61.6488L54.9974 62.3534L55.7066 63.7104L56.5341 63.2754L56.4726 62.8688L56.7232 62.6891L57.2055 63.8476L56.9833 64.0131L56.6239 63.5638L55.8438 63.9752L56.5719 65.3607L57.981 64.623L57.9148 63.8239L58.1702 63.7388L58.5532 64.675L55.6641 66.1929L55.5742 65.9706L55.9809 65.5876L54.4772 62.7269L53.9051 62.8688Z" fill="#4D4A4A"/>
<path d="M60.6999 63.2849L59.2388 64.2684L59.1348 64.0509L59.4941 63.6253L57.7399 61.0105L57.2292 61.2375L57.1157 61.0152C57.3332 60.8119 57.5366 60.6322 57.7115 60.4809C57.8912 60.3296 58.0709 60.1925 58.2458 60.0743C58.6714 59.7905 59.0449 59.6298 59.3617 59.6014C59.6833 59.573 59.9433 59.7054 60.1372 59.9986C60.2176 60.1168 60.2649 60.2539 60.2885 60.4147C60.3074 60.5755 60.2932 60.741 60.246 60.9206C60.1987 61.0956 60.1136 61.2705 59.9906 61.436V61.4408L60.9174 61.7812C61.1633 61.8711 61.3477 61.9373 61.4706 61.9751C61.5936 62.0129 61.7118 62.0318 61.8253 62.0366C61.9387 62.0413 62.0617 62.0224 62.1894 61.9845L62.2934 61.9515L62.3738 62.1595C62.2981 62.2635 62.2035 62.3534 62.0901 62.429C61.8915 62.5614 61.6739 62.6134 61.4328 62.5898C61.1916 62.5661 60.9316 62.481 60.6479 62.3345L59.7164 61.8616L59.253 62.1737L59.9906 63.2707L60.5675 63.0484L60.6999 63.2849ZM58.1371 60.4998L59.0969 61.9325L59.6265 61.5779C59.74 61.4266 59.8109 61.2611 59.8346 61.072C59.8582 60.8876 59.8109 60.7031 59.6927 60.5282C59.5934 60.3816 59.4799 60.2728 59.3428 60.1972C59.2057 60.1215 59.0638 60.0932 58.9078 60.1026C58.7518 60.1121 58.6005 60.1688 58.4444 60.2729C58.364 60.3249 58.2978 60.3721 58.2411 60.4194C58.1891 60.4573 58.1513 60.4856 58.1371 60.4998Z" fill="#4D4A4A"/>
<path d="M60.5391 58.8212L60.4067 58.6131L62.8513 56.5515L63.4377 57.4026L63.1965 57.5492L62.648 57.1047L61.4896 58.0788L62.4778 59.2515L63.1918 58.6509L63.0452 58.2679L63.2485 58.0362L63.972 59.0623L63.7876 59.2704L63.3431 58.911L62.6717 59.4784L63.6788 60.6747L64.894 59.6487L64.6576 58.8779L64.8893 58.7361L65.4662 59.5683L62.9696 61.6724L62.8372 61.4738L63.1492 61.0104L61.0687 58.5375L60.5391 58.8212Z" fill="#4D4A4A"/>
</g>
<defs>
<clipPath id="clip0_1287_3634">
<rect width="79.1448" height="70" fill="white" transform="translate(0.540039)"/>
</clipPath>
</defs>
</svg>
