<svg width="177" height="70" viewBox="0 0 177 70" fill="none" xmlns="http://www.w3.org/2000/svg">
<g clip-path="url(#clip0_1287_3522)">
<path d="M85.6044 37.2372C76.8258 37.2372 69.6833 28.8867 69.6833 18.6186C69.6833 8.35051 76.8258 0 85.6044 0C94.383 0 101.526 8.35051 101.526 18.6186C101.526 28.8867 94.383 37.2372 85.6044 37.2372ZM85.6044 0.7682C77.2481 0.7682 70.4515 8.77272 70.4515 18.6186C70.4515 28.4586 77.2481 36.469 85.6044 36.469C93.9608 36.469 100.757 28.4644 100.757 18.6186C100.757 8.77859 93.9608 0.7682 85.6044 0.7682Z" fill="#4D4A4A"/>
<path d="M85.6044 35.3963C77.7112 35.3963 71.29 27.8726 71.29 18.619C71.29 9.37133 77.7112 1.8418 85.6044 1.8418C93.4975 1.8418 99.9187 9.36546 99.9187 18.619C99.9245 27.8726 93.4975 35.3963 85.6044 35.3963ZM85.6044 2.12914C77.8696 2.12914 71.5774 9.52379 71.5774 18.619C71.5774 27.7084 77.8696 35.1089 85.6044 35.1089C93.3391 35.1089 99.6313 27.7143 99.6313 18.619C99.6372 9.52966 93.3391 2.12914 85.6044 2.12914Z" fill="#4D4A4A"/>
<path d="M74.3277 34.8328C74.058 33.8476 73.3953 32.9387 72.4278 32.5575C71.7886 32.3053 70.8386 32.2936 70.3929 32.9211C70.1583 33.2495 70.0997 33.6951 70.2522 34.0353C70.8562 34.1115 71.4133 34.3812 71.7827 34.8973C72.5626 35.9704 72.2342 37.5068 70.9617 38.017C70.1642 38.3337 69.3256 38.2867 68.4929 38.1695C68.0121 38.3043 67.5136 38.3571 67.0152 38.3747C65.5081 38.4158 63.8486 38.1988 62.3943 37.8352C59.1514 37.0318 56.4011 35.3547 53.7036 33.4606C51.3052 31.7776 49.1062 29.7193 47.2296 27.4616C46.2151 26.2418 45.5408 24.7524 45.5349 23.1515C45.5349 22.6765 45.5232 22.0842 45.7226 21.6502C45.8692 20.8293 46.4497 20.6182 47.4701 21.011C47.8161 21.5154 47.9509 22.049 47.8864 22.6178C47.863 22.6823 47.863 22.7527 47.8864 22.8172C47.9099 22.9228 47.9802 22.999 48.0682 23.0283C48.1503 23.0694 48.25 23.0752 48.3556 23.0224C49.5049 22.4302 48.9185 20.0317 48.2793 19.2342C47.2472 17.9441 44.9778 18.0555 43.846 19.1639C42.4093 20.5712 41.7115 23.4505 42.5266 25.3036C43.0016 26.3826 43.8812 27.3091 44.7902 28.0245C44.925 28.1301 45.0834 28.2298 45.2476 28.3177C42.7436 28.3881 39.9523 29.6841 38.498 31.2029C35.9119 33.8945 36.9616 38.1929 39.3776 40.6031C41.6411 42.8608 46.221 42.591 47.4466 39.4361C48.4376 36.8911 47.7222 32.9563 44.3269 33.0442C44.0044 33.0501 43.7991 33.4664 44.0513 33.701C44.2859 33.918 44.6025 33.9238 44.796 34.0998C46.0158 35.2022 45.9747 37.0553 44.8078 38.146C42.3976 40.4037 40.0461 36.2343 40.6911 34.1408C41.6118 31.1501 45.7929 29.344 48.6253 30.1122C48.6546 30.118 48.6898 30.1239 48.7191 30.1298C50.1382 31.5782 51.6746 32.9152 53.3401 34.088C55.7795 35.8062 58.2073 37.2898 61.0514 38.2164C62.9279 38.8262 65.3146 39.3481 67.3963 39.137C67.4198 39.1546 67.4491 39.1664 67.4784 39.1781C68.2877 39.4772 68.7568 40.0929 69.6658 40.175C70.6509 40.2688 71.8062 40.1339 72.721 39.741C73.9818 39.1957 74.8438 37.929 73.9993 36.7679C74.3101 36.1053 74.5564 35.6831 74.3277 34.8328Z" fill="#4D4A4A"/>
<path d="M78.3504 38.0639C77.676 41.4475 74.3687 42.3388 71.249 41.9283C68.6688 41.5882 65.983 39.3598 63.954 37.8234C59.767 34.651 56.7118 30.2294 52.5014 27.1097C48.7601 24.336 43.7932 25.3915 39.9815 27.5671C36.2754 29.6782 33.572 33.1849 34.7214 37.6299C35.2198 39.5475 36.3457 41.2129 38.2398 41.9518C40.0049 42.6379 42.7259 43.1422 44.4089 42.0339C44.7549 41.8052 44.4382 41.2481 44.0805 41.4709C42.6321 42.3857 40.4799 41.9401 38.9318 41.4533C37.1198 40.8904 36.0173 39.5123 35.4837 37.7355C34.3343 33.9062 36.422 30.7044 39.5534 28.6696C42.0926 27.0217 46.215 25.5147 49.2468 26.3122C52.1319 27.0686 54.3603 29.6137 56.36 31.6896C60.2127 35.6772 64.2179 39.6472 69.2552 42.1453C71.1962 43.107 73.9465 42.978 75.9403 42.2098C77.8285 41.4827 78.714 40.2043 79.0776 38.2691C79.1655 37.7883 78.4501 37.583 78.3504 38.0639Z" fill="#4D4A4A"/>
<path d="M82.1387 36.7155C81.4995 37.8825 80.7841 39.2195 79.365 39.5244C79.0249 39.5948 78.6496 39.5831 78.3036 39.5596C77.465 39.5068 77.3477 39.501 76.8551 38.85C76.5443 38.4454 76.2629 38.0349 76.7613 37.6303C77.2891 37.2022 78.8783 37.7124 78.2274 38.7738C78.0104 39.1257 78.5557 39.4365 78.7786 39.0963C79.4705 38.0115 78.5851 36.9207 77.4122 36.7976C76.257 36.6745 75.3832 37.9176 75.782 39.0318C76.2394 40.3161 78.2508 40.4392 79.3709 40.2516C81.0949 39.9642 81.9921 38.4982 82.7603 37.0791C82.9773 36.6686 82.3557 36.3109 82.1387 36.7155Z" fill="#4D4A4A"/>
<path d="M96.8049 34.8328C97.0746 33.8476 97.7373 32.9387 98.7049 32.5575C99.3441 32.3053 100.294 32.2936 100.74 32.9211C100.974 33.2495 101.033 33.6951 100.88 34.0353C100.276 34.1115 99.7194 34.3812 99.3499 34.8973C98.57 35.9704 98.8984 37.5068 100.171 38.017C100.968 38.3337 101.807 38.2867 102.64 38.1695C103.121 38.3043 103.619 38.3571 104.117 38.3747C105.625 38.4158 107.284 38.1988 108.738 37.8352C111.981 37.0318 114.732 35.3547 117.429 33.4606C119.827 31.7776 122.026 29.7193 123.903 27.4616C124.917 26.2418 125.592 24.7524 125.598 23.1515C125.598 22.6765 125.609 22.0842 125.41 21.6502C125.263 20.8293 124.683 20.6182 123.663 21.011C123.317 21.5154 123.182 22.049 123.246 22.6178C123.27 22.6823 123.27 22.7527 123.246 22.8172C123.223 22.9228 123.152 22.999 123.064 23.0283C122.982 23.0694 122.883 23.0752 122.777 23.0224C121.628 22.4302 122.214 20.0317 122.853 19.2342C123.885 17.9441 126.155 18.0555 127.287 19.1639C128.723 20.5712 129.421 23.4505 128.606 25.3036C128.131 26.3826 127.251 27.3091 126.342 28.0245C126.208 28.1301 126.049 28.2298 125.885 28.3177C128.389 28.3881 131.18 29.6841 132.635 31.2029C135.221 33.8945 134.171 38.1929 131.755 40.6031C129.491 42.8608 124.912 42.591 123.686 39.4361C122.695 36.8911 123.41 32.9563 126.806 33.0442C127.128 33.0501 127.333 33.4664 127.081 33.701C126.847 33.918 126.53 33.9238 126.337 34.0998C125.117 35.2022 125.158 37.0553 126.325 38.146C128.735 40.4037 131.087 36.2343 130.441 34.1408C129.521 31.1501 125.34 29.344 122.507 30.1122C122.478 30.118 122.443 30.1239 122.413 30.1298C120.994 31.5782 119.458 32.9152 117.793 34.088C115.353 35.8062 112.925 37.2898 110.081 38.2164C108.205 38.8262 105.818 39.3481 103.736 39.137C103.713 39.1546 103.684 39.1664 103.654 39.1781C102.845 39.4772 102.376 40.0929 101.467 40.175C100.482 40.2688 99.3265 40.1339 98.4117 39.741C97.1509 39.1957 96.2888 37.929 97.1333 36.7679C96.8225 36.1053 96.5703 35.6831 96.8049 34.8328Z" fill="#4D4A4A"/>
<path d="M92.7763 38.0639C93.4507 41.4475 96.7581 42.3388 99.8778 41.9283C102.458 41.5882 105.144 39.3598 107.173 37.8234C111.36 34.651 114.415 30.2294 118.625 27.1097C122.367 24.336 127.334 25.3915 131.145 27.5671C134.851 29.6782 137.555 33.1849 136.405 37.6299C135.907 39.5475 134.781 41.2129 132.887 41.9518C131.122 42.6379 128.401 43.1422 126.718 42.0339C126.372 41.8052 126.689 41.2481 127.046 41.4709C128.495 42.3857 130.647 41.9401 132.195 41.4533C134.007 40.8904 135.109 39.5123 135.643 37.7355C136.792 33.9062 134.705 30.7044 131.573 28.6696C129.034 27.0217 124.912 25.5147 121.88 26.3122C118.995 27.0686 116.766 29.6137 114.767 31.6896C110.914 35.6772 106.909 39.6472 101.872 42.1453C99.9305 43.107 97.1803 42.978 95.1865 42.2098C93.2982 41.4827 92.4127 40.2043 92.0492 38.2691C91.9612 37.7883 92.6825 37.583 92.7763 38.0639Z" fill="#4D4A4A"/>
<path d="M89.0114 36.4274C89.6506 37.5944 90.366 38.9314 91.7852 39.2363C92.1253 39.3067 92.5006 39.295 92.8466 39.2715C93.6851 39.2187 93.8024 39.2129 94.295 38.562C94.6058 38.1573 94.8873 37.7468 94.3888 37.3422C93.8611 36.9141 92.2719 37.4243 92.9228 38.4857C93.1398 38.8376 92.5944 39.1484 92.3716 38.8082C91.6796 37.7234 92.5651 36.6327 93.7379 36.5095C94.8932 36.3864 95.7669 37.6296 95.3681 38.7437C94.9107 40.028 92.8994 40.1511 91.7793 39.9635C90.0553 39.6761 89.158 38.2101 88.3898 36.791C88.1729 36.3805 88.7886 36.0228 89.0114 36.4274Z" fill="#4D4A4A"/>
<path d="M85.4285 25.702H78.1394L78.286 24.7168L80.5085 24.0893V11.071L78.2332 10.6722L78.3681 9.646C79.5937 9.45249 80.6844 9.30002 81.652 9.19446C82.6196 9.08891 83.5461 9.03613 84.4316 9.03613C86.5485 9.03613 88.1905 9.3528 89.3575 9.99199C90.5244 10.6312 91.105 11.6867 91.105 13.1586C91.105 13.745 90.9584 14.3314 90.6593 14.9296C90.3602 15.5218 89.9263 16.0672 89.3575 16.5657C88.7886 17.0641 88.0967 17.4511 87.2874 17.7385V17.7502L89.68 21.0634C90.3075 21.9431 90.7942 22.5822 91.1284 22.9927C91.4627 23.4032 91.8263 23.7433 92.2074 24.0248C92.5886 24.3063 93.046 24.5233 93.5796 24.6816L94.0194 24.8165L93.8201 25.7196C93.3157 25.8955 92.7821 25.9834 92.225 25.9834C91.2399 25.9834 90.3661 25.6609 89.5979 25.0217C88.8297 24.3767 88.126 23.4853 87.4927 22.3418L85.3757 18.5653H83.0594V24.0307L85.5575 24.5995L85.4285 25.702ZM83.0594 10.2207V17.3515H85.6924C86.4371 17.1052 87.0646 16.6888 87.5806 16.1024C88.0967 15.516 88.3547 14.783 88.3547 13.9092C88.3547 13.1821 88.2081 12.537 87.9149 11.9682C87.6217 11.3994 87.1995 10.9596 86.6424 10.637C86.0853 10.3204 85.4226 10.1562 84.6544 10.1562C84.2615 10.1562 83.9214 10.1679 83.6224 10.1855C83.3292 10.1972 83.1415 10.2148 83.0594 10.2207Z" fill="#4D4A4A"/>
<path d="M92.9756 26.9808C92.0021 26.9808 91.1284 26.6583 90.3719 26.025C89.633 25.4034 88.9469 24.5355 88.3312 23.433L86.3784 19.9497H84.4785V24.7994L86.8652 25.3447L86.701 26.7169H79.4236L79.6112 25.4561L81.693 24.8697V12.8307L79.5174 12.4495L79.6816 11.1711L79.8165 11.1477C80.9776 10.9659 82.0273 10.8193 82.9362 10.7196C83.8569 10.6199 84.7482 10.5671 85.5868 10.5671C87.6158 10.5671 89.2167 10.8779 90.3426 11.4995C91.5037 12.1329 92.0959 13.2001 92.0959 14.6603C92.0959 15.2408 91.9493 15.8331 91.6561 16.4195C91.3629 17.0001 90.9349 17.5454 90.3778 18.0263C89.8734 18.4661 89.2694 18.818 88.5833 19.0877L90.7179 22.0374C91.3102 22.8642 91.7734 23.4799 92.0842 23.8552C92.3891 24.2247 92.7234 24.5472 93.0753 24.7994C93.4154 25.0515 93.8376 25.2509 94.3184 25.3916L94.899 25.5676L94.6527 26.6876L94.5589 26.7228C94.0546 26.8928 93.5268 26.9808 92.9756 26.9808ZM84.1149 19.5862H86.5954L88.6478 23.2571C89.2401 24.3185 89.8969 25.1512 90.6006 25.7435C91.2867 26.3182 92.0842 26.6114 92.9697 26.6114C93.4388 26.6114 93.8962 26.541 94.3243 26.4003L94.4533 25.808L94.2012 25.7318C93.6793 25.5734 93.2277 25.3564 92.8466 25.0808C92.4712 24.8052 92.1194 24.471 91.791 24.0722C91.4685 23.6852 91.017 23.0812 90.4129 22.2367L88.1083 19.0525V18.8649L88.2315 18.8062C88.9704 18.5482 89.6096 18.1846 90.1315 17.7331C90.6534 17.2816 91.0521 16.7772 91.3219 16.2377C91.5858 15.7041 91.7265 15.1646 91.7265 14.6427C91.7265 13.3057 91.2163 12.3792 90.1667 11.8045C89.0935 11.2181 87.5513 10.919 85.5868 10.919C84.7599 10.919 83.8803 10.9718 82.9714 11.0715C82.1035 11.1653 81.1066 11.306 80.0041 11.4761L79.9162 12.1387L82.0507 12.514V25.1395L79.9279 25.7376L79.8399 26.3416H86.3667L86.4547 25.6203L84.1031 25.0808V19.5862H84.1149ZM86.8241 18.8062H84.1149V11.7048L84.2791 11.6872C84.3553 11.6813 84.5371 11.6637 84.8244 11.6461C85.1059 11.6285 85.4402 11.6227 85.8096 11.6227C86.5719 11.6227 87.2346 11.781 87.7858 12.0977C88.337 12.4143 88.7651 12.8659 89.0583 13.4347C89.3457 13.9976 89.4923 14.6427 89.4923 15.3581C89.4923 16.2319 89.2284 16.9708 88.7182 17.5572C88.208 18.1319 87.5806 18.5482 86.8476 18.7945L86.8241 18.8062ZM84.4843 18.4427H86.7655C87.4222 18.2198 87.9911 17.8386 88.4485 17.3226C88.9 16.8066 89.1346 16.1439 89.1346 15.364C89.1346 14.7072 88.9997 14.1208 88.7417 13.6106C88.4836 13.1063 88.1025 12.7075 87.6099 12.4261C87.1173 12.1387 86.5133 11.998 85.8155 11.998C85.4519 11.998 85.1294 12.0038 84.8479 12.0214C84.6954 12.0273 84.5723 12.039 84.4843 12.0449V18.4427Z" fill="#4D4A4A"/>
<path d="M57.7439 52.9529V52.6715L59.5735 52.3607L59.5794 52.6421L59.034 52.8767L60.33 54.4718L60.9868 52.56L60.3007 52.519L60.2889 52.2375L61.8957 51.9678L61.9074 52.2492L61.4793 52.4604L60.5997 54.8353L60.8519 56.3307L61.4618 56.3541L61.4735 56.6473L59.6497 56.9523L59.638 56.6767L60.1482 56.4186L59.9136 55.0406L58.2658 53.0116L57.7439 52.9529Z" fill="#4D4A4A"/>
<path d="M65.5313 56.1552C65.1209 56.208 64.7456 56.1552 64.4054 55.991C64.0595 55.8268 63.778 55.5746 63.561 55.2463C63.3382 54.912 63.2033 54.5308 63.1446 54.0969C63.086 53.6336 63.1212 53.2114 63.2678 52.8244C63.4085 52.4432 63.6431 52.1265 63.9715 51.8803C64.2999 51.634 64.6986 51.4815 65.1736 51.417C65.5959 51.3642 65.9829 51.417 66.3289 51.5929C66.6748 51.763 66.9563 52.021 67.1733 52.3611C67.3903 52.7012 67.5251 53.0824 67.5838 53.5105C67.6366 53.9327 67.5955 54.3373 67.4606 54.7185C67.3199 55.0997 67.0912 55.4222 66.7628 55.6802C66.4168 55.9324 66.0122 56.0966 65.5313 56.1552ZM65.0329 51.7864C64.124 51.9037 63.7545 52.5722 63.9129 53.7802C63.9598 54.1555 64.0595 54.5015 64.2061 54.8182C64.3527 55.1348 64.5462 55.3811 64.7925 55.5512C65.0388 55.7271 65.3261 55.7916 65.6545 55.7506C66.1588 55.6861 66.4872 55.4691 66.6455 55.1055C66.8039 54.7419 66.8508 54.3021 66.7804 53.7802C66.7335 53.4166 66.6338 53.0707 66.4872 52.754C66.3406 52.4373 66.1412 52.1852 65.8949 51.9975C65.6486 51.8157 65.3613 51.7454 65.0329 51.7864Z" fill="#4D4A4A"/>
<path d="M68.6922 51.5222L68.0061 51.4342L68.0296 51.1527L69.9999 50.9651L69.994 51.2465L69.39 51.4459L69.607 53.7036C69.6539 54.2021 69.8005 54.5656 70.0527 54.7826C70.3048 55.0054 70.6215 55.0934 71.0144 55.0582C71.3956 55.023 71.6712 54.8823 71.853 54.636C72.0348 54.3897 72.1051 54.0379 72.0641 53.5746L71.853 51.2289L71.1727 51.141L71.1845 50.8595L72.9261 50.6953L72.9144 50.9768L72.3221 51.1703L72.5156 53.4104C72.5743 54.073 72.4746 54.5832 72.2107 54.9351C71.9468 55.2869 71.507 55.4922 70.8795 55.5567C70.3576 55.6036 69.9178 55.5215 69.5601 55.2928C69.2024 55.0699 68.9854 54.6125 68.9209 53.9206L68.6922 51.5222Z" fill="#4D4A4A"/>
<path d="M75.8289 55.0646L73.8293 55.1877L73.8527 54.918L74.4509 54.7069L74.2339 51.1356L73.6006 51.0652L73.6182 50.7838C73.9524 50.7075 74.2456 50.6489 74.5095 50.602C74.7734 50.5551 75.0256 50.5257 75.2719 50.514C75.8524 50.4788 76.3098 50.5375 76.6382 50.6958C76.9666 50.8483 77.1484 51.1297 77.1718 51.5344C77.1836 51.6927 77.1484 51.8569 77.078 52.027C77.0076 52.197 76.8962 52.3495 76.7496 52.4961C76.603 52.6427 76.4212 52.76 76.2043 52.8538V52.8597L76.9138 53.7275C77.1015 53.9562 77.2422 54.1263 77.3419 54.2319C77.4416 54.3374 77.5471 54.4254 77.6527 54.4957C77.7641 54.5661 77.8931 54.6189 78.0397 54.6541L78.1629 54.6834L78.1218 54.9356C77.9869 54.9942 77.8403 55.0235 77.6879 55.0352C77.4181 55.0528 77.1718 54.9766 76.949 54.8124C76.7262 54.6482 76.5209 54.4136 76.3274 54.1146L75.6823 53.1118L75.049 53.1529L75.1428 54.6541L75.8407 54.7714L75.8289 55.0646ZM74.92 50.86L75.0373 52.8127L75.7586 52.7658C75.958 52.6837 76.1222 52.5606 76.257 52.3905C76.386 52.2205 76.4447 52.0152 76.433 51.7748C76.4212 51.5754 76.3685 51.3995 76.2805 51.247C76.1925 51.0946 76.0694 50.9831 75.911 50.901C75.7527 50.8248 75.5709 50.7896 75.3598 50.8013C75.2543 50.8072 75.1604 50.8189 75.0783 50.8248C74.9962 50.8483 74.9435 50.8541 74.92 50.86Z" fill="#4D4A4A"/>
<path d="M79.8691 50.3087L83.9271 50.2207L83.8274 51.458L83.4814 51.4111L83.3231 50.5725L82.2089 50.596L82.291 54.3901L82.9713 54.5015L82.9244 54.7947L80.954 54.8358L80.9716 54.566L81.5873 54.3784L81.5052 50.6136L80.4262 50.6371L80.2503 51.5284L79.9161 51.4874L79.8691 50.3087Z" fill="#4D4A4A"/>
<path d="M84.5312 50.4905L84.5723 50.2148L88.208 50.2442L88.0849 51.4111L87.7682 51.3583L87.6275 50.5726L85.9035 50.5608L85.8917 52.3025L86.9531 52.3083L87.1115 51.8685L87.4574 51.8216L87.3226 53.2407L87.0118 53.2876L86.8945 52.6485L85.8917 52.6426L85.88 54.4253L87.692 54.437L88.0556 53.5984L88.3605 53.6454L88.2432 54.7889L84.5312 54.7595L84.5606 54.4898L85.1704 54.3256L85.1998 50.6547L84.5312 50.4905Z" fill="#4D4A4A"/>
<path d="M88.5891 54.7888L88.6419 54.5132L89.111 54.3666L90.5125 52.6074L89.3397 50.7074L88.8471 50.5315L88.8999 50.25L90.7764 50.3145L90.7295 50.596L90.149 50.7426L91.0051 52.1265L92.0431 50.7895L91.4273 50.6194L91.486 50.338L93.0752 50.3907L93.0341 50.6664L92.565 50.7895L91.269 52.4725L92.4477 54.5015L92.9344 54.6422L92.8758 54.9354L91.0403 54.8709L91.099 54.6012L91.6912 54.4487L90.7882 52.924L89.6681 54.3901L90.2721 54.5367L90.2076 54.8357L88.5891 54.7888Z" fill="#4D4A4A"/>
<path d="M93.7027 50.426L97.7548 50.6899L97.5495 51.9155L97.2036 51.8393L97.1215 50.989L96.0073 50.9186L95.761 54.7068L96.4295 54.8769L96.3591 55.1642L94.3946 55.0352L94.4357 54.7655L95.0631 54.6365L95.3036 50.8776L94.2304 50.8072L93.9783 51.6809L93.6558 51.6047L93.7027 50.426Z" fill="#4D4A4A"/>
<path d="M99.8541 51.1418L99.9245 50.8721L101.901 51.0832L101.836 51.3529L101.209 51.4233L101.039 53.0125L103.32 53.2588L103.49 51.6813L102.839 51.4585L102.909 51.1887L104.891 51.4057L104.815 51.6755L104.194 51.7458L103.795 55.4402L104.44 55.6337L104.369 55.9211L102.399 55.71L102.464 55.4461L103.085 55.3405L103.267 53.6399L100.986 53.3936L100.798 55.1177L101.455 55.3112L101.379 55.5985L99.4143 55.3874L99.473 55.1236L100.1 55.018L100.493 51.3647L99.8541 51.1418Z" fill="#4D4A4A"/>
<path d="M105.472 51.7746L105.554 51.5049L109.155 52.0209L108.879 53.1644L108.568 53.0706L108.533 52.2731L106.827 52.0327L106.58 53.7567L107.63 53.9092L107.847 53.4987H108.199L107.876 54.8885L107.56 54.8943L107.524 54.2434L106.533 54.1027L106.281 55.8678L108.07 56.1258L108.545 55.3459L108.838 55.4338L108.568 56.5539L104.897 56.032L104.962 55.7681L105.589 55.686L106.111 52.0502L105.472 51.7746Z" fill="#4D4A4A"/>
<path d="M111.06 56.9589L109.09 56.6129L109.178 56.3549L109.811 56.2904L110.433 52.766L109.835 52.549L109.917 52.2793C110.257 52.2852 110.562 52.2969 110.826 52.3145C111.09 52.3321 111.348 52.3614 111.588 52.4024C112.163 52.5021 112.591 52.6663 112.878 52.895C113.166 53.1237 113.271 53.4345 113.201 53.8333C113.172 53.9916 113.107 54.1441 112.996 54.2907C112.884 54.4373 112.743 54.5663 112.562 54.6719C112.386 54.7774 112.18 54.8536 111.946 54.8888V54.8947L112.439 55.9033C112.568 56.1731 112.667 56.3666 112.738 56.4956C112.808 56.6246 112.89 56.7302 112.978 56.824C113.066 56.9178 113.183 56.9999 113.318 57.0703L113.43 57.1289L113.33 57.3635C113.183 57.3869 113.037 57.3869 112.884 57.3576C112.62 57.3107 112.397 57.1817 112.222 56.9706C112.046 56.7595 111.899 56.4839 111.782 56.1437L111.389 55.0178L110.761 54.9064L110.497 56.3842L111.148 56.6598L111.06 56.9589ZM111.16 52.6546L110.82 54.5839L111.535 54.707C111.747 54.6777 111.94 54.5956 112.104 54.4608C112.268 54.3259 112.374 54.1441 112.415 53.9037C112.45 53.7043 112.444 53.5225 112.392 53.3583C112.339 53.1882 112.245 53.0534 112.11 52.9361C111.975 52.8247 111.805 52.7484 111.594 52.7132C111.489 52.6956 111.395 52.6781 111.313 52.6722C111.23 52.6605 111.178 52.6546 111.16 52.6546Z" fill="#4D4A4A"/>
<path d="M114.673 53.2756L114.772 53.0117L118.332 53.7682L117.98 54.8882L117.681 54.7768L117.699 53.9793L116.016 53.6216L115.652 55.3222L116.69 55.545L116.93 55.1463L117.282 55.1697L116.866 56.5361L116.549 56.5185L116.561 55.8675L115.582 55.6623L115.212 57.4039L116.983 57.7792L117.511 57.0345L117.798 57.1459L117.452 58.2425L113.823 57.4684L113.905 57.2104L114.538 57.1694L115.3 53.5747L114.673 53.2756Z" fill="#4D4A4A"/>
<path d="M176.885 59.6553C176.422 59.0748 174.968 59.0924 174.358 59.0103C173.08 58.8402 171.819 58.7053 170.552 58.8226C172.434 57.4152 173.689 55.5446 175.208 53.7208C175.325 53.5801 175.167 53.3749 175.015 53.369C173.736 53.3162 172.434 54.1665 171.279 54.7177C171.268 54.7177 171.256 54.7119 171.244 54.7119C170.235 54.9699 169.403 55.5446 168.306 55.5328C167.297 55.5211 166.183 55.2514 165.181 55.1224C163.105 54.8526 161.545 54.0785 159.762 53.0523C157.985 52.032 153.681 51.9616 153.03 54.4363C153.007 54.4538 152.989 54.4714 152.983 54.4949C152.971 54.5242 152.977 54.5477 152.971 54.5711C152.966 54.5829 152.96 54.5946 152.96 54.6122C152.502 54.4187 152.051 54.231 151.634 54.1079C150.022 53.6211 148.38 53.3045 146.703 53.1989C144.996 53.0934 143.337 53.281 141.636 53.4745C140.973 53.5508 140.311 53.6739 139.654 53.7853C139.056 53.8029 138.458 53.8323 137.883 53.9789C137.871 53.9847 137.86 53.9847 137.848 53.9906C137.32 54.0082 136.786 53.9789 136.259 53.8616C136.224 53.2693 136.065 52.7181 135.69 52.4073C135.584 52.2841 135.449 52.202 135.274 52.1551C135.221 52.1082 135.156 52.073 135.068 52.0672C131.38 51.9616 127.99 51.1641 124.413 50.3372C120.426 49.4166 116.426 48.4666 112.462 47.4462C105.677 45.6987 98.8691 44.8719 91.9377 43.9805C85.1529 43.1068 78.0456 43.6287 71.3253 44.7077C67.6485 45.2941 64.0186 46.1033 60.3829 46.895C57.5388 47.5107 54.4601 48.0795 51.8095 49.3755C49.9623 49.6863 48.25 50.3959 46.4438 50.8709C44.9074 51.2755 43.3593 51.2696 42.0751 52.3252C41.2775 52.982 40.8377 53.8557 41.2365 54.8643C41.26 54.9171 41.2834 54.9699 41.3069 55.0285C40.5387 54.8233 39.6297 54.7588 38.9554 54.6884C37.5069 54.5418 36.3869 54.9406 35.0147 55.3276C33.4724 55.7615 31.7777 55.9433 30.1826 56.1427C29.9305 56.172 29.6725 56.2072 29.4203 56.2307C29.3382 55.8847 29.3734 55.4683 29.3792 55.1575C29.3851 54.7529 29.3382 54.36 29.3323 53.9613C29.3323 53.9554 29.3265 53.9495 29.3265 53.9437C29.3265 53.7384 29.2678 53.5508 29.1623 53.3924C28.5876 52.3604 26.1657 51.8971 25.333 51.9792C24.7466 52.0378 24.1543 52.2255 23.562 52.4425C22.483 52.6653 21.4099 53.023 20.3778 53.281C18.9822 53.6329 17.61 54.0434 16.2495 54.4949C16.1733 54.5125 16.097 54.5301 16.0208 54.5477C15.9563 54.5653 15.9035 54.5887 15.8625 54.618C15.364 54.7881 14.8714 54.9582 14.3788 55.1341C12.3264 55.8671 10.2212 56.5649 8.11595 57.1396C6.99004 57.4446 5.8524 57.685 4.72062 57.9137H4.71476C4.67958 57.9195 4.64439 57.9313 4.60921 57.9371C3.75891 58.1072 2.90861 58.2773 2.06418 58.4708C1.97622 58.4708 1.87653 58.4884 1.80029 58.5294C1.70647 58.5529 1.61264 58.5705 1.51882 58.5939C1.50122 58.5881 1.48363 58.5763 1.46604 58.5705C1.4074 58.5529 1.50122 58.6936 1.58332 58.7816C1.58332 58.8109 1.58332 58.8402 1.58918 58.8637C1.554 58.8871 1.51882 58.9106 1.49536 58.9458C1.47777 58.9692 1.51882 59.022 1.53054 59.0396C1.6361 59.1979 1.7827 59.3035 1.9469 59.3797C2.43362 59.7374 3.28392 59.8958 3.86446 59.9309C4.02279 59.9896 4.18113 60.0482 4.34532 60.0893C5.20735 60.3121 6.09283 60.447 6.97245 60.5994C8.01626 60.7812 9.03075 61.1389 10.0687 61.3207C10.7665 61.4439 11.4761 61.397 12.1681 61.4556C10.8721 62.6812 8.9252 63.4377 7.40639 64.1942C5.24253 65.279 3.27219 66.1762 0.850306 66.5105C0.404633 66.5691 0.363584 67.1438 0.850306 67.1379C3.21941 67.1145 5.57679 67.0148 7.95176 66.9972C9.72272 66.9796 11.3588 66.5808 13.0418 66.0941C15.147 65.4843 17.1877 64.7512 19.3692 64.4346C21.4392 64.1296 23.7849 63.5784 25.7904 64.329C25.591 64.8157 25.3447 65.279 25.2802 65.8244C25.2275 66.2876 25.3095 66.7626 25.4444 67.2318C25.4972 67.5602 25.5207 67.8944 25.5734 68.2228C25.5793 68.3166 25.5852 68.3929 25.5969 68.4222C25.6028 68.4515 25.6145 68.4691 25.6262 68.4984C25.6614 68.6509 25.7024 68.8034 25.7552 68.9441C25.7787 69.1083 25.8315 69.2725 25.9253 69.4074C25.937 69.4425 25.9605 69.4777 25.9839 69.5129C25.9605 69.6478 26.0777 69.7885 26.2478 69.8354C26.3651 69.9762 26.8166 69.9996 26.9456 69.9996C27.5027 69.9938 28.095 69.6888 28.5759 69.4367C28.6931 69.378 28.8104 69.3194 28.9277 69.2666C35.0909 68.2756 41.301 70.2694 47.5346 69.9351C50.666 69.7651 55.4394 68.8092 54.7005 64.6809C54.6888 64.6281 54.6653 64.587 54.6302 64.5519C56.8175 64.2704 59.0282 64.0945 61.2156 63.8775C68.8096 63.121 76.2101 61.2152 83.8217 60.6581C89.1405 60.2711 94.3185 60.5232 99.4965 61.2152C99.5552 61.2855 99.6314 61.3383 99.7076 61.3207C99.7956 61.2973 99.8836 61.2914 99.9715 61.2855C100.382 61.3442 100.798 61.4028 101.209 61.4673C101.584 61.5846 101.954 61.7136 102.341 61.7723C103.191 61.9013 104.035 62.0362 104.892 62.13C105.196 62.1652 105.496 62.2121 105.789 62.259C105.953 62.2883 106.117 62.3235 106.275 62.3528C106.733 62.4408 107.19 62.517 107.648 62.5932C108.486 62.7692 109.319 62.9568 110.187 63.1386C111.377 63.3849 112.556 63.2969 113.752 63.3614C114.174 63.4201 114.603 63.4905 115.025 63.5608C115.793 63.7661 116.508 64.071 117.312 64.2763C118.678 64.6222 120.085 64.6691 121.469 64.9975C120.953 66.0941 121.581 67.6129 122.455 68.475C122.672 68.6919 122.93 68.8561 123.211 68.9793C123.223 68.9969 123.234 69.0145 123.252 69.0379C124.179 69.9469 126.055 69.6419 127.181 69.4249C128.061 69.2549 128.934 69.0496 129.802 68.8385C131.104 68.5746 132.388 68.2345 133.678 67.8827C138.382 66.7275 143.173 65.5781 147.981 66.8389C149.054 67.1907 150.098 67.6716 151.113 68.3049C152.051 68.8913 152.842 69.1317 153.886 68.6626C155.569 67.9061 156.226 66.2642 156.466 64.546C156.56 63.8892 156.59 63.2266 156.625 62.5639C160.401 61.4673 164.26 63.5139 168.107 63.4201C169.414 63.3849 170.652 63.1738 171.813 62.5522C172.663 62.1007 173.32 61.3911 174.153 60.922C175.003 60.4411 176.023 60.4294 176.85 59.9954C176.956 59.9192 176.979 59.7726 176.885 59.6553ZM172.628 56.2776C172.605 56.2835 172.581 56.2893 172.563 56.2952C172.593 56.2776 172.628 56.2659 172.657 56.2483C172.651 56.2541 172.64 56.2659 172.628 56.2776ZM172.956 55.3921C172.921 55.3921 172.892 55.398 172.863 55.398C172.898 55.3862 172.933 55.3804 172.962 55.3745C172.962 55.3804 172.956 55.3862 172.956 55.3921ZM160.7 53.8792C160.436 53.7502 160.167 53.6153 159.897 53.4804C159.058 53.0523 158.155 52.8764 157.235 52.8412C157.276 52.8412 157.311 52.8354 157.352 52.8354C158.63 52.7884 159.662 53.2986 160.7 53.8792ZM156.443 54.3893C156.273 54.3366 156.109 54.2779 155.956 54.2251C155.95 54.2251 155.945 54.2193 155.939 54.2193C155.516 54.061 155.106 53.8616 154.731 53.6153C154.783 53.586 154.836 53.5508 154.883 53.5273C154.907 53.5156 154.924 53.5097 154.948 53.498C155.2 53.8674 155.991 54.19 156.443 54.3893ZM153.529 54.8526C153.693 54.489 153.986 54.1606 154.314 53.9026C154.443 54.0434 154.602 54.1606 154.76 54.231C154.76 54.231 154.766 54.231 154.772 54.231C154.907 54.3131 155.053 54.3835 155.194 54.4538C155.212 54.4832 155.229 54.5125 155.258 54.5359C155.2 54.5477 155.135 54.5535 155.071 54.5711C154.848 54.3893 154.643 54.1841 154.414 54.0258C154.367 53.9964 154.32 53.9906 154.332 54.061C154.391 54.448 154.795 54.665 155.088 54.8643C155.27 54.9875 155.429 55.093 155.593 55.1693C155.499 55.1634 155.423 55.1517 155.376 55.1399C155.106 55.0696 154.93 54.9054 154.748 54.706C154.701 54.6532 154.449 54.5184 154.467 54.6943C154.49 54.8878 154.625 55.0754 154.783 55.2396C154.666 55.222 154.555 55.2045 154.437 55.181C154.127 55.0813 153.828 54.9699 153.529 54.8526ZM156.484 54.6474C156.484 54.6415 156.484 54.6415 156.484 54.6356C156.484 54.6298 156.472 54.6298 156.466 54.6239C156.484 54.6298 156.496 54.6415 156.513 54.6474C156.502 54.6474 156.49 54.6474 156.484 54.6474ZM155.341 54.6063C155.546 54.7471 155.769 54.8585 155.997 54.964C155.728 54.9523 155.47 54.8819 155.194 54.6767C155.176 54.665 155.159 54.6532 155.147 54.6356C155.17 54.6356 155.194 54.6356 155.206 54.6356C155.247 54.618 155.294 54.6122 155.341 54.6063ZM158.437 55.9023C158.449 55.8906 158.449 55.8788 158.454 55.8671C158.466 55.8671 158.478 55.8612 158.49 55.8612C158.525 55.8671 158.566 55.8671 158.601 55.8671C158.542 55.8788 158.484 55.8906 158.425 55.9081C158.431 55.9081 158.431 55.9082 158.437 55.9023ZM158.8 55.8202C158.806 55.8202 158.812 55.8202 158.818 55.8202C158.806 55.8202 158.795 55.8261 158.789 55.8319C158.795 55.8261 158.795 55.8202 158.8 55.8202ZM158.707 60.4177C158.66 60.4177 158.613 60.4177 158.566 60.4177C158.806 60.3649 158.976 60.3532 158.982 60.4001C158.982 60.3942 158.865 60.4059 158.707 60.4177ZM157.37 59.6319L157.364 59.626C157.364 59.626 157.364 59.626 157.364 59.6201C157.37 59.6201 157.381 59.626 157.387 59.626C157.381 59.6319 157.375 59.6319 157.37 59.6319ZM158.214 55.4625C158.202 55.4566 158.185 55.4508 158.173 55.4449C158.167 55.439 158.161 55.4332 158.155 55.4273C158.185 55.439 158.208 55.4507 158.237 55.4625C158.232 55.4625 158.22 55.4625 158.214 55.4625ZM123.381 68.428C123.692 68.3987 124.108 68.2932 124.489 68.2756C124.671 68.3342 124.841 68.4046 125.011 68.4926C125.287 68.7037 125.598 68.8913 125.85 69.0496C124.947 69.0496 124.055 68.9265 123.381 68.428ZM125.299 68.0703C125.293 68.0527 125.281 68.041 125.275 68.0293C125.293 68.0469 125.316 68.0586 125.34 68.0703C125.322 68.0703 125.31 68.0703 125.299 68.0703ZM132.377 54.3366C132.429 54.3366 132.482 54.3307 132.529 54.3307C132.5 54.3366 132.47 54.3366 132.435 54.3424C132.418 54.3424 132.4 54.3366 132.377 54.3366ZM133.714 59.6084C133.678 59.5967 133.643 59.585 133.608 59.5732C133.643 59.585 133.678 59.5967 133.714 59.6084ZM133.497 59.5322C133.491 59.5322 133.491 59.5263 133.485 59.5263C133.514 59.5439 133.538 59.5556 133.555 59.5615C133.544 59.5556 133.532 59.5556 133.514 59.5498C133.508 59.538 133.503 59.5322 133.497 59.5322ZM133.749 59.4384C133.737 59.4325 133.725 59.4208 133.708 59.4149C133.725 59.409 133.743 59.4032 133.755 59.4032C133.755 59.409 133.749 59.4266 133.749 59.4384ZM135.473 57.7495C135.479 57.7436 135.485 57.7378 135.49 57.7319C135.52 57.7319 135.543 57.7319 135.573 57.726C135.543 57.7378 135.508 57.7436 135.473 57.7495ZM134.722 53.1931C134.711 53.1989 134.716 53.2107 134.722 53.2224C134.67 53.2107 134.617 53.1989 134.564 53.1872C134.617 53.1931 134.67 53.1931 134.722 53.1931ZM135.039 56.2131C135.033 56.2131 135.027 56.2072 135.021 56.2072C135.033 56.2014 135.039 56.1896 135.051 56.1838C135.045 56.1896 135.045 56.2014 135.039 56.2131ZM134.64 61.4263C134.576 61.4028 134.535 61.3852 134.505 61.3794C134.494 61.3149 134.488 61.2445 134.488 61.1741C134.494 61.18 134.494 61.1859 134.494 61.1917C134.47 61.2504 134.57 61.3852 134.64 61.4263ZM134.886 59.0806C134.875 59.0865 134.851 59.0982 134.828 59.11C134.834 59.0865 134.84 59.0572 134.851 59.0337C134.904 59.0396 134.951 59.0455 135.004 59.0513C134.998 59.0513 134.998 59.0572 134.992 59.0572C134.957 59.063 134.922 59.0689 134.886 59.0806ZM134.969 52.7533C134.98 52.7591 134.998 52.765 135.01 52.7708C135.016 52.7767 135.021 52.7884 135.033 52.7943C135.027 52.7943 135.021 52.7943 135.016 52.7943C134.986 52.7826 134.957 52.765 134.922 52.7533C134.933 52.7533 134.951 52.7533 134.969 52.7533ZM134.91 54.5242C134.886 54.5184 134.863 54.5125 134.834 54.5066C134.804 54.4832 134.74 54.4538 134.675 54.4304C134.816 54.4421 134.957 54.448 135.098 54.448C135.039 54.4714 134.974 54.4949 134.91 54.5242ZM134.054 54.4011C133.989 54.3835 133.925 54.3717 133.86 54.36C134.001 54.3717 134.142 54.3835 134.288 54.3952C134.212 54.3952 134.13 54.3952 134.054 54.4011ZM133.368 54.448C133.356 54.448 133.344 54.448 133.333 54.4538C133.315 54.4538 133.297 54.448 133.28 54.448C133.309 54.4421 133.338 54.448 133.368 54.448ZM135.121 54.9288V54.9347C135.109 54.9288 135.103 54.923 135.092 54.9171C135.103 54.9171 135.109 54.923 135.121 54.9288ZM134.728 56.172C134.746 56.1838 134.769 56.1896 134.793 56.2014C134.711 56.2014 134.623 56.2072 134.535 56.2131C134.605 56.1955 134.67 56.1838 134.728 56.172ZM134.394 57.6791C134.359 57.6791 134.324 57.6791 134.288 57.6791C134.329 57.6733 134.365 57.6674 134.406 57.6615C134.4 57.6674 134.394 57.6733 134.394 57.6791ZM133.25 59.2038C133.268 59.2155 133.291 59.2272 133.309 59.2448C133.215 59.2272 133.121 59.2038 133.028 59.1862C133.074 59.1862 133.121 59.1803 133.168 59.1745C133.192 59.1862 133.221 59.1979 133.25 59.2038ZM129.21 58.7171C129.609 58.764 130.013 58.8168 130.412 58.8754C130.676 58.9164 130.946 58.9516 131.216 58.9868C130.541 58.9399 129.873 58.8461 129.21 58.7171ZM130.008 58.9868C130.037 58.9927 130.066 58.9927 130.096 58.9985C130.072 58.9985 130.049 58.9985 130.019 58.9985C130.008 58.9985 130.019 59.0103 130.037 59.022C129.855 58.9809 129.667 58.9458 129.48 58.9164C129.333 58.8871 129.181 58.8637 129.034 58.8519C128.952 58.8343 128.87 58.8168 128.788 58.7933C128.87 58.7933 128.952 58.7933 129.04 58.7992C129.357 58.8637 129.685 58.9282 130.008 58.9868ZM133.555 61.0627C133.567 61.0686 133.579 61.0744 133.591 61.0803C133.573 61.0744 133.555 61.0686 133.538 61.0686C133.544 61.0627 133.549 61.0627 133.555 61.0627ZM133.368 62.0127C133.42 62.042 133.479 62.0713 133.538 62.1007C133.508 62.0948 133.473 62.0831 133.444 62.0772C133.42 62.0537 133.397 62.0303 133.368 62.0127ZM133.508 63.3849C133.514 63.3908 133.52 63.3966 133.526 63.4025C133.52 63.4201 133.508 63.4435 133.503 63.4611H133.497C133.485 63.4611 133.473 63.4553 133.467 63.4553C133.444 63.4494 133.432 63.4611 133.432 63.4729C133.415 63.4553 133.397 63.4377 133.374 63.4201C133.42 63.4084 133.467 63.3966 133.508 63.3849ZM133.092 63.4553C133.086 63.4553 133.086 63.4553 133.08 63.4553H133.074C133.08 63.4553 133.086 63.4494 133.092 63.4553C133.092 63.4553 133.092 63.4494 133.092 63.4553ZM131.034 63.555C131.051 63.5726 131.069 63.5843 131.081 63.5901C131.092 63.596 131.104 63.596 131.11 63.6019C131.438 63.7074 131.796 63.7895 132.142 63.8247C132.353 63.8658 132.564 63.8834 132.775 63.9127C132.752 63.9303 132.729 63.942 132.699 63.9596C132.13 63.9361 131.491 63.725 130.946 63.5608C130.987 63.555 131.01 63.555 131.034 63.555ZM132.212 64.4991L132.218 64.505C132.107 64.5167 131.978 64.5343 131.913 64.5343C132.019 64.5284 132.119 64.5167 132.212 64.4991ZM132.793 64.5812C132.787 64.587 132.781 64.5929 132.775 64.5988C132.77 64.5871 132.764 64.5812 132.758 64.5695C132.77 64.5753 132.781 64.5812 132.793 64.5812ZM131.661 66.3228C131.655 66.317 131.655 66.317 131.661 66.3228C131.878 66.2994 132.101 66.2583 132.3 66.2407C132.553 66.2173 132.805 66.1938 133.057 66.1704C132.582 66.2173 132.113 66.2642 131.661 66.3228ZM134.969 62.3645C134.951 62.3528 134.933 62.347 134.916 62.3352C134.945 62.3411 134.969 62.3528 134.998 62.3587C134.986 62.3587 134.974 62.3587 134.969 62.3645ZM138.469 60.6757C138.417 60.6288 138.335 60.576 138.311 60.5701C138.34 60.576 138.37 60.5819 138.399 60.5936C138.552 60.6405 138.698 60.6639 138.845 60.6874C138.716 60.6874 138.593 60.6815 138.469 60.6757ZM138.036 60.5173C138.036 60.5115 138.03 60.4998 138.03 60.4939C138.118 60.5173 138.206 60.5408 138.294 60.5643C138.211 60.5408 138.123 60.5291 138.036 60.5173ZM136.499 59.11C136.523 59.11 136.546 59.1158 136.57 59.1158C136.54 59.1158 136.511 59.1158 136.476 59.1217C136.487 59.1217 136.493 59.1158 136.499 59.11ZM135.596 59.0279C135.602 59.022 135.602 59.022 135.596 59.0279C135.608 59.022 135.608 59.022 135.614 59.0279C135.608 59.022 135.602 59.022 135.596 59.0279ZM139.226 57.5325C139.156 57.5208 139.085 57.5149 139.009 57.5091C139.021 57.5091 139.032 57.5091 139.038 57.5091C139.068 57.5149 139.103 57.5149 139.138 57.5091C139.173 57.5149 139.197 57.5266 139.226 57.5325ZM139.326 57.5618C139.32 57.556 139.308 57.556 139.302 57.5501C139.32 57.556 139.337 57.5618 139.355 57.5618C139.349 57.5677 139.337 57.5618 139.326 57.5618ZM136.358 54.7764C136.376 54.7177 136.388 54.6591 136.394 54.5946C136.452 54.577 136.511 54.5594 136.57 54.5418C136.599 54.5359 136.628 54.5301 136.657 54.5242C136.546 54.6063 136.446 54.6884 136.358 54.7764ZM42.9254 65.7951C42.9254 65.8068 42.9254 65.8126 42.9254 65.8244C42.9195 65.8185 42.9136 65.8185 42.9136 65.8185C42.9136 65.8126 42.9195 65.8009 42.9254 65.7951ZM43.0192 64.7278V64.7337H43.0133L43.0192 64.7278ZM43.7639 60.2652C43.7757 60.2769 43.7874 60.2886 43.7991 60.3062C43.7874 60.318 43.7815 60.3356 43.7698 60.3473C43.7639 60.318 43.7639 60.2886 43.7639 60.2652ZM39.1958 56.7878C39.2017 56.8054 39.2134 56.8171 39.231 56.8288C39.102 56.823 38.973 56.823 38.8439 56.823C38.9612 56.8054 39.0785 56.7995 39.1958 56.7878ZM42.6673 57.6146C42.6615 57.6146 42.6498 57.6146 42.6439 57.6205C42.6498 57.6087 42.6556 57.597 42.6615 57.5853C42.6615 57.597 42.6615 57.6029 42.6673 57.6146ZM42.2686 58.1131C42.2979 58.1248 42.3331 58.1189 42.3741 58.1072C42.4152 58.1248 42.4738 58.1248 42.5207 58.1131C42.5266 58.1131 42.5266 58.1189 42.5325 58.1189C42.4386 58.1189 42.339 58.1189 42.2451 58.1189C42.2569 58.1189 42.2627 58.1131 42.2686 58.1131ZM41.1896 59.3445C41.0195 59.3563 40.8436 59.3738 40.6618 59.3856C40.8495 59.3562 41.0313 59.3269 41.2189 59.2917C41.2072 59.3093 41.1955 59.3269 41.1896 59.3445ZM42.6146 60.7167C42.6146 60.7285 42.6204 60.7402 42.6263 60.7519C42.6028 60.7519 42.5735 60.746 42.5501 60.746C42.5677 60.7343 42.5911 60.7285 42.6146 60.7167ZM42.9664 65.1617C42.9606 65.1911 42.9606 65.2204 42.9547 65.2497C42.943 65.2145 42.9371 65.1793 42.9195 65.15C42.9371 65.15 42.9488 65.1559 42.9664 65.1617ZM43.3945 67.3549C43.4004 67.3432 43.4062 67.3256 43.4121 67.3139C43.4414 67.3315 43.4649 67.3432 43.4825 67.3549C43.4883 67.3608 43.4942 67.3666 43.5 67.3784C43.459 67.3784 43.418 67.3784 43.3769 67.3784C43.3828 67.3666 43.3886 67.3608 43.3945 67.3549ZM43.2831 67.5074C43.3007 67.525 43.3183 67.5367 43.3359 67.5543C43.3007 67.5543 43.2655 67.5543 43.2362 67.5543C43.2479 67.5367 43.2655 67.525 43.2831 67.5074ZM48.033 67.4253C48.0389 67.4253 48.0447 67.4253 48.0447 67.4253C47.9861 67.437 47.9333 67.4487 47.8747 67.4605C47.9275 67.4487 47.9802 67.437 48.033 67.4253ZM46.6491 68.0117C46.6432 68.0058 46.6374 68 46.6315 68C46.7429 67.9941 46.8602 67.9824 46.9716 67.9706C46.8661 67.9882 46.7605 68 46.6491 68.0117ZM45.2065 68.1876C45.2065 68.1935 45.2065 68.1935 45.2065 68.1876C45.2065 68.1935 45.2065 68.1935 45.2065 68.1876C45.2065 68.1935 45.2065 68.1935 45.2065 68.1876ZM49.1062 67.1614C49.1003 67.1379 49.0827 67.1086 49.0592 67.0852C49.7453 66.8271 50.4959 66.6629 51.229 66.5867C50.5722 66.745 49.845 66.962 49.1062 67.1614ZM44.3093 66.3873C44.3093 66.3815 44.3034 66.3756 44.3034 66.3697C44.3093 66.3697 44.3152 66.3697 44.321 66.3697C44.3152 66.3756 44.3152 66.3815 44.3093 66.3873ZM43.8812 66.2701C43.8754 66.2407 43.8636 66.2173 43.8578 66.188C43.8812 66.2114 43.9047 66.229 43.9281 66.2525C43.9105 66.2525 43.8929 66.2642 43.8812 66.2701ZM44.1568 64.1648C44.2331 64.1296 44.3152 64.0827 44.3328 64.0358C44.3386 64.03 44.3445 64.03 44.3503 64.0241C44.3562 64.0182 44.3679 64.0124 44.3738 64.0065C44.4149 63.9713 44.4266 63.9479 44.4266 63.9244C44.4324 63.9127 44.4383 63.9009 44.4442 63.8892C44.497 63.8834 44.5439 63.8716 44.5908 63.8658C44.4266 63.9889 44.2741 64.1238 44.1334 64.2704C44.1392 64.2411 44.151 64.2 44.1568 64.1648ZM43.7522 63.9772C43.7522 63.9479 43.7522 63.9185 43.7522 63.8892C43.7933 63.9009 43.8343 63.9127 43.8812 63.9185C43.8343 63.9303 43.7874 63.9479 43.7522 63.9772ZM45.2652 61.9658C45.2593 61.9541 45.2417 61.9482 45.2241 61.9423C45.2241 61.9365 45.23 61.9306 45.23 61.9247C45.2945 61.9189 45.3648 61.9189 45.4293 61.913C45.3766 61.9306 45.3238 61.9482 45.2652 61.9658ZM43.7933 61.9423C43.7933 61.8896 43.7933 61.8368 43.7933 61.7899C43.8343 61.825 43.8871 61.8485 43.9399 61.872C43.8871 61.8837 43.8402 61.913 43.7933 61.9423ZM44.1568 59.9368C44.1451 59.9251 44.1334 59.9133 44.1275 59.9016C44.1627 59.9133 44.1979 59.9192 44.2389 59.9309C44.2096 59.9309 44.1862 59.9309 44.1568 59.9368ZM44.2507 58.3594C44.2448 58.3594 44.2448 58.3535 44.2389 58.3535C44.2448 58.3535 44.2565 58.3535 44.2624 58.3535C44.2624 58.3535 44.2565 58.3535 44.2507 58.3594ZM44.0337 58.3711C44.0278 58.3652 44.022 58.3535 44.0161 58.3476C44.0454 58.3476 44.0689 58.3535 44.0923 58.3594C44.0747 58.3594 44.0513 58.3652 44.0337 58.3711ZM43.4942 58.2597C43.4883 58.2303 43.4825 58.201 43.4766 58.1717C43.5 58.1893 43.5294 58.2069 43.5587 58.2245C43.5352 58.2362 43.5118 58.2479 43.4942 58.2597ZM43.934 56.606C43.9164 56.5767 43.8929 56.5532 43.8754 56.5297C43.9457 56.518 44.0161 56.5122 44.0923 56.4946C44.0396 56.5356 43.9868 56.5708 43.934 56.606ZM42.6615 55.1458C42.6322 55.1458 42.6028 55.14 42.5735 55.1458C42.5677 55.1458 42.5618 55.1399 42.5559 55.1399C42.5559 55.1341 42.5559 55.1282 42.5501 55.1224C42.6028 55.1282 42.6556 55.1282 42.7143 55.1341C42.6967 55.1341 42.6791 55.14 42.6615 55.1458ZM48.9595 50.4721C49.0065 50.4545 49.0534 50.4428 49.1062 50.4252V50.4311C49.1003 50.4311 49.0886 50.4369 49.0827 50.4369C49.0358 50.4487 48.9947 50.4662 48.9595 50.4721ZM23.9608 58.2655C23.9667 58.289 23.9725 58.3124 23.9784 58.3418C23.9608 58.3418 23.9491 58.3359 23.9315 58.3359C23.9432 58.3124 23.9491 58.289 23.9608 58.2655ZM23.8318 55.7557C23.8494 55.7733 23.8787 55.7909 23.908 55.8026C23.8435 55.8085 23.779 55.8143 23.7145 55.8143C23.7497 55.7909 23.7907 55.7733 23.8318 55.7557ZM24.4006 59.4618C24.3947 59.4149 24.3889 59.368 24.383 59.3211C24.4123 59.3797 24.4417 59.4325 24.471 59.4911C24.4475 59.4794 24.4241 59.4677 24.4006 59.4618ZM23.9198 55.914C23.9139 55.914 23.9139 55.914 23.9198 55.914C23.908 55.9199 23.9022 55.9199 23.8963 55.914C23.9022 55.914 23.908 55.914 23.9198 55.914ZM23.3685 57.427C23.3744 57.4328 23.3861 57.4328 23.3978 57.4387C23.392 57.4445 23.3861 57.4445 23.3803 57.4504C23.3803 57.4504 23.3803 57.4504 23.3803 57.4563C23.3568 57.4563 23.3392 57.4563 23.3157 57.4563C23.3333 57.4446 23.3509 57.4387 23.3685 57.427ZM23.5914 58.6995C23.5914 58.7053 23.5914 58.7171 23.5855 58.7229C23.5738 58.7229 23.562 58.7229 23.5562 58.7288C23.5679 58.7171 23.5796 58.7112 23.5914 58.6995ZM23.5269 58.805C23.5269 58.8109 23.5269 58.8109 23.5269 58.8168C23.5269 58.8226 23.5327 58.8285 23.5386 58.8343C23.5034 58.8343 23.4917 58.8461 23.5034 58.8519C23.4389 58.8519 23.3744 58.8578 23.3216 58.8695C23.392 58.8285 23.4624 58.7874 23.5269 58.7464C23.521 58.7581 23.5093 58.7698 23.5034 58.7816C23.4975 58.7874 23.5093 58.7992 23.5269 58.805ZM23.2512 58.9106C23.2571 58.9106 23.2571 58.9164 23.263 58.9164C23.2571 58.9164 23.2454 58.9164 23.2395 58.9164C23.2395 58.9164 23.2454 58.9106 23.2512 58.9106ZM23.9432 60.4822C23.9432 60.488 23.9432 60.4939 23.9491 60.4998C23.9373 60.4998 23.9256 60.4998 23.9139 60.4998C23.9256 60.4998 23.9373 60.4939 23.9432 60.4822ZM24.7466 55.7674C24.7055 55.7498 24.6704 55.744 24.6293 55.7381C24.5296 55.6032 24.4944 55.4449 24.5413 55.2631C24.8756 53.9964 26.7873 54.7764 27.4734 54.9112C27.9308 54.9992 28.3823 55.1224 28.7342 54.9699C28.7342 55.0754 28.7401 55.1751 28.7401 55.2748C28.7401 55.6032 28.7811 55.9609 28.916 56.2717C27.4969 56.4007 26.0778 56.3714 24.7466 55.7674ZM2.09936 59.2214C2.10523 59.2155 2.11696 59.2155 2.12282 59.2097C2.14041 59.2214 2.158 59.2331 2.1756 59.2507C2.18146 59.2566 2.18733 59.2624 2.19319 59.2742C2.18146 59.2742 2.16973 59.2683 2.158 59.2683C2.14041 59.2507 2.12282 59.239 2.09936 59.2214ZM9.08353 65.8244C9.08353 65.8185 9.08939 65.8185 9.09526 65.8185C9.08939 65.8185 9.08939 65.8244 9.08353 65.8244ZM21.3982 63.5667C19.3457 63.854 17.2581 64.0124 15.2936 64.7161C14.3143 65.062 13.3233 65.4022 12.3088 65.6836C12.3147 65.6778 12.3205 65.6719 12.3205 65.6602C12.3264 65.6485 12.3205 65.6309 12.3088 65.6074C12.4026 65.4725 12.4964 65.3318 12.5844 65.1911C12.6548 65.0796 12.7251 64.9682 12.8014 64.8568C13.0184 64.6457 13.2236 64.4229 13.4054 64.1883C13.4406 64.1414 13.1767 63.9009 13.1239 63.9361C12.8659 64.1179 12.6841 64.3525 12.5199 64.6046C12.4964 64.6281 12.4671 64.6516 12.4378 64.6809C12.3909 64.6516 12.3498 64.634 12.344 64.6457C12.2795 64.7512 12.2091 64.8509 12.1446 64.9565C12.0625 65.0269 11.9804 65.1031 11.8983 65.1735C11.6872 65.3611 11.4702 65.5429 11.2298 65.7012C11.0421 65.8244 10.8076 65.9241 10.6434 66.0824C10.0042 66.2055 9.35328 66.2994 8.70236 66.3463C8.93693 66.1938 9.15976 66.0296 9.36501 65.842C9.6934 65.6602 9.98661 65.4491 10.1156 65.1559C10.1567 65.062 9.82241 65.1735 9.79895 65.1911C9.33569 65.5136 8.86656 65.8185 8.34465 66.0179C8.3036 66.0238 8.26842 66.0296 8.24496 66.0355C8.20391 66.0531 8.16873 66.0707 8.12768 66.0883C8.06904 66.1059 8.01626 66.1293 7.95762 66.141C7.553 66.2349 7.13664 66.2935 6.72029 66.3404C6.18079 66.317 5.64129 66.2818 5.10766 66.2759C4.83204 66.27 4.55643 66.2818 4.28082 66.2935C5.23667 65.9534 6.16906 65.5312 7.13664 65.0386C8.90761 64.1355 11.2005 63.2735 12.69 61.8368C12.8659 61.7371 13.0359 61.6315 13.2177 61.5318C13.2764 61.4967 13.2822 61.4439 13.2529 61.3911C13.593 61.1214 13.9742 60.8692 14.3319 60.6346C14.4844 60.5349 14.2322 60.2593 14.1032 60.3473C13.9977 60.4177 13.8921 60.488 13.7866 60.5584H13.7807C13.64 60.5701 13.5168 60.6698 13.3878 60.7226C13.1708 60.8106 12.9363 60.8457 12.7076 60.8692C11.9159 60.746 11.1242 60.8281 10.3267 60.6815C9.4647 60.5232 8.62613 60.2417 7.7641 60.0775C7.20115 59.972 6.63233 59.884 6.06937 59.7843C6.80239 59.5556 7.55299 59.1276 8.08077 58.676C8.08663 58.676 8.08663 58.6702 8.09249 58.6702C8.10422 58.6643 8.11595 58.6526 8.12181 58.6467C8.27428 58.5118 7.95176 58.3769 7.83447 58.459C6.96658 59.0689 5.80549 59.28 4.77927 59.4266C4.74995 59.4325 4.72062 59.4442 4.69717 59.4618C4.11662 59.2624 3.58299 58.9927 3.02589 58.7698C3.24287 58.6995 3.45984 58.6232 3.67681 58.5529C5.17216 58.2479 6.67338 57.984 8.16873 57.5853C10.2622 57.0341 12.3323 56.3538 14.3847 55.656C15.2584 55.3569 16.1205 55.0637 16.9884 54.7764C18.6596 54.3835 20.3485 54.0844 22.0139 53.6329C22.9111 53.3924 23.7028 52.8999 24.5883 52.636C24.641 52.6184 24.6997 52.6067 24.7583 52.5891C25.5207 52.4776 26.2654 52.4483 26.9339 52.5715C26.9398 52.5715 26.9515 52.5773 26.9574 52.5773C27.233 52.677 28.0598 53.1696 28.3648 53.7208C27.8956 53.8264 27.4148 53.8674 26.928 53.8792C26.4706 53.8557 26.0191 53.8264 25.5617 53.7502C24.817 53.6211 24.1309 53.4863 23.3744 53.6153C23.2043 53.6446 23.392 53.7971 23.4506 53.8264C24.0605 54.1724 24.9518 54.1079 25.6262 54.1548C26.0895 54.19 26.5586 54.2193 27.0336 54.2251C27.1274 54.231 27.2271 54.2369 27.3209 54.2427C27.3327 54.2603 27.3385 54.2721 27.3503 54.2838C27.4206 54.3659 27.5086 54.4245 27.6024 54.4656C27.3151 54.4832 27.0395 54.4714 26.887 54.4538C26.6466 54.4304 26.3534 54.3014 26.1071 54.2662C25.4151 54.1665 24.0722 54.0903 23.867 55.0168C23.8494 55.0872 23.8435 55.1517 23.8377 55.2162C23.6031 55.4625 23.433 55.6149 23.0929 55.7557C22.958 55.8085 22.829 55.8612 22.7 55.914C22.2368 55.9961 21.7793 56.1017 21.3161 56.1955C21.1988 56.2131 21.0932 56.2307 21.0346 56.2541C20.9173 56.2776 20.8059 56.301 20.6886 56.3245C20.6241 56.3362 20.9232 56.4359 20.9994 56.4242C21.1402 56.4007 21.2868 56.3773 21.4275 56.3597C21.5389 56.3538 21.6562 56.3304 21.7735 56.3069C21.8673 56.2952 21.9553 56.2776 22.0491 56.26C22.1136 56.2835 22.184 56.301 22.2192 56.2952C22.7117 56.2365 23.4096 55.8612 23.9139 55.9844C23.8904 56.043 23.8611 56.1017 23.8318 56.1603C23.7556 56.2365 23.6735 56.3069 23.5914 56.3773C23.5562 56.3831 23.5327 56.4066 23.5269 56.4418C23.521 56.4476 23.5093 56.4535 23.5034 56.4652C23.2337 56.5649 22.958 56.7174 22.7293 56.7819C21.8849 57.0223 21.0111 57.0986 20.1433 57.2041C19.9791 57.2217 20.2254 57.4915 20.3368 57.4797C20.9936 57.3976 21.6503 57.3449 22.2954 57.2158C22.6179 57.1513 22.9346 57.0751 23.2454 56.9754C23.3627 56.9344 23.5269 56.8464 23.7028 56.776C23.4389 57.1807 22.9874 57.4211 22.4713 57.5912C22.2485 57.6439 22.0256 57.7084 21.7969 57.7729C21.2164 57.9078 20.63 57.9958 20.2078 58.1541C20.196 58.16 20.4775 58.2538 20.542 58.2479C21.0522 58.201 21.5624 58.0661 22.0608 57.9489C22.5358 57.8374 23.0753 57.5853 23.5855 57.5677C23.6207 57.7671 23.6735 57.9313 23.65 58.16C23.3803 58.9282 21.8263 59.2038 21.1988 59.4618C21.1871 59.4677 21.4685 59.5674 21.5331 59.5556C22.0374 59.4735 22.7704 59.0924 23.4213 58.9751C23.4565 58.9868 23.4858 58.9927 23.4917 58.9927C23.6383 59.0161 23.7556 59.0455 23.8787 59.0513C23.8142 59.3093 23.6265 59.5029 23.3744 59.6436C23.3627 59.6436 23.3509 59.6436 23.3392 59.6495C23.3099 59.6553 23.2923 59.6729 23.2864 59.6964C22.6355 60.013 21.6503 60.0541 21.1284 60.1479C21.017 60.1655 21.3161 60.3414 21.4099 60.3297C21.8908 60.2417 22.7645 60.2007 23.4154 59.9485C23.4448 59.972 23.4741 59.9837 23.5034 59.9837C23.6383 59.9837 23.7907 59.9778 23.9256 59.9837C23.4917 60.6698 22.2485 60.576 21.3689 60.834C21.1812 60.8927 21.4861 61.0979 21.5917 61.092C22.7587 61.0275 23.9022 60.834 25.0691 60.7519C25.1395 61.1389 24.3947 61.5436 23.996 61.6609C23.6383 61.7605 23.2747 61.8485 22.9111 61.9306C22.7352 61.9717 23.0167 62.2062 23.134 62.1886C23.2102 62.1769 23.2864 62.1593 23.3685 62.1417C23.7614 62.0655 24.2657 61.9717 24.6938 61.784C25.0574 61.7078 25.4151 61.6667 25.7318 61.7371C25.7494 61.7723 25.7611 61.8075 25.7787 61.8485C25.8373 62.1534 25.6086 62.3645 25.3095 62.5229C24.9577 62.7047 24.4944 62.7164 24.1015 62.775C23.9198 62.7985 24.2012 63.0331 24.2892 63.0331C24.8756 63.0624 25.4737 62.9861 26.0602 63.0448C26.0602 63.1152 26.066 63.1855 26.0602 63.2618C26.0543 63.4142 26.0308 63.555 26.0015 63.6898C24.4534 63.1503 23.0401 63.338 21.3982 63.5667ZM30.8511 68.4456L30.8453 68.4398C30.8511 68.4398 30.857 68.4398 30.8629 68.4398C30.857 68.4398 30.857 68.4456 30.8511 68.4456ZM42.8843 69.208C39.53 68.9148 36.164 68.4163 32.8274 68.4163C32.7042 68.387 32.5811 68.3577 32.4579 68.3342L32.4638 68.3284C32.4579 68.3284 32.452 68.3284 32.4403 68.3284C31.9008 68.2228 31.3731 68.1876 30.7866 68.258C30.4524 68.299 30.0947 68.3108 29.778 68.4398C29.6725 68.4867 29.5669 68.5571 29.4613 68.6157C28.9336 68.6861 28.4117 68.774 27.8839 68.8796C27.8722 68.8796 27.8604 68.8737 27.8546 68.8737C27.3679 68.9558 26.9046 68.8503 26.4648 68.5629C26.3006 68.0703 26.1129 67.5836 26.0191 67.0793C25.7845 65.8302 26.1833 65.5488 26.4824 64.546C26.5234 64.4111 26.5527 64.2704 26.5821 64.1355C26.5879 64.1121 26.5938 64.0886 26.5938 64.0651C26.7169 63.4084 26.6876 62.7574 26.4706 62.0948C26.154 61.1272 25.5148 60.3004 25.0574 59.4032C24.5179 58.3359 24.4827 57.4856 24.5531 56.4125C26.9808 57.5032 29.737 56.8816 32.2644 56.5063C33.5193 56.3186 34.6921 56.1427 35.9002 55.785C37.1609 55.4156 38.2223 55.2396 39.53 55.4449C39.4245 55.4449 41.6353 55.9316 41.6353 55.8847C41.6353 55.8964 41.6411 55.9081 41.6411 55.9199C41.4593 56.1134 40.5152 56.4242 40.351 56.4476C39.9112 56.5063 39.4655 56.5591 39.0257 56.6001C38.6094 56.6353 38.1637 56.606 37.7591 56.7233C37.6828 56.7467 37.5656 56.864 37.7063 56.8992C39.0668 57.2276 40.6853 57.0692 42.1161 56.952C42.2803 57.1279 42.38 57.468 42.2686 57.6498C42.1161 57.9137 41.6998 58.0896 41.3538 58.1834C40.7498 58.2479 40.1458 58.3359 39.5476 58.3418C39.3658 58.3418 39.1958 58.6174 39.4421 58.6174C40.0871 58.6291 40.9316 58.6526 41.6235 58.4239C41.9812 58.3887 42.3448 58.3769 42.7025 58.3945C42.597 58.5646 42.2862 58.7229 42.1337 58.7757C41.5708 58.9692 41.0254 59.1334 40.4331 59.2097C39.5535 59.3269 38.6739 59.2917 37.8001 59.3856C37.6828 59.3973 37.5011 59.6143 37.7004 59.6553C38.5976 59.8371 39.6063 59.7022 40.5152 59.6495C41.2072 59.6084 41.9402 59.4911 42.6322 59.5732C42.6791 59.5791 42.726 59.585 42.767 59.5967C42.6322 60.3004 42.2744 60.6522 41.6763 60.6464C41.4359 60.6757 41.1896 60.6933 40.9433 60.7109C40.48 60.746 40.0168 60.7343 39.5594 60.7636C39.0257 60.7988 38.4745 60.834 37.9467 60.9278C37.7943 60.9572 37.6535 61.1976 37.8881 61.2035C38.6387 61.2328 39.4069 61.1917 40.1575 61.1507C40.4331 61.1331 40.7381 61.0803 41.043 61.0275C41.2365 61.0099 41.4242 60.9865 41.6177 60.9572C41.864 60.9396 42.0985 60.9454 42.3155 61.0041C42.8609 60.9806 42.8726 61.4439 42.3565 62.3997C42.1161 62.4818 41.8698 62.5463 41.6235 62.5815C41.3421 62.6402 41.0606 62.6929 40.7791 62.7457C40.2455 62.8395 39.6649 62.863 39.1547 63.0565C39.0316 63.1034 38.9378 63.3263 39.143 63.3204C39.5887 63.3028 40.0344 63.2266 40.48 63.1797C40.8964 63.1327 41.2893 63.0858 41.7115 63.0976C41.8698 63.1034 42.034 63.1152 42.1924 63.1327C42.6967 63.121 42.726 63.5198 42.2803 64.3232C41.8112 64.7161 40.7029 64.6633 40.1047 64.7688C39.5418 64.8685 38.9788 64.933 38.4217 65.0269C38.2693 65.0503 38.1285 65.2849 38.3631 65.3025C39.5887 65.3846 40.8612 64.9799 42.0809 65.0269C42.1103 65.0503 42.1572 65.0679 42.2041 65.062C42.2451 65.0562 42.292 65.0503 42.3331 65.0444C42.4445 65.0562 42.5559 65.0738 42.6673 65.0914C42.767 65.3728 42.4856 65.8009 42.3038 65.9534C42.0868 66.1352 41.8229 66.2466 41.5473 66.3228C41.4593 66.3228 41.3655 66.3228 41.2775 66.3287C40.48 66.3521 39.6766 66.4694 38.8791 66.487C38.6856 66.4812 38.498 66.4812 38.3103 66.4753C38.193 66.4753 38.451 66.7099 38.539 66.7157C39.5594 66.7333 40.8377 66.9034 41.8581 66.5633C42.251 66.5515 42.638 66.5633 43.0251 66.6102C43.0485 66.6219 43.072 66.6395 43.0896 66.6571C43.1189 66.7099 43.1541 66.7685 43.1893 66.8154C43.2303 67.1028 42.6791 67.4487 42.4856 67.525C42.4211 67.5543 42.3507 67.5719 42.2862 67.5953C41.4945 67.695 40.697 67.9003 39.9053 67.9413C39.7236 67.9472 39.5418 67.9472 39.36 67.9472C39.2368 67.9472 39.5007 68.1818 39.5887 68.1876C39.7587 68.1993 39.9288 68.1935 40.0989 68.1876C40.6735 68.1759 41.2365 68.1348 41.8112 68.0234C42.034 67.9824 42.339 67.9355 42.6263 67.8475C42.9957 67.8064 43.3593 67.7771 43.7288 67.8123C44.0454 67.8416 44.3679 67.9531 44.6846 67.9531C44.7257 67.9531 44.7315 67.9296 44.7198 67.9061C44.8371 67.9296 44.9192 67.9472 44.9192 67.9531C44.9954 68.2404 42.8433 68.4984 42.5911 68.5571C42.4914 68.5805 42.7846 68.7799 42.8139 68.7916C43.2538 68.9441 43.8109 68.7095 44.2448 68.6157C44.6436 68.5277 45.0306 68.475 45.4352 68.428C45.5642 68.4105 45.7519 68.3635 45.9395 68.3284C46.1975 68.3929 46.4556 68.428 46.6198 68.3694C47.1006 68.5746 48.1738 68.258 48.5549 68.1818C49.2586 68.0351 49.9037 67.8182 50.5663 67.5484C50.9709 67.3842 51.2935 67.2494 51.7098 67.1262C51.9502 67.0558 52.3901 66.8271 52.7126 66.7978C52.8592 66.8154 53.0644 66.8447 53.2404 66.8975C52.6657 67.267 52.0558 67.5602 51.4049 67.8064C50.6601 68.0938 49.8509 68.1466 49.1003 68.3987C49.0123 68.428 49.2 68.7213 49.2762 68.7271C50.0034 68.774 50.8537 68.5805 51.5515 68.3929C51.833 68.3166 52.2317 68.2404 52.6188 68.1348C50.1852 69.7944 45.1244 69.4015 42.8843 69.208ZM53.6039 67.1497C53.5863 67.1497 53.5687 67.1555 53.5453 67.1614C53.5629 67.1497 53.5863 67.1379 53.6039 67.1203C53.6098 67.1262 53.6039 67.1379 53.6098 67.1497C53.6039 67.1497 53.6039 67.1497 53.6039 67.1497ZM52.9706 67.5132C52.9823 67.5426 53.0058 67.5543 53.0527 67.5543C53.0703 67.5543 53.0938 67.5484 53.1113 67.5484C53.1172 67.5543 53.1172 67.5602 53.1231 67.566C52.8944 67.6716 52.6363 67.7537 52.3783 67.8182C52.5777 67.7185 52.7771 67.6188 52.9706 67.5132ZM53.8502 66.6688C53.6626 66.5163 53.3811 66.4108 52.9941 66.3697C52.6598 66.3346 52.2376 66.3815 51.7743 66.4694C51.7685 66.3873 51.6336 66.2642 51.5398 66.2701C50.6953 66.3228 49.8802 66.487 49.0651 66.7333C49.0475 66.7392 49.0299 66.745 49.0065 66.7509C48.9889 66.745 48.9713 66.7392 48.9595 66.7392C48.9478 66.7392 48.9361 66.745 48.9244 66.745C48.7484 66.7509 48.5667 66.7978 48.3907 66.8565C48.0858 66.9092 47.7691 66.9562 47.4701 67.0324C47.2003 67.0676 46.9306 67.1028 46.6667 67.1262C46.6491 67.1203 46.6374 67.1203 46.6315 67.1145C46.6256 67.1028 46.6198 67.0969 46.6139 67.0852C47.5932 66.6805 48.8188 66.5105 49.845 66.3346C49.9154 66.3228 49.9858 66.3111 50.0561 66.3052C50.1089 66.2994 50.1676 66.2935 50.2203 66.2818C50.5311 66.2466 50.8419 66.229 51.1469 66.188C51.5104 66.141 51.874 66.0413 52.2376 65.971C52.4135 65.9475 52.5953 65.9182 52.7712 65.9006C52.9941 65.8772 52.7595 65.625 52.6246 65.6309C52.4839 65.6367 52.349 65.6543 52.2141 65.6778C51.6219 65.7423 51.0296 65.8185 50.4432 65.9241C49.9389 66.0179 49.4345 66.1 48.9185 66.1293C48.6957 66.141 48.3262 66.0765 48.0389 66.0589C48.0858 66.0472 48.1386 66.0355 48.1796 66.0296C48.9595 65.842 49.8333 65.7364 50.6367 65.7188C50.7774 65.713 50.5839 65.6191 50.4666 65.5839C50.5135 65.5781 50.5663 65.5722 50.6132 65.5664C51.6805 65.6191 52.7243 65.4256 53.7857 65.2849C53.8678 65.2732 53.7271 65.2028 53.6333 65.1676C53.7329 65.1559 53.8268 65.1383 53.9206 65.109H53.9265C53.9323 65.109 53.944 65.1031 53.9499 65.1031C54.0027 65.0855 53.686 64.9624 53.6333 64.9682C53.2169 64.9975 52.7947 65.062 52.3783 65.1265C51.9502 65.15 51.5222 65.1969 51.0941 65.2556C50.8419 65.2673 50.578 65.2849 50.3376 65.3435C50.2672 65.3494 50.2027 65.3611 50.1324 65.3728C50.021 65.3728 49.9095 65.3787 49.7923 65.3846C50.4549 65.2321 51.0765 65.1265 51.5163 65.0444C52.3431 64.8861 53.1758 64.7571 54.0144 64.6398C53.9792 64.6926 53.9616 64.7512 53.9734 64.8216C54.0965 65.537 54.0379 66.1469 53.8502 66.6688ZM73.5478 61.4146C70.4633 61.9599 67.4139 62.6284 64.3001 63.0037C61.3328 63.3614 58.3597 63.5901 55.3925 63.9303C53.1583 64.1883 50.8888 64.4404 48.7367 65.1148C47.5639 65.4843 45.6756 66.0296 45.4411 67.4429C45.4293 67.5132 45.4763 67.5895 45.5408 67.6598C45.4704 67.6481 45.4059 67.6364 45.3355 67.6247C45.4176 67.566 45.4704 67.4898 45.3883 67.4839C45.1889 67.4605 45.0306 67.3842 44.8957 67.2787C44.8957 67.2787 44.8957 67.2787 44.8957 67.2728C44.8253 67.0852 44.7139 66.9327 44.5849 66.7744C44.5732 66.6395 44.5732 66.6512 44.5204 66.4988C44.5732 66.4225 44.6377 66.3463 44.7022 66.2759C45.3883 65.9593 46.1565 65.0151 46.4849 64.7102C46.6608 64.5401 46.3383 64.5929 46.2503 64.675C45.8105 65.0855 45.2006 65.4901 44.7022 65.9651C44.45 66.0472 44.2096 66.0003 44.0396 65.6602C43.9281 65.4432 43.9457 65.0914 43.9926 64.8216C44.28 64.3408 44.7139 64.0065 45.2006 63.7368C45.6053 63.6136 45.9923 63.4377 46.3793 63.2618C46.784 63.0741 47.2062 62.9334 47.6225 62.7926C47.6284 62.7926 47.6343 62.7985 47.6401 62.7985C48.0506 62.7692 48.4611 62.5698 48.8599 62.4466C49.2586 62.3235 49.6574 62.1945 50.0503 62.0362C50.0268 62.0479 49.8333 61.7899 49.7336 61.8309C49.2997 62.0068 48.8481 62.1476 48.4025 62.2824C48.25 62.3294 48.0917 62.388 47.9275 62.4466C47.7985 62.4818 47.6694 62.517 47.5404 62.5522C47.4759 62.5639 47.4114 62.5815 47.3469 62.5815C47.3469 62.5815 47.3586 62.5874 47.3704 62.5991C46.5435 62.8395 45.6639 63.1679 44.9309 63.6429C44.5263 63.7485 44.1568 63.6077 43.8402 63.2148C43.8519 63.0976 43.8754 62.9861 43.9105 62.8747L43.9164 62.8689C44.0278 62.6812 44.2389 62.5346 44.4794 62.4115C44.6494 62.3587 44.8136 62.2883 44.9778 62.2062C45.3238 62.0948 45.6756 62.0127 45.9278 61.9423C46.2269 61.8661 47.5463 61.7078 48.0858 61.4263C48.2207 61.3911 48.3555 61.3559 48.4846 61.3207C48.596 61.2855 48.8247 61.0393 48.5842 61.1038C48.1093 61.2328 47.6225 61.3442 47.1417 61.4556C46.5142 61.5612 45.8516 61.655 45.7753 61.6667C44.9602 61.7605 43.8578 61.9717 43.9223 60.9044C44.4324 60.5349 45.2945 60.3649 45.7988 60.2183C46.0334 60.1479 46.2679 60.0951 46.5025 60.0424C46.9012 60.0189 47.3 59.9251 47.6636 59.8312C48.3204 59.6612 49.0241 59.4794 49.6398 59.2038C49.6515 59.1979 49.4639 58.8871 49.3935 58.9164C49.0886 59.0513 48.7719 59.151 48.4552 59.2448C48.4435 59.2448 48.4376 59.2448 48.4318 59.2448C48.1738 59.3093 47.9099 59.3856 47.6343 59.4618C47.1593 59.5732 46.608 59.6612 46.0744 59.7081C46.0216 59.6495 45.9454 59.6025 45.8867 59.6201C45.7226 59.667 45.5525 59.7081 45.3766 59.7433C45.3648 59.7433 45.3531 59.7433 45.3414 59.7433C45.0071 59.7374 44.3328 59.7609 44.0571 59.5967C43.7522 59.4149 43.7639 59.2624 43.8167 59.0748C44.1275 58.7522 44.4794 58.4766 44.8664 58.2362C45.1244 58.16 45.3707 58.0603 45.576 57.9665C46.6022 57.5208 47.5932 57.0575 48.6546 56.7115C48.7015 56.7174 48.7543 56.7115 48.7836 56.7057C49.1062 56.6001 49.4345 56.5004 49.7629 56.4007C49.7864 56.3949 49.804 56.3831 49.8216 56.3773C50.0972 56.3186 50.3845 56.2659 50.6777 56.26C51.4283 56.2365 52.0617 56.2248 52.8005 56.043C52.9002 56.0196 52.6598 55.7557 52.5484 55.7791C51.7333 55.9785 50.9944 55.9433 50.1734 56.002C49.7043 56.0372 49.2528 56.1838 48.8012 56.2893C48.7954 56.2893 48.7954 56.2893 48.7895 56.2893C48.7778 56.2952 48.766 56.2952 48.7484 56.301C48.5784 56.3362 48.4025 56.3714 48.2324 56.3831C48.1738 56.389 48.1738 56.4301 48.2031 56.477C47.3704 56.7526 46.5787 57.081 45.7753 57.4621C45.2476 57.7143 44.6553 58.0016 44.0571 58.0251C43.6525 58.0427 43.4649 57.7143 43.4707 57.3859C43.9457 57.0634 44.3621 56.6646 44.8899 56.4007C45.1244 56.2835 45.3648 56.172 45.6111 56.0723C46.1096 55.9023 46.5846 55.7205 46.9833 55.568C47.2707 55.4683 47.5522 55.3687 47.8336 55.269C47.863 55.2631 47.8747 55.2396 47.8747 55.2103C47.9626 55.1634 48.0799 55.1341 48.1679 55.0989C48.3028 55.052 48.4376 55.0168 48.5784 54.9933C48.6136 54.9875 48.7954 54.964 48.8012 54.9112C48.8012 54.9112 48.8012 54.9112 48.8012 54.9054C48.8129 54.9054 48.8305 54.8995 48.8423 54.8995C48.9185 54.8819 48.8071 54.8467 48.7895 54.835C48.7191 54.8057 48.6077 54.7764 48.5373 54.794C48.2676 54.8526 47.9978 54.9171 47.7281 54.9816C47.6988 54.964 47.6694 54.9523 47.6518 54.9582C47.646 54.9582 47.6401 54.964 47.6401 54.964C46.9482 55.1224 46.2621 55.3511 45.617 55.6501C45.1596 55.8612 42.5911 56.8405 42.8902 55.6912C43.2772 55.4038 43.6936 55.1869 44.1275 54.9933C44.2213 54.9699 44.3093 54.9464 44.4031 54.9171C44.6905 54.8233 44.9661 54.6825 45.2417 54.5477C45.576 54.4187 45.9102 54.2897 46.2386 54.1431C46.4438 54.0492 46.2386 53.8498 46.0744 53.8968C45.7401 53.9847 45.4293 54.1313 45.1185 54.2838C44.7374 54.4304 44.3562 54.5711 43.9809 54.7295C43.6408 54.8116 43.2479 54.8761 42.9136 54.8233C42.6439 54.7822 42.251 54.5829 42.0809 54.3424C42.122 54.3014 42.1572 54.2545 42.1865 54.2076C42.2099 54.19 42.2275 54.1724 42.251 54.1548C42.3507 54.1548 42.4504 54.1489 42.5501 54.1431C42.7377 54.1372 42.7612 53.9847 42.638 53.9378C42.7143 53.9026 42.7964 53.8733 42.8726 53.844C42.8902 53.844 42.9019 53.844 42.9195 53.844C42.9957 53.844 43.0251 53.8205 43.0309 53.7912C43.242 53.7208 43.4473 53.6681 43.6115 53.6153C43.7112 53.586 43.8167 53.5508 43.934 53.5097C44.3738 53.4218 44.8488 53.3866 45.2652 53.2048C45.4059 53.1462 45.3414 53.0113 45.2065 53.0054C44.7374 52.982 44.1686 53.1637 43.6584 53.3397C43.4707 53.3807 43.2831 53.4335 43.0954 53.4687C42.9606 53.4921 41.9519 53.4628 42.38 53.1931C42.4269 53.1637 42.4386 53.1344 42.4328 53.111C43.8343 51.6508 46.9423 51.9675 48.6898 51.4338C49.4287 51.211 50.1734 50.8826 50.924 50.5542C51.2172 50.478 51.5046 50.3783 51.7861 50.2434C51.8095 50.2317 51.8154 50.2024 51.8095 50.1672C52.8181 49.7332 53.8326 49.3521 54.8471 49.2582C54.9175 49.2524 54.9644 49.2289 54.9996 49.1996C55.844 49.0647 56.6709 48.7715 57.4743 48.5018C57.8965 48.361 58.3304 48.2613 58.7526 48.1265C59.0517 48.0268 59.3273 47.8743 59.6147 47.7512C60.3829 47.5928 61.1452 47.4404 61.8958 47.2762C65.3204 46.5314 68.7392 45.7984 72.2108 45.2648C79.0953 44.2092 86.2847 43.8222 93.1985 44.8308C96.6466 45.3351 100.112 45.5228 103.543 46.1737C107.19 46.8598 110.756 47.7218 114.362 48.6015C120.983 50.2141 127.814 52.4483 134.652 52.7298C134.658 52.7357 134.664 52.7474 134.67 52.7533C134.582 52.7415 134.441 52.7298 134.505 52.7767C134.623 52.8588 134.734 52.9174 134.857 52.9702C134.869 52.982 134.881 52.9937 134.892 53.0054C134.664 52.9937 134.441 52.9937 134.2 53.0289C134.165 53.0347 134.171 53.0465 134.189 53.064C134.071 53.064 133.954 53.064 133.837 53.064C133.098 52.9878 132.318 53.0171 131.661 53.0816C131.567 53.0934 131.872 53.2165 131.931 53.2165C132.242 53.2107 132.564 53.1989 132.881 53.1931C133.063 53.2048 133.245 53.2048 133.426 53.2107C132.893 53.2341 132.359 53.3103 131.89 53.4159C131.802 53.4335 132.107 53.5684 132.189 53.5508C133.098 53.3573 134.042 53.3338 134.969 53.4218C135.145 53.4863 135.285 53.5684 135.35 53.6974C135.408 53.8205 135.408 54.0082 135.361 54.19C134.81 54.2134 134.265 54.2486 133.702 54.2193C132.869 54.1724 131.908 54.0668 131.081 54.2369C130.969 54.2427 130.864 54.2545 130.752 54.2603C130.764 54.2662 130.782 54.2721 130.793 54.2779C130.559 54.2838 130.324 54.2897 130.096 54.3014C130.013 54.3072 130.295 54.4421 130.365 54.4363C130.606 54.4245 130.846 54.4069 131.087 54.3952C131.139 54.4128 131.186 54.4363 131.239 54.4538C131.345 54.4773 131.468 54.4714 131.579 54.4832C131.743 54.5008 131.902 54.5066 132.066 54.5125C132.13 54.5359 132.195 54.5594 132.212 54.5594C132.517 54.5887 132.828 54.6122 133.133 54.6356C133.162 54.6474 133.192 54.6532 133.203 54.6532C133.25 54.6532 133.291 54.6474 133.338 54.6474C133.632 54.665 133.931 54.6767 134.224 54.6884C134.681 54.7822 135.074 54.9406 135.156 55.2162C135.232 55.4801 135.092 55.7146 134.892 55.9081C134.67 55.9551 134.453 56.0137 134.224 56.0489C133.626 56.1369 133.01 56.1251 132.4 56.1193C131.52 56.1134 130.612 56.1251 129.726 56.0078C129.392 55.9375 129.052 55.8612 128.717 55.7967C128.542 55.7615 128.342 55.914 128.594 55.9902C128.94 56.0958 129.292 56.1603 129.644 56.2131C130.582 56.4125 131.515 56.6001 132.476 56.6588C133.286 56.7057 134.077 56.7936 134.857 56.7233C134.822 56.8054 134.793 56.8757 134.769 56.9226C134.693 57.0751 134.623 57.2276 134.546 57.38C133.649 57.5149 132.91 57.5618 131.984 57.4094C131.608 57.3507 131.204 57.3331 130.805 57.3038C130.441 57.2393 130.072 57.1807 129.708 57.1279C129.533 57.1044 129.404 57.2921 129.621 57.3566C129.638 57.3624 129.656 57.3625 129.667 57.3683C130.06 57.4797 130.483 57.5325 130.905 57.5677C131.562 57.685 132.218 57.814 132.875 57.9137C133.291 57.9782 133.737 58.0955 134.177 58.1717C134.107 58.3418 134.036 58.5118 133.972 58.6877C133.807 58.7581 133.643 58.8285 133.467 58.893C133.233 58.8871 133.004 58.893 132.77 58.9282C132.734 58.934 132.799 58.9751 132.799 58.9751C132.816 58.9868 132.834 58.9985 132.858 59.0103C132.611 59.0279 132.359 59.0279 132.113 59.0279C131.562 58.9399 131.004 58.8578 130.441 58.764C129.755 58.6467 129.063 58.6174 128.371 58.5529C127.785 58.4414 127.199 58.33 126.612 58.2186C125.92 58.0837 125.193 57.855 124.489 57.8726C124.489 57.8726 124.706 58.0192 124.765 58.031C125.768 58.289 126.771 58.4297 127.779 58.5529C127.932 58.5822 128.084 58.6115 128.237 58.6408C128.19 58.6467 128.149 58.6526 128.102 58.6584C127.914 58.6291 127.721 58.5998 127.527 58.5881C127.509 58.5881 127.662 58.6877 127.674 58.6995C127.979 58.8402 128.266 58.893 128.606 58.934C128.653 58.9634 128.7 58.9868 128.729 58.9927C129.187 59.0982 129.656 59.1862 130.125 59.2624C130.541 59.3914 131.004 59.497 131.444 59.538C131.532 59.585 131.62 59.6143 131.732 59.6436C132.283 59.7902 132.963 59.8019 133.579 59.8312C133.614 59.8723 133.643 59.9133 133.678 59.9485C133.678 59.972 133.678 59.9954 133.667 60.0248C133.661 60.0365 133.655 60.0599 133.655 60.0717C133.485 60.4059 133.25 60.6112 132.746 60.6933C132.465 60.7343 132.171 60.7578 131.878 60.7636C131.808 60.7519 131.737 60.7402 131.673 60.7285C131.169 60.6405 130.6 60.6405 130.037 60.617C129.404 60.4704 128.77 60.2476 128.131 60.2828C128.014 60.2886 128.272 60.5408 128.307 60.5525C128.823 60.7812 129.368 60.8106 129.914 60.8223C130.031 60.8516 130.148 60.8809 130.26 60.9102C130.823 61.0393 131.397 61.0334 131.972 61.0334C132.101 61.0568 132.224 61.0744 132.353 61.0979C132.752 61.1683 133.256 61.1976 133.69 61.2973C133.696 61.3794 133.696 61.4615 133.702 61.5436C133.626 61.5963 133.538 61.6491 133.432 61.6843C133.321 61.6491 133.309 61.655 133.104 61.6843C133.057 61.6902 133.069 61.7371 133.098 61.784C132.94 61.8192 132.775 61.8426 132.605 61.8602C132.594 61.8602 132.588 61.8544 132.576 61.8544C131.943 61.7254 131.304 61.7371 130.658 61.7136C129.896 61.6784 129.134 61.6374 128.371 61.5846C127.562 61.4556 126.776 61.4146 125.95 61.3794C125.803 61.3735 126.038 61.6491 126.131 61.6609C126.642 61.7136 127.152 61.7605 127.662 61.8016C128.495 61.9071 129.321 62.0362 130.172 62.1124C130.975 62.1886 131.861 62.2531 132.693 62.1358C132.758 62.1476 132.816 62.1534 132.881 62.1652C133.039 62.2004 133.203 62.2414 133.368 62.2883C133.456 62.5346 133.385 62.7926 133.397 63.0506C133.385 63.0565 133.374 63.0624 133.356 63.0624C133.227 63.121 133.092 63.1503 132.957 63.1503C132.599 63.209 132.212 63.25 131.849 63.2852C131.01 63.3673 130.131 63.2618 129.298 63.1503C128.483 63.0389 127.65 63.0331 126.847 62.8923C126.712 62.8689 126.929 63.1562 127.029 63.1738C128.36 63.3908 129.779 63.4553 131.069 63.8306C131.391 63.9244 131.831 64.0593 132.271 64.1531C131.45 64.3935 130.365 64.2 129.644 64.0182C129.515 63.9889 129.732 64.2763 129.826 64.2997C129.896 64.3173 129.972 64.3349 130.049 64.3525C130.858 64.5519 131.667 64.8392 132.5 64.8568C131.773 65.4725 130.805 65.8478 129.896 66.0707C128.952 66.3052 127.65 66.2466 126.507 66.4108C126.606 66.3639 126.706 66.3228 126.806 66.2759C127.058 66.2525 127.316 66.2231 127.568 66.1997C127.773 66.1762 128.002 66.1293 128.231 66.0648C128.266 66.0707 128.301 66.0707 128.33 66.0648C128.747 65.9768 129.151 65.8302 129.562 65.713C129.779 65.6543 130.172 65.6191 130.354 65.4784C130.735 65.1911 130.383 64.9096 130.049 64.7278C129.45 64.4053 128.77 64.4874 128.119 64.5108C127.351 64.5343 126.559 64.4346 125.791 64.4932C122.771 64.3701 119.775 63.9772 116.778 63.5198C116.585 63.4611 116.397 63.4025 116.209 63.3263C114.515 62.6578 112.749 62.7574 110.99 62.6108C110.462 62.5287 109.935 62.4525 109.407 62.3821C109.337 62.3645 109.26 62.3528 109.19 62.3352C108.304 62.1124 107.448 61.8016 106.539 61.6609C105.619 61.5201 104.657 61.5788 103.736 61.397C102.552 61.1565 100.775 60.4704 99.4965 60.6464C99.4731 60.6405 99.4496 60.6405 99.432 60.6346C96.5938 60.2417 93.7321 60.0189 90.8645 59.9603C85.0649 59.8312 79.2595 60.4001 73.5478 61.4146ZM122.009 65.1441C122.009 65.1441 122.015 65.1441 122.009 65.1441C122.05 65.1559 122.056 65.109 122.044 65.0386C122.091 64.9213 122.155 64.8099 122.232 64.6985C122.607 64.7395 122.982 64.7747 123.358 64.8099C123.305 64.8216 123.252 64.8275 123.193 64.8392C123.123 64.8568 123.1 64.8978 123.105 64.9506C122.93 65.0034 122.754 65.0562 122.584 65.1207C122.414 65.1852 122.619 65.4373 122.742 65.4256C123.692 65.3377 124.583 65.0914 125.545 65.062C126.038 65.0444 126.53 65.0327 127.017 65.021C127.146 65.021 127.275 65.021 127.398 65.0269C127.556 65.0386 127.861 65.0327 128.125 65.0738C126.935 65.238 125.744 65.2262 124.53 65.2614C124.325 65.2673 124.507 65.5429 124.618 65.5722C124.982 65.666 125.375 65.6895 125.78 65.6895C125.604 65.713 125.428 65.7423 125.252 65.7833C124.976 65.8478 124.689 65.9417 124.396 66.0238C124.014 66.0589 123.633 66.0883 123.258 66.1528C123.064 66.188 123.211 66.446 123.346 66.4636C123.358 66.4636 123.369 66.4636 123.381 66.4636H123.387C123.604 66.4812 123.821 66.4577 124.038 66.4167C124.055 66.4225 124.073 66.4284 124.091 66.4284C124.642 66.4342 125.205 66.4049 125.768 66.358C125.48 66.4694 125.181 66.575 124.888 66.6629C124.454 66.792 124.003 66.8447 123.563 66.9386C123.322 66.9679 123.088 66.9913 122.853 67.0089C122.666 67.0265 122.777 67.2611 122.9 67.2845C123.287 67.3725 123.751 67.396 124.196 67.3725C124.237 67.3842 124.278 67.4018 124.319 67.4136C124.349 67.5015 124.337 67.5836 124.302 67.654C124.014 67.8299 123.709 67.9648 123.369 68.0703C123.281 68.0938 123.199 68.1172 123.129 68.1466C123.111 68.1524 123.1 68.1642 123.088 68.17C122.924 68 122.771 67.8006 122.648 67.5602C122.255 66.8213 121.763 65.9475 122.009 65.1441ZM154.35 67.8768C152.766 69.0672 150.415 67.3315 148.609 66.5926C148.573 66.5515 148.515 66.5163 148.421 66.487C148.298 66.4518 148.175 66.4225 148.046 66.3932C148.034 66.3932 148.028 66.3873 148.016 66.3815C146.685 66.012 145.307 65.8537 143.929 65.8302C141.267 65.754 138.587 66.1762 136.012 66.8271C133.978 67.3432 131.931 67.8006 129.89 68.3108C129.339 68.4456 128.465 68.7213 127.539 68.9382C127.228 68.9734 126.917 69.0027 126.6 69.0203C126.595 68.9851 126.571 68.95 126.507 68.9089C126.26 68.7447 125.744 68.5453 125.469 68.3049C125.568 68.3108 125.668 68.3166 125.762 68.3166C125.809 68.3518 125.862 68.3753 125.897 68.3753C125.909 68.3753 125.92 68.3753 125.938 68.3753C125.944 68.3753 125.944 68.3753 125.95 68.3753C126.208 68.3694 126.454 68.3401 126.712 68.2873C126.765 68.2756 126.788 68.258 126.788 68.2345C127.199 68.1642 127.609 68.0938 128.031 68.0469C128.242 68.0234 127.973 67.8299 127.885 67.824C127.574 67.7947 127.287 67.9061 126.982 67.9531C126.964 67.9531 126.941 67.9589 126.917 67.9589C126.864 67.9237 126.8 67.9061 126.753 67.912C126.636 67.9413 126.518 67.9648 126.401 67.9882C125.973 67.9882 125.527 67.9179 125.621 67.6305C125.756 67.5895 125.891 67.5484 126.02 67.5015C126.055 67.5132 126.09 67.525 126.108 67.5191C126.683 67.4429 127.199 67.3256 127.785 67.3256C128.319 67.3256 128.852 67.3139 129.386 67.3139C130.506 67.3139 131.685 67.3549 132.793 67.1673C133.004 67.1321 132.723 66.9327 132.605 66.9444C131.749 67.0383 130.875 66.9327 130.019 66.9151C129.321 66.9034 128.36 67.05 127.609 66.9092C127.586 66.8975 127.568 66.8858 127.556 66.8858C127.539 66.8858 127.527 66.8858 127.509 66.8799C127.545 66.8682 127.58 66.8506 127.621 66.8389C128.031 66.792 128.448 66.7568 128.864 66.7099C128.864 66.7802 129.046 66.8799 129.128 66.8741C129.345 66.8623 129.55 66.8154 129.761 66.7626C131.526 66.487 133.385 66.5457 135.115 66.0707C135.279 66.0238 134.998 65.8596 134.933 65.8537C134.335 65.8302 133.737 65.883 133.139 65.9299C132.799 65.9593 132.459 65.9944 132.113 66.0296C131.984 66.0413 131.679 66.0824 131.456 66.0941C131.632 66.0238 131.802 65.9534 131.966 65.8713C132.676 65.6895 133.356 65.4432 134.089 65.3552C134.582 65.2966 135.086 65.2321 135.584 65.1852C135.731 65.1735 135.86 65.1617 135.977 65.15C136.1 65.1383 136.224 65.1265 136.347 65.1207C136.593 65.109 136.435 64.933 136.27 64.933C135.749 64.933 135.244 64.9624 134.728 64.9975C134.611 65.0034 134.453 65.0269 134.294 65.0327C134.259 65.0151 134.212 64.9975 134.159 65.0034C134.089 65.0093 134.013 65.0093 133.942 65.0093C133.766 64.9741 133.626 64.8803 133.567 64.6867C133.649 64.587 133.731 64.4874 133.807 64.3759C134.142 64.2997 134.482 64.2352 134.828 64.1824C135.414 64.1707 136.106 64.0417 136.517 63.9889C136.593 63.983 136.669 63.9713 136.74 63.9655C136.98 63.942 136.833 63.7719 136.663 63.7778C136.493 63.7837 136.317 63.8013 136.136 63.8247C135.836 63.854 135.537 63.8892 135.232 63.9244C135.062 63.9303 134.892 63.9244 134.74 63.8951C134.658 63.8834 134.593 63.8658 134.529 63.8482C134.411 63.7661 134.341 63.6781 134.318 63.5726C134.453 63.5902 134.587 63.6077 134.728 63.6136C135.086 63.6253 135.455 63.5608 135.807 63.5139C136.575 63.4142 137.338 63.2676 138.106 63.1562C138.335 63.121 138.217 62.8161 138.012 62.8454C137.244 62.9568 136.482 63.1034 135.713 63.2031C135.268 63.2618 134.822 63.2207 134.382 63.209C134.382 63.2031 134.382 63.2031 134.382 63.2031C134.447 63.1386 134.517 63.0624 134.582 62.992C134.992 62.8747 135.397 62.7281 135.836 62.6636C136.27 62.5991 136.699 62.5346 137.127 62.4877C137.666 62.4642 138.17 62.4173 138.511 62.4056C138.552 62.4056 138.598 62.3997 138.64 62.4056C138.886 62.4056 138.727 62.2179 138.563 62.2179C138.194 62.2121 137.83 62.2355 137.467 62.2649C137.156 62.2824 136.851 62.2942 136.54 62.2824C136.429 62.2766 136.306 62.2824 136.182 62.2824C136.13 62.259 136.065 62.2355 136.036 62.2355C135.93 62.2355 135.819 62.2414 135.702 62.2473C135.696 62.2473 135.696 62.2473 135.69 62.2473C135.35 62.1828 135.057 62.0596 134.84 61.8896C134.845 61.8837 134.857 61.8778 134.863 61.8778C135.326 61.7312 135.807 61.6315 136.288 61.5905C136.3 61.5905 136.311 61.5905 136.323 61.5905C136.528 61.5729 136.728 61.567 136.927 61.567C137.144 61.567 136.974 61.2855 136.828 61.2797C136.399 61.2797 135.971 61.3207 135.549 61.309C135.444 61.3031 135.25 61.309 135.08 61.2797C135.051 61.2504 135.016 61.2328 134.98 61.2269C134.939 61.221 134.892 61.2152 134.851 61.2035C134.845 61.1976 134.834 61.1917 134.828 61.1859C134.711 61.0803 134.664 60.7167 134.781 60.5936C134.793 60.5819 134.799 60.5643 134.804 60.5467C134.963 60.4822 135.133 60.4411 135.32 60.4294C135.356 60.4587 135.397 60.4763 135.438 60.4822C136.229 60.5115 137.003 60.6346 137.789 60.6933C138.382 60.8985 139.097 60.9747 139.701 60.7988C139.789 60.7695 139.484 60.617 139.461 60.6112C139.208 60.5584 138.974 60.6112 138.716 60.5584C138.27 60.4587 137.86 60.2593 137.402 60.1772C136.992 60.1069 136.599 60.0834 136.212 60.0893C136.071 60.0658 135.936 60.0424 135.795 60.013C135.186 59.8899 134.904 59.667 134.84 59.3914C135.795 59.3504 136.74 59.3152 137.69 59.3973C138.1 59.4325 138.569 59.4735 138.95 59.2976C139.009 59.2742 139.179 59.151 139.027 59.1451C138.294 59.11 137.549 59.0572 136.828 58.9399C136.47 58.8813 135.274 58.9575 135.262 58.4766C135.309 58.4297 135.356 58.3828 135.385 58.3535C135.649 58.1307 135.96 58.0075 136.282 57.9254C136.446 57.9019 136.593 57.8844 136.704 57.8609C136.904 57.8199 137.109 57.7905 137.314 57.7612C137.836 57.726 138.37 57.7436 138.874 57.6674C138.88 57.6674 138.886 57.6674 138.898 57.6674C139.132 57.685 139.367 57.6908 139.595 57.6967C139.719 57.6967 139.842 57.6381 139.695 57.6087C139.719 57.6029 139.736 57.6029 139.754 57.597C139.783 57.6029 139.806 57.6087 139.842 57.6146C139.924 57.6322 140.246 57.5912 140.029 57.5384C139.695 57.4621 139.601 57.4504 139.261 57.4211C139.255 57.4211 139.255 57.4211 139.249 57.4211C139.126 57.3683 138.927 57.3507 138.804 57.339C138.628 57.3155 138.464 57.3214 138.299 57.3331C138.288 57.3331 138.276 57.3273 138.264 57.3273C137.731 57.3273 137.027 57.3976 136.523 57.2217C136.224 57.21 136.042 56.9989 135.989 56.6001C135.954 56.5767 135.919 56.5532 135.889 56.5239C136.071 56.3362 136.347 56.1896 136.575 56.1193C137.015 55.9902 137.537 55.9844 137.994 55.9902C138.2 55.9961 138.118 55.6912 137.953 55.6736C137.455 55.6267 136.91 55.6736 136.411 55.5622C136.405 55.5563 136.399 55.5504 136.394 55.5504C136.394 55.5504 136.388 55.5504 136.382 55.5446C136.394 55.527 136.405 55.5153 136.405 55.5035C136.505 54.9582 137.027 54.6356 137.713 54.4363C138.546 54.4245 139.373 54.2838 140.229 54.1431C140.369 54.1196 140.504 54.0961 140.645 54.0785C141.085 54.0551 141.472 54.0316 141.759 53.9906C143.489 53.7267 145.014 53.5918 146.761 53.8205C148.544 54.0551 150.045 54.3542 151.705 55.0403C152.942 55.5563 154.332 55.7733 155.681 55.8378C155.716 55.8436 155.757 55.8378 155.792 55.8436C155.95 55.8495 156.109 55.8554 156.267 55.8554C156.308 55.8554 156.349 55.8378 156.402 55.8143C156.49 55.8026 156.572 55.785 156.654 55.7615C156.713 55.785 156.777 55.785 156.836 55.7498C156.853 55.7381 156.871 55.7264 156.889 55.7146C156.889 55.7146 156.889 55.7146 156.889 55.7205C157.076 55.6091 157.241 55.5504 157.299 55.3159C157.311 55.2631 157.323 55.2103 157.334 55.1634C157.487 55.4332 157.645 55.7967 157.651 56.0723C157.657 56.3714 157.581 56.6646 157.528 56.9578C157.499 56.9754 157.475 56.9989 157.463 57.0223C157.411 57.1513 157.358 57.2686 157.305 57.3918C157.293 57.4094 157.282 57.4211 157.27 57.4387C157.27 57.4445 157.27 57.4445 157.282 57.4504C156.695 58.7874 156.097 59.8488 155.974 61.4146C155.798 63.3908 156.156 66.5163 154.35 67.8768ZM170.705 62.1183C170.628 62.1007 170.558 62.0831 170.482 62.0655C170.552 62.0713 170.622 62.0713 170.693 62.0772C170.687 62.0889 170.693 62.1007 170.705 62.1183ZM174.059 60.4059C173.959 60.4059 173.854 60.4059 173.754 60.4118C173.883 60.3883 174.006 60.3766 174.123 60.3707C174.1 60.3825 174.082 60.3942 174.059 60.4059ZM174.493 60.2007C174.006 60.142 173.426 60.3532 172.974 60.4411C172.716 60.4939 172.458 60.5584 172.2 60.6229C172.135 60.6288 172.065 60.6405 172.001 60.6464C171.965 60.6522 171.924 60.6698 171.901 60.6991C171.578 60.7754 171.256 60.8516 170.933 60.8926C170.828 60.9044 170.763 61.0744 170.91 61.0744C171.455 61.0803 171.948 61.0393 172.481 60.922C172.593 60.8985 172.704 60.8751 172.816 60.8516C172.962 60.8575 173.109 60.8575 173.261 60.8575C172.945 61.0568 172.634 61.2621 172.329 61.4615C172.288 61.4615 172.247 61.4791 172.241 61.5201C172.059 61.6374 171.877 61.7547 171.696 61.872C171.426 61.872 171.156 61.8837 170.88 61.9013C170.822 61.9071 170.81 61.9247 170.822 61.9541C170.382 61.9423 169.936 61.9013 169.502 61.8896C169.497 61.8896 169.497 61.8896 169.491 61.8896C169.479 61.8896 169.473 61.8896 169.461 61.8896C169.321 61.8837 169.45 62.0127 169.532 62.0127C170.024 62.0303 170.488 62.1828 170.963 62.2883C170.37 62.5874 169.725 62.8219 168.963 62.9158C164.758 63.4377 160.759 61.0099 156.619 62.0772C156.625 61.9599 156.631 61.8426 156.637 61.7254C156.783 61.6315 156.941 61.5612 157.106 61.5201C157.54 61.5553 158.085 61.4204 158.378 61.4087C158.49 61.4028 158.566 61.2562 158.419 61.2328C158.026 61.1683 157.575 61.1859 157.158 61.2973C157.041 61.2504 157 61.1096 157.029 60.8809C157.164 60.8281 157.323 60.7695 157.487 60.7167C158.026 60.746 158.66 60.6346 159.035 60.576C159.293 60.5877 159.557 60.5936 159.809 60.5584C159.862 60.5525 160.067 60.4177 159.932 60.4235C159.926 60.4235 159.92 60.4235 159.915 60.4235H159.909C159.703 60.4528 159.498 60.447 159.293 60.4352C159.281 60.4059 159.264 60.3825 159.223 60.3707C158.783 60.2476 158.237 60.2476 157.721 60.359C157.704 60.3532 157.692 60.3532 157.674 60.3532C157.61 60.3414 157.346 60.2886 157.176 60.2828C157.047 60.2183 156.936 60.142 156.871 60.0658C157.123 59.8312 157.68 59.7609 158.044 59.714C158.812 59.7609 159.662 59.7081 159.856 59.7785C159.967 59.8195 160.132 59.7022 159.985 59.626C159.498 59.3856 158.847 59.4208 158.296 59.4911C158.12 59.4911 157.938 59.4911 157.762 59.4794C157.381 59.5439 157.164 59.409 157.106 59.0865C157.135 59.0161 157.164 58.9399 157.194 58.8695C157.416 58.7757 157.663 58.7229 157.909 58.7053C158.32 58.7933 158.806 58.7874 159.047 58.8461C159.117 58.8637 159.193 58.8109 159.199 58.7581C159.387 58.7816 159.574 58.805 159.756 58.8461C159.862 58.8695 159.979 58.7581 159.856 58.6877C159.557 58.5177 159.035 58.3594 158.501 58.3066C158.396 58.2714 158.29 58.2421 158.185 58.2186C158.05 58.0016 158.179 57.5618 158.49 57.5032C158.536 57.4915 158.56 57.468 158.566 57.4328C159.041 57.3918 159.539 57.4387 159.885 57.5325C159.997 57.5618 160.108 57.4445 159.985 57.3742C159.463 57.0575 158.906 57.2276 158.384 57.0165C158.296 56.9813 158.232 56.9402 158.179 56.9051C158.185 56.8875 158.196 56.8699 158.202 56.8523C158.208 56.8405 158.202 56.823 158.208 56.8054C158.237 56.7936 158.273 56.7819 158.302 56.7702C158.419 56.7584 158.548 56.7702 158.665 56.7819C158.888 56.7995 159.111 56.7995 159.334 56.8054C159.463 56.8112 159.328 56.6294 159.281 56.606C159.152 56.5415 159.011 56.5415 158.871 56.518C158.777 56.5063 158.683 56.4828 158.589 56.4652C158.56 56.4594 158.419 56.4242 158.32 56.3773C158.695 56.131 159.34 55.9433 159.463 55.9433C159.756 55.9316 160.073 55.9902 160.366 56.002C160.489 56.0078 160.542 55.8612 160.407 55.826C160.331 55.8085 160.255 55.7909 160.184 55.7733C160.178 55.7498 160.167 55.7322 160.137 55.7205C159.281 55.4214 158.466 55.4507 157.698 54.9347C157.428 54.6415 157.141 54.4538 156.766 54.2779C156.513 54.1606 155.499 53.7736 155.37 53.3514C156.009 53.1696 156.666 53.2107 157.346 53.2224C158.296 53.2341 159.041 53.3748 159.897 53.7971C160.39 54.0375 160.835 54.3307 161.316 54.577C162.606 55.2279 164.055 55.3217 165.45 55.6267C166.013 55.7498 166.547 55.9844 167.127 56.0254C167.573 56.0606 168.013 56.0078 168.447 55.9492C168.693 55.9668 168.939 55.9727 169.18 55.9433C169.843 55.8554 170.435 55.5094 171.051 55.2748C171.097 55.2866 171.15 55.2866 171.197 55.2631C171.303 55.2162 171.402 55.1693 171.508 55.1224C172.118 54.8409 172.71 54.5184 173.32 54.2545C173.642 54.1137 174.288 54.0551 174.522 53.8733C174.364 54.1196 174.035 54.5301 173.848 54.7588C173.637 54.8526 173.431 55.0754 173.238 55.1517C172.669 55.3687 172.071 55.4273 171.479 55.5387C171.402 55.5563 171.273 55.6912 171.426 55.6794C171.983 55.6384 172.534 55.5856 173.085 55.5094C173.15 55.5035 173.22 55.4918 173.285 55.4859C173.179 55.6208 173.068 55.7557 172.956 55.8847C172.593 56.0606 172.247 56.26 171.854 56.3949C171.285 56.5884 170.728 56.7115 170.13 56.7702C169.977 56.7819 170.001 56.952 170.153 56.952C170.851 56.9402 171.608 56.8054 172.3 56.6353C172.012 56.9402 171.713 57.2276 171.408 57.5091C171.297 57.556 171.18 57.597 171.068 57.6263C171.027 57.6263 170.98 57.6263 170.933 57.6439C170.916 57.6498 170.91 57.6615 170.904 57.6674C170.189 57.8316 169.461 57.7729 168.728 57.9371C168.605 57.9665 168.728 58.0837 168.799 58.0896C169.121 58.1248 169.45 58.0427 169.778 58.0368C170.13 58.031 170.476 58.0251 170.822 58.0134C170.37 58.3828 169.907 58.7229 169.414 59.022C169.397 59.0337 169.385 59.0455 169.373 59.0572C169.139 59.1334 168.904 59.2272 168.658 59.2742C168.265 59.3563 167.86 59.3738 167.473 59.4794C167.385 59.5029 167.297 59.6612 167.432 59.6905C167.972 59.8195 168.658 59.5791 169.197 59.497C169.549 59.4442 169.901 59.3856 170.259 59.3621C170.452 59.3504 170.652 59.368 170.828 59.28C170.857 59.2683 170.875 59.2507 170.886 59.2272C172.03 59.151 173.179 59.2859 174.329 59.4384C174.651 59.4735 174.974 59.5204 175.29 59.5908C175.583 59.6612 175.824 59.7198 176.006 59.7609C175.718 59.8782 175.073 59.9661 174.874 60.0424C174.751 60.0951 174.622 60.142 174.493 60.2007Z" fill="#4D4A4A"/>
<path d="M160.917 60.4824C160.824 60.4824 160.73 60.4824 160.636 60.4766C160.478 60.4766 160.536 60.6701 160.677 60.6759C160.771 60.6759 160.865 60.6759 160.958 60.6818C161.117 60.6759 161.058 60.4824 160.917 60.4824Z" fill="#4D4A4A"/>
<path d="M141.003 57.802C141.126 57.802 141.243 57.7785 141.361 57.7844C141.478 57.7844 141.589 57.8137 141.707 57.8137C141.847 57.8137 141.613 57.5615 141.507 57.5615C141.39 57.5615 141.278 57.5381 141.161 57.5322C141.038 57.5322 140.921 57.5557 140.803 57.5498C140.669 57.544 140.903 57.7961 141.003 57.802Z" fill="#4D4A4A"/>
<path d="M143.184 65.0977C142.275 64.74 141.22 64.8807 140.205 65.0742C140.158 65.0801 140.111 65.0801 140.064 65.0801C139.654 65.1153 139.244 65.0683 138.845 65.1798C138.469 65.2853 138.229 65.5433 137.824 65.5609C137.772 65.5609 137.942 65.8424 138.036 65.8365C138.381 65.819 138.487 65.7134 138.757 65.5727C138.792 65.6078 138.827 65.6254 138.851 65.6254C139.331 65.5668 139.859 65.4495 140.399 65.344C140.88 65.3088 141.343 65.2853 141.83 65.3146C142.322 65.344 142.897 65.5023 143.372 65.3674C143.466 65.344 143.225 65.1153 143.184 65.0977Z" fill="#4D4A4A"/>
<path d="M36.985 56.9695C36.9909 56.9695 36.9967 56.9636 36.9967 56.9636C37.0026 56.9577 37.0085 56.9519 37.0143 56.946C37.0202 56.9401 37.0202 56.9343 37.0143 56.9284C36.8208 56.8346 36.51 56.9695 36.3223 57.034C36.0995 57.1161 35.9177 57.2099 35.6773 57.2333C35.5366 57.2451 35.4075 57.2861 35.2785 57.333C35.2551 57.3389 35.2316 57.3448 35.214 57.3448C35.1847 57.3506 35.1906 57.3565 35.1964 57.3682C35.1788 57.3858 35.2316 57.3975 35.2668 57.3975C35.2727 57.3975 35.2785 57.4034 35.2785 57.4034C35.3489 57.4327 35.4603 57.4327 35.5366 57.4151C35.8356 57.3565 36.1347 57.2803 36.4279 57.2216C36.5217 57.204 36.6331 57.1923 36.727 57.163C36.8325 57.1278 36.9029 57.0281 37.0143 57.0164C37.0847 57.0047 37.0495 56.9871 36.985 56.9695Z" fill="#4D4A4A"/>
<path d="M22.0959 62.347C22.0901 62.3353 22.0666 62.3119 21.9963 62.2825C21.8145 62.2004 21.7089 62.2122 21.5682 62.2767C21.0697 62.3998 20.6065 62.7165 20.0963 62.7341C20.02 62.7341 20.3133 62.8807 20.3895 62.8807C20.7061 62.8807 21.0111 62.8572 21.3043 62.7282C21.4743 62.652 21.6503 62.523 21.8262 62.435C21.9142 62.4116 22.008 62.394 22.1018 62.3822C22.1253 62.3764 22.1194 62.3646 22.0959 62.347Z" fill="#4D4A4A"/>
<path d="M72.2167 59.2566C71.9001 59.3387 71.5893 59.4442 71.2726 59.5498C70.9735 59.6143 70.6686 59.6729 70.3989 59.755C69.5896 60.013 68.8097 60.359 68.0004 60.6053C66.7514 60.9806 65.3381 61.3207 63.9952 61.4146C63.3678 61.4028 62.7403 61.4087 62.1305 61.5201C62.1011 61.526 62.3122 61.7723 62.4061 61.7547C62.7696 61.6843 63.1449 61.6608 63.5144 61.6491C63.5378 61.6667 63.5613 61.6726 63.5848 61.6726C63.8135 61.6726 64.0539 61.6608 64.2885 61.6433C65.344 61.6608 66.3995 61.7253 67.4082 61.3852C68.8566 60.8985 70.2581 60.2065 71.7124 59.7257C71.988 59.667 72.2578 59.6025 72.4865 59.4911H72.4924C72.4982 59.4911 72.5041 59.4853 72.5041 59.4853C72.5275 59.4735 72.2871 59.239 72.2167 59.2566ZM66.7279 61.268C66.6517 61.2855 66.5696 61.3031 66.4934 61.3207C66.5696 61.3031 66.6517 61.2855 66.7279 61.268ZM66.8687 61.2328C66.8335 61.2445 66.7924 61.2504 66.7572 61.2621C66.7924 61.2504 66.8335 61.2445 66.8687 61.2328Z" fill="#4D4A4A"/>
<path d="M106.733 48.7543C107.102 48.9478 107.495 48.9947 107.9 48.9947C107.906 49.0241 107.935 49.0475 107.999 49.0592C109.114 49.1882 110.122 49.2234 111.207 49.5401C111.87 49.7336 112.615 49.8333 113.289 49.9213C113.33 49.9271 113.4 49.8978 113.459 49.8509C113.699 49.8919 113.94 49.933 114.18 49.9682C115.617 50.3083 117.142 50.9358 118.555 50.6601C118.66 50.6367 118.872 50.4666 118.696 50.3787C118.021 50.0503 117.159 50.0679 116.444 49.8685C115.646 49.6456 114.855 49.4814 114.045 49.3114C113.131 49.1179 112.216 48.9009 111.283 48.7836C110.855 48.7308 110.421 48.6957 109.993 48.6722C108.973 48.1738 107.724 49.0065 106.674 48.4728C106.492 48.379 106.639 48.7074 106.733 48.7543ZM116.843 50.2555C117.118 50.3024 117.4 50.3435 117.669 50.3963C117.394 50.3728 117.118 50.32 116.843 50.2555ZM114.057 49.6222C113.828 49.5811 113.606 49.546 113.377 49.5166C113.383 49.5108 113.389 49.499 113.394 49.4932C113.611 49.5342 113.834 49.5753 114.057 49.6222Z" fill="#4D4A4A"/>
<path d="M51.399 58.5C51.141 58.5 50.8947 58.5586 50.6484 58.629C50.4373 58.6877 50.2379 58.8284 50.0268 58.8636C49.7805 58.9046 49.9447 59.1157 50.1324 59.0864C50.3259 59.0571 50.4783 58.9457 50.6601 58.8812C50.8947 58.7932 51.1586 58.7346 51.4049 58.7346C51.6394 58.7346 51.6336 58.5 51.399 58.5Z" fill="#4D4A4A"/>
<path d="M130.477 53.0469C130.699 53.1232 130.916 53.217 131.157 53.1994C131.21 53.1994 131.034 52.9003 130.94 52.9062C130.717 52.9179 130.512 52.8358 130.307 52.7654C130.23 52.742 130.283 52.8358 130.295 52.8651C130.33 52.9296 130.406 53.0235 130.477 53.0469Z" fill="#4D4A4A"/>
<path d="M124.108 63.4787C124.12 63.4787 124.126 63.4845 124.143 63.4845C124.161 63.4845 124.185 63.4845 124.202 63.4845C124.706 63.5197 125.211 63.4962 125.715 63.4962C125.791 63.4962 125.868 63.5021 125.944 63.5021C125.95 63.5021 125.955 63.5021 125.967 63.4962C126.02 63.4962 126.067 63.4962 126.12 63.5021C126.161 63.508 126.208 63.508 126.255 63.5138C127.029 63.637 127.738 63.9947 128.524 64.1002C128.77 64.1354 128.741 63.8246 128.524 63.7953C127.738 63.6898 127.034 63.3262 126.255 63.2089C125.633 63.1151 124.982 63.1796 124.355 63.1796C124.126 63.162 123.88 63.1444 123.668 63.1972C123.633 63.203 123.375 63.3672 123.452 63.3848C123.668 63.4376 123.885 63.4611 124.108 63.4787Z" fill="#4D4A4A"/>
<path d="M72.6857 46.9771C72.2986 47.0886 71.9175 47.2 71.5128 47.2C71.2607 47.2 71.3897 47.4228 71.5773 47.4228C72.0406 47.4228 72.4804 47.2997 72.9202 47.1706C73.0082 47.1472 72.9906 47.071 72.9437 47.0182C72.8909 46.9478 72.7619 46.9537 72.6857 46.9771Z" fill="#4D4A4A"/>
<path d="M112.802 61.0041C111.923 60.9865 111.049 60.8751 110.169 60.8458C109.917 60.8399 110.028 61.0804 110.228 61.0862C111.107 61.1156 111.981 61.227 112.867 61.2446C113.107 61.2504 112.996 61.0041 112.802 61.0041Z" fill="#4D4A4A"/>
<path d="M121.464 61.9778C121.493 61.9778 121.516 61.9778 121.546 61.9778C121.587 61.9778 121.628 61.9778 121.669 61.9778C121.915 61.9837 121.71 61.7433 121.557 61.7433C121.516 61.7433 121.475 61.7433 121.434 61.7433C121.405 61.7433 121.381 61.7433 121.352 61.7433C121.1 61.7374 121.311 61.972 121.464 61.9778Z" fill="#4D4A4A"/>
</g>
<defs>
<clipPath id="clip0_1287_3522">
<rect width="176.475" height="70" fill="white" transform="translate(0.469238)"/>
</clipPath>
</defs>
</svg>
