<svg width="139" height="70" viewBox="0 0 139 70" fill="none" xmlns="http://www.w3.org/2000/svg">
<g clip-path="url(#clip0_1287_3687)">
<path d="M68.9305 34.961C68.4463 33.2261 67.1351 31.3971 64.9228 31.4374C62.576 31.4845 60.5722 33.0445 61.2379 35.2972C61.8296 37.3145 64.0016 38.5854 66.1332 37.4893C66.2408 37.4355 66.3147 37.3414 66.3349 37.2405C66.3685 37.1934 66.3954 37.1329 66.4089 37.0791C66.8863 36.2655 66.1534 35.1492 65.1313 34.7323C64.3647 34.4163 63.3224 34.2616 62.576 34.5844C62.4079 33.9725 62.5021 33.2664 62.9055 32.8831C63.0535 32.7419 63.114 32.6545 63.0871 32.52C63.2014 32.4595 63.3291 32.4124 63.4636 32.3654C64.3512 32.0762 65.4473 31.9619 66.308 32.4326C68.2648 33.5085 68.6346 36.0705 68.3858 37.9197C68.0698 40.2933 66.3753 42.4182 63.6116 42.8149C63.4636 42.8351 63.3224 42.8486 63.1812 42.8553C63.1476 42.8418 63.114 42.8351 63.0669 42.8284C61.6077 42.6872 59.9939 42.2299 58.9987 41.1809C58.1649 40.3001 57.1697 38.9417 57.8354 37.886C58.4742 36.8707 57.5328 37.2876 57.2504 37.5095C56.5914 38.0272 56.4031 38.7535 56.3426 39.5066C55.5155 38.2357 54.5943 36.8236 52.967 36.4C51.3868 35.9898 49.4905 36.0301 48.186 36.985C48.0112 37.1127 47.9305 37.3279 48.0381 37.4557C48.0448 37.6036 48.2465 37.7112 48.4617 37.7179C50.3916 37.7515 52.1466 38.6123 53.7403 39.5402C55.4214 40.522 57.0285 41.6247 58.797 42.4787C60.3032 43.205 62.0515 43.7563 63.7662 43.4672C65.4406 43.1848 67.2225 42.2098 68.1101 40.8783C69.2264 39.1704 69.4684 36.8976 68.9305 34.961ZM65.3464 35.9898C65.3599 36.0032 65.3733 36.0099 65.3801 36.0234C65.3733 36.0234 65.3666 36.0167 65.3532 36.0167C65.3532 36.0032 65.3464 35.9965 65.3464 35.9898Z" fill="#4D4A4A"/>
<path d="M70.4636 40.8243C71.405 42.1221 73.2205 43.0231 74.9083 43.2383C76.6297 43.4602 78.3579 42.8416 79.8305 42.0481C81.5654 41.1201 83.1187 39.9568 84.7662 38.9078C86.3262 37.9126 88.0409 36.9847 89.964 36.8771C90.1792 36.8637 90.381 36.7493 90.381 36.6014C90.4818 36.4669 90.3877 36.2585 90.2128 36.1374C88.868 35.2296 86.9717 35.27 85.4117 35.7407C83.7979 36.2248 82.9371 37.6773 82.1638 38.9751C82.0764 38.2287 81.8545 37.5025 81.1754 37.0116C80.8795 36.7964 79.9247 36.4266 80.6038 37.4083C81.3099 38.4371 80.3685 39.8358 79.5683 40.7503C78.6134 41.8396 77.0198 42.3641 75.5673 42.5659C75.527 42.5726 75.4933 42.586 75.4597 42.5995C75.3185 42.5928 75.1706 42.586 75.0226 42.5726C72.2388 42.2902 70.4636 40.2325 70.0534 37.8723C69.7373 36.0366 69.9996 33.4544 71.9093 32.3046C72.7498 31.8003 73.8459 31.8675 74.7469 32.123C74.8814 32.1634 75.0092 32.2104 75.1302 32.2642C75.1101 32.3987 75.1706 32.4861 75.3252 32.6206C75.7421 32.9905 75.8632 33.6898 75.722 34.3084C74.9688 34.0193 73.9266 34.2143 73.1802 34.5639C72.1783 35.0212 71.4924 36.171 72.0034 36.9645C72.0236 37.025 72.0505 37.0788 72.0841 37.1259C72.111 37.2268 72.1917 37.3209 72.2993 37.368C74.4712 38.3833 76.5894 37.025 77.1005 34.9808C77.672 32.7013 75.6077 31.2287 73.2609 31.2758C71.0419 31.3228 69.8113 33.2056 69.3944 34.9539C68.9371 36.904 69.2666 39.1701 70.4636 40.8243ZM73.0054 35.8617C72.9986 35.8617 72.9919 35.8685 72.9785 35.8685C72.9919 35.855 72.9986 35.8483 73.0121 35.8348C73.0121 35.8416 73.0121 35.855 73.0054 35.8617Z" fill="#4D4A4A"/>
<path d="M69.5023 61.7981L71.3784 63.923L71.3649 63.9297C70.632 64.5013 69.6569 66.0411 69.6569 66.0411L69.5897 66.1823L69.5157 66.0479C69.5157 66.0479 68.4802 64.5483 67.7271 64.0037L67.7136 63.9969L69.5023 61.7981Z" fill="#4D4A4A"/>
<path d="M62.3813 64.1718C62.388 64.2525 62.4755 64.3198 62.6301 64.3668C62.7848 64.4206 63 64.4543 63.2689 64.461C63.8001 64.4812 64.5465 64.3937 65.3266 64.0979C65.7166 63.9499 66.3352 63.6473 66.9471 63.1632C67.5658 62.6858 68.1575 61.9999 68.5542 61.2871C68.9577 60.5743 69.1661 59.8481 69.2939 59.3236C69.3948 58.7857 69.4284 58.4495 69.3948 58.4427C69.3611 58.436 69.2267 58.7521 69.0115 59.2295C68.7761 59.7002 68.4534 60.339 67.9827 60.9106C67.5187 61.4888 66.9337 61.9932 66.3621 62.3361C65.7905 62.6858 65.2459 62.8942 64.9097 63.022C64.2372 63.2775 63.5984 63.4792 63.1277 63.6608C62.8924 63.7549 62.7041 63.8423 62.5696 63.923C62.4418 64.0105 62.3746 64.0911 62.3813 64.1718Z" fill="#4D4A4A"/>
<path d="M76.8856 63.8821C76.8923 63.8015 76.8184 63.7208 76.6839 63.6401C76.5494 63.5594 76.3544 63.4854 76.119 63.398C75.6416 63.2366 74.9961 63.0618 74.3169 62.8332C73.974 62.7188 73.4226 62.5306 72.8376 62.2078C72.2526 61.885 71.6474 61.4076 71.1632 60.8495C70.6724 60.2981 70.3294 59.6727 70.0739 59.2155C69.8453 58.7448 69.6906 58.4355 69.657 58.4489C69.6301 58.4556 69.6772 58.7918 69.7982 59.3231C69.9461 59.8408 70.1815 60.5603 70.6186 61.2529C71.0422 61.9455 71.6541 62.6045 72.2929 63.0618C72.9317 63.5258 73.5571 63.8015 73.9538 63.9292C74.7473 64.1982 75.4937 64.252 76.0249 64.2116C76.2939 64.1915 76.5091 64.1511 76.657 64.0906C76.7915 64.0301 76.8789 63.9628 76.8856 63.8821Z" fill="#4D4A4A"/>
<path d="M44.8308 60.8831C44.8308 60.8831 44.8913 60.8562 45.0056 60.8159C45.1199 60.7688 45.3015 60.715 45.5368 60.6881C45.7789 60.6679 46.0882 60.6814 46.4177 60.8293C46.5791 60.91 46.7405 61.0176 46.8884 61.1722C47.0296 61.3269 47.1574 61.5152 47.2448 61.7304C47.4196 62.1674 47.4196 62.7323 47.1776 63.2433C46.9355 63.7611 46.4514 64.1713 45.8932 64.4201C45.3351 64.6756 44.703 64.7697 44.0709 64.7899C43.7549 64.8034 43.412 64.7765 43.0758 64.7092C42.7395 64.6285 42.3966 64.5075 42.0806 64.3259C41.6502 64.0704 41.3005 63.6938 41.0719 63.2769C40.8366 62.86 40.7155 62.4028 40.6819 61.9657C40.6147 61.0781 40.8702 60.2712 41.24 59.6324C41.6166 58.9936 42.1007 58.5094 42.5849 58.1866C43.069 57.8572 43.533 57.6622 43.923 57.5478C44.2929 57.3797 44.7568 57.2049 45.3351 57.1108C45.9134 57.0166 46.6329 57.0771 47.3121 57.4066C47.9912 57.7361 48.5897 58.2942 49.1209 58.8994C49.6588 59.5113 50.1632 60.177 50.7213 60.8226C51.5282 61.7707 52.4091 62.5507 53.337 63.0618C54.265 63.5795 55.2064 63.8418 56.0133 63.9763C56.1142 63.9964 56.215 64.0099 56.3092 64.0301C56.4033 64.0435 56.5042 64.0502 56.5916 64.0637C56.7799 64.0839 56.948 64.1108 57.1161 64.1175C57.4456 64.1309 57.728 64.1578 57.9634 64.1511C58.4341 64.1511 58.6896 64.1511 58.6896 64.1511C58.6896 64.1511 58.4341 64.1915 57.9701 64.2721C57.7347 64.3125 57.4523 64.3259 57.1161 64.3596C56.948 64.373 56.7664 64.373 56.5782 64.373C56.484 64.373 56.3831 64.373 56.2823 64.3797C56.1814 64.373 56.0738 64.3663 55.973 64.3596C55.1257 64.3125 54.0902 64.1377 53.0412 63.6401C52.5167 63.3913 52.0056 63.0618 51.5147 62.6718C51.0239 62.2817 50.5666 61.8178 50.143 61.3269C49.5647 60.6545 49.0738 59.9686 48.583 59.3634C48.3409 59.0608 48.0988 58.7784 47.8433 58.5296C47.5945 58.2741 47.3255 58.0723 47.0565 57.9042C46.5119 57.5815 45.9134 57.4604 45.3822 57.4806C44.8442 57.5008 44.3735 57.6084 44.0037 57.7159C43.654 57.8773 43.2371 58.1261 42.8337 58.4758C42.4235 58.8255 42.0402 59.3096 41.7578 59.8879C41.4821 60.4729 41.3207 61.179 41.4148 61.885C41.5023 62.5911 41.8654 63.2769 42.5042 63.6535C42.7395 63.788 42.9951 63.8889 43.264 63.9561C43.5397 64.0099 43.802 64.0435 44.0911 64.0435C44.656 64.0502 45.2006 63.9897 45.6646 63.8149C46.1286 63.6468 46.5119 63.3644 46.727 62.9945C46.9422 62.6314 46.996 62.2078 46.8952 61.8514C46.8481 61.6766 46.7674 61.5152 46.6665 61.374C46.5657 61.2395 46.4446 61.1319 46.3169 61.0445C46.0613 60.8764 45.7789 60.8226 45.557 60.8091C45.3284 60.8024 45.1468 60.8226 45.0325 60.8495C44.8913 60.8696 44.8308 60.8831 44.8308 60.8831Z" fill="#4D4A4A"/>
<path d="M44.3399 61.3676C44.3467 61.8517 44.7501 62.235 45.2343 62.2216C45.7184 62.2148 46.1017 61.8114 46.0883 61.3272C46.0815 60.8431 45.6781 60.4598 45.1939 60.4732C44.7098 60.48 44.3265 60.8834 44.3399 61.3676Z" fill="#4D4A4A"/>
<path d="M92.2708 60.9369C92.2776 61.4211 92.681 61.8043 93.1652 61.7909C93.6493 61.7842 94.0326 61.3807 94.0192 60.8966C94.0124 60.4124 93.609 60.0291 93.1248 60.0426C92.6474 60.056 92.2641 60.4528 92.2708 60.9369Z" fill="#4D4A4A"/>
<path d="M93.5416 60.2649C93.5416 60.2649 93.4743 60.2515 93.3533 60.2313C93.2323 60.2111 93.0507 60.1977 92.8221 60.2111C92.6002 60.238 92.3245 60.3053 92.069 60.4801C91.9479 60.5742 91.8269 60.6818 91.7327 60.823C91.6386 60.9642 91.5646 61.1256 91.5243 61.3072C91.4436 61.6703 91.5108 62.0872 91.7395 62.4369C91.9681 62.7932 92.3648 63.0622 92.8355 63.2102C93.3062 63.3715 93.8576 63.4052 94.4225 63.3783C94.7116 63.3715 94.9739 63.3245 95.2428 63.2572C95.5051 63.1765 95.7606 63.0757 95.9892 62.9277C96.6146 62.5243 96.9508 61.8249 97.0046 61.1122C97.0651 60.3994 96.8768 59.7068 96.581 59.1352C96.2784 58.5637 95.8749 58.0997 95.4513 57.7635C95.0276 57.4273 94.6107 57.1986 94.2476 57.0507C93.8711 56.9566 93.3936 56.8691 92.8624 56.8691C92.3245 56.8691 91.7395 57.0104 91.2015 57.36C90.9393 57.5348 90.677 57.75 90.4349 58.0123C90.1929 58.2678 89.9575 58.5637 89.7289 58.873C89.2649 59.4983 88.8009 60.2044 88.2495 60.897C87.8461 61.408 87.4023 61.8855 86.9316 62.2957C86.4609 62.7058 85.9566 63.0622 85.4455 63.3245C84.4167 63.8624 83.3879 64.0843 82.5406 64.1583C82.433 64.1717 82.3322 64.1785 82.2313 64.1852C82.1304 64.1852 82.0296 64.1919 81.9354 64.1919C81.7404 64.1919 81.5656 64.2054 81.3975 64.1986C81.0613 64.1785 80.7721 64.1785 80.5368 64.1448C80.0728 64.0843 79.8105 64.0507 79.8105 64.0507C79.8105 64.0507 80.0728 64.0372 80.5368 64.0238C80.7721 64.0171 81.0545 63.9767 81.384 63.9566C81.5454 63.9431 81.7203 63.9095 81.9085 63.8826C82.0027 63.8691 82.0968 63.8557 82.191 63.8422C82.2851 63.8221 82.386 63.8019 82.4868 63.775C83.287 63.6069 84.2217 63.3043 85.1227 62.7529C86.0305 62.2015 86.8711 61.3879 87.6444 60.4061C88.1756 59.7404 88.653 59.0545 89.1641 58.4224C89.6751 57.7904 90.2467 57.2121 90.9124 56.8557C91.5781 56.4993 92.2976 56.4119 92.8759 56.4791C93.4609 56.5464 93.9316 56.7078 94.3081 56.8557C94.6982 56.9566 95.1689 57.1314 95.6665 57.4407C96.164 57.75 96.6684 58.2073 97.0718 58.8326C97.4686 59.458 97.751 60.2582 97.7241 61.1391C97.7039 61.5829 97.6031 62.0401 97.3879 62.4705C97.1727 62.8941 96.8365 63.2841 96.4196 63.5598C96.1103 63.7615 95.774 63.896 95.4378 63.9835C95.1016 64.0574 94.7587 64.1045 94.4426 64.1045C93.8105 64.1112 93.1785 64.044 92.6069 63.8086C92.0421 63.5867 91.5377 63.19 91.2822 62.6857C91.02 62.1813 90.9931 61.6232 91.1544 61.1794C91.2351 60.9575 91.3495 60.7625 91.4839 60.6078C91.6252 60.4532 91.7798 60.3322 91.9412 60.2515C92.264 60.0834 92.58 60.0632 92.8154 60.0699C93.0574 60.0901 93.239 60.1371 93.3533 60.1775C93.4811 60.2447 93.5416 60.2649 93.5416 60.2649Z" fill="#4D4A4A"/>
<path d="M5.95082 24.8811C4.98252 24.8811 4.12181 24.6189 3.36868 24.1011C2.61556 23.5834 2.03055 22.8773 1.61364 21.983C1.19673 21.0886 0.988281 20.1136 0.988281 19.0377C0.988281 17.8811 1.21691 16.8591 1.66744 15.9647C2.12469 15.0704 2.77022 14.3778 3.61748 13.8802C4.46475 13.3826 5.44649 13.1338 6.57618 13.1338C7.605 13.1338 8.4926 13.396 9.239 13.9138C9.9854 14.4316 10.557 15.1376 10.947 16.0252C11.337 16.9128 11.532 17.908 11.532 19.0041C11.532 20.0128 11.3168 20.9743 10.8932 21.8687C10.4628 22.7697 9.83074 23.4959 8.98348 24.0473C8.14294 24.6055 7.12757 24.8811 5.95082 24.8811ZM6.1391 13.8264C5.29184 13.8264 4.59251 14.0416 4.04784 14.4786C3.50317 14.9157 3.10644 15.4873 2.86436 16.1866C2.62229 16.8927 2.50125 17.666 2.50125 18.5065C2.50125 19.5353 2.64918 20.4767 2.93833 21.324C3.22747 22.1713 3.66455 22.8504 4.24957 23.3547C4.83458 23.8591 5.54736 24.1079 6.3879 24.1079C7.22843 24.1079 7.92776 23.8792 8.47243 23.4287C9.0171 22.9782 9.42056 22.3999 9.66936 21.6871C9.91816 20.9811 10.0459 20.2347 10.0459 19.4412C10.0459 18.4191 9.89798 17.4777 9.60211 16.6237C9.30624 15.7697 8.86244 15.0906 8.27743 14.5795C7.67896 14.0819 6.96619 13.8264 6.1391 13.8264Z" fill="#4D4A4A"/>
<path d="M13.3676 24.6387L13.4416 24.1142L14.9478 23.7712V14.2698L13.3206 13.9268L13.4012 13.4023H17.9334L17.8729 13.9268L16.2927 14.2362V23.9595H20.6904L21.6385 21.5589L22.2168 21.6463L21.9075 24.6387H13.3676Z" fill="#4D4A4A"/>
<path d="M23.9719 13.9201L24.0459 13.4023H28.5713L28.4907 13.9201L26.9373 14.2025V23.8317L28.6251 24.0738L28.5377 24.6454H24.0526L24.1131 24.1209L25.579 23.7779V14.216L23.9719 13.9201Z" fill="#4D4A4A"/>
<path d="M30.4207 13.9135L30.4812 13.4092H34.8318L34.7713 13.9135L33.2449 14.2026L36.2237 22.7829L39.364 14.243L37.6963 13.9202L37.7501 13.4159H41.5628L41.5158 13.9202L40.339 14.2094L36.4187 24.6858L35.4975 24.8741L31.7386 14.243L30.4207 13.9135Z" fill="#4D4A4A"/>
<path d="M43.3313 13.9201L43.4053 13.4023H47.9307L47.85 13.9201L46.2967 14.2025V23.8317L47.9845 24.0738L47.8971 24.6454H43.412L43.4725 24.1209L44.9384 23.7779V14.216L43.3313 13.9201Z" fill="#4D4A4A"/>
<path d="M49.8 24.6391L49.874 24.1146L51.1853 23.7246L55.1391 13.3826L56.0604 13.1809L59.6915 23.7717L60.9086 24.0541L60.8346 24.6324H56.6656L56.753 24.1079L58.2794 23.7179L57.1564 20.5238H53.3169L52.1334 23.7717L53.801 24.0608L53.7136 24.6324H49.8V24.6391ZM53.5724 19.8178H56.9413L55.314 15.0704L53.5724 19.8178Z" fill="#4D4A4A"/>
<path d="M69.3745 24.821C68.8097 24.821 68.3121 24.7067 67.875 24.478C67.4447 24.2494 67.1085 23.9334 66.8731 23.5232C66.6378 23.113 66.5234 22.649 66.5234 22.1312C66.5234 21.405 66.7588 20.7393 67.2295 20.1476C67.7002 19.5558 68.3592 18.9843 69.2064 18.4396C68.8433 18.063 68.5407 17.6529 68.2919 17.1956C68.0431 16.7384 67.9221 16.2878 67.9221 15.8373C67.9221 15.3733 68.0431 14.9362 68.2852 14.5261C68.5273 14.1159 68.8568 13.7797 69.267 13.5309C69.6771 13.2821 70.1209 13.1543 70.5916 13.1543C71.3649 13.1543 71.9634 13.356 72.4005 13.7528C72.8376 14.1495 73.0527 14.7211 73.0527 15.4675C73.0527 15.9852 72.8645 16.4761 72.4879 16.9334C72.1113 17.3906 71.5734 17.8546 70.8673 18.3253V18.3858L73.0595 20.8805L74.7136 18.1437L73.2948 17.8075L73.3486 17.3099H77.1882L77.1142 17.8075L75.5878 18.1168L73.6109 21.4319C74.2631 22.2052 74.8481 22.8037 75.3793 23.2408C75.9106 23.6778 76.3544 23.9535 76.7175 24.0678L77.0671 24.1754L76.9797 24.6663C76.7982 24.7268 76.6435 24.7672 76.5023 24.7941C76.3678 24.821 76.2064 24.8277 76.0182 24.8277C75.5945 24.8277 75.1911 24.6999 74.8011 24.4511C74.411 24.2023 74.0614 23.8997 73.7386 23.5433L72.8779 22.5952C72.5686 23.0457 72.2593 23.429 71.9365 23.7518C71.6137 24.0678 71.2439 24.3301 70.8135 24.5318C70.4101 24.7201 69.9259 24.821 69.3745 24.821ZM69.583 18.9775C69.0585 19.3541 68.6416 19.7576 68.339 20.1745C68.0297 20.5914 67.875 21.0688 67.875 21.5933C67.875 22.0102 67.9557 22.3868 68.1171 22.7297C68.2785 23.0726 68.5071 23.3483 68.803 23.5501C69.0989 23.7518 69.4485 23.8594 69.8452 23.8594C70.363 23.8594 70.8337 23.6913 71.2573 23.3551C71.681 23.0189 72.0508 22.5818 72.3601 22.0573L69.6704 18.9843L69.583 18.9775ZM70.3765 13.7998C70.1075 13.7998 69.8654 13.8738 69.657 14.0217C69.4485 14.1697 69.2871 14.3647 69.1728 14.6067C69.0585 14.8488 69.0047 15.1043 69.0047 15.3868C69.0047 15.7768 69.1392 16.187 69.4014 16.6173C69.6637 17.0477 69.9932 17.4579 70.3765 17.8546C70.8673 17.5049 71.2305 17.1687 71.4725 16.8459C71.7146 16.5232 71.8356 16.1332 71.8356 15.6692C71.8356 15.3262 71.7751 15.0102 71.6608 14.7278C71.5465 14.4454 71.3717 14.2235 71.1565 14.0554C70.9413 13.8872 70.6791 13.7998 70.3765 13.7998Z" fill="#4D4A4A"/>
<path d="M82.9845 27.5705L82.6416 26.972C83.3947 26.2928 83.9528 25.6204 84.3092 24.9614C84.6723 24.3024 84.8539 23.5628 84.8539 22.7491V14.216L83.2132 13.9201L83.2871 13.4023H87.8328L87.7521 13.9201L86.2189 14.2025L86.1988 21.2832C86.192 22.4936 86.0912 23.4552 85.8962 24.1612C85.7012 24.874 85.3851 25.4725 84.948 25.9633C84.5042 26.4542 83.852 26.9922 82.9845 27.5705Z" fill="#4D4A4A"/>
<path d="M89.5608 24.6391L89.6348 24.1146L90.946 23.7246L94.8999 13.3826L95.8211 13.1809L99.4522 23.7717L100.669 24.0541L100.595 24.6324H96.4263L96.5137 24.1079L98.0401 23.7179L96.9172 20.5238H93.0776L91.8941 23.7717L93.5617 24.0608L93.4743 24.6324H89.5608V24.6391ZM93.3331 19.8178H96.702L95.0747 15.0704L93.3331 19.8178Z" fill="#4D4A4A"/>
<path d="M102.445 24.6387L102.519 24.1478L104.038 23.8048L104.731 14.2429L103.07 13.9067L103.151 13.4023H106.398L107.078 15.1305L109.666 22.2179L112.679 14.7741L113.284 13.4023H116.532L116.471 13.9067L114.925 14.216L115.416 23.8586L117.05 24.094L116.996 24.6387H112.491L112.565 24.1478L114.091 23.8048L113.58 14.8212L109.761 24.1411L108.96 24.2688L105.565 15.0767L104.926 23.8654L106.58 24.1007L106.493 24.6454H102.445V24.6387Z" fill="#4D4A4A"/>
<path d="M118.845 13.9404L118.926 13.4092H127.513L127.23 16.2872L126.625 16.2065L126.356 14.048H121.817V18.6071H124.662L125.025 17.4438L125.677 17.3429L125.381 20.853L124.783 20.9538L124.554 19.2728H121.817V23.9596H126.592L127.365 21.7137L127.923 21.8146L127.654 24.6388H118.892L118.946 24.1143L120.473 23.7713V14.243L118.845 13.9404Z" fill="#4D4A4A"/>
<path d="M132.704 24.8674C132.079 24.8674 131.494 24.7464 130.962 24.4976C130.424 24.2488 130.008 23.9394 129.698 23.5696L129.9 21.0749L130.579 21.1757L130.875 23.0115C131.063 23.341 131.352 23.6099 131.756 23.8184C132.159 24.0269 132.59 24.1277 133.054 24.1277C133.417 24.1277 133.76 24.0538 134.089 23.9058C134.419 23.7579 134.688 23.536 134.896 23.2401C135.105 22.9442 135.205 22.5879 135.205 22.1642C135.205 21.7944 135.105 21.4649 134.896 21.169C134.688 20.8732 134.432 20.6176 134.116 20.389C133.807 20.1671 133.383 19.8981 132.859 19.5888C132.24 19.2123 131.742 18.8895 131.366 18.6138C130.989 18.3381 130.673 17.9952 130.411 17.585C130.149 17.1748 130.021 16.7041 130.021 16.1661C130.021 15.5542 130.176 15.0163 130.485 14.5658C130.794 14.1085 131.198 13.7656 131.702 13.5302C132.2 13.2949 132.731 13.1738 133.282 13.1738C133.78 13.1738 134.257 13.2545 134.708 13.4159C135.158 13.5773 135.548 13.8126 135.871 14.122L135.629 16.7982L134.97 16.7175L134.735 14.7473C134.607 14.5052 134.378 14.2901 134.042 14.0951C133.706 13.9001 133.363 13.8059 133.013 13.8059C132.691 13.8059 132.395 13.8732 132.126 14.0144C131.857 14.1556 131.648 14.3573 131.487 14.6263C131.332 14.8952 131.252 15.2247 131.252 15.6013C131.252 16.0115 131.366 16.3746 131.588 16.6974C131.81 17.0201 132.085 17.2958 132.415 17.5312C132.744 17.7598 133.188 18.0489 133.76 18.3852C134.372 18.7483 134.863 19.0643 135.226 19.3266C135.589 19.5955 135.898 19.925 136.154 20.3083C136.409 20.6983 136.537 21.1421 136.537 21.6464C136.537 22.2584 136.369 22.8098 136.033 23.3006C135.696 23.7915 135.232 24.1748 134.647 24.4505C134.062 24.7262 133.41 24.8674 132.704 24.8674Z" fill="#4D4A4A"/>
<path d="M130.841 31.3567C128.985 33.569 127.069 35.7477 124.931 37.7044C123.902 38.7265 122.786 39.6478 121.689 40.5959C121.152 41.08 120.56 41.5037 119.995 41.9542C119.417 42.3913 118.865 42.8687 118.274 43.2789C113.58 46.6747 108.523 49.593 103.177 51.8591L101.174 52.7064L99.1362 53.4796L98.1141 53.8629L97.0785 54.2059L95.0074 54.885L92.9162 55.4902L91.8672 55.7928L90.8115 56.0551L88.7 56.5728L86.5684 57.0166C80.8797 58.1867 75.0699 58.7448 69.2601 58.7851C63.4503 58.812 57.6405 58.227 51.945 57.1108C46.2428 56.0013 40.6549 54.3135 35.3225 52.0138C33.9776 51.4691 32.6731 50.8235 31.3686 50.1982C30.0574 49.5796 28.7865 48.8802 27.5156 48.1809C24.9873 46.7621 22.5396 45.1953 20.1928 43.5008C17.846 41.7995 15.6069 39.9503 13.4954 37.9734C11.3773 36.0032 9.3936 33.8918 7.55786 31.6526C11.3907 35.9763 15.7144 39.8495 20.4685 43.1108C22.8355 44.7582 25.2831 46.2779 27.8115 47.643C29.0824 48.3154 30.3532 48.9878 31.6645 49.5863C32.969 50.1847 34.2735 50.8034 35.6117 51.3211C36.2774 51.5901 36.9363 51.8725 37.6155 52.1281L39.6462 52.861L40.6616 53.2308L41.6904 53.5603L43.7481 54.2126C44.4339 54.4211 45.1333 54.5959 45.8259 54.7909C46.5185 54.9724 47.2044 55.1876 47.9104 55.3356C49.3158 55.6516 50.7077 56.008 52.1265 56.2501C57.775 57.3327 63.5242 57.8773 69.2735 57.8235C75.0161 57.8101 80.7721 57.2856 86.4138 56.1559L88.5252 55.7256L90.6232 55.2212L91.6722 54.9657L92.7077 54.6766L94.7855 54.0916L96.8364 53.4259L97.8653 53.0964L98.8806 52.7265L100.911 51.9936L102.908 51.1799C113.526 46.8024 123.236 40.0714 130.841 31.3567Z" fill="#4D4A4A"/>
<path d="M109.438 31.0742C108.006 32.1367 106.553 33.1857 105.027 34.1271C104.28 34.6179 103.494 35.055 102.734 35.519C101.947 35.9493 101.18 36.4066 100.38 36.81C98.7933 37.6506 97.1593 38.3835 95.5118 39.0963C93.8509 39.7755 92.1766 40.4344 90.4686 40.9858C83.6502 43.2587 76.4552 44.3547 69.2602 44.4287C65.6627 44.422 62.0651 44.1463 58.5147 43.615C54.9643 43.0569 51.4475 42.2702 48.0248 41.1607C44.6089 40.0579 41.2736 38.6861 38.0796 37.0656C34.899 35.4114 31.8327 33.542 28.9749 31.3903C31.9604 33.3605 35.0603 35.1357 38.288 36.6352C41.509 38.1616 44.8375 39.4393 48.2467 40.4479C51.6627 41.4364 55.1257 42.2366 58.6425 42.7409C62.1593 43.2385 65.7097 43.4738 69.2602 43.4604C72.8106 43.4537 76.361 43.1847 79.8711 42.6602C83.3812 42.1223 86.8509 41.3153 90.2467 40.2798C91.9547 39.7755 93.6223 39.1636 95.2832 38.5315C96.9307 37.8658 98.5714 37.1732 100.172 36.3864C103.386 34.8802 106.459 33.0512 109.438 31.0742Z" fill="#4D4A4A"/>
<path d="M99.4186 1.34616C99.3379 0.989773 99.2034 0.660282 99.0421 0.371137C98.8807 0.081992 98.6924 -0.166807 98.5041 -0.375261C98.3158 -0.590438 98.1007 -0.771994 97.8788 -0.940102C97.825 -0.980448 97.7644 -1.02079 97.7107 -1.06114C97.6838 -1.08131 97.6501 -1.10149 97.6232 -1.12166L97.5358 -1.17545C97.4753 -1.2158 97.4148 -1.24942 97.3543 -1.27632L97.2601 -1.32339L97.166 -1.36373C96.9105 -1.47805 96.6549 -1.56546 96.3927 -1.63271C96.1304 -1.69322 95.8682 -1.74029 95.6059 -1.76047C95.0814 -1.80081 94.5704 -1.77392 94.0795 -1.6865C93.8307 -1.64615 93.5954 -1.58564 93.36 -1.51839C93.239 -1.48477 93.1247 -1.44442 93.0171 -1.40408C92.9633 -1.38391 92.9028 -1.35701 92.849 -1.33684C92.7952 -1.31666 92.7347 -1.28977 92.6809 -1.26959C92.6271 -1.2427 92.5733 -1.22252 92.5195 -1.19563C92.4657 -1.16873 92.4119 -1.14183 92.3581 -1.11493L92.2774 -1.07459L92.2034 -1.02752C92.1497 -1.00062 92.1026 -0.966999 92.0488 -0.940102C92.0017 -0.90648 91.9479 -0.879583 91.9009 -0.845962L91.8269 -0.798892L91.7529 -0.745097C91.7059 -0.711476 91.6588 -0.677854 91.6117 -0.644233C91.5646 -0.610611 91.5243 -0.570265 91.4772 -0.536644C91.4302 -0.503022 91.3898 -0.462677 91.3495 -0.422331C91.3091 -0.381985 91.2621 -0.348364 91.2217 -0.308018C91.141 -0.227326 91.0603 -0.146634 90.9931 -0.0592183C90.8451 0.108889 90.7174 0.29717 90.6031 0.478726C90.5762 0.525796 90.5493 0.572866 90.5224 0.619936L90.482 0.693904L90.4484 0.767871C90.4282 0.814941 90.4081 0.868735 90.3812 0.915805C90.361 0.9696 90.3475 1.01667 90.3274 1.07046L90.3005 1.14443C90.2937 1.17133 90.287 1.19823 90.2803 1.2184C90.2668 1.27219 90.2534 1.31926 90.24 1.37306C90.2265 1.42685 90.2198 1.47392 90.2131 1.52772L90.1996 1.60168C90.1996 1.62858 90.1929 1.65548 90.1929 1.67565C90.1862 1.72945 90.1862 1.77652 90.1794 1.83031C90.1794 1.8841 90.1794 1.93118 90.1794 1.98497V2.05894L90.1862 2.1329C90.1929 2.17997 90.1929 2.23377 90.1996 2.28084C90.2063 2.32791 90.2131 2.37498 90.2198 2.42877C90.2265 2.45567 90.2265 2.47584 90.2332 2.50274L90.2467 2.57671C90.2601 2.62378 90.2668 2.67085 90.2803 2.71792C90.2937 2.76499 90.3072 2.80533 90.3206 2.85241C90.3274 2.87258 90.3341 2.89948 90.3408 2.91965L90.3677 2.98689C90.3879 3.02724 90.4013 3.07431 90.4215 3.11465C90.4417 3.155 90.4619 3.19534 90.482 3.23569L90.5157 3.29621C90.5291 3.31638 90.5358 3.33655 90.5493 3.35673C90.5694 3.39707 90.5963 3.4307 90.6165 3.47104C90.6434 3.50466 90.6636 3.54501 90.6905 3.57863C90.7375 3.6526 90.7981 3.71312 90.8519 3.78036C91.0738 4.03588 91.3293 4.22416 91.5915 4.35865C91.8538 4.49313 92.1228 4.57383 92.3716 4.60072C92.6204 4.63435 92.849 4.62762 93.0507 4.58728C93.0776 4.58055 93.0978 4.58055 93.1247 4.57383C93.1516 4.5671 93.1717 4.56038 93.1919 4.55365C93.239 4.54021 93.2793 4.53348 93.3264 4.52003C93.4138 4.49313 93.4878 4.46624 93.5618 4.43262C93.629 4.399 93.6962 4.3721 93.75 4.3452C93.7702 4.33175 93.7904 4.3183 93.8106 4.31158C94.2476 4.23761 94.5839 3.85433 94.5839 3.39707C94.5839 2.88603 94.1669 2.46912 93.6559 2.46912C93.1449 2.46912 92.7279 2.88603 92.7279 3.39707C92.7279 3.80053 92.9835 4.14347 93.3399 4.27123C93.3197 4.27796 93.2928 4.27796 93.2726 4.28468C93.2323 4.29141 93.1919 4.29141 93.1516 4.29813C93.1314 4.29813 93.1112 4.30485 93.0843 4.30485C93.0642 4.30485 93.0373 4.30485 93.0171 4.30485C92.8355 4.3183 92.6405 4.30485 92.4321 4.25778C92.2236 4.21071 92.0017 4.13002 91.7933 4.00226C91.5848 3.8745 91.3764 3.69967 91.2083 3.47777C91.1679 3.42397 91.1208 3.36345 91.0872 3.30293C91.067 3.26931 91.0469 3.24241 91.0267 3.20879C91.0065 3.17517 90.9931 3.14155 90.9729 3.11465C90.9662 3.1012 90.9527 3.08103 90.946 3.06758L90.9258 3.01379C90.9124 2.98017 90.8989 2.94655 90.8788 2.91292C90.8653 2.8793 90.8519 2.83896 90.8384 2.80534L90.8182 2.75154C90.8115 2.73137 90.8115 2.71792 90.8048 2.69775C90.7981 2.6574 90.7846 2.62378 90.7712 2.58343C90.7644 2.54309 90.7577 2.50947 90.751 2.46912L90.7376 2.4086C90.7376 2.38843 90.7308 2.36826 90.7308 2.34808C90.7241 2.30774 90.7241 2.26739 90.7174 2.22704C90.7174 2.1867 90.7174 2.14635 90.7107 2.10601V2.04549V1.98497C90.7107 1.94462 90.7174 1.90428 90.7174 1.86393C90.7241 1.82359 90.7308 1.78324 90.7308 1.7429C90.7308 1.72272 90.7376 1.70255 90.7376 1.68238L90.751 1.62186C90.7577 1.58151 90.7712 1.54117 90.7779 1.50082C90.7913 1.46047 90.8048 1.42013 90.8115 1.37978C90.8182 1.35961 90.825 1.33944 90.8317 1.31926L90.8586 1.25874C90.872 1.2184 90.8922 1.17805 90.9057 1.13771C90.9258 1.09736 90.946 1.05702 90.9662 1.01667L90.9931 0.956151L91.0267 0.895633C91.0469 0.855287 91.0738 0.814941 91.0939 0.78132C91.484 0.162684 92.1362 -0.348364 92.9162 -0.67113C92.9633 -0.691303 93.0171 -0.711476 93.0642 -0.731649C93.1112 -0.751822 93.165 -0.771994 93.2121 -0.785443C93.313 -0.819065 93.4138 -0.852686 93.5214 -0.879583C93.7299 -0.940102 93.945 -0.987172 94.1669 -1.02079C94.604 -1.08804 95.0613 -1.10821 95.5185 -1.06786C95.7472 -1.04769 95.9758 -1.00735 96.1977 -0.953551C96.4196 -0.899756 96.6415 -0.825789 96.8432 -0.724924L96.9239 -0.691303L96.9979 -0.650957C97.0449 -0.62406 97.0987 -0.597163 97.1458 -0.570266L97.2198 -0.523195C97.2467 -0.509747 97.2669 -0.496298 97.2938 -0.476125C97.3408 -0.442504 97.3879 -0.408882 97.435 -0.375261C97.6232 -0.227326 97.8048 -0.0793914 97.9594 0.102165C98.1141 0.276997 98.2688 0.478726 98.4033 0.714076C98.5377 0.949427 98.6453 1.21167 98.7126 1.50754C98.7798 1.80341 98.8134 2.11946 98.8 2.45567C98.8 2.53636 98.7865 2.62378 98.7798 2.71119C98.7731 2.79861 98.7529 2.8793 98.7395 2.96672C98.7059 3.14155 98.6655 3.31638 98.605 3.49121C98.5512 3.66605 98.4772 3.84088 98.3965 4.01571C98.3091 4.18382 98.2217 4.35865 98.1141 4.52676C98.0065 4.69486 97.8855 4.85625 97.7577 5.01091C97.6905 5.08487 97.6232 5.16557 97.5493 5.23953C97.5156 5.27988 97.4753 5.3135 97.4417 5.35385C97.4013 5.38747 97.3677 5.42781 97.3274 5.46143C97.287 5.49506 97.2467 5.52868 97.2063 5.56902C97.166 5.60265 97.1256 5.63627 97.0853 5.66989C96.9979 5.73713 96.9105 5.80437 96.823 5.87162C96.776 5.90524 96.7356 5.93886 96.6886 5.97248C96.6415 6.0061 96.5944 6.03972 96.5541 6.06662C96.507 6.10024 96.4599 6.13387 96.4129 6.16076C96.3658 6.19438 96.3187 6.22801 96.2717 6.2549C96.1775 6.31542 96.0834 6.37594 95.9825 6.43646C95.8884 6.49698 95.7808 6.55077 95.6866 6.60457C95.5858 6.66508 95.4849 6.71216 95.3773 6.76595C95.3235 6.79285 95.2765 6.81974 95.2227 6.83992C95.1689 6.86681 95.1151 6.88699 95.0613 6.90716C95.0075 6.92733 94.9537 6.95423 94.8999 6.9744C94.8461 6.99458 94.7923 7.02147 94.7385 7.04165C94.6242 7.08199 94.5166 7.12234 94.4023 7.15596C94.288 7.18958 94.1737 7.2232 94.0594 7.25682C94.0056 7.277 93.945 7.28372 93.8845 7.30389C93.824 7.31734 93.7702 7.33079 93.7097 7.34424C93.239 7.45183 92.7481 7.51907 92.2438 7.56614C92.116 7.57959 91.995 7.58631 91.8672 7.59304L91.6924 7.61321L91.5041 7.61994C91.3764 7.62666 91.2486 7.63339 91.1208 7.63339C90.9931 7.63339 90.8653 7.64011 90.7376 7.64011C90.6098 7.64683 90.482 7.64683 90.3475 7.64683C90.2198 7.64683 90.0853 7.64683 89.9575 7.64683C89.8298 7.64683 89.702 7.64011 89.5742 7.64011L89.3792 7.63339C89.312 7.63339 89.2515 7.62666 89.1842 7.61994C89.0565 7.61321 88.9287 7.60649 88.7942 7.59304C88.6665 7.58631 88.5387 7.56614 88.4042 7.55269C88.142 7.53252 87.8864 7.49217 87.6309 7.45183C87.5032 7.43166 87.3754 7.41148 87.2409 7.39131C87.1131 7.37114 86.9854 7.35096 86.8576 7.32407C86.6021 7.27027 86.3466 7.2232 86.0911 7.16268C85.7212 7.08199 85.3581 6.99458 84.995 6.90044C85.0017 6.90044 85.0017 6.90044 85.0084 6.90044C85.0421 6.89371 85.0824 6.89371 85.116 6.88699C85.1497 6.88026 85.19 6.87354 85.2236 6.86681C85.2976 6.85337 85.3648 6.83992 85.4321 6.81974C85.5733 6.78612 85.7078 6.73905 85.8355 6.68526C85.9633 6.63819 86.0911 6.57094 86.2121 6.51043C86.3331 6.44318 86.4474 6.37594 86.5483 6.29525C86.9787 5.98593 87.288 5.57575 87.4561 5.15212C87.5435 4.94366 87.5906 4.72849 87.6107 4.52676C87.6309 4.32503 87.6242 4.13002 87.604 3.95519C87.5839 3.78036 87.5368 3.61225 87.4897 3.45087C87.4763 3.41052 87.4628 3.37018 87.4494 3.32983C87.4426 3.30966 87.4359 3.28948 87.4225 3.26931L87.3956 3.20879C87.3821 3.16845 87.362 3.1281 87.3418 3.08776L87.3149 3.02724L87.2813 2.97344C87.1938 2.82551 87.093 2.69102 86.9854 2.56326C86.8778 2.44222 86.7568 2.32118 86.6357 2.22032C86.3869 2.01187 86.118 1.84376 85.8355 1.716C85.6943 1.64875 85.5531 1.59496 85.4119 1.54789C85.3379 1.52099 85.2707 1.50082 85.1967 1.48065C85.1631 1.4672 85.1228 1.46047 85.0891 1.45375C85.0555 1.44703 85.0152 1.43358 84.9815 1.42685C84.9479 1.42013 84.9076 1.4134 84.874 1.40668C84.8403 1.39996 84.8 1.39323 84.7664 1.39323L84.7126 1.38651L84.6588 1.37978C84.6252 1.37978 84.5848 1.37306 84.5512 1.37306C84.5176 1.37306 84.4772 1.37306 84.4436 1.36633H84.3898H84.336C84.3024 1.36633 84.262 1.36633 84.2284 1.36633C84.1948 1.36633 84.1545 1.37306 84.1208 1.37306C84.0872 1.37306 84.0469 1.37978 84.0132 1.38651C83.9796 1.39323 83.946 1.39323 83.9057 1.39996C83.8384 1.4134 83.7644 1.42685 83.7039 1.4403C83.5694 1.47392 83.4417 1.52099 83.3139 1.57479C83.287 1.58824 83.2534 1.60841 83.2265 1.62186L83.1794 1.64203L83.1391 1.66893C83.1122 1.6891 83.0853 1.70255 83.0517 1.72272C83.0248 1.74289 82.9979 1.76307 82.971 1.78324L82.9306 1.81014C82.9172 1.81686 82.9037 1.83031 82.8903 1.84376C82.8634 1.86393 82.8432 1.88411 82.8163 1.90428C82.7894 1.92445 82.7693 1.95135 82.7491 1.97152L82.7155 2.00514C82.702 2.01859 82.6953 2.03204 82.6818 2.03876C82.6617 2.06566 82.6415 2.08583 82.6213 2.11273C82.6011 2.13963 82.5877 2.16653 82.5675 2.1867L82.5406 2.22704L82.5137 2.26739C82.5003 2.29429 82.4801 2.32119 82.4667 2.34808C82.4532 2.37498 82.4398 2.40188 82.4263 2.42877C82.4196 2.44222 82.4129 2.45567 82.4061 2.46912L82.3927 2.50947C82.3792 2.53636 82.3725 2.56326 82.3591 2.59016C82.3523 2.61705 82.3389 2.64395 82.3322 2.67085C82.3254 2.6843 82.3254 2.69775 82.3187 2.71119L82.312 2.75154C82.3053 2.77844 82.2986 2.80534 82.2918 2.83223C82.2851 2.85913 82.2851 2.88603 82.2784 2.91292L82.2717 2.95327C82.2717 2.96672 82.2717 2.98017 82.2717 2.99362C82.2717 3.02051 82.2649 3.04741 82.2649 3.07431C82.2649 3.1012 82.2649 3.1281 82.2649 3.155C82.2649 3.20879 82.2717 3.26259 82.2717 3.30966C82.2918 3.51811 82.3591 3.70639 82.4398 3.86777C82.5272 4.02916 82.6348 4.16364 82.7424 4.26451C82.8567 4.36537 82.9777 4.44606 83.092 4.49986C83.1055 4.50658 83.1189 4.51331 83.1324 4.52003C83.1458 4.52676 83.1593 4.53348 83.1727 4.53348C83.1996 4.54693 83.2265 4.55365 83.2534 4.5671C83.3072 4.58055 83.3543 4.594 83.4013 4.60745C83.4484 4.61417 83.4887 4.6209 83.5291 4.62762C83.5425 4.62762 83.556 4.62762 83.5694 4.63435C83.8182 4.74866 84.1208 4.67469 84.2822 4.44606C84.4638 4.18382 84.4033 3.82743 84.141 3.64587C83.8788 3.46432 83.5224 3.52484 83.3408 3.78708C83.1996 3.98881 83.2063 4.25106 83.3408 4.44606C83.3274 4.43934 83.3139 4.43262 83.3005 4.42589C83.2803 4.41244 83.2534 4.39899 83.2332 4.39227C83.2198 4.38555 83.2131 4.37882 83.1996 4.3721C83.1862 4.36537 83.1794 4.35865 83.166 4.35192C83.0718 4.29813 82.9777 4.21744 82.8836 4.1233C82.7961 4.02916 82.7155 3.90812 82.6549 3.76691C82.5944 3.6257 82.5541 3.46432 82.5406 3.29621C82.5406 3.25586 82.5339 3.20879 82.5406 3.16845C82.5406 3.14827 82.5406 3.12138 82.5473 3.1012C82.5473 3.08103 82.5541 3.05413 82.5541 3.03396C82.5541 3.02051 82.5541 3.01379 82.5608 3.00034L82.5675 2.96672C82.5742 2.94655 82.5742 2.91965 82.581 2.89947C82.5877 2.8793 82.5944 2.85241 82.6011 2.83223L82.6079 2.79861C82.6146 2.78516 82.6146 2.77844 82.6213 2.76499C82.628 2.74482 82.6348 2.71792 82.6482 2.69775C82.6549 2.67757 82.6684 2.65068 82.6751 2.6305L82.6886 2.59688C82.6953 2.58343 82.702 2.57671 82.7087 2.56326C82.7222 2.54309 82.7289 2.52291 82.7424 2.49602C82.7558 2.47584 82.7692 2.45567 82.7827 2.4355L82.8029 2.40188L82.823 2.37498C82.8365 2.35481 82.8567 2.33463 82.8701 2.31446C82.8903 2.29429 82.9037 2.27411 82.9239 2.26067C82.9306 2.25394 82.9441 2.24049 82.9508 2.23377H82.9844C83.0046 2.2136 83.0248 2.20015 83.0449 2.17997C83.0651 2.16653 83.0853 2.14635 83.1055 2.1329C83.1189 2.12618 83.1256 2.11946 83.1391 2.10601L83.1727 2.08583C83.1929 2.07239 83.2198 2.05894 83.24 2.03876C83.2668 2.02532 83.287 2.01187 83.3139 1.99842L83.3475 1.97825L83.3879 1.95807C83.4148 1.94462 83.4417 1.9379 83.4619 1.92445C83.8788 1.74962 84.3898 1.72272 84.8941 1.83703C84.9278 1.84376 84.9547 1.85048 84.9883 1.85721C85.0219 1.86393 85.0555 1.87066 85.0824 1.8841C85.1429 1.90428 85.2102 1.92445 85.2707 1.94462C85.3985 1.98497 85.5262 2.03876 85.6473 2.09928C85.8961 2.22032 86.1314 2.37498 86.3466 2.55654C86.4542 2.65068 86.555 2.75154 86.6492 2.85241C86.7433 2.95999 86.824 3.07431 86.898 3.19534L86.9249 3.24241L86.9518 3.28948C86.9652 3.32311 86.9854 3.35 86.9988 3.38362L87.019 3.43069C87.0257 3.44414 87.0325 3.46432 87.0392 3.47777C87.0526 3.51139 87.0661 3.54501 87.0728 3.57863C87.1131 3.71984 87.1535 3.86105 87.1669 4.00226C87.1871 4.14347 87.1938 4.30485 87.1737 4.46624C87.1602 4.63435 87.1199 4.80245 87.0459 4.97728C86.9787 5.15212 86.8778 5.32022 86.75 5.48833C86.7231 5.52868 86.6828 5.56902 86.6492 5.60937C86.6156 5.64972 86.5752 5.69006 86.5416 5.72368C86.4609 5.79765 86.3802 5.87162 86.2861 5.93886C86.1986 6.0061 86.0978 6.06662 85.9969 6.12714C85.8961 6.18094 85.7885 6.24145 85.6741 6.2818C85.5598 6.32887 85.4455 6.36922 85.3245 6.40284C85.264 6.41629 85.2034 6.43646 85.1362 6.44318C85.1026 6.44991 85.0757 6.45663 85.0421 6.46336C85.0084 6.47008 84.9815 6.47008 84.9479 6.4768C84.9143 6.48353 84.8807 6.48353 84.8538 6.49025C84.8202 6.49025 84.7865 6.49698 84.7529 6.49698C84.6857 6.49698 84.6184 6.5037 84.5512 6.5037C84.5176 6.5037 84.4839 6.51043 84.4503 6.51043C84.4167 6.51043 84.3831 6.51043 84.3495 6.51043C84.3158 6.51043 84.2822 6.51043 84.2486 6.51043C84.215 6.51043 84.1814 6.51043 84.141 6.51043C84.0738 6.5037 83.9998 6.5037 83.9326 6.5037C83.8653 6.49698 83.7913 6.49025 83.7241 6.48353C83.6501 6.4768 83.5829 6.46336 83.5156 6.45663C83.482 6.44991 83.4484 6.44318 83.4081 6.44318C83.3879 6.44318 83.3744 6.43646 83.3543 6.42973C83.2601 6.40284 83.166 6.37594 83.0718 6.34904C82.5742 6.20111 82.0834 6.04645 81.5992 5.89851C81.1151 5.75058 80.6242 5.60265 80.1535 5.46143C79.2054 5.17901 78.2841 4.88314 77.3831 4.65452C76.9326 4.53348 76.4887 4.43934 76.0584 4.35192C75.6213 4.26451 75.191 4.21071 74.7741 4.16364C73.9402 4.08968 73.1468 4.10985 72.434 4.23089C72.0776 4.29141 71.7414 4.37882 71.4388 4.49986C71.1362 4.6209 70.8605 4.78228 70.6453 4.98401C70.5377 5.08487 70.4503 5.19919 70.3764 5.32022C70.3091 5.44126 70.262 5.56902 70.2351 5.69006C70.2284 5.72368 70.2217 5.75058 70.2217 5.7842C70.215 5.81782 70.215 5.84472 70.215 5.87834C70.2083 5.93886 70.2083 5.99938 70.2083 6.0599C70.215 6.17421 70.2352 6.2818 70.2688 6.38266C70.3293 6.58439 70.4302 6.74578 70.5445 6.86009C70.6588 6.9744 70.7865 7.03492 70.8941 7.05509C71.0017 7.07527 71.0891 7.06182 71.1429 7.04837C71.1698 7.04165 71.19 7.03492 71.2035 7.0282C71.2169 7.02147 71.2236 7.02147 71.2236 7.02147C71.2236 7.01475 71.1967 7.0282 71.1429 7.03492C71.0891 7.04165 71.0084 7.04837 70.9076 7.0282C70.8067 7.0013 70.6924 6.94078 70.5915 6.82647C70.4907 6.71216 70.4033 6.5575 70.3495 6.36922C70.3226 6.27507 70.3091 6.17421 70.3024 6.06662C70.3024 6.01283 70.3024 5.95903 70.3091 5.89851C70.3158 5.87162 70.3158 5.84472 70.3226 5.8111C70.3293 5.7842 70.336 5.7573 70.3427 5.72368C70.3696 5.60937 70.4167 5.49506 70.484 5.38747C70.5512 5.27988 70.6386 5.17901 70.7395 5.08487C70.9412 4.90332 71.2102 4.75538 71.506 4.64779C71.8019 4.54021 72.1314 4.46624 72.4743 4.41244C73.1737 4.30485 73.947 4.31158 74.7606 4.39899C75.1708 4.45279 75.5877 4.52003 76.0113 4.61417C76.435 4.70831 76.872 4.8159 77.3158 4.94366C77.4772 4.99073 77.6453 5.0378 77.8067 5.0916C77.9143 5.13867 78.0152 5.19919 78.116 5.25971C78.1631 5.27315 78.2034 5.29333 78.2505 5.30678C78.2774 5.3135 78.3043 5.32695 78.3312 5.3404C78.3581 5.35385 78.385 5.36057 78.4119 5.37402C78.4388 5.38747 78.4657 5.39419 78.4926 5.40764C78.5195 5.42109 78.5464 5.43454 78.5666 5.44799C78.6204 5.47488 78.6674 5.49506 78.7145 5.52195C78.7616 5.54885 78.8154 5.57575 78.8624 5.60265C78.9095 5.62954 78.9566 5.66316 79.0036 5.69006C79.0305 5.70351 79.0507 5.72368 79.0709 5.73713C79.0911 5.75058 79.118 5.77075 79.1381 5.7842C79.1583 5.79765 79.1852 5.81782 79.2054 5.83127C79.2255 5.84472 79.2457 5.86489 79.2726 5.87834C79.313 5.91196 79.36 5.94558 79.4004 5.97921C79.4205 5.99265 79.4407 6.01283 79.4609 6.02628C79.4811 6.03973 79.5012 6.0599 79.5214 6.08007C79.5416 6.10024 79.5618 6.11369 79.5752 6.13387C79.5954 6.15404 79.6088 6.16749 79.629 6.18766C79.6626 6.22128 79.6962 6.26163 79.7299 6.30197C79.7904 6.37594 79.8509 6.45663 79.9047 6.53732C79.9585 6.61801 80.0056 6.70543 80.0459 6.78612C80.0863 6.87354 80.1199 6.95423 80.1468 7.04165C80.1737 7.12906 80.1938 7.20975 80.214 7.29717C80.2207 7.33752 80.2275 7.38459 80.2342 7.42493C80.2409 7.46528 80.2409 7.50562 80.2476 7.54597C80.2544 7.70735 80.2409 7.86874 80.2073 8.00995C80.1737 8.15116 80.1199 8.28564 80.0594 8.39996C79.9921 8.51427 79.9181 8.61513 79.8442 8.70255C79.7702 8.78997 79.6761 8.86393 79.5887 8.9379C79.5618 8.95807 79.5416 8.97152 79.5214 8.99169C79.508 8.99842 79.5012 9.00514 79.4878 9.01859L79.4542 9.03876C79.434 9.05221 79.4071 9.06566 79.3802 9.07911L79.3466 9.09928L79.3062 9.11946C79.2054 9.16652 79.0978 9.20687 78.9902 9.23377C78.8826 9.26067 78.7683 9.28084 78.6607 9.29429C78.4388 9.31446 78.2102 9.30774 77.995 9.27411C77.8874 9.25394 77.7798 9.23377 77.679 9.20687C77.6252 9.19342 77.5781 9.17325 77.5243 9.1598C77.4974 9.15308 77.4772 9.13963 77.4503 9.1329C77.4234 9.12618 77.4033 9.11273 77.3764 9.10601C76.9931 8.95135 76.6703 8.70255 76.482 8.39996C76.4686 8.37978 76.4619 8.35961 76.4484 8.33944L76.435 8.31254L76.3879 8.28564C76.3812 8.26547 76.3677 8.2453 76.361 8.22512C76.3543 8.20495 76.3475 8.18478 76.3408 8.1646L76.3274 8.13771C76.3206 8.13098 76.3206 8.11753 76.3206 8.11081C76.3139 8.09064 76.3072 8.07046 76.3005 8.05029C76.2937 8.03012 76.2937 8.00995 76.287 7.98977L76.2803 7.96288C76.2803 7.94943 76.2803 7.9427 76.2736 7.92925C76.2736 7.90908 76.2669 7.88891 76.2669 7.86874C76.2669 7.84856 76.2669 7.82839 76.2669 7.80822V7.78132V7.75442C76.2669 7.73425 76.2669 7.71408 76.2669 7.6939C76.2669 7.67373 76.2736 7.65356 76.2736 7.63339C76.2736 7.62666 76.2736 7.61321 76.2736 7.60649L76.2803 7.57959C76.287 7.55942 76.287 7.53924 76.2937 7.5258C76.3005 7.50562 76.3005 7.49218 76.3072 7.472C76.3072 7.46528 76.3139 7.45183 76.3139 7.4451L76.3206 7.41821C76.3274 7.39803 76.3341 7.38459 76.3408 7.36441C76.3475 7.35096 76.3543 7.33079 76.361 7.31734L76.3744 7.29045C76.3812 7.28372 76.3812 7.277 76.3879 7.26355C76.3946 7.2501 76.4081 7.22993 76.4148 7.21648C76.4215 7.20303 76.435 7.18958 76.4417 7.16941C76.4619 7.13579 76.482 7.10889 76.5022 7.08199C76.5829 6.9744 76.6838 6.88699 76.7913 6.82647C76.8922 6.76595 76.9998 6.71888 77.1074 6.69871C77.2083 6.67853 77.3091 6.66509 77.3965 6.67181C77.41 6.67181 77.4167 6.67181 77.4302 6.67181C77.4436 6.67181 77.4503 6.67181 77.4638 6.67853C77.4839 6.67853 77.5041 6.68526 77.5243 6.68526C77.5377 6.68526 77.5445 6.69198 77.5579 6.69198C77.3831 6.75923 77.2553 6.92733 77.2553 7.12234C77.2553 7.37114 77.4638 7.57959 77.7126 7.57959C77.9614 7.57959 78.1698 7.37114 78.1698 7.12234C78.1698 6.89371 78.0017 6.71216 77.7865 6.67181C77.7798 6.66509 77.7664 6.65836 77.7596 6.65164C77.7327 6.63819 77.6991 6.62474 77.6655 6.60457C77.6319 6.59112 77.5915 6.57767 77.5512 6.56422C77.531 6.5575 77.5108 6.55077 77.4839 6.55077C77.4705 6.55077 77.4638 6.54405 77.4503 6.54405C77.4369 6.54405 77.4234 6.53732 77.4167 6.53732C77.3158 6.51715 77.2083 6.51715 77.0872 6.5306C76.9662 6.54405 76.8317 6.58439 76.7039 6.65164C76.5762 6.71888 76.4484 6.81302 76.3408 6.94078C76.3139 6.9744 76.287 7.0013 76.2601 7.04165C76.2467 7.06182 76.2332 7.07527 76.2265 7.09544C76.2131 7.11561 76.2063 7.13579 76.1929 7.14923C76.1862 7.15596 76.1794 7.16941 76.1794 7.17613L76.166 7.20303C76.1593 7.2232 76.1458 7.24337 76.1391 7.26355C76.1324 7.28372 76.1189 7.30389 76.1122 7.32407L76.0987 7.35769C76.092 7.37114 76.092 7.37786 76.0853 7.39131C76.0786 7.41148 76.0718 7.43838 76.0651 7.45855C76.0584 7.47873 76.0517 7.50562 76.0517 7.5258L76.0449 7.55942C76.0449 7.57287 76.0382 7.57959 76.0382 7.59304C76.0315 7.61994 76.0315 7.64011 76.0248 7.66701C76.0248 7.6939 76.018 7.71408 76.018 7.74097V7.7746V7.81494C76.018 7.84184 76.018 7.86201 76.018 7.88891C76.018 7.91581 76.0248 7.93598 76.0248 7.96288C76.0248 7.97633 76.0248 7.98977 76.0315 8.00322L76.0382 8.04357C76.0449 8.07046 76.0449 8.09736 76.0517 8.11753C76.0584 8.14443 76.0651 8.16461 76.0718 8.1915C76.0786 8.20495 76.0786 8.2184 76.0853 8.23185L76.0987 8.27219C76.1055 8.29909 76.1189 8.31926 76.1256 8.34616C76.1391 8.37306 76.1458 8.39323 76.1593 8.42013L76.1727 8.45375L76.1929 8.48737C76.2063 8.50754 76.2198 8.53444 76.2332 8.56134C76.287 8.65548 76.3543 8.74289 76.4215 8.82359C76.4551 8.86393 76.4955 8.90428 76.5358 8.94462C76.556 8.9648 76.5762 8.98497 76.5963 8.99842C76.6165 9.01859 76.6367 9.03876 76.6636 9.05221C76.6838 9.07238 76.7107 9.08583 76.7308 9.10601C76.751 9.11945 76.7779 9.13963 76.7981 9.15308L76.8317 9.17997L76.8653 9.20015C76.8922 9.2136 76.9124 9.23377 76.9393 9.24722C76.9662 9.26067 76.9864 9.27411 77.0132 9.28756L77.0536 9.30774L77.0939 9.32791C77.1208 9.34136 77.1477 9.35481 77.1746 9.36825C77.2015 9.3817 77.2284 9.39515 77.2553 9.40188C77.2822 9.41532 77.3091 9.42205 77.336 9.4355C77.3629 9.44895 77.3898 9.45567 77.4167 9.46912C77.4705 9.48929 77.531 9.50947 77.5848 9.52291C77.6991 9.55653 77.8202 9.58343 77.9412 9.6036C78.1833 9.64395 78.4321 9.6574 78.6876 9.63723C78.8154 9.62378 78.9431 9.60361 79.0709 9.57671C79.1986 9.54309 79.3264 9.50274 79.4542 9.44222L79.5012 9.42205L79.5483 9.39515C79.5819 9.3817 79.6088 9.36153 79.6357 9.34136L79.6828 9.31446C79.6962 9.30774 79.7097 9.29429 79.7231 9.28756C79.75 9.26739 79.7769 9.24722 79.8038 9.22704C79.9114 9.14635 80.019 9.05221 80.1064 8.95135C80.2006 8.85048 80.288 8.72272 80.3687 8.58151C80.4494 8.4403 80.5099 8.27892 80.5502 8.10409C80.6309 7.75442 80.6175 7.34424 80.4763 6.94751C80.4426 6.84664 80.4023 6.7525 80.3552 6.65164C80.3082 6.5575 80.2544 6.45663 80.1871 6.36922C80.1266 6.27507 80.0594 6.18766 79.9854 6.10024C79.945 6.0599 79.9114 6.01283 79.8711 5.97248C79.8509 5.95231 79.8307 5.93214 79.8106 5.91196C79.7904 5.89179 79.7702 5.87162 79.7433 5.85144C79.7231 5.83127 79.6962 5.8111 79.6761 5.79093C79.6559 5.77075 79.629 5.75058 79.6088 5.73713C79.5618 5.70351 79.5147 5.66989 79.4676 5.63627C79.4676 5.63627 79.4676 5.63627 79.4609 5.62954C79.6559 5.69679 79.8509 5.7573 80.0526 5.82455C80.5301 5.97921 81.0008 6.12714 81.4849 6.28852C81.9691 6.44991 82.4599 6.60457 82.9508 6.76595C83.4484 6.92733 83.946 7.08199 84.4503 7.22993C84.9614 7.37786 85.4724 7.51907 85.9902 7.64011C86.2457 7.70735 86.508 7.76115 86.7702 7.81494C86.898 7.84184 87.0325 7.86874 87.1669 7.88891C87.3014 7.91581 87.4292 7.9427 87.5637 7.96288C87.8259 8.00322 88.0949 8.05029 88.3571 8.07719C88.4916 8.09064 88.6261 8.11081 88.7539 8.12426C88.8884 8.13771 89.0229 8.14443 89.1573 8.15788C89.2246 8.1646 89.2918 8.17133 89.3591 8.17133L89.5608 8.17805C89.6953 8.18478 89.8298 8.1915 89.9643 8.1915C90.0987 8.1915 90.2265 8.1915 90.361 8.19823C90.4955 8.19823 90.6232 8.19823 90.7577 8.19823C90.8922 8.19823 91.02 8.19823 91.1545 8.19823C91.2889 8.1915 91.4167 8.1915 91.5512 8.18478L91.7462 8.17805L91.9412 8.1646C92.069 8.15788 92.2034 8.15116 92.3312 8.14443C92.849 8.10409 93.3668 8.03684 93.8778 7.93598C93.9383 7.92253 94.0056 7.90908 94.0661 7.89563C94.1266 7.88218 94.1938 7.86874 94.2544 7.84856C94.3821 7.81494 94.5032 7.78132 94.6242 7.7477C94.7452 7.70735 94.8663 7.66701 94.9873 7.62666C95.0478 7.60649 95.1083 7.58632 95.1689 7.55942C95.2294 7.53252 95.2899 7.51235 95.3437 7.48545C95.4042 7.45855 95.4647 7.43838 95.5185 7.41148C95.5723 7.38459 95.6328 7.35769 95.6866 7.33079C95.801 7.277 95.9153 7.2232 96.0229 7.16268C96.1304 7.10217 96.2448 7.04837 96.3456 6.98113C96.4532 6.91388 96.5541 6.85337 96.6549 6.78612C96.7087 6.7525 96.7558 6.71888 96.8096 6.68526C96.8567 6.65164 96.9105 6.61802 96.9575 6.58439C97.0046 6.55077 97.0584 6.51715 97.1055 6.48353C97.1525 6.44991 97.1996 6.40956 97.2467 6.37594C97.3408 6.30197 97.435 6.23473 97.5291 6.16076C97.5762 6.12714 97.6232 6.08679 97.6703 6.04645C97.7174 6.0061 97.7644 5.97248 97.8048 5.93214C97.8519 5.89179 97.8922 5.85144 97.9393 5.8111C97.9796 5.77075 98.02 5.73041 98.067 5.68334C98.1545 5.60265 98.2284 5.5085 98.3024 5.42781C98.4503 5.25298 98.5915 5.07143 98.7193 4.87642C98.8471 4.68814 98.9546 4.49313 99.0555 4.29813C99.1497 4.0964 99.2371 3.9014 99.3043 3.69294C99.5598 2.89948 99.5867 2.06566 99.4186 1.34616Z" fill="#4D4A4A"/>
<path d="M73.3149 3.49761C73.3956 3.49089 73.4763 3.45054 73.5368 3.36313C73.5974 3.27571 73.6377 3.14122 73.631 2.97312C73.6175 2.79829 73.5436 2.58983 73.3889 2.40155C73.241 2.21327 73.0123 2.06534 72.7568 1.98464C72.6291 1.9443 72.461 1.9174 72.2727 1.92413C72.0844 1.93085 71.8759 1.96447 71.6742 2.03844C71.4725 2.11241 71.2775 2.22 71.1026 2.35448C70.9278 2.48897 70.7799 2.64363 70.6521 2.80501C70.5311 2.96639 70.4369 3.1345 70.363 3.29588C70.3294 3.37658 70.3025 3.45054 70.2756 3.52451C70.2554 3.59848 70.2352 3.66572 70.215 3.72624C70.2016 3.78676 70.1881 3.84728 70.1814 3.90107C70.1747 3.95486 70.1747 3.99521 70.168 4.03556C70.168 4.10952 70.1747 4.15659 70.1949 4.16332C70.2083 4.17004 70.2487 4.14315 70.2957 4.08935C70.3495 4.02883 70.4168 3.95486 70.4907 3.87417C70.5311 3.83383 70.5782 3.78676 70.6252 3.73969C70.6723 3.69262 70.7261 3.64555 70.7799 3.59848C70.8875 3.50434 71.0152 3.4102 71.143 3.32951C71.2775 3.25554 71.412 3.18829 71.5464 3.14795C71.6809 3.1076 71.8087 3.08071 71.923 3.08071C72.0373 3.07398 72.1382 3.08743 72.2189 3.10088C72.2391 3.10088 72.2592 3.1076 72.2727 3.11433C72.2928 3.12105 72.3063 3.12105 72.3197 3.12778C72.3332 3.1345 72.3466 3.1345 72.3601 3.14122C72.3735 3.14795 72.3803 3.14795 72.3937 3.15467C72.4744 3.18157 72.5484 3.20174 72.6089 3.22192C72.6761 3.24209 72.7501 3.26899 72.8241 3.30933C72.9922 3.3833 73.1468 3.51106 73.3149 3.49761Z" fill="#4D4A4A"/>
<path d="M65.1112 3.49761C65.0305 3.49089 64.9498 3.45054 64.8893 3.36313C64.8288 3.27571 64.7884 3.14122 64.7952 2.97312C64.8086 2.79829 64.8826 2.58983 65.0372 2.40155C65.1852 2.21327 65.4138 2.06534 65.6693 1.98464C65.7971 1.9443 65.9652 1.9174 66.1535 1.92413C66.3418 1.93085 66.5502 1.96447 66.7519 2.03844C66.9537 2.11241 67.1487 2.22 67.3235 2.35448C67.4983 2.48897 67.6463 2.64363 67.774 2.80501C67.8951 2.96639 67.9892 3.1345 68.0632 3.29588C68.0968 3.37658 68.1237 3.45054 68.1506 3.52451C68.1708 3.59848 68.1909 3.66572 68.2111 3.72624C68.2246 3.78676 68.238 3.84728 68.2447 3.90107C68.2515 3.95486 68.2515 3.99521 68.2582 4.03556C68.2582 4.10952 68.2515 4.15659 68.2313 4.16332C68.2178 4.17004 68.1775 4.14315 68.1304 4.08935C68.0766 4.02883 68.0094 3.95486 67.9354 3.87417C67.8951 3.83383 67.848 3.78676 67.8009 3.73969C67.7539 3.69262 67.7001 3.64555 67.6463 3.59848C67.5387 3.50434 67.4109 3.4102 67.2832 3.32951C67.1487 3.25554 67.0142 3.18829 66.8797 3.14795C66.7452 3.1076 66.6175 3.08071 66.5031 3.08071C66.3888 3.07398 66.288 3.08743 66.2073 3.10088C66.1871 3.10088 66.1669 3.1076 66.1535 3.11433C66.1333 3.12105 66.1199 3.12105 66.1064 3.12778C66.093 3.1345 66.0795 3.1345 66.0661 3.14122C66.0526 3.14795 66.0459 3.14795 66.0324 3.15467C65.9517 3.18157 65.8778 3.20174 65.8173 3.22192C65.75 3.24209 65.6761 3.26899 65.6021 3.30933C65.434 3.3833 65.2793 3.51106 65.1112 3.49761Z" fill="#4D4A4A"/>
<path d="M70.0602 1.74288C71.5127 -0.274407 69.3945 -3.5088 69.1861 -3.81139V-3.81812V-3.81139C68.9844 -3.5088 66.8662 -0.274407 68.3119 1.74288C67.4041 0.727514 65.1515 0.835103 65.8038 1.01666C68.8566 1.86392 68.48 4.15691 68.48 4.15691V4.2107C68.48 4.34519 68.5876 4.45278 68.7221 4.45278H68.7894C68.8364 4.45278 68.8768 4.49312 68.8768 4.54019V4.97727C68.8768 4.99072 68.8768 5.00417 68.87 5.01762L68.2783 6.26834L68.285 6.27506C68.6078 6.70542 69.0718 7.94269 69.1726 8.20494C69.1794 8.21839 69.1995 8.21839 69.2063 8.20494C69.3004 7.94269 69.7711 6.71214 70.0939 6.27506L70.1006 6.26834L69.5089 5.01762C69.5021 5.00417 69.5021 4.99072 69.5021 4.97727V4.54019C69.5021 4.49312 69.5425 4.45278 69.5895 4.45278H69.6097C69.7711 4.45278 69.8989 4.32502 69.8989 4.16363V4.15691C69.8989 4.15691 69.5223 1.8572 72.5751 1.01666C73.2207 0.835103 70.968 0.727514 70.0602 1.74288Z" fill="#4D4A4A"/>
<path d="M38.9807 1.34581C39.0613 0.989417 39.1958 0.659926 39.3572 0.370781C39.5186 0.0816362 39.7069 -0.167163 39.8952 -0.375617C40.0834 -0.590794 40.2986 -0.77235 40.5205 -0.940458C40.5743 -0.980804 40.6348 -1.02115 40.6886 -1.0615C40.7155 -1.08167 40.7491 -1.10184 40.776 -1.12201L40.8635 -1.17581C40.924 -1.21615 40.9845 -1.24978 41.045 -1.27667L41.1459 -1.33047L41.24 -1.37081C41.4955 -1.48513 41.7511 -1.57254 42.0133 -1.63979C42.2756 -1.7003 42.5378 -1.74737 42.8001 -1.76755C43.3246 -1.80789 43.8356 -1.781 44.3265 -1.69358C44.5753 -1.65323 44.8106 -1.59272 45.046 -1.52547C45.1603 -1.49185 45.2813 -1.45151 45.3889 -1.41116C45.4427 -1.39099 45.5032 -1.36409 45.557 -1.34392C45.6108 -1.32374 45.6713 -1.29685 45.7251 -1.27667C45.7789 -1.24978 45.8327 -1.2296 45.8865 -1.20271C45.9403 -1.17581 45.9941 -1.14891 46.0479 -1.12201L46.1286 -1.08167L46.2026 -1.0346C46.2564 -1.0077 46.3034 -0.974079 46.3572 -0.947182C46.4043 -0.913561 46.4581 -0.886664 46.5052 -0.853042L46.5791 -0.805972L46.6531 -0.752177C46.7002 -0.72528 46.7472 -0.691659 46.7943 -0.658037C46.8414 -0.624416 46.8817 -0.58407 46.9288 -0.550448C46.9759 -0.516827 47.0162 -0.476481 47.0565 -0.436135C47.0969 -0.395789 47.144 -0.362168 47.1843 -0.321822C47.265 -0.24113 47.3457 -0.160439 47.4129 -0.0730227C47.5609 0.0950849 47.6886 0.283365 47.8029 0.464921C47.8298 0.511992 47.8567 0.559062 47.8836 0.606132L47.924 0.680099L47.9576 0.754067C47.9778 0.801137 47.9979 0.854931 48.0248 0.902001C48.045 0.955796 48.0585 1.00287 48.0786 1.05666L48.1055 1.13063C48.1123 1.15752 48.119 1.18442 48.1257 1.20459C48.1392 1.25839 48.1526 1.30546 48.1661 1.35925C48.1795 1.41305 48.1862 1.46012 48.193 1.51391L48.2064 1.58788C48.2064 1.61478 48.2131 1.64167 48.2131 1.66185C48.2198 1.71564 48.2198 1.76271 48.2266 1.81651C48.2266 1.8703 48.2266 1.91737 48.2266 1.97117V2.04513L48.2199 2.1191C48.2131 2.18634 48.2064 2.23341 48.2064 2.28721C48.1997 2.33428 48.193 2.38135 48.1862 2.43514C48.1795 2.46204 48.1795 2.48221 48.1728 2.50911L48.1593 2.58308C48.1392 2.62342 48.1324 2.67049 48.119 2.71084C48.1055 2.75791 48.0921 2.79825 48.0786 2.84532C48.0719 2.8655 48.0652 2.8924 48.0585 2.91257L48.0316 2.97981C48.0114 3.02016 47.9979 3.06723 47.9778 3.10757C47.9576 3.14792 47.9374 3.18826 47.9173 3.22861L47.8836 3.28913C47.8702 3.3093 47.8635 3.32947 47.85 3.34965C47.8298 3.38999 47.8029 3.42361 47.7828 3.46396C47.7559 3.49758 47.7357 3.53793 47.7088 3.57155C47.6617 3.64552 47.6012 3.70604 47.5474 3.77328C47.3255 4.0288 47.07 4.21708 46.8077 4.35157C46.5455 4.48605 46.2765 4.56675 46.0277 4.59364C45.7789 4.62726 45.5503 4.62054 45.3486 4.58019C45.3217 4.57347 45.3015 4.57347 45.2746 4.56675C45.2477 4.56002 45.2275 4.5533 45.2074 4.54657C45.1603 4.53312 45.1199 4.5264 45.0729 4.51295C44.9855 4.48605 44.9115 4.45916 44.8375 4.42554C44.7703 4.39191 44.703 4.36502 44.6492 4.33812C44.6291 4.32467 44.6089 4.31122 44.5887 4.3045C44.1516 4.23053 43.8154 3.84725 43.8154 3.38999C43.8154 2.87895 44.2323 2.46204 44.7434 2.46204C45.2544 2.46204 45.6713 2.87895 45.6713 3.38999C45.6713 3.79345 45.4158 4.13639 45.0594 4.26415C45.0796 4.27088 45.1065 4.27088 45.1267 4.2776C45.167 4.28433 45.2074 4.28433 45.2477 4.29105C45.2679 4.29105 45.2881 4.29777 45.315 4.29777C45.3351 4.29777 45.362 4.29777 45.3822 4.29777C45.5638 4.31122 45.7588 4.29777 45.9672 4.2507C46.1757 4.20363 46.3976 4.12294 46.606 3.99518C46.8145 3.86742 47.0229 3.69259 47.191 3.47069C47.2314 3.41689 47.2784 3.35637 47.3121 3.29585C47.3322 3.26223 47.3524 3.23533 47.3726 3.20171C47.3928 3.16809 47.4062 3.13447 47.4264 3.10757C47.4331 3.09412 47.4466 3.07395 47.4533 3.0605L47.4735 3.00671C47.4869 2.97309 47.5071 2.93947 47.5205 2.90584C47.534 2.87222 47.5474 2.83188 47.5609 2.79825L47.581 2.74446C47.5878 2.72429 47.5878 2.71084 47.5945 2.69067C47.6079 2.65032 47.6147 2.6167 47.6281 2.57635C47.6348 2.53601 47.6416 2.50239 47.6483 2.46204L47.6617 2.40152C47.6617 2.38135 47.6685 2.36118 47.6685 2.341C47.6685 2.31411 47.6752 2.27376 47.6752 2.23341C47.6752 2.19307 47.6752 2.15272 47.6819 2.11238V2.05186V1.99134C47.6819 1.95099 47.6752 1.91065 47.6752 1.8703C47.6685 1.82996 47.6617 1.78961 47.6617 1.74926C47.6617 1.72909 47.655 1.70892 47.655 1.68874L47.6416 1.62823C47.6348 1.58788 47.6214 1.54753 47.6147 1.50719C47.6012 1.46684 47.5878 1.4265 47.581 1.38615C47.5743 1.36598 47.5676 1.34581 47.5609 1.32563L47.534 1.26511C47.5205 1.22477 47.5003 1.18442 47.4869 1.14408C47.4667 1.09701 47.4466 1.05666 47.4264 1.01631L47.3995 0.955796L47.3659 0.895277C47.3457 0.854931 47.3188 0.814585 47.2986 0.780964C46.9086 0.162328 46.2564 -0.348719 45.4763 -0.671486C45.4293 -0.691659 45.3755 -0.711832 45.3284 -0.732004C45.2813 -0.752177 45.2275 -0.77235 45.1805 -0.785799C45.0796 -0.81942 44.9787 -0.853042 44.8711 -0.879939C44.6627 -0.940458 44.4475 -0.987528 44.2256 -1.02115C43.7885 -1.08839 43.3313 -1.10857 42.874 -1.06822C42.6454 -1.04805 42.4168 -1.0077 42.1949 -0.953906C41.973 -0.900112 41.7511 -0.826145 41.5493 -0.72528L41.4687 -0.691659L41.3947 -0.651313C41.3476 -0.624416 41.2938 -0.597519 41.2467 -0.570621L41.1593 -0.523551C41.1324 -0.510102 41.1123 -0.496654 41.0854 -0.476481C41.0383 -0.44286 40.9912 -0.409238 40.9442 -0.375617C40.7559 -0.227682 40.5743 -0.0797472 40.4197 0.101809C40.265 0.276641 40.1103 0.47837 39.9759 0.713721C39.8414 0.949071 39.7338 1.21132 39.6665 1.50719C39.5993 1.80306 39.5657 2.1191 39.5791 2.45532C39.5791 2.53601 39.5926 2.62342 39.5993 2.71084C39.606 2.79825 39.6262 2.87895 39.6396 2.96636C39.6733 3.14119 39.7136 3.31603 39.7741 3.49086C39.8279 3.66569 39.9019 3.84052 39.9826 4.01535C40.07 4.18346 40.1574 4.35829 40.265 4.5264C40.3726 4.69451 40.4936 4.85589 40.6214 5.01055C40.6886 5.08452 40.7559 5.16521 40.8298 5.23918C40.8635 5.27952 40.9038 5.31314 40.9374 5.35349C40.9778 5.38711 41.0114 5.42746 41.0517 5.46108C41.0921 5.4947 41.1324 5.52832 41.1728 5.56867C41.2131 5.60229 41.2535 5.63591 41.2938 5.66953C41.3812 5.73677 41.4686 5.80402 41.5561 5.87126C41.6031 5.90488 41.6435 5.9385 41.6906 5.97213C41.7376 6.00575 41.7847 6.03937 41.825 6.06627C41.8721 6.09989 41.9192 6.13351 41.9662 6.16041C42.0133 6.19403 42.0604 6.22765 42.1075 6.25455C42.2016 6.31506 42.2957 6.37558 42.3966 6.4361C42.4907 6.49662 42.5983 6.55042 42.6925 6.60421C42.7933 6.66473 42.8942 6.7118 43.0018 6.76559C43.0556 6.79249 43.1027 6.81939 43.1564 6.83956C43.2102 6.86646 43.264 6.88663 43.3178 6.9068C43.3716 6.92698 43.4254 6.95387 43.4792 6.97405C43.533 6.99422 43.5868 7.02112 43.6406 7.04129C43.7549 7.08164 43.8625 7.12198 43.9768 7.1556C44.0911 7.18922 44.2054 7.22285 44.3198 7.25647C44.3735 7.27664 44.4341 7.28337 44.4946 7.30354C44.5551 7.31699 44.6089 7.33043 44.6694 7.34388C45.1401 7.45147 45.631 7.51872 46.1353 7.56579C46.2631 7.57923 46.3841 7.58596 46.5119 7.59268L46.7069 7.61286L46.8952 7.61958C47.0229 7.6263 47.1507 7.63303 47.2784 7.63303C47.4062 7.63303 47.534 7.63975 47.6685 7.63975C47.7962 7.64648 47.924 7.64648 48.0585 7.64648C48.1862 7.64648 48.3207 7.64648 48.4485 7.64648C48.5762 7.64648 48.704 7.63975 48.8318 7.63975L49.0268 7.63303C49.094 7.63303 49.1545 7.6263 49.2218 7.61958C49.3495 7.61286 49.4773 7.60613 49.6118 7.59268C49.7395 7.58596 49.8673 7.56579 50.0018 7.55234C50.264 7.53216 50.5196 7.49182 50.7751 7.45147C50.9028 7.4313 51.0306 7.41113 51.1651 7.39095C51.2929 7.37078 51.4206 7.35061 51.5484 7.32371C51.8039 7.26992 52.0594 7.22285 52.3149 7.16233C52.6848 7.08164 53.0479 6.99422 53.411 6.90008C53.4043 6.90008 53.4043 6.90008 53.3976 6.90008C53.3639 6.89335 53.3236 6.89336 53.29 6.88663C53.2564 6.87991 53.216 6.87318 53.1824 6.86646C53.1084 6.85301 53.0412 6.83956 52.9739 6.81939C52.8327 6.78577 52.6982 6.7387 52.5705 6.6849C52.4427 6.63783 52.3149 6.57059 52.1939 6.51007C52.0729 6.44283 51.9586 6.37558 51.8577 6.29489C51.4273 5.98557 51.118 5.57539 50.9499 5.15176C50.8625 4.94331 50.8154 4.72813 50.7953 4.5264C50.7751 4.32467 50.7818 4.12967 50.802 3.95483C50.8222 3.78 50.8692 3.6119 50.9163 3.45051C50.9297 3.41017 50.9432 3.36982 50.9566 3.32947C50.9634 3.3093 50.9701 3.28913 50.9835 3.26896L51.0104 3.20844C51.0239 3.16809 51.0441 3.12775 51.0642 3.0874L51.0911 3.02688L51.1247 2.97309C51.2122 2.82515 51.313 2.69067 51.4206 2.5629C51.5282 2.45532 51.6425 2.341 51.7703 2.23341C52.0191 2.02496 52.2881 1.85685 52.5637 1.72909C52.705 1.66185 52.8462 1.60805 52.9941 1.56098C53.0681 1.53409 53.1353 1.51391 53.2093 1.49374C53.2429 1.48029 53.2832 1.47357 53.3169 1.46684C53.3505 1.46012 53.3908 1.44667 53.4245 1.43995C53.4581 1.43322 53.4984 1.4265 53.532 1.41977C53.5657 1.41305 53.606 1.40632 53.6396 1.40632L53.6934 1.3996L53.7472 1.39288C53.7808 1.39288 53.8212 1.38615 53.8548 1.38615C53.8884 1.38615 53.9288 1.38615 53.9624 1.37943H54.0162H54.07C54.1036 1.37943 54.144 1.37943 54.1776 1.37943C54.2112 1.37943 54.2515 1.38615 54.2852 1.38615C54.3188 1.38615 54.3524 1.39288 54.3928 1.3996C54.4264 1.40632 54.46 1.40632 54.5003 1.41305C54.5676 1.4265 54.6416 1.43995 54.7021 1.45339C54.8366 1.48702 54.9643 1.53409 55.0921 1.58788C55.119 1.60133 55.1526 1.6215 55.1795 1.63495L55.2266 1.65512L55.2669 1.68202C55.2938 1.70219 55.3207 1.71564 55.3543 1.73582C55.3812 1.75599 55.4081 1.77616 55.435 1.79633L55.4754 1.82323C55.4888 1.82996 55.5023 1.8434 55.5157 1.85685C55.5426 1.87702 55.5628 1.8972 55.5897 1.91737C55.6099 1.93754 55.6368 1.96444 55.6569 1.98461L55.6906 2.01824C55.704 2.03168 55.7107 2.04513 55.7242 2.05186C55.7443 2.07875 55.7645 2.09893 55.7847 2.12582C55.8049 2.15272 55.8183 2.17962 55.8385 2.19979L55.8654 2.24014L55.8923 2.28048C55.9057 2.30738 55.9259 2.33428 55.9393 2.36117C55.9528 2.38807 55.9662 2.41497 55.9797 2.44187C55.9864 2.45532 55.9931 2.46876 55.9999 2.48221L56.0133 2.52256C56.0268 2.54946 56.0335 2.57635 56.0469 2.60325C56.0537 2.63015 56.0671 2.65704 56.0738 2.68394C56.0806 2.69739 56.0806 2.71084 56.0873 2.72429L56.094 2.76463C56.1007 2.79153 56.1075 2.81843 56.1142 2.84532C56.1209 2.87222 56.1209 2.89912 56.1276 2.92602L56.1344 2.96636C56.1344 2.97981 56.1344 2.99326 56.1344 3.00671C56.1344 3.03361 56.1411 3.0605 56.1411 3.0874C56.1411 3.1143 56.1411 3.14119 56.1411 3.16809C56.1411 3.22189 56.1344 3.27568 56.1344 3.32275C56.1142 3.5312 56.0469 3.71948 55.9662 3.88087C55.8788 4.04225 55.7712 4.17674 55.6637 4.2776C55.5493 4.37847 55.4283 4.45916 55.314 4.51295C55.3005 4.51968 55.2871 4.5264 55.2736 4.53312C55.2602 4.53985 55.2467 4.54657 55.2333 4.54657C55.2064 4.56002 55.1795 4.56675 55.1526 4.58019C55.0988 4.59364 55.0517 4.60709 55.0047 4.62054C54.9576 4.62726 54.9173 4.63399 54.8769 4.64071C54.8635 4.64071 54.85 4.64071 54.8366 4.64744C54.5878 4.76175 54.2852 4.68778 54.1238 4.45916C53.9422 4.19691 54.0027 3.84052 54.265 3.65897C54.5272 3.47741 54.8836 3.53793 55.0652 3.80018C55.2064 4.0019 55.1997 4.26415 55.0652 4.45916C55.0786 4.45243 55.0921 4.44571 55.1055 4.43898C55.1257 4.42554 55.1526 4.41209 55.1728 4.40536C55.1862 4.39864 55.193 4.39191 55.2064 4.38519C55.2198 4.37847 55.2266 4.37174 55.24 4.36502C55.3342 4.31122 55.4283 4.23053 55.5224 4.13639C55.6099 4.04225 55.6905 3.92121 55.7511 3.78C55.8116 3.63879 55.8519 3.47741 55.8654 3.3093C55.8654 3.26896 55.8721 3.22189 55.8654 3.18154C55.8654 3.16137 55.8654 3.13447 55.8587 3.1143C55.8587 3.09412 55.8519 3.06723 55.8519 3.04705C55.8519 3.03361 55.8519 3.02688 55.8452 3.01343L55.8385 2.97981C55.8318 2.95964 55.8318 2.93274 55.825 2.91257C55.8183 2.8924 55.8116 2.8655 55.8049 2.84532L55.7981 2.8117C55.7914 2.79825 55.7914 2.79153 55.7847 2.77808C55.778 2.75791 55.7712 2.73101 55.7578 2.71084C55.7511 2.69067 55.7376 2.66377 55.7309 2.6436L55.7174 2.60997C55.7107 2.59653 55.704 2.5898 55.6973 2.57635C55.6838 2.55618 55.6771 2.53601 55.6637 2.50911C55.6502 2.48894 55.6368 2.46876 55.6233 2.44859L55.5897 2.43514L55.5695 2.40825C55.5493 2.38807 55.5359 2.3679 55.5224 2.34773C55.5023 2.32755 55.4888 2.30738 55.4686 2.29393C55.4619 2.28721 55.4485 2.27376 55.4417 2.26704L55.4149 2.23341C55.3947 2.21324 55.3745 2.19979 55.3543 2.17962C55.3342 2.16617 55.314 2.146 55.2938 2.13255C55.2804 2.12582 55.2736 2.1191 55.2602 2.10565L55.2266 2.08548C55.2064 2.07203 55.1795 2.05858 55.1593 2.03841C55.1324 2.02496 55.1123 2.01151 55.0854 1.99806L55.0517 1.97789L55.0181 1.96444C54.9912 1.95099 54.9643 1.94427 54.9442 1.93082C54.5272 1.75599 54.0162 1.72909 53.5119 1.8434C53.4783 1.85013 53.4514 1.85685 53.4177 1.86358C53.3841 1.8703 53.3505 1.87703 53.3236 1.89047C53.2631 1.91065 53.1958 1.93082 53.1353 1.95099C53.0076 1.99134 52.8798 2.04513 52.7588 2.10565C52.51 2.22669 52.2746 2.38135 52.0594 2.5629C51.9518 2.65704 51.851 2.75791 51.7568 2.85877C51.6627 2.96636 51.582 3.08068 51.508 3.20171L51.4811 3.24878L51.4542 3.29585C51.4408 3.32947 51.4206 3.35637 51.4072 3.38999L51.387 3.43706C51.3803 3.45051 51.3735 3.47069 51.3668 3.48413C51.3534 3.51776 51.3399 3.55138 51.3332 3.585C51.2929 3.72621 51.2525 3.86742 51.2391 4.00863C51.2189 4.14984 51.2122 4.31122 51.2323 4.47261C51.2458 4.64071 51.2861 4.80882 51.3601 4.98365C51.4273 5.15848 51.5282 5.32659 51.656 5.4947C51.6829 5.53505 51.7232 5.57539 51.7568 5.61574C51.7905 5.65608 51.8308 5.69643 51.8644 5.73005C51.9451 5.80402 52.0258 5.87799 52.1199 5.94523C52.2074 6.01247 52.3082 6.07299 52.4091 6.13351C52.51 6.1873 52.6175 6.24782 52.7319 6.28817C52.8462 6.33524 52.9605 6.37558 53.0815 6.40921C53.142 6.42265 53.2026 6.44283 53.2698 6.44955C53.3034 6.45628 53.3303 6.463 53.3639 6.46972C53.3976 6.47645 53.4245 6.47645 53.4581 6.48317C53.4917 6.4899 53.5253 6.4899 53.5522 6.49662C53.5858 6.49662 53.6195 6.50335 53.6531 6.50335C53.7203 6.50335 53.7876 6.51007 53.8615 6.51007C53.8952 6.51007 53.9288 6.51679 53.9624 6.51679C53.996 6.51679 54.0296 6.51679 54.0633 6.51679C54.0969 6.51679 54.1305 6.51679 54.1641 6.51679C54.1978 6.51679 54.2314 6.51679 54.2717 6.51679C54.339 6.51007 54.4129 6.51007 54.4802 6.51007C54.5474 6.50335 54.6214 6.49662 54.6886 6.4899C54.7626 6.48317 54.8298 6.46972 54.8971 6.463C54.9307 6.45627 54.9643 6.44955 55.0047 6.44955C55.0248 6.44955 55.0383 6.44283 55.0585 6.4361C55.1526 6.40921 55.2467 6.38231 55.3409 6.35541C55.8385 6.20748 56.3294 6.05282 56.8135 5.90488C57.2977 5.75695 57.7885 5.60901 58.2592 5.4678C59.2074 5.18538 60.1286 4.88951 61.0296 4.66089C61.4802 4.53985 61.924 4.44571 62.3543 4.35829C62.7914 4.27088 63.2218 4.21708 63.6387 4.17001C64.4725 4.09605 65.266 4.11622 65.9787 4.23726C66.3351 4.29777 66.6713 4.38519 66.9739 4.50623C67.2765 4.62726 67.5522 4.78865 67.7674 4.99038C67.875 5.09124 67.9624 5.20556 68.0364 5.32659C68.1036 5.44763 68.1507 5.57539 68.1776 5.69643C68.1843 5.73005 68.191 5.75695 68.1978 5.79057C68.2045 5.82419 68.2045 5.85109 68.2045 5.88471C68.2112 5.94523 68.2112 6.00575 68.2112 6.06627C68.2045 6.18058 68.1843 6.28817 68.1507 6.38903C68.0902 6.59076 67.9893 6.75214 67.875 6.86646C67.7607 6.98077 67.6329 7.04129 67.5253 7.06146C67.4177 7.08164 67.3303 7.06819 67.2765 7.05474C67.2496 7.04801 67.2295 7.04129 67.216 7.03456C67.2026 7.02784 67.1958 7.02784 67.1958 7.02784C67.1958 7.02112 67.2227 7.03456 67.2765 7.04129C67.3303 7.04801 67.411 7.05474 67.5119 7.03456C67.6127 7.00767 67.7271 6.94715 67.8279 6.83284C67.9288 6.71852 68.0162 6.56386 68.07 6.37558C68.0969 6.28144 68.1103 6.18058 68.1171 6.07299C68.1171 6.0192 68.1171 5.9654 68.1103 5.90488C68.1036 5.87799 68.1036 5.85109 68.0969 5.81747C68.0902 5.79057 68.0834 5.76367 68.0767 5.73005C68.0498 5.61574 68.0027 5.50142 67.9355 5.39384C67.8683 5.28625 67.7808 5.18538 67.68 5.09124C67.4783 4.90969 67.2093 4.76175 66.9134 4.65416C66.6175 4.54657 66.2881 4.47261 65.9451 4.41881C65.2458 4.31122 64.4725 4.31795 63.6588 4.40536C63.2487 4.45916 62.8318 4.5264 62.4081 4.62054C61.9845 4.71468 61.5474 4.82227 61.1036 4.95003C60.9422 4.9971 60.7741 5.04417 60.6127 5.09797C60.5052 5.14504 60.4043 5.20555 60.3034 5.26607C60.2563 5.27952 60.2093 5.2997 60.1689 5.31314C60.142 5.31987 60.1151 5.33332 60.0882 5.34677C60.0613 5.36021 60.0344 5.36694 60.0076 5.38039C59.9807 5.39384 59.9538 5.40056 59.9269 5.41401C59.9 5.42746 59.8731 5.44091 59.8529 5.45435C59.7991 5.48125 59.752 5.50142 59.705 5.52832C59.6579 5.55522 59.6041 5.58212 59.557 5.60901C59.51 5.63591 59.4629 5.66953 59.4158 5.69643C59.3889 5.70988 59.3687 5.73005 59.3486 5.7435C59.3284 5.75695 59.3015 5.77712 59.2813 5.79057C59.2612 5.80402 59.2343 5.82419 59.2141 5.83764C59.1939 5.85109 59.1737 5.87126 59.1468 5.88471C59.1065 5.91833 59.0594 5.95195 59.0191 5.98557C58.9989 5.99902 58.9787 6.0192 58.9586 6.03264C58.9384 6.04609 58.9182 6.06627 58.898 6.08644C58.8779 6.10661 58.8577 6.12006 58.8442 6.14023C58.8241 6.16041 58.8106 6.17385 58.7904 6.19403C58.7568 6.22765 58.7232 6.26799 58.6896 6.30834C58.6291 6.38231 58.5686 6.463 58.5148 6.54369C58.461 6.62438 58.4139 6.7118 58.3735 6.79249C58.3332 6.87991 58.2996 6.9606 58.2727 7.04801C58.2458 7.13543 58.2256 7.21612 58.2054 7.30354C58.1987 7.34388 58.192 7.39095 58.1853 7.4313C58.1785 7.47165 58.1785 7.51199 58.1718 7.55234C58.1651 7.71372 58.1785 7.8751 58.2122 8.01631C58.2458 8.15752 58.2996 8.29201 58.3601 8.40632C58.4273 8.52064 58.5013 8.6215 58.5753 8.70892C58.6492 8.79633 58.7434 8.8703 58.8308 8.94427C58.851 8.96444 58.8779 8.97789 58.898 8.99806C58.9115 9.00479 58.9182 9.01151 58.9317 9.02496L58.9653 9.04513C58.9855 9.05858 59.0124 9.07203 59.0393 9.08548L59.0729 9.10565L59.1132 9.12582C59.2141 9.17289 59.3217 9.21324 59.4293 9.24014C59.5368 9.26703 59.6512 9.28721 59.7588 9.30066C59.9807 9.32083 60.2093 9.3141 60.4245 9.28048C60.532 9.26031 60.6396 9.24014 60.7405 9.21324C60.7943 9.19979 60.8414 9.17962 60.8952 9.16617C60.9221 9.15944 60.9422 9.146 60.9691 9.13927C60.996 9.13255 61.0162 9.1191 61.0431 9.11238C61.4264 8.95772 61.7491 8.70892 61.9374 8.40632C61.9509 8.38615 61.9576 8.36598 61.971 8.34581L61.9845 8.31891L62.0114 8.28529C62.0181 8.26511 62.0316 8.24494 62.0383 8.22477C62.045 8.20459 62.0517 8.18442 62.0585 8.16425L62.0719 8.13735C62.0786 8.13063 62.0786 8.11718 62.0786 8.11045C62.0854 8.09028 62.0921 8.07011 62.0988 8.04994C62.1055 8.02976 62.1055 8.00959 62.1123 7.98942L62.119 7.96252C62.119 7.94907 62.119 7.94235 62.1257 7.9289C62.1257 7.90872 62.1324 7.88855 62.1324 7.86838C62.1324 7.84821 62.1324 7.82803 62.1324 7.80786V7.78096V7.75407C62.1324 7.73389 62.1324 7.71372 62.1324 7.69355C62.1324 7.67338 62.1257 7.6532 62.1257 7.63303C62.1257 7.6263 62.1257 7.61286 62.1257 7.60613L62.119 7.57924C62.1123 7.55906 62.1123 7.53889 62.1055 7.52544C62.0988 7.50527 62.0988 7.49182 62.0921 7.47165C62.0921 7.46492 62.0854 7.45147 62.0854 7.44475L62.0786 7.41785C62.0719 7.39768 62.0652 7.38423 62.0585 7.36406C62.0517 7.35061 62.045 7.33043 62.0383 7.31699L62.0248 7.29009C62.0181 7.28337 62.0181 7.27664 62.0114 7.26319C62.0047 7.24974 61.9912 7.22957 61.9845 7.21612C61.9778 7.20267 61.9643 7.18922 61.9576 7.16905C61.9374 7.13543 61.9173 7.10853 61.8971 7.08164C61.8164 6.97405 61.7155 6.88663 61.6079 6.82611C61.5071 6.76559 61.3995 6.71852 61.2919 6.69835C61.191 6.67818 61.0902 6.66473 61.0027 6.67145C60.9893 6.67145 60.9826 6.67145 60.9691 6.67145C60.9557 6.67145 60.949 6.67145 60.9355 6.67818C60.9153 6.67818 60.8952 6.6849 60.875 6.6849C60.8615 6.6849 60.8548 6.69163 60.8414 6.69163C61.0162 6.75887 61.144 6.92698 61.144 7.12198C61.144 7.37078 60.9355 7.57924 60.6867 7.57924C60.4379 7.57924 60.2295 7.37078 60.2295 7.12198C60.2295 6.89336 60.3976 6.7118 60.6127 6.67145C60.6195 6.66473 60.6329 6.658 60.6396 6.65128C60.6665 6.63783 60.7002 6.62438 60.7338 6.60421C60.7674 6.59076 60.8077 6.57731 60.8481 6.56386C60.8683 6.55714 60.8884 6.55042 60.9153 6.55042C60.9288 6.55042 60.9355 6.54369 60.949 6.54369C60.9624 6.54369 60.9758 6.53697 60.9826 6.53697C61.0834 6.51679 61.191 6.51679 61.3121 6.53024C61.4331 6.54369 61.5676 6.58404 61.6954 6.65128C61.8231 6.71852 61.9509 6.81266 62.0585 6.94042C62.0854 6.97405 62.1123 7.00094 62.1392 7.04129C62.1526 7.06146 62.1661 7.07491 62.1728 7.09508C62.1862 7.11526 62.1929 7.13543 62.2064 7.14888C62.2131 7.1556 62.2198 7.16905 62.2198 7.17578L62.2333 7.20267C62.24 7.22285 62.2535 7.24302 62.2602 7.26319C62.2669 7.28336 62.2804 7.30354 62.2871 7.32371L62.3005 7.35733C62.3073 7.37078 62.3073 7.37751 62.314 7.39095C62.3207 7.41113 62.3274 7.43802 62.3342 7.4582C62.3409 7.47837 62.3476 7.50527 62.3476 7.52544L62.3543 7.55906C62.3543 7.57251 62.3611 7.57923 62.3611 7.59268C62.3678 7.61958 62.3678 7.63975 62.3745 7.66665C62.3745 7.69355 62.3812 7.71372 62.3812 7.74062V7.77424V7.81458C62.3812 7.84148 62.3812 7.86165 62.3812 7.88855C62.3812 7.91545 62.3745 7.93562 62.3745 7.96252C62.3745 7.97597 62.3745 7.98942 62.3678 8.00286L62.3611 8.04321C62.3543 8.07011 62.3543 8.09701 62.3476 8.11718C62.3409 8.14408 62.3342 8.16425 62.3274 8.19115C62.3207 8.20459 62.3207 8.21804 62.314 8.23149L62.3005 8.27184C62.2938 8.29873 62.2804 8.31891 62.2736 8.34581C62.2602 8.3727 62.2535 8.39288 62.24 8.41977L62.2266 8.45339L62.2064 8.48701C62.1929 8.50719 62.1795 8.53409 62.1661 8.56098C62.1123 8.65512 62.0517 8.74254 61.9778 8.82323C61.9442 8.86358 61.9038 8.90392 61.8635 8.94427C61.8433 8.96444 61.8231 8.98461 61.8029 8.99806C61.7828 9.01823 61.7626 9.03841 61.7424 9.05186C61.7222 9.07203 61.6953 9.08548 61.6752 9.10565C61.655 9.1191 61.6281 9.13927 61.6079 9.15272L61.5743 9.17962L61.5407 9.19979C61.5138 9.21324 61.4936 9.23341 61.4667 9.24686C61.4398 9.26031 61.4197 9.27376 61.3928 9.28721L61.3524 9.30738L61.3121 9.32755C61.2852 9.341 61.2583 9.35445 61.2314 9.3679C61.2045 9.38135 61.1776 9.3948 61.1507 9.40152C61.1238 9.41497 61.0969 9.42169 61.07 9.43514C61.0431 9.44859 61.0162 9.45531 60.9893 9.46876C60.9355 9.48894 60.875 9.50911 60.8212 9.52256C60.7069 9.55618 60.5858 9.58308 60.4648 9.60325C60.2227 9.64359 59.9739 9.65704 59.7184 9.63687C59.5906 9.62342 59.4629 9.60325 59.3351 9.57635C59.2074 9.54273 59.0796 9.50238 58.9518 9.44187L58.9048 9.42169L58.8577 9.3948C58.8241 9.38135 58.7972 9.36117 58.7703 9.341L58.7232 9.31411C58.7098 9.30738 58.6963 9.29393 58.6829 9.28721C58.656 9.26703 58.6291 9.24686 58.6022 9.22669C58.4946 9.146 58.387 9.05186 58.2996 8.95099C58.2054 8.85013 58.118 8.72237 58.0373 8.58116C57.9566 8.43995 57.8961 8.27856 57.8558 8.10373C57.7751 7.75407 57.7885 7.34388 57.9297 6.94715C57.9634 6.84628 58.0037 6.75214 58.0508 6.65128C58.0978 6.55714 58.1516 6.45627 58.2189 6.36886C58.2794 6.27472 58.3466 6.1873 58.4206 6.09989C58.461 6.05954 58.4946 6.01247 58.5349 5.97213C58.5551 5.95195 58.5753 5.93178 58.5954 5.91161C58.6156 5.89143 58.6358 5.87126 58.6627 5.85109C58.6829 5.83092 58.7098 5.81074 58.7299 5.79057C58.7501 5.7704 58.777 5.75022 58.7972 5.73677C58.8442 5.70315 58.8913 5.66953 58.9384 5.63591C58.9384 5.63591 58.9384 5.63591 58.9451 5.62919C58.7501 5.69643 58.5551 5.75695 58.3534 5.82419C57.8759 5.97885 57.4052 6.12678 56.9211 6.28817C56.4369 6.44955 55.9461 6.60421 55.4552 6.76559C54.9576 6.92698 54.46 7.08164 53.9557 7.22957C53.4446 7.37751 52.9336 7.51872 52.4158 7.63975C52.1603 7.707 51.898 7.76079 51.6358 7.81458C51.508 7.84148 51.3735 7.86838 51.2391 7.88855C51.1046 7.91545 50.9768 7.94235 50.8423 7.96252C50.5801 8.00287 50.3111 8.04994 50.0489 8.07683C49.9144 8.09028 49.7799 8.11045 49.6521 8.1239C49.5176 8.13735 49.3832 8.14408 49.2487 8.15752C49.1814 8.16425 49.1142 8.17097 49.0469 8.17097L48.8452 8.1777C48.7107 8.18442 48.5762 8.19115 48.4417 8.19115C48.3073 8.19115 48.1795 8.19115 48.045 8.19787C47.9105 8.19787 47.7828 8.19787 47.6483 8.19787C47.5138 8.19787 47.386 8.19787 47.2515 8.19787C47.1171 8.19115 46.9893 8.19115 46.8548 8.18442L46.6598 8.1777L46.4648 8.16425C46.337 8.15752 46.2026 8.1508 46.0748 8.14408C45.557 8.10373 45.0393 8.03649 44.5282 7.93562C44.4677 7.92217 44.4004 7.90872 44.3399 7.89528C44.2794 7.88183 44.2122 7.86838 44.1516 7.84821C44.0239 7.81458 43.9028 7.78096 43.7818 7.74734C43.6608 7.707 43.5397 7.66665 43.4187 7.6263C43.3582 7.60613 43.2977 7.58596 43.2371 7.55906C43.1766 7.53216 43.1161 7.51199 43.0623 7.48509C43.0018 7.4582 42.9413 7.43802 42.8875 7.41113C42.8337 7.38423 42.7732 7.35733 42.7194 7.33043C42.6051 7.27664 42.4907 7.22285 42.3832 7.16233C42.2756 7.10181 42.1613 7.04801 42.0604 6.98077C41.9528 6.91353 41.8519 6.85301 41.7511 6.78577C41.6973 6.75214 41.6502 6.71852 41.5964 6.6849C41.5493 6.65128 41.4955 6.61766 41.4485 6.58404C41.4014 6.55042 41.3476 6.51679 41.3005 6.48317C41.2535 6.44955 41.2064 6.40921 41.1593 6.37558C41.0652 6.30162 40.9711 6.23437 40.8769 6.16041C40.8298 6.12678 40.7828 6.08644 40.7357 6.04609C40.6886 6.00575 40.6416 5.97213 40.6012 5.93178C40.5541 5.89143 40.5138 5.85109 40.4667 5.81074C40.4264 5.7704 40.386 5.73005 40.339 5.68298C40.2516 5.60229 40.1776 5.50815 40.1036 5.42746C39.9557 5.25262 39.8145 5.07107 39.6867 4.87606C39.5589 4.68778 39.4514 4.49278 39.3505 4.29777C39.2564 4.09604 39.1689 3.90104 39.1017 3.69259C38.8394 2.89912 38.8126 2.06531 38.9807 1.34581Z" fill="#4D4A4A"/>
<path d="M36.9162 41.0267C37.0978 41.1141 37.2591 41.1813 37.3869 41.2284L37.3264 41.3494C37.239 41.3293 37.1314 41.3427 37.0103 41.3898C36.8893 41.4368 36.7481 41.531 36.5733 41.6587L34.7039 43.1112L34.1727 44.2274C34.0987 44.3821 34.0584 44.4964 34.0517 44.5838C34.0449 44.6645 34.0651 44.7385 34.1189 44.7923C34.1727 44.8528 34.2736 44.92 34.4148 44.994L34.3542 45.115C34.166 45.0142 33.9104 44.8797 33.581 44.725C33.2313 44.5569 32.9623 44.4359 32.7808 44.3686L32.8413 44.2476C32.9892 44.3148 33.1103 44.3485 33.1842 44.3552C33.2649 44.3619 33.3322 44.335 33.3927 44.2745C33.4532 44.214 33.5137 44.1131 33.5877 43.9585L34.0248 43.0305L33.8701 40.1458C33.8566 39.9709 33.8365 39.8499 33.8029 39.7759C33.7692 39.702 33.7289 39.6549 33.6751 39.628L33.7356 39.5002C33.8903 39.5877 34.0651 39.6818 34.2668 39.7759C34.6636 39.9642 34.9527 40.092 35.1343 40.166L35.0737 40.2937C34.7846 40.1592 34.603 40.166 34.5291 40.3273C34.5022 40.3879 34.4887 40.4685 34.4887 40.5694L34.5829 43.0103L36.1026 41.8201C36.3245 41.6453 36.459 41.4974 36.5195 41.3696C36.5733 41.2553 36.5665 41.1477 36.4993 41.0603C36.4321 40.9661 36.311 40.8787 36.1295 40.7846L36.19 40.6636C36.4455 40.798 36.6741 40.9124 36.9162 41.0267Z" fill="#4D4A4A"/>
<path d="M40.776 42.7951C41.0047 43.0977 41.1391 43.4474 41.166 43.8576C41.1929 44.2678 41.119 44.7116 40.9307 45.189C40.7491 45.653 40.5003 46.0295 40.191 46.3254C39.8817 46.6145 39.532 46.8028 39.1487 46.8768C38.7655 46.9575 38.3822 46.9171 37.9922 46.7625C37.5887 46.6011 37.2727 46.3725 37.044 46.0766C36.8154 45.774 36.6809 45.4243 36.654 45.0142C36.6271 44.604 36.7011 44.1602 36.8894 43.6827C37.0709 43.2188 37.3197 42.8422 37.6291 42.5463C37.9384 42.2572 38.288 42.0689 38.6713 41.9949C39.0546 41.9143 39.4379 41.9546 39.8279 42.1093C40.2314 42.2639 40.5474 42.4925 40.776 42.7951ZM38.9336 42.2168C38.6511 42.3244 38.3889 42.5262 38.1468 42.8153C37.9048 43.1045 37.6963 43.4743 37.5215 43.9046C37.3466 44.3417 37.2592 44.7519 37.2525 45.1352C37.2458 45.5185 37.313 45.8412 37.4542 46.1035C37.5954 46.3657 37.7972 46.554 38.0527 46.6549C38.3217 46.7625 38.5974 46.7625 38.8731 46.6549C39.1555 46.5473 39.411 46.3456 39.6598 46.0564C39.9019 45.7673 40.1103 45.3974 40.2852 44.9671C40.46 44.53 40.5474 44.1198 40.5541 43.7365C40.5609 43.3533 40.4936 43.0305 40.3524 42.7682C40.2112 42.506 40.0095 42.3177 39.7539 42.2168C39.485 42.1093 39.216 42.1093 38.9336 42.2168Z" fill="#4D4A4A"/>
<path d="M46.1351 44.5972C46.0477 44.6107 45.9805 44.6578 45.9267 44.7317C45.8729 44.8057 45.8191 44.9267 45.7653 45.0948L45.1466 47.0449C45.0458 47.3542 44.9449 47.6164 44.8306 47.8249C44.7163 48.0334 44.5885 48.2015 44.4473 48.3359C44.2792 48.4839 44.0708 48.5847 43.8287 48.6251C43.5866 48.6654 43.3311 48.6453 43.0688 48.5646C42.5914 48.4166 42.2686 48.1813 42.0938 47.872C41.9997 47.7106 41.9459 47.5559 41.919 47.3945C41.8921 47.2399 41.8988 47.0651 41.9257 46.8633C41.9593 46.6683 42.0198 46.4128 42.1207 46.1102L42.7662 44.0727C42.82 43.9114 42.8402 43.7903 42.8402 43.7029C42.8402 43.6222 42.8066 43.555 42.7461 43.5079C42.6855 43.4608 42.578 43.407 42.4233 43.3465L42.4636 43.2188C42.6452 43.2927 42.9209 43.3801 43.284 43.5012C43.6337 43.6088 43.9094 43.6895 44.1178 43.7433L44.0775 43.871C43.9161 43.8307 43.8018 43.8105 43.7211 43.8172C43.6404 43.8239 43.5799 43.8576 43.5261 43.9248C43.479 43.992 43.4252 44.1064 43.3714 44.2677L42.6923 46.4128C42.5847 46.7557 42.5174 47.0516 42.4905 47.2937C42.4636 47.5358 42.504 47.7509 42.6116 47.9392C42.7192 48.1275 42.9142 48.262 43.2033 48.3561C43.6606 48.5041 44.0304 48.457 44.3061 48.2216C44.5818 47.9863 44.8104 47.603 44.9785 47.0718L45.6173 45.0478C45.6711 44.8864 45.6913 44.7586 45.6779 44.6578C45.6711 44.5569 45.6308 44.4762 45.5568 44.4157C45.4829 44.3484 45.3753 44.2946 45.2273 44.2341L45.2677 44.1064C45.4223 44.1669 45.6375 44.2476 45.9199 44.335C46.1822 44.4157 46.3839 44.4762 46.5251 44.5098L46.4848 44.6376C46.3368 44.5972 46.2158 44.5838 46.1351 44.5972Z" fill="#4D4A4A"/>
<path d="M49.8066 50.2995C49.6923 50.3398 49.5444 50.3398 49.383 50.2995C49.2014 50.2524 49.067 50.165 48.9795 50.0305C48.8921 49.896 48.8518 49.6876 48.8518 49.4052L48.8719 48.7126C48.8787 48.4705 48.8719 48.2822 48.8585 48.1477C48.8451 48.0132 48.798 47.8989 48.724 47.7981C48.65 47.6972 48.529 47.6299 48.3609 47.5896L47.7355 47.4349L47.359 48.9479C47.3186 49.116 47.2985 49.2371 47.3119 49.3177C47.3186 49.3984 47.359 49.4657 47.4195 49.506C47.4867 49.5531 47.5943 49.6002 47.7557 49.6472L47.7221 49.7817C47.5204 49.7212 47.2447 49.6405 46.8883 49.5531C46.5117 49.459 46.2293 49.3917 46.041 49.3581L46.0746 49.2236C46.236 49.2572 46.3571 49.2707 46.431 49.2572C46.5117 49.2505 46.5722 49.2102 46.6193 49.1362C46.6664 49.0689 46.7067 48.9546 46.7471 48.7865L47.5674 45.5185C47.6078 45.3504 47.628 45.2294 47.6145 45.1487C47.6078 45.068 47.5674 45.0007 47.5069 44.9537C47.4397 44.9066 47.3321 44.8595 47.1707 44.8125L47.2043 44.678C47.3859 44.7385 47.6549 44.8125 48.0045 44.8999C48.1793 44.9402 48.3676 44.9873 48.5761 45.0344C48.7845 45.0814 48.9257 45.1151 49.0064 45.1352C49.3494 45.2226 49.6251 45.3437 49.8402 45.5051C50.0554 45.6664 50.1966 45.848 50.2773 46.0497C50.3513 46.2515 50.3647 46.4666 50.311 46.6818C50.2706 46.8567 50.1832 47.018 50.0622 47.1727C49.9344 47.3274 49.7596 47.4484 49.5377 47.5425C49.309 47.6299 49.0401 47.6636 48.7173 47.6299L48.798 47.6636C48.9863 47.7443 49.1342 47.8317 49.2351 47.9258C49.3359 48.02 49.4099 48.1343 49.4502 48.262C49.4906 48.3965 49.5108 48.5579 49.504 48.7596L49.4973 49.4724C49.4906 49.6136 49.4906 49.7279 49.504 49.8086C49.5108 49.8893 49.5309 49.9566 49.5646 50.0036C49.5982 50.0507 49.6385 50.0776 49.699 50.0978C49.773 50.1179 49.8402 50.1112 49.894 50.0843C49.9478 50.0574 50.0285 50.0104 50.1227 49.9364L50.2034 50.0372C50.0554 50.1717 49.9277 50.2592 49.8066 50.2995ZM48.9459 47.4417C49.1342 47.3879 49.2821 47.2937 49.3897 47.1458C49.4973 47.0046 49.5713 46.823 49.6318 46.5944C49.7192 46.2313 49.7058 45.9421 49.578 45.7135C49.4502 45.4849 49.1947 45.3235 48.8114 45.2294C48.6702 45.1957 48.5694 45.1823 48.4887 45.1957C48.4147 45.2092 48.3542 45.2563 48.3071 45.3235C48.26 45.3975 48.2197 45.5118 48.1793 45.6664L47.7759 47.287L48.2197 47.4013C48.5088 47.4887 48.7576 47.4955 48.9459 47.4417Z" fill="#4D4A4A"/>
<path d="M61.191 48.1409C61.2112 47.8786 61.2179 47.5828 61.2112 47.2734C61.5877 47.3138 62.2198 47.3743 63.1209 47.4415C64.0152 47.5088 64.6473 47.5491 65.0239 47.5693C64.9701 47.8921 64.9297 48.1745 64.9095 48.43C64.8894 48.6586 64.8826 48.8402 64.8894 48.9881L64.7347 48.9747C64.728 48.6183 64.7011 48.356 64.6607 48.1879C64.6204 48.0131 64.533 47.8853 64.4052 47.7979C64.2775 47.7105 64.069 47.6567 63.7933 47.6298L63.4235 47.6029L63.1276 51.4559C63.1142 51.6442 63.1209 51.7854 63.1478 51.8729C63.1747 51.9603 63.2352 52.0275 63.3293 52.0679C63.4167 52.1082 63.5647 52.1418 63.7664 52.162L63.753 52.2965C63.5176 52.2629 63.1814 52.236 62.7578 52.2023C62.3072 52.1687 61.971 52.1486 61.7558 52.1418L61.7693 52.0073C61.971 52.0141 62.119 52.0073 62.2131 51.9804C62.3072 51.9536 62.3745 51.8998 62.4215 51.8123C62.4619 51.7249 62.4888 51.5904 62.509 51.4022L62.8048 47.5491L62.435 47.5222C62.1526 47.5021 61.9441 47.5222 61.8029 47.5895C61.6617 47.6567 61.5541 47.771 61.4869 47.9391C61.4196 48.1005 61.3524 48.3628 61.2919 48.7057L61.1372 48.6923C61.1507 48.5511 61.1708 48.3695 61.191 48.1409Z" fill="#4D4A4A"/>
<path d="M69.1257 51.6376C69.119 51.8931 69.1257 52.1823 69.1458 52.505C68.8365 52.4849 68.3188 52.4647 67.5925 52.4445C66.7251 52.4176 66.0661 52.4109 65.6223 52.4109L65.629 52.2764C65.7904 52.2764 65.9115 52.263 65.9854 52.2361C66.0594 52.2092 66.1132 52.1554 66.1401 52.0814C66.167 52.0074 66.1872 51.8797 66.1939 51.7116L66.288 48.3427C66.2947 48.1746 66.2813 48.0468 66.2544 47.9728C66.2275 47.8922 66.1804 47.8384 66.1065 47.8115C66.0325 47.7778 65.9182 47.7577 65.7501 47.7509L65.7568 47.6165C66.2006 47.6434 66.8596 47.6635 67.727 47.6904C68.3927 47.7106 68.8634 47.7173 69.1458 47.7106C69.1055 48.0065 69.0853 48.2754 69.0786 48.5108C69.0719 48.6856 69.0786 48.8268 69.0853 48.9344L68.9307 48.9277C68.9038 48.6318 68.8702 48.4099 68.8231 48.2687C68.776 48.1208 68.6953 48.0199 68.581 47.9459C68.4667 47.8787 68.2851 47.8384 68.0498 47.8316L67.4849 47.8182C67.3236 47.8115 67.2025 47.8249 67.1286 47.8451C67.0546 47.872 67.0008 47.9191 66.9739 47.993C66.947 48.067 66.9268 48.188 66.9201 48.3629L66.873 49.9632L67.3236 49.9767C67.5522 49.9834 67.7068 49.9162 67.7808 49.7817C67.8615 49.6472 67.9086 49.5127 67.9288 49.3715C67.9489 49.2303 67.9624 49.1362 67.9758 49.0958L68.1305 49.1025C68.1103 49.3244 68.0969 49.5396 68.0901 49.7413L68.0834 50.0641C68.0767 50.2927 68.0834 50.6155 68.0969 51.0324L67.9422 51.0257C67.9355 50.9921 67.9288 50.8845 67.9153 50.6962C67.9019 50.5079 67.8413 50.3667 67.7405 50.2658C67.6396 50.165 67.4984 50.1179 67.3168 50.1112L66.8663 50.0977L66.8192 51.7317C66.8125 51.8998 66.826 52.0276 66.8529 52.1016C66.8798 52.1755 66.9268 52.2293 67.0008 52.263C67.0748 52.2898 67.1958 52.31 67.3572 52.31L67.8548 52.3235C68.1372 52.3302 68.3524 52.2966 68.5003 52.2293C68.6483 52.1554 68.7558 52.041 68.8298 51.8797C68.897 51.7183 68.9576 51.4762 69.0046 51.1534L69.1593 51.1602C69.1459 51.2678 69.1324 51.4291 69.1257 51.6376Z" fill="#4D4A4A"/>
<path d="M73.8864 52.1622C73.9267 52.2093 73.9738 52.2362 74.0208 52.2563C74.0679 52.2765 74.1284 52.2832 74.1957 52.29V52.4312C73.8864 52.4177 73.6913 52.4177 73.6107 52.4177C73.456 52.4244 73.14 52.4379 72.6558 52.4648L72.6491 52.3236C72.8239 52.3169 72.9517 52.3101 73.0256 52.29C73.0996 52.2765 73.1332 52.2429 73.1332 52.2025C73.1332 52.1689 73.1131 52.1286 73.0794 52.0815L71.8825 50.3265L71.1697 51.436C71.0016 51.6982 70.9209 51.8999 70.9209 52.0412C70.9209 52.1555 70.9747 52.2362 71.0823 52.2832C71.1832 52.3303 71.3378 52.3505 71.5328 52.3505V52.485C71.2773 52.4782 70.968 52.4782 70.6183 52.485C70.3695 52.4917 70.1745 52.4984 70.0401 52.5186V52.3841C70.1745 52.3639 70.3023 52.2967 70.4233 52.1958C70.5444 52.095 70.6654 51.9403 70.7932 51.7453L71.7884 50.192L70.4166 48.1814C70.3561 48.094 70.309 48.0267 70.262 47.9797C70.2216 47.9326 70.1745 47.9057 70.1275 47.8855C70.0804 47.8654 70.0199 47.8586 69.9526 47.8519V47.7107C70.262 47.7242 70.457 47.7242 70.5376 47.7242C70.8402 47.7174 71.163 47.704 71.4925 47.6771V47.8183C71.1899 47.825 71.042 47.8788 71.042 47.9797C71.042 48.0133 71.0621 48.0671 71.1025 48.1276L72.1918 49.7213L72.8374 48.7059C73.0256 48.41 73.1198 48.1881 73.1198 48.0469C73.1198 47.9528 73.0727 47.8855 72.9853 47.8452C72.8979 47.8048 72.7634 47.7847 72.5886 47.7847V47.6502C72.8441 47.6569 73.1063 47.6569 73.3686 47.6569C73.6174 47.6502 73.8057 47.6435 73.9469 47.6233V47.7578C73.8124 47.7779 73.6846 47.8452 73.5636 47.9528C73.4425 48.0604 73.3215 48.2083 73.1938 48.4033L72.2725 49.8423L73.725 51.9605C73.7922 52.0479 73.846 52.1151 73.8864 52.1622Z" fill="#4D4A4A"/>
<path d="M74.7 48.4571C74.6798 48.1948 74.6462 47.9057 74.5857 47.5964C74.9623 47.5829 75.6011 47.5426 76.5021 47.4821C77.3965 47.4215 78.0285 47.3677 78.4051 47.3274C78.3984 47.6502 78.4051 47.9393 78.4185 48.1948C78.432 48.4235 78.4522 48.605 78.4791 48.7462L78.3244 48.7597C78.2639 48.41 78.2034 48.1545 78.1361 47.9931C78.0689 47.825 77.968 47.7107 77.8268 47.6434C77.6856 47.5762 77.4771 47.5493 77.1947 47.5695L76.8249 47.5964L77.1006 51.4494C77.114 51.6377 77.1409 51.7722 77.1813 51.8596C77.2216 51.947 77.2889 52.0008 77.383 52.0277C77.4771 52.0546 77.6251 52.0613 77.8268 52.0546L77.8335 52.1891C77.5915 52.1958 77.262 52.2092 76.8383 52.2429C76.3878 52.2765 76.0516 52.3034 75.8364 52.337L75.8297 52.2025C76.0314 52.1823 76.1726 52.1487 76.2668 52.1084C76.3542 52.068 76.4147 52.0008 76.4483 51.9134C76.4752 51.826 76.4887 51.6847 76.4685 51.4965L76.1928 47.6434L75.823 47.6703C75.5405 47.6905 75.3388 47.7443 75.2043 47.8317C75.0766 47.9191 74.9892 48.0469 74.9488 48.2217C74.9085 48.3966 74.8816 48.6588 74.8681 49.0085L74.7135 49.0219C74.7202 48.8673 74.7135 48.6857 74.7 48.4571Z" fill="#4D4A4A"/>
<path d="M94.8191 44.3414C94.7586 44.3884 94.7183 44.4557 94.7115 44.5364C94.7048 44.6171 94.725 44.7448 94.7721 44.9062L95.6731 48.1541C95.7202 48.3154 95.7673 48.4365 95.8143 48.5037C95.8614 48.571 95.9219 48.6113 96.0026 48.618C96.0833 48.6248 96.1976 48.6113 96.359 48.5777L96.3926 48.7054C96.2111 48.7458 95.9286 48.813 95.5521 48.9206C95.2024 49.0148 94.9267 49.1022 94.725 49.1694L94.6914 49.0349C94.846 48.9879 94.9603 48.9341 95.0209 48.887C95.0814 48.8399 95.1217 48.7727 95.1285 48.692C95.1352 48.6113 95.115 48.4835 95.0679 48.3222L94.6308 46.7487L92.4992 47.3404L92.9363 48.9139C92.9834 49.0753 93.0305 49.1963 93.0775 49.2636C93.1246 49.3308 93.1851 49.3712 93.2658 49.3779C93.3465 49.3846 93.4675 49.3712 93.6222 49.3375L93.6558 49.4653C93.4541 49.5056 93.1717 49.5796 92.8153 49.6737C92.4387 49.7746 92.163 49.862 91.9815 49.9225L91.9478 49.7881C92.1025 49.741 92.2168 49.6872 92.2773 49.6401C92.3379 49.5931 92.3782 49.5258 92.3849 49.4451C92.3917 49.3644 92.3715 49.2434 92.3244 49.0753L91.4234 45.8274C91.3763 45.6661 91.3292 45.545 91.2821 45.4778C91.2351 45.4105 91.1746 45.3702 91.0939 45.3635C91.0132 45.3567 90.8989 45.3702 90.7375 45.4105L90.7039 45.2828C90.8854 45.2424 91.1678 45.1752 91.5444 45.0676C91.9008 44.9667 92.1765 44.886 92.3715 44.8188L92.4051 44.9466C92.2504 44.9936 92.1361 45.0474 92.0756 45.0945C92.0151 45.1416 91.9747 45.2088 91.968 45.2895C91.9613 45.3702 91.9815 45.498 92.0285 45.6593L92.4522 47.2059L94.5838 46.6142L94.1534 45.0676C94.1063 44.9062 94.0593 44.7852 94.0122 44.7179C93.9651 44.6507 93.9046 44.6103 93.8239 44.6036C93.7432 44.5969 93.6289 44.6103 93.4675 44.6507L93.4339 44.5229C93.6424 44.4759 93.9181 44.4086 94.2677 44.3145C94.6443 44.2136 94.92 44.1262 95.1015 44.0657L95.1352 44.1934C94.994 44.2472 94.8864 44.2943 94.8191 44.3414Z" fill="#4D4A4A"/>
<path d="M100.447 46.3989C100.528 46.641 100.642 46.91 100.777 47.2058C100.481 47.2932 99.9902 47.4546 99.2976 47.6967C98.4772 47.9791 97.8586 48.201 97.4417 48.3624L97.3946 48.2347C97.5492 48.1741 97.6568 48.1203 97.7173 48.0665C97.7779 48.0128 97.8115 47.9455 97.8115 47.8648C97.8115 47.7841 97.7846 47.6631 97.7308 47.5017L96.628 44.3144C96.5742 44.153 96.5204 44.0387 96.4666 43.9782C96.4128 43.9109 96.3523 43.8773 96.2716 43.8773C96.1909 43.8773 96.0766 43.8975 95.9152 43.9445L95.8682 43.8168C96.2918 43.6823 96.9172 43.4738 97.7375 43.1914C98.3696 42.9762 98.8134 42.8149 99.0757 42.7073C99.1429 42.9964 99.2169 43.2587 99.2976 43.4806C99.3581 43.6487 99.4051 43.7764 99.4522 43.8706L99.3043 43.9244C99.1765 43.6554 99.0622 43.4671 98.9681 43.3461C98.8739 43.225 98.7596 43.1578 98.6251 43.1309C98.4906 43.1107 98.3091 43.1376 98.0872 43.2116L97.556 43.3932C97.4013 43.4469 97.2937 43.5007 97.2332 43.5478C97.1727 43.5949 97.1391 43.6621 97.1391 43.7428C97.1391 43.8235 97.166 43.9445 97.2198 44.1059L97.7443 45.6189L98.1679 45.471C98.3831 45.397 98.5041 45.2827 98.531 45.128C98.5579 44.9734 98.5579 44.8254 98.5243 44.6909C98.4974 44.5497 98.4772 44.4623 98.4705 44.422L98.6184 44.3682C98.6789 44.5834 98.7394 44.7918 98.8067 44.9801L98.9143 45.2894C98.9882 45.5046 99.1093 45.8072 99.2707 46.1905L99.1227 46.2443C99.1093 46.2174 99.0622 46.1165 98.9815 45.9484C98.9008 45.7803 98.7932 45.666 98.6655 45.6054C98.5377 45.5449 98.3898 45.5517 98.2149 45.6122L97.7913 45.7601L98.3293 47.3C98.3831 47.4614 98.4369 47.5757 98.4906 47.6362C98.5444 47.6967 98.605 47.7303 98.6856 47.7303C98.7663 47.7303 98.8807 47.7034 99.0353 47.6496L99.506 47.4883C99.775 47.3941 99.9633 47.2865 100.078 47.1722C100.192 47.0512 100.252 46.9032 100.259 46.7284C100.266 46.5536 100.232 46.3048 100.165 45.9887L100.313 45.9349C100.333 46.0493 100.38 46.2039 100.447 46.3989Z" fill="#4D4A4A"/>
<path d="M105.423 45.2965C105.356 45.3974 105.242 45.4848 105.08 45.552C104.912 45.626 104.751 45.6327 104.596 45.5789C104.442 45.5251 104.287 45.3839 104.126 45.1553L103.729 44.5904C103.588 44.3954 103.473 44.2475 103.379 44.1466C103.285 44.0458 103.177 43.9785 103.063 43.9516C102.942 43.918 102.808 43.9382 102.653 43.9987L102.054 44.2475L102.66 45.6865C102.727 45.8412 102.787 45.9555 102.841 46.016C102.895 46.0765 102.962 46.1034 103.043 46.1034C103.124 46.1034 103.238 46.0698 103.393 46.016L103.446 46.1438C103.251 46.211 102.982 46.3186 102.639 46.4598C102.283 46.6077 102.014 46.7288 101.846 46.8162L101.792 46.6884C101.94 46.6212 102.041 46.5539 102.102 46.5001C102.155 46.4464 102.182 46.3791 102.182 46.2917C102.176 46.211 102.142 46.09 102.075 45.9353L100.77 42.8287C100.703 42.674 100.642 42.5597 100.589 42.4992C100.535 42.4387 100.468 42.4118 100.387 42.4118C100.306 42.4118 100.192 42.4454 100.037 42.4992L99.9834 42.3714C100.165 42.3109 100.42 42.21 100.757 42.0688C100.918 42.0016 101.1 41.9209 101.295 41.8335C101.49 41.7461 101.624 41.6855 101.698 41.6586C102.028 41.5242 102.323 41.4502 102.586 41.4502C102.855 41.4502 103.077 41.5107 103.258 41.625C103.44 41.7393 103.574 41.9007 103.662 42.1092C103.729 42.2706 103.762 42.4521 103.756 42.6538C103.749 42.8489 103.682 43.0573 103.554 43.2658C103.426 43.4742 103.225 43.6625 102.949 43.8306L103.03 43.8104C103.231 43.7634 103.399 43.7432 103.541 43.7634C103.682 43.7768 103.803 43.8239 103.917 43.9046C104.031 43.9853 104.146 44.1063 104.26 44.2677L104.684 44.8392C104.764 44.9536 104.832 45.0477 104.892 45.1082C104.953 45.1687 105.006 45.2091 105.06 45.2293C105.114 45.2494 105.168 45.2427 105.222 45.2225C105.289 45.1956 105.343 45.1486 105.37 45.0948C105.396 45.041 105.43 44.9536 105.464 44.8392L105.591 44.8661C105.544 45.0477 105.491 45.1889 105.423 45.2965ZM103.023 43.528C103.144 43.3733 103.204 43.2052 103.204 43.0304C103.204 42.8556 103.157 42.6606 103.07 42.4454C102.929 42.1025 102.734 41.8806 102.498 41.773C102.263 41.6654 101.96 41.6923 101.591 41.8469C101.463 41.9007 101.369 41.9545 101.315 42.015C101.261 42.0688 101.241 42.1428 101.248 42.2302C101.254 42.3176 101.288 42.4319 101.355 42.5799L102.001 44.1197L102.424 43.9449C102.7 43.8239 102.902 43.6827 103.023 43.528Z" fill="#4D4A4A"/>
<path d="M109.095 42.5195C109.209 42.7481 109.357 43.0036 109.525 43.2726C109.243 43.4003 108.779 43.629 108.127 43.9517C107.347 44.3417 106.768 44.6443 106.372 44.8528L106.311 44.7317C106.452 44.6511 106.553 44.5838 106.607 44.5233C106.661 44.4628 106.681 44.3955 106.674 44.3148C106.661 44.2342 106.62 44.1198 106.546 43.9652L105.033 40.9527C104.959 40.798 104.892 40.6972 104.832 40.6366C104.771 40.5829 104.704 40.556 104.623 40.5627C104.542 40.5694 104.428 40.6098 104.28 40.677L104.22 40.556C104.623 40.3677 105.215 40.0785 105.988 39.6885C106.58 39.3927 107.004 39.1708 107.246 39.0295C107.353 39.3052 107.461 39.554 107.562 39.7692C107.642 39.9306 107.71 40.0516 107.77 40.1391L107.629 40.2063C107.468 39.9575 107.333 39.7827 107.225 39.6751C107.118 39.5675 106.997 39.5137 106.862 39.507C106.728 39.5002 106.553 39.554 106.338 39.6616L105.834 39.9171C105.686 39.9911 105.585 40.0584 105.531 40.1122C105.477 40.1659 105.457 40.2399 105.464 40.3206C105.47 40.4013 105.518 40.5156 105.591 40.6703L106.311 42.1025L106.714 41.9008C106.916 41.8 107.024 41.6722 107.03 41.5175C107.037 41.3629 107.017 41.2149 106.97 41.0805C106.923 40.946 106.889 40.8585 106.876 40.8182L107.017 40.751C107.104 40.9594 107.192 41.1544 107.286 41.336L107.434 41.6251C107.535 41.8336 107.696 42.1093 107.905 42.4724L107.763 42.5396C107.743 42.5127 107.683 42.4253 107.582 42.2639C107.481 42.1025 107.36 42.0084 107.225 41.9681C107.091 41.9277 106.943 41.9479 106.775 42.0286L106.372 42.2303L107.104 43.6895C107.178 43.8441 107.246 43.945 107.306 43.9988C107.367 44.0526 107.434 44.0795 107.515 44.066C107.595 44.0593 107.703 44.0122 107.851 43.9383L108.295 43.7164C108.55 43.5886 108.725 43.4609 108.819 43.3264C108.913 43.1919 108.96 43.0372 108.94 42.8624C108.927 42.6876 108.86 42.4455 108.745 42.1429L108.886 42.0756C108.94 42.1832 109.007 42.3312 109.095 42.5195Z" fill="#4D4A4A"/>
<path d="M56.2284 48.6116C55.2938 48.6116 55.287 50.0707 56.2284 50.0707C57.1698 50.0707 57.1698 48.6116 56.2284 48.6116Z" fill="#4D4A4A"/>
<path d="M84.8739 48.1272C83.9393 48.1272 83.9325 49.5864 84.8739 49.5864C85.8086 49.5796 85.8153 48.1272 84.8739 48.1272Z" fill="#4D4A4A"/>
<path d="M0.396484 31.202C6.15249 31.1011 11.9018 31.0608 17.6578 30.9868L34.9191 30.8658C46.4243 30.7918 57.9296 30.7985 69.4416 30.7649L103.964 30.8658L121.225 30.9868C126.981 31.0608 132.731 31.1011 138.487 31.202C132.731 31.3028 126.981 31.3432 121.225 31.4172L103.964 31.5382L69.4416 31.6391C57.9363 31.6054 46.4311 31.6122 34.9191 31.5382L17.6578 31.4172C11.9018 31.3432 6.15249 31.2961 0.396484 31.202Z" fill="#4D4A4A"/>
<path d="M0.396484 29.4337C6.15249 29.3328 11.9018 29.2925 17.6578 29.2185L34.9191 29.0974C46.4243 29.0235 57.9296 29.0302 69.4416 28.9966L103.964 29.0974L121.225 29.2185C126.981 29.2925 132.731 29.3328 138.487 29.4337C132.731 29.5345 126.981 29.5749 121.225 29.6488L103.964 29.7699L69.4416 29.8707C57.9363 29.8371 46.4311 29.8438 34.9191 29.7699L17.6578 29.6488C11.9018 29.5749 6.15249 29.5345 0.396484 29.4337Z" fill="#4D4A4A"/>
</g>
<defs>
<clipPath id="clip0_1287_3687">
<rect width="138.084" height="70" fill="white" transform="translate(0.396484)"/>
</clipPath>
</defs>
</svg>
